<?xml version="1.0" encoding="utf-8"?>
<!-- Generator: Adobe Illustrator 19.2.0, SVG Export Plug-In . SVG Version: 6.00 Build 0)  -->
<svg version="1.1" id="Layer_1" xmlns="http://www.w3.org/2000/svg" xmlns:xlink="http://www.w3.org/1999/xlink" x="0px" y="0px"
	 viewBox="0 0 410.8 479" style="enable-background:new 0 0 410.8 479;" xml:space="preserve">
<g>
	<g>
		<path d="M205.8,479.2C137.6,439.3,69.4,399.4,1,359.4C1,279.7,1,200,1,119.8C69.2,80.1,137.6,40.2,206.3,0.2
			C272.9,39,339.5,77.8,406.1,116.5c1.8,1.1,3.8,1.8,5.8,2.6c0,80.3,0,160.7,0,241c-68.3,39.7-136.7,79.3-205,119
			C206.5,479.2,206.2,479.2,205.8,479.2z M401.7,125.5c-65.3-38-130.2-75.9-195.4-113.9C141.2,49.6,76,87.6,11,125.5
			c0,76.2,0,152.2,0,228.3c65.1,38,130.2,75.9,195.4,113.9c65.4-38.1,130.5-76,195.4-113.9C401.7,277.5,401.7,201.7,401.7,125.5z"/>
	</g>
</g>
</svg>
