<svg xmlns="http://www.w3.org/2000/svg" viewBox="0 0 576 512"><defs><style>.cls-1{fill:#fff;}</style></defs><title>icon-chat</title><g id="Layer_2" data-name="Layer 2"><g id="Layer_1-2" data-name="Layer 1"><path class="cls-1" d="M240,0h0C372.55,0,480,87,480,194.22S372.55,388.45,240,388.45a297.64,297.64,0,0,1-37.42-2.36C151,437.44,91.5,446.65,32,448V435.43c32.13-15.68,58-44.23,58-76.87a89.82,89.82,0,0,0-1-13.4c-54.28-35.61-89-90-89-150.95C0,87,107.45,0,240,0ZM498,435.34c0,28,18.16,52.45,46,65.89V512c-51.56-1.16-98.89-9.05-143.57-53.06A260.86,260.86,0,0,1,368,461c-47.73,0-91.7-12.88-126.81-34.52,72.34-.25,140.63-23.43,192.42-65.34,26.11-21.13,46.7-45.91,61.21-73.67A199.44,199.44,0,0,0,518,194.22c0-5.22-.22-10.42-.63-15.58,36.29,30,58.63,70.81,58.63,115.84,0,52.24-30.08,98.86-77.12,129.38A76,76,0,0,0,498,435.34Z"/></g></g></svg>