<?xml version="1.0" encoding="utf-8"?>
<!-- Generator: Adobe Illustrator 19.2.0, SVG Export Plug-In . SVG Version: 6.00 Build 0)  -->
<svg version="1.1" id="Layer_1" xmlns="http://www.w3.org/2000/svg" xmlns:xlink="http://www.w3.org/1999/xlink" x="0px" y="0px"
	 viewBox="0 0 122 244" style="enable-background:new 0 0 122 244;" xml:space="preserve">
<style type="text/css">
	.st0{display:none;}
	.st1{display:inline;}
	.st2{fill:#9B9B9B;}
	.st3{fill:#FFFFFF;}
	.st4{fill:#9966CC;}
</style>
<g id="Layer_2">
</g>
<g id="tw" class="st0">
	<g class="st1">
		<g>
			<path class="st2" d="M-457.5,633.9c7.2,0.7,13.6-1.1,19.4-5.5c-3.8-0.2-6.8-1.6-9.3-4.2c-1.4-1.5-2.7-3.7-2.9-5
				c1.8,0.2,3.7,0.3,5.5-0.3c-3-0.8-5.5-2.3-7.4-4.7s-2.8-5.2-2.9-8.3c1.9,0.9,3.7,1.5,5.9,1.6c-3.5-2.6-5.4-5.9-5.8-10.1
				c-0.2-2.7,0.4-5.2,1.7-7.5c7.2,8.4,16.1,13,27.2,13.8c-0.4-1.9-0.5-3.8-0.1-5.6c1.1-5,4.1-8.4,8.9-10s9.2-0.5,13,2.9
				c0.5,0.5,0.9,0.6,1.6,0.4c2.4-0.6,4.8-1.5,7-2.7c0.1,0,0.2-0.1,0.4-0.2c-1,3.1-2.9,5.3-5.4,7.1c2.4-0.2,4.8-0.9,7-1.8
				c0,0.1,0.1,0.1,0.1,0.2c-1,1.2-1.9,2.4-3,3.5c-0.9,0.9-1.9,1.8-2.9,2.6c-0.4,0.3-0.6,0.7-0.6,1.2c0,11.5-4.1,21.3-12.6,29.2
				c-5.5,5.1-12.1,8-19.5,8.9c-8.8,1.2-17.1-0.4-24.7-5C-456.9,634.3-457.1,634.1-457.5,633.9z"/>
		</g>
	</g>
	<g class="st1">
		<g>
			<path class="st3" d="M-458.1,756.4c7.2,0.7,13.6-1.1,19.4-5.5c-3.8-0.2-6.8-1.6-9.3-4.2c-1.4-1.5-2.7-3.7-2.9-5
				c1.8,0.2,3.7,0.3,5.5-0.3c-3-0.8-5.5-2.3-7.4-4.7s-2.8-5.2-2.9-8.3c1.9,0.9,3.7,1.5,5.9,1.6c-3.5-2.6-5.5-5.9-5.8-10.1
				c-0.2-2.7,0.4-5.2,1.7-7.5c7.2,8.4,16.1,13,27.2,13.8c-0.4-1.9-0.5-3.8-0.1-5.6c1.1-5,4.1-8.4,8.9-10s9.2-0.5,13,2.9
				c0.5,0.5,0.9,0.6,1.6,0.4c2.4-0.6,4.8-1.5,7-2.7c0.1,0,0.2-0.1,0.4-0.2c-1,3.1-2.9,5.3-5.4,7.1c2.4-0.2,4.8-0.9,7-1.8
				c0,0.1,0.1,0.1,0.1,0.2c-1,1.2-1.9,2.4-3,3.5c-0.9,0.9-1.9,1.8-2.9,2.6c-0.4,0.3-0.6,0.7-0.6,1.2c0,11.5-4.1,21.3-12.6,29.2
				c-5.5,5.1-12.1,8-19.5,8.9c-8.8,1.2-17.1-0.4-24.7-5C-457.4,756.8-457.7,756.6-458.1,756.4z"/>
		</g>
	</g>
</g>
<g id="Layer_3">
	<g id="_x23_020201ff">
		<path class="st3" d="M55.6,35.1c2.2-2.1,5.4-2.9,8.5-3c3.2,0,6.4,0,9.6,0c0,3.4,0,6.7,0,10.1c-2.1,0-4.1,0-6.2,0
			c-1.3-0.1-2.6,0.9-2.9,2.2c0,2.3,0,4.5,0,6.8c3,0,6,0,9.1,0c-0.2,3.3-0.6,6.5-1.1,9.7c-2.7,0-5.3,0-8,0c0,9.6,0,19.2,0,28.8
			c-4,0-7.9,0-11.9,0c-0.1-9.6,0-19.2,0-28.8c-1.9,0-3.9,0-5.8,0c0-3.2,0-6.5,0-9.7c1.9,0,3.9,0,5.8,0c0.1-3.1-0.1-6.3,0.1-9.4
			C52.8,39.3,53.8,36.8,55.6,35.1z"/>
	</g>
	<g id="_x23_020201ff_1_">
		<path class="st4" d="M56.9,157.3c2.2-2.1,5.4-2.9,8.5-3c3.2,0,6.4,0,9.6,0c0,3.4,0,6.7,0,10.1c-2.1,0-4.1,0-6.2,0
			c-1.3-0.1-2.6,0.9-2.9,2.2c0,2.3,0,4.5,0,6.8c3,0,6,0,9.1,0c-0.2,3.3-0.6,6.5-1.1,9.7c-2.7,0-5.3,0-8,0c0,9.6,0,19.2,0,28.8
			c-4,0-7.9,0-11.9,0c-0.1-9.6,0-19.2,0-28.8c-1.9,0-3.9,0-5.8,0c0-3.2,0-6.5,0-9.7c1.9,0,3.9,0,5.8,0c0.1-3.1-0.1-6.3,0.1-9.4
			C54.1,161.5,55.1,159,56.9,157.3z"/>
	</g>
</g>
<g id="Layer_4" class="st0">
	<g class="st1">
		<path class="st2" d="M-430.9,621.4c-0.6,2.2-1.2,4.3-1.6,6.4c-1,4.7-3.2,8.7-6,12.5c-0.2,0.3-0.6,0.8-0.9,0.8
			c-0.6,0-0.4-0.7-0.4-1.1c-0.7-4.9-0.4-9.7,0.8-14.5c1.3-4.8,2.3-9.7,3.4-14.5c0.1-0.3,0-0.7-0.1-1c-1-2.9-1.2-5.8-0.1-8.7
			c0.5-1.3,1.2-2.4,2.3-3.2c0.9-0.8,2-1.2,3.3-1.2c2.3,0,4,1.4,4.4,3.7c0.3,1.8-0.1,3.4-0.6,5.1c-0.7,2.4-1.4,4.8-2.1,7.2
			c-1.3,4.4,2.4,7.7,6.7,6.6c1.9-0.5,3.3-1.6,4.5-3c1.8-2.1,2.8-4.6,3.4-7.3c0.7-3,1.1-6,0.6-9c-0.8-5.4-4-8.7-9.2-9.9
			c-5.1-1.2-9.9-0.5-14.2,2.7c-5.4,4-7,10.9-5.8,15.5c0.3,1.3,0.9,2.5,1.8,3.4c0.5,0.6,0.7,1.2,0.4,2c-0.2,0.8-0.4,1.6-0.6,2.3
			c-0.3,1-0.9,1.3-1.9,0.9c-2.9-1.3-4.7-3.5-5.6-6.5c-2-6.3-0.9-12.2,3.1-17.5c3.6-4.8,8.5-7.5,14.3-8.5c4.2-0.7,8.4-0.7,12.4,0.8
			c6.7,2.3,11.1,6.8,12.9,13.8c0.7,2.8,0.5,5.7,0.1,8.6c-0.6,4-1.9,7.8-4.4,11.1c-3.2,4.2-7.5,6.5-12.8,6.6
			C-426,625.3-428.8,624.1-430.9,621.4z"/>
	</g>
	<g class="st1">
		<path class="st3" d="M-430.6,740c-0.6,2.2-1.2,4.3-1.6,6.4c-1,4.7-3.2,8.7-6,12.5c-0.2,0.3-0.6,0.8-0.9,0.8
			c-0.6,0-0.4-0.7-0.4-1.1c-0.7-4.9-0.4-9.7,0.8-14.5c1.3-4.8,2.3-9.7,3.4-14.5c0.1-0.3,0-0.7-0.1-1c-1-2.9-1.2-5.8-0.1-8.7
			c0.5-1.3,1.2-2.4,2.3-3.2c0.9-0.8,2-1.2,3.3-1.2c2.3,0,4,1.4,4.4,3.7c0.3,1.8-0.1,3.4-0.6,5.1c-0.7,2.4-1.4,4.8-2.1,7.2
			c-1.3,4.4,2.4,7.7,6.7,6.6c1.9-0.5,3.3-1.6,4.5-3c1.8-2.1,2.8-4.6,3.4-7.3c0.7-3,1.1-6,0.6-9c-0.8-5.4-4-8.7-9.2-9.9
			c-5.1-1.2-9.9-0.5-14.2,2.6c-5.4,4-7,10.9-5.8,15.5c0.3,1.3,0.9,2.5,1.8,3.4c0.5,0.6,0.7,1.2,0.4,2c-0.2,0.8-0.4,1.6-0.6,2.3
			c-0.3,1-0.9,1.3-1.9,0.9c-2.9-1.3-4.7-3.5-5.6-6.5c-2-6.3-0.9-12.2,3.1-17.5c3.6-4.8,8.5-7.5,14.3-8.5c4.2-0.7,8.4-0.7,12.4,0.8
			c6.7,2.3,11.1,6.8,12.9,13.8c0.7,2.8,0.5,5.7,0.1,8.6c-0.6,4-1.9,7.8-4.4,11.1c-3.2,4.2-7.5,6.5-12.8,6.6
			C-425.8,744-428.6,742.8-430.6,740z"/>
	</g>
</g>
</svg>
