<?xml version="1.0" encoding="utf-8"?>
<!-- Generator: Adobe Illustrator 19.2.0, SVG Export Plug-In . SVG Version: 6.00 Build 0)  -->
<svg version="1.1" id="Layer_1" xmlns="http://www.w3.org/2000/svg" xmlns:xlink="http://www.w3.org/1999/xlink" x="0px" y="0px"
	 viewBox="0 0 122 244" style="enable-background:new 0 0 122 244;" xml:space="preserve">
<style type="text/css">
	.st0{fill:#FFFFFF;}
	.st1{fill:#9966CC;}
</style>
<g id="Layer_2">
</g>
<g id="Layer_1_1_">
	<g>
		<g>
			<path class="st0" d="M29.4,81.1c7.2,0.7,13.6-1.1,19.4-5.5C45,75.4,42,74,39.5,71.4c-1.4-1.5-2.7-3.7-2.9-5
				c1.8,0.2,3.7,0.3,5.5-0.3c-3-0.8-5.5-2.3-7.4-4.7s-2.8-5.2-2.9-8.3c1.9,0.9,3.7,1.5,5.9,1.6c-3.5-2.6-5.4-5.9-5.8-10.1
				c-0.2-2.7,0.4-5.2,1.7-7.5c7.2,8.4,16.1,13,27.2,13.8c-0.4-1.9-0.5-3.8-0.1-5.6c1.1-5,4.1-8.4,8.9-10c4.8-1.6,9.2-0.5,13,2.9
				c0.5,0.5,0.9,0.6,1.6,0.4c2.4-0.6,4.8-1.5,7-2.7c0.1,0,0.2-0.1,0.4-0.2c-1,3.1-2.9,5.3-5.4,7.1c2.4-0.2,4.8-0.9,7-1.8
				c0,0.1,0.1,0.1,0.1,0.2c-1,1.2-1.9,2.4-3,3.5c-0.9,0.9-1.9,1.8-2.9,2.6c-0.4,0.3-0.6,0.7-0.6,1.2c0,11.5-4.1,21.3-12.6,29.2
				c-5.5,5.1-12.1,8-19.5,8.9c-8.8,1.2-17.1-0.4-24.7-5C30,81.5,29.7,81.3,29.4,81.1z"/>
		</g>
	</g>
	<g>
		<g>
			<path class="st1" d="M28.7,203.6c7.2,0.7,13.6-1.1,19.4-5.5c-3.8-0.2-6.8-1.6-9.3-4.2c-1.4-1.5-2.7-3.7-2.9-5
				c1.8,0.2,3.7,0.3,5.5-0.3c-3-0.8-5.5-2.3-7.4-4.7s-2.8-5.2-2.9-8.3c1.9,0.9,3.7,1.5,5.9,1.6c-3.5-2.6-5.5-5.9-5.8-10.1
				c-0.2-2.7,0.4-5.2,1.7-7.5c7.2,8.4,16.1,13,27.2,13.8c-0.4-1.9-0.5-3.8-0.1-5.6c1.1-5,4.1-8.4,8.9-10s9.2-0.5,13,2.9
				c0.5,0.5,0.9,0.6,1.6,0.4c2.4-0.6,4.8-1.5,7-2.7c0.1,0,0.2-0.1,0.4-0.2c-1,3.1-2.9,5.3-5.4,7.1c2.4-0.2,4.8-0.9,7-1.8
				c0,0.1,0.1,0.1,0.1,0.2c-1,1.2-1.9,2.4-3,3.5c-0.9,0.9-1.9,1.8-2.9,2.6c-0.4,0.3-0.6,0.7-0.6,1.2c0,11.5-4.1,21.3-12.6,29.2
				c-5.5,5.1-12.1,8-19.5,8.9c-8.8,1.2-17.1-0.4-24.7-5C29.5,204,29.2,203.8,28.7,203.6z"/>
		</g>
	</g>
</g>
</svg>
