<?xml version="1.0" encoding="utf-8"?>
<!-- Generator: Adobe Illustrator 19.2.0, SVG Export Plug-In . SVG Version: 6.00 Build 0)  -->
<svg version="1.1" id="Layer_1" xmlns="http://www.w3.org/2000/svg" xmlns:xlink="http://www.w3.org/1999/xlink" x="0px" y="0px"
	 viewBox="0 0 122 244" style="enable-background:new 0 0 122 244;" xml:space="preserve">
<style type="text/css">
	.st0{display:none;}
	.st1{display:inline;}
	.st2{fill:#9B9B9B;}
	.st3{fill:#FFFFFF;}
	.st4{fill:#9966CC;}
</style>
<g id="Layer_2">
</g>
<g id="tw" class="st0">
	<g class="st1">
		<g>
			<path class="st2" d="M-457.5,633.9c7.2,0.7,13.6-1.1,19.4-5.5c-3.8-0.2-6.8-1.6-9.3-4.2c-1.4-1.5-2.7-3.7-2.9-5
				c1.8,0.2,3.7,0.3,5.5-0.3c-3-0.8-5.5-2.3-7.4-4.7s-2.8-5.2-2.9-8.3c1.9,0.9,3.7,1.5,5.9,1.6c-3.5-2.6-5.4-5.9-5.8-10.1
				c-0.2-2.7,0.4-5.2,1.7-7.5c7.2,8.4,16.1,13,27.2,13.8c-0.4-1.9-0.5-3.8-0.1-5.6c1.1-5,4.1-8.4,8.9-10s9.2-0.5,13,2.9
				c0.5,0.5,0.9,0.6,1.6,0.4c2.4-0.6,4.8-1.5,7-2.7c0.1,0,0.2-0.1,0.4-0.2c-1,3.1-2.9,5.3-5.4,7.1c2.4-0.2,4.8-0.9,7-1.8
				c0,0.1,0.1,0.1,0.1,0.2c-1,1.2-1.9,2.4-3,3.5c-0.9,0.9-1.9,1.8-2.9,2.6c-0.4,0.3-0.6,0.7-0.6,1.2c0,11.5-4.1,21.3-12.6,29.2
				c-5.5,5.1-12.1,8-19.5,8.9c-8.8,1.2-17.1-0.4-24.7-5C-456.9,634.3-457.1,634.1-457.5,633.9z"/>
		</g>
	</g>
	<g class="st1">
		<g>
			<path class="st3" d="M-458.1,756.4c7.2,0.7,13.6-1.1,19.4-5.5c-3.8-0.2-6.8-1.6-9.3-4.2c-1.4-1.5-2.7-3.7-2.9-5
				c1.8,0.2,3.7,0.3,5.5-0.3c-3-0.8-5.5-2.3-7.4-4.7s-2.8-5.2-2.9-8.3c1.9,0.9,3.7,1.5,5.9,1.6c-3.5-2.6-5.5-5.9-5.8-10.1
				c-0.2-2.7,0.4-5.2,1.7-7.5c7.2,8.4,16.1,13,27.2,13.8c-0.4-1.9-0.5-3.8-0.1-5.6c1.1-5,4.1-8.4,8.9-10s9.2-0.5,13,2.9
				c0.5,0.5,0.9,0.6,1.6,0.4c2.4-0.6,4.8-1.5,7-2.7c0.1,0,0.2-0.1,0.4-0.2c-1,3.1-2.9,5.3-5.4,7.1c2.4-0.2,4.8-0.9,7-1.8
				c0,0.1,0.1,0.1,0.1,0.2c-1,1.2-1.9,2.4-3,3.5c-0.9,0.9-1.9,1.8-2.9,2.6c-0.4,0.3-0.6,0.7-0.6,1.2c0,11.5-4.1,21.3-12.6,29.2
				c-5.5,5.1-12.1,8-19.5,8.9c-8.8,1.2-17.1-0.4-24.7-5C-457.4,756.8-457.7,756.6-458.1,756.4z"/>
		</g>
	</g>
</g>
<g id="Layer_3" class="st0">
	<g id="_x23_020201ff" class="st1">
		<path class="st2" d="M-433.4,585.1c2.2-2.1,5.4-2.9,8.5-3c3.2,0,6.4,0,9.6,0c0,3.4,0,6.7,0,10.1c-2.1,0-4.1,0-6.2,0
			c-1.3-0.1-2.6,0.9-2.9,2.2c0,2.3,0,4.5,0,6.8c3,0,6,0,9.1,0c-0.2,3.3-0.6,6.5-1.1,9.7c-2.7,0-5.3,0-8,0c0,9.6,0,19.2,0,28.8
			c-4,0-7.9,0-11.9,0c-0.1-9.6,0-19.2,0-28.8c-1.9,0-3.9,0-5.8,0c0-3.2,0-6.5,0-9.7c1.9,0,3.9,0,5.8,0c0.1-3.1-0.1-6.3,0.1-9.4
			C-436.2,589.3-435.2,586.8-433.4,585.1z"/>
	</g>
	<g id="_x23_020201ff_1_" class="st1">
		<path class="st3" d="M-432.1,707.3c2.2-2.1,5.4-2.9,8.5-3c3.2,0,6.4,0,9.6,0c0,3.4,0,6.7,0,10.1c-2.1,0-4.1,0-6.2,0
			c-1.3-0.1-2.6,0.9-2.9,2.2c0,2.3,0,4.5,0,6.8c3,0,6,0,9.1,0c-0.2,3.3-0.6,6.5-1.1,9.7c-2.7,0-5.3,0-8,0c0,9.6,0,19.2,0,28.8
			c-4,0-7.9,0-11.9,0c-0.1-9.6,0-19.2,0-28.8c-1.9,0-3.9,0-5.8,0c0-3.2,0-6.5,0-9.7c1.9,0,3.9,0,5.8,0c0.1-3.1-0.1-6.3,0.1-9.4
			C-434.9,711.5-433.9,709-432.1,707.3z"/>
	</g>
</g>
<g id="Layer_4" class="st0">
	<g class="st1">
		<path class="st2" d="M-430.9,621.4c-0.6,2.2-1.2,4.3-1.6,6.4c-1,4.7-3.2,8.7-6,12.5c-0.2,0.3-0.6,0.8-0.9,0.8
			c-0.6,0-0.4-0.7-0.4-1.1c-0.7-4.9-0.4-9.7,0.8-14.5c1.3-4.8,2.3-9.7,3.4-14.5c0.1-0.3,0-0.7-0.1-1c-1-2.9-1.2-5.8-0.1-8.7
			c0.5-1.3,1.2-2.4,2.3-3.2c0.9-0.8,2-1.2,3.3-1.2c2.3,0,4,1.4,4.4,3.7c0.3,1.8-0.1,3.4-0.6,5.1c-0.7,2.4-1.4,4.8-2.1,7.2
			c-1.3,4.4,2.4,7.7,6.7,6.6c1.9-0.5,3.3-1.6,4.5-3c1.8-2.1,2.8-4.6,3.4-7.3c0.7-3,1.1-6,0.6-9c-0.8-5.4-4-8.7-9.2-9.9
			c-5.1-1.2-9.9-0.5-14.2,2.7c-5.4,4-7,10.9-5.8,15.5c0.3,1.3,0.9,2.5,1.8,3.4c0.5,0.6,0.7,1.2,0.4,2c-0.2,0.8-0.4,1.6-0.6,2.3
			c-0.3,1-0.9,1.3-1.9,0.9c-2.9-1.3-4.7-3.5-5.6-6.5c-2-6.3-0.9-12.2,3.1-17.5c3.6-4.8,8.5-7.5,14.3-8.5c4.2-0.7,8.4-0.7,12.4,0.8
			c6.7,2.3,11.1,6.8,12.9,13.8c0.7,2.8,0.5,5.7,0.1,8.6c-0.6,4-1.9,7.8-4.4,11.1c-3.2,4.2-7.5,6.5-12.8,6.6
			C-426,625.3-428.8,624.1-430.9,621.4z"/>
	</g>
	<g class="st1">
		<path class="st3" d="M-430.6,740c-0.6,2.2-1.2,4.3-1.6,6.4c-1,4.7-3.2,8.7-6,12.5c-0.2,0.3-0.6,0.8-0.9,0.8
			c-0.6,0-0.4-0.7-0.4-1.1c-0.7-4.9-0.4-9.7,0.8-14.5c1.3-4.8,2.3-9.7,3.4-14.5c0.1-0.3,0-0.7-0.1-1c-1-2.9-1.2-5.8-0.1-8.7
			c0.5-1.3,1.2-2.4,2.3-3.2c0.9-0.8,2-1.2,3.3-1.2c2.3,0,4,1.4,4.4,3.7c0.3,1.8-0.1,3.4-0.6,5.1c-0.7,2.4-1.4,4.8-2.1,7.2
			c-1.3,4.4,2.4,7.7,6.7,6.6c1.9-0.5,3.3-1.6,4.5-3c1.8-2.1,2.8-4.6,3.4-7.3c0.7-3,1.1-6,0.6-9c-0.8-5.4-4-8.7-9.2-9.9
			c-5.1-1.2-9.9-0.5-14.2,2.6c-5.4,4-7,10.9-5.8,15.5c0.3,1.3,0.9,2.5,1.8,3.4c0.5,0.6,0.7,1.2,0.4,2c-0.2,0.8-0.4,1.6-0.6,2.3
			c-0.3,1-0.9,1.3-1.9,0.9c-2.9-1.3-4.7-3.5-5.6-6.5c-2-6.3-0.9-12.2,3.1-17.5c3.6-4.8,8.5-7.5,14.3-8.5c4.2-0.7,8.4-0.7,12.4,0.8
			c6.7,2.3,11.1,6.8,12.9,13.8c0.7,2.8,0.5,5.7,0.1,8.6c-0.6,4-1.9,7.8-4.4,11.1c-3.2,4.2-7.5,6.5-12.8,6.6
			C-425.8,744-428.6,742.8-430.6,740z"/>
	</g>
</g>
<g id="Layer_5" class="st0">
	<g class="st1">
		<g>
			<polygon class="st2" points="-445,581.6 -441.4,581.6 -439.1,590 -438.9,590 -436.7,581.6 -433.1,581.6 -437.2,593.8 
				-437.2,602.5 -440.8,602.5 -440.8,594.2 			"/>
			<path class="st2" d="M-432.9,590.6c0-1.2,0.4-2.1,1.3-2.8c0.8-0.7,2-1.1,3.4-1.1c1.3,0,2.4,0.4,3.2,1.1c0.8,0.7,1.2,1.7,1.2,2.9
				v7.9c0,1.3-0.4,2.3-1.2,3.1c-0.8,0.7-1.9,1.1-3.4,1.1c-1.4,0-2.5-0.4-3.3-1.2s-1.2-1.8-1.2-3.1V590.6L-432.9,590.6z
				 M-429.6,598.9c0,0.4,0.1,0.7,0.3,1c0.2,0.2,0.5,0.3,1,0.3c0.4,0,0.8-0.1,1-0.4c0.3-0.2,0.4-0.6,0.4-1v-8.4
				c0-0.3-0.1-0.6-0.4-0.8s-0.6-0.3-1-0.3s-0.7,0.1-0.9,0.3c-0.2,0.2-0.4,0.5-0.4,0.8V598.9L-429.6,598.9z"/>
			<path class="st2" d="M-412.3,587.1v15.4h-3.1v-1.7c-0.6,0.6-1.2,1.1-1.8,1.4c-0.6,0.3-1.2,0.5-1.8,0.5c-0.7,0-1.3-0.2-1.6-0.7
				c-0.4-0.5-0.6-1.1-0.6-2.1v-12.8h3.1v11.8c0,0.4,0.1,0.6,0.2,0.8s0.3,0.2,0.6,0.2c0.2,0,0.5-0.1,0.9-0.3s0.7-0.5,1-0.8v-11.7
				L-412.3,587.1L-412.3,587.1z"/>
		</g>
		<g>
			<path class="st2" d="M-421.9,621.4c-0.2,0-0.4,0-0.6,0.1s-0.4,0.2-0.6,0.4v8.7c0.2,0.2,0.4,0.4,0.7,0.5c0.2,0.1,0.4,0.2,0.7,0.2
				s0.6-0.1,0.8-0.3c0.2-0.2,0.2-0.5,0.2-1v-7.2c0-0.5-0.1-0.8-0.3-1.1C-421.2,621.5-421.5,621.4-421.9,621.4z"/>
			<path class="st2" d="M-412.3,621.4c-0.4,0-0.8,0.1-1,0.4c-0.2,0.2-0.3,0.7-0.3,1.2v1.4h2.5V623c0-0.6-0.1-1-0.3-1.2
				C-411.5,621.6-411.8,621.4-412.3,621.4z"/>
			<path class="st2" d="M-405.9,610.6c-2.3-2.2-21.6-2.3-21.6-2.3s-19.3,0-21.6,2.3c-2.3,2.3-2.3,13.4-2.3,13.4l0,0
				c0,0.1,0,11.2,2.3,13.4s21.6,2.3,21.6,2.3s19.3,0,21.6-2.3c2.3-2.3,2.3-13.4,2.3-13.4S-403.6,612.8-405.9,610.6z M-437.1,617.1
				h-3.2v16.2h-3.1v-16.2h-3.2v-2.7h9.6L-437.1,617.1L-437.1,617.1z M-427.9,633.3h-2.8v-1.5c-0.5,0.6-1.1,1-1.6,1.3
				c-0.6,0.3-1.1,0.4-1.6,0.4c-0.6,0-1.1-0.2-1.5-0.6c-0.3-0.4-0.5-1-0.5-1.9v-11.7h2.8V630c0,0.3,0.1,0.6,0.2,0.7
				c0.1,0.2,0.3,0.2,0.6,0.2c0.2,0,0.5-0.1,0.8-0.3s0.6-0.4,0.9-0.7v-10.6h2.8L-427.9,633.3L-427.9,633.3L-427.9,633.3z
				 M-417.8,630.4c0,1-0.2,1.7-0.7,2.3c-0.4,0.5-1.1,0.8-1.9,0.8c-0.5,0-1-0.1-1.5-0.3c-0.4-0.2-0.8-0.5-1.2-0.9v1.1h-2.8v-18.9h2.8
				v6.1c0.4-0.4,0.8-0.7,1.2-1c0.4-0.2,0.9-0.3,1.3-0.3c0.9,0,1.6,0.3,2,0.9c0.5,0.6,0.7,1.5,0.7,2.6L-417.8,630.4L-417.8,630.4z
				 M-408.2,626.7h-5.3v2.6c0,0.7,0.1,1.2,0.3,1.5c0.2,0.3,0.5,0.4,0.9,0.4c0.5,0,0.8-0.1,1-0.4c0.2-0.2,0.3-0.8,0.3-1.6v-0.6h2.9
				v0.7c0,1.4-0.3,2.5-1.1,3.2c-0.7,0.7-1.7,1.1-3.1,1.1c-1.2,0-2.2-0.4-2.9-1.1c-0.7-0.8-1.1-1.8-1.1-3.2V623c0-1.2,0.4-2.2,1.2-3
				c0.8-0.8,1.8-1.1,3.1-1.1c1.3,0,2.3,0.4,2.9,1.1c0.7,0.7,1,1.7,1,3L-408.2,626.7L-408.2,626.7L-408.2,626.7z"/>
		</g>
	</g>
	<g class="st1">
		<g>
			<polygon class="st3" points="-445,698.6 -441.4,698.6 -439.1,707 -438.9,707 -436.7,698.6 -433.1,698.6 -437.2,710.8 
				-437.2,719.5 -440.8,719.5 -440.8,711.2 			"/>
			<path class="st3" d="M-432.9,707.6c0-1.2,0.4-2.1,1.3-2.8c0.8-0.7,2-1.1,3.4-1.1c1.3,0,2.4,0.4,3.2,1.1c0.8,0.7,1.2,1.7,1.2,2.9
				v7.9c0,1.3-0.4,2.3-1.2,3.1c-0.8,0.7-1.9,1.1-3.4,1.1c-1.4,0-2.5-0.4-3.3-1.2s-1.2-1.8-1.2-3.1V707.6L-432.9,707.6z
				 M-429.6,715.9c0,0.4,0.1,0.7,0.3,1c0.2,0.2,0.5,0.3,1,0.3c0.4,0,0.8-0.1,1-0.4c0.3-0.2,0.4-0.6,0.4-1v-8.4
				c0-0.3-0.1-0.6-0.4-0.8s-0.6-0.3-1-0.3s-0.7,0.1-0.9,0.3c-0.2,0.2-0.4,0.5-0.4,0.8V715.9L-429.6,715.9z"/>
			<path class="st3" d="M-412.3,704.1v15.4h-3.1v-1.7c-0.6,0.6-1.2,1.1-1.8,1.4c-0.6,0.3-1.2,0.5-1.8,0.5c-0.7,0-1.3-0.2-1.6-0.7
				c-0.4-0.5-0.6-1.1-0.6-2.1v-12.8h3.1v11.8c0,0.4,0.1,0.6,0.2,0.8s0.3,0.2,0.6,0.2c0.2,0,0.5-0.1,0.9-0.3s0.7-0.5,1-0.8v-11.7
				L-412.3,704.1L-412.3,704.1z"/>
		</g>
		<g>
			<path class="st3" d="M-421.9,738.4c-0.2,0-0.4,0-0.6,0.1s-0.4,0.2-0.6,0.4v8.7c0.2,0.2,0.4,0.4,0.7,0.5c0.2,0.1,0.4,0.2,0.7,0.2
				s0.6-0.1,0.8-0.3c0.2-0.2,0.2-0.5,0.2-1v-7.2c0-0.5-0.1-0.8-0.3-1.1C-421.2,738.5-421.5,738.4-421.9,738.4z"/>
			<path class="st3" d="M-412.3,738.4c-0.4,0-0.8,0.1-1,0.4c-0.2,0.2-0.3,0.7-0.3,1.2v1.4h2.5V740c0-0.6-0.1-1-0.3-1.2
				C-411.5,738.6-411.8,738.4-412.3,738.4z"/>
			<path class="st3" d="M-405.9,727.6c-2.3-2.3-21.6-2.3-21.6-2.3s-19.3,0-21.6,2.3c-2.3,2.3-2.3,13.4-2.3,13.4l0,0
				c0,0.1,0,11.2,2.3,13.4s21.6,2.3,21.6,2.3s19.3,0,21.6-2.3c2.3-2.3,2.3-13.4,2.3-13.4S-403.6,729.8-405.9,727.6z M-437.1,734.1
				h-3.2v16.2h-3.1v-16.2h-3.2v-2.7h9.6L-437.1,734.1L-437.1,734.1z M-427.9,750.3h-2.8v-1.5c-0.5,0.6-1.1,1-1.6,1.3
				c-0.6,0.3-1.1,0.4-1.6,0.4c-0.6,0-1.1-0.2-1.5-0.6c-0.3-0.4-0.5-1-0.5-1.9v-11.7h2.8V747c0,0.3,0.1,0.6,0.2,0.7
				c0.1,0.1,0.3,0.2,0.6,0.2c0.2,0,0.5-0.1,0.8-0.3s0.6-0.4,0.9-0.7v-10.6h2.8L-427.9,750.3L-427.9,750.3L-427.9,750.3z
				 M-417.8,747.4c0,1-0.2,1.7-0.7,2.3c-0.4,0.5-1.1,0.8-1.9,0.8c-0.5,0-1-0.1-1.5-0.3c-0.4-0.2-0.8-0.5-1.2-0.9v1.1h-2.8v-18.9h2.8
				v6.1c0.4-0.4,0.8-0.7,1.2-1c0.4-0.2,0.9-0.3,1.3-0.3c0.9,0,1.6,0.3,2,0.9c0.5,0.6,0.7,1.5,0.7,2.6L-417.8,747.4L-417.8,747.4z
				 M-408.2,743.7h-5.3v2.6c0,0.7,0.1,1.2,0.3,1.5c0.2,0.3,0.5,0.4,0.9,0.4c0.5,0,0.8-0.1,1-0.4c0.2-0.2,0.3-0.8,0.3-1.6v-0.6h2.9
				v0.7c0,1.4-0.3,2.5-1.1,3.2c-0.7,0.7-1.7,1.1-3.1,1.1c-1.2,0-2.2-0.4-2.9-1.1c-0.7-0.8-1.1-1.8-1.1-3.2V740c0-1.2,0.4-2.2,1.2-3
				c0.8-0.8,1.8-1.1,3.1-1.1c1.3,0,2.3,0.4,2.9,1.1c0.7,0.7,1,1.7,1,3L-408.2,743.7L-408.2,743.7L-408.2,743.7z"/>
		</g>
	</g>
</g>
<g id="Layer_6">
	<g>
		<path class="st3" d="M73.3,51.8c3.8,8.5,2.9,15-2.7,19.8c-5.1,4.3-12.3,4.8-17.8,1.2c-3.5-2.3-5.7-5.5-6.5-9.6s0.1-7.8,2.3-11.3
			c-5.7,0-11.2,0-16.8,0c0,0.6,0,1.1,0,1.5c0,8,0,16.1,0,24.1c0,6.9,4.9,11.8,11.8,11.8c11.4,0,22.9,0,34.3,0c7.1,0,12-4.9,12-12
			c0-7.9,0-15.9,0-23.8c0-0.5,0-1,0-1.6C84.5,51.8,78.9,51.8,73.3,51.8z M31.8,49.9c6.3,0,12.2,0,18.1,0c0.4,0,0.9-0.3,1.2-0.6
			c5.9-5,13.9-5.1,19.7-0.1c0.5,0.4,1.3,0.7,2,0.7c5.3,0.1,10.6,0,15.9,0c0.4,0,0.9-0.1,1.5-0.1c0-2.4,0-4.8,0-7.1
			c0-6.9-5-11.9-11.9-11.9c-9.8,0-19.7,0-29.5,0c-0.5,0-1,0-1.6,0c0,4.9,0,9.6,0,14.4c-0.8,0-1.5,0-2.4,0c0-4.8,0-9.6,0-14.4
			c-0.6,0.1-1.1,0.1-1.6,0.1c0,4.8,0,9.5,0,14.3c-0.8,0-1.5,0-2.3,0c0-4.7,0-9.3,0-13.9c-1.4-0.1-1.8,0.5-1.7,1.7
			c0.1,1.4,0,2.8,0,4.3c0,2.6,0,5.3,0,7.9c-0.8,0-1.5,0-2.3,0c0-4.1,0-8,0-12.3c-2.4,1.8-4.1,3.9-4.4,6.6
			C31.9,42.9,31.9,46.3,31.8,49.9z"/>
		<path class="st3" d="M73.3,51.8c5.6,0,11.1,0,16.8,0c0,0.6,0,1.1,0,1.6c0,7.9,0,15.9,0,23.8c0,7.1-4.9,12-12,12
			c-11.4,0-22.9,0-34.3,0c-6.9,0-11.8-4.9-11.8-11.8c0-8,0-16.1,0-24.1c0-0.5,0-0.9,0-1.5c5.6,0,11.1,0,16.8,0
			c-2.2,3.5-3.1,7.3-2.3,11.3c0.8,4.1,3,7.3,6.5,9.6c5.5,3.6,12.7,3.1,17.8-1.2C76.3,66.8,77.2,60.3,73.3,51.8z"/>
		<path class="st3" d="M31.8,49.9c0.2-3.6,0.1-7,0.5-10.4c0.3-2.7,2-4.8,4.4-6.6c0,4.2,0,8.2,0,12.3c0.8,0,1.5,0,2.3,0
			c0-2.7,0-5.3,0-7.9c0-1.4,0.1-2.8,0-4.3c-0.1-1.2,0.3-1.8,1.7-1.7c0,4.6,0,9.2,0,13.9c0.8,0,1.5,0,2.3,0c0-4.7,0-9.4,0-14.3
			c0.6-0.1,1-0.1,1.6-0.1c0,4.8,0,9.6,0,14.4c0.8,0,1.5,0,2.4,0c0-4.8,0-9.5,0-14.4c0.6,0,1.1,0,1.6,0c9.8,0,19.7,0,29.5,0
			c6.9,0,11.9,5,11.9,11.9c0,2.3,0,4.6,0,7.1c-0.6,0-1,0.1-1.5,0.1c-5.3,0-10.6,0-15.9,0c-0.7,0-1.5-0.3-2-0.7
			c-5.8-4.9-13.9-4.9-19.7,0.1c-0.3,0.3-0.8,0.6-1.2,0.6C44,49.9,38.1,49.9,31.8,49.9z M84.8,40.6c0-0.9,0-1.9,0-2.8
			c0-1.4-0.7-2.1-2-2.2c-1.9,0-3.9,0-5.8,0c-1.3,0-2,0.8-2,2.1c0,2,0,4,0,5.9c0,1.3,0.7,2,2.1,2c1.9,0,3.9,0,5.8,0c1.3,0,2-0.7,2-2
			C84.8,42.5,84.8,41.6,84.8,40.6z"/>
		<path class="st3" d="M61,48.9c6.3,0,11.5,5.2,11.5,11.5S67.3,71.9,61,71.9c-6.4,0-11.5-5.2-11.5-11.6C49.6,53.9,54.6,48.9,61,48.9
			z M69.4,60.4c0-4.7-3.7-8.5-8.4-8.6c-4.6,0-8.5,3.8-8.5,8.5c0,4.6,3.7,8.4,8.3,8.5C65.6,68.9,69.4,65,69.4,60.4z"/>
		<path class="st3" d="M84.8,40.6c0,1,0,2,0,3c0,1.3-0.7,2-2,2c-1.9,0-3.9,0-5.8,0c-1.3,0-2-0.7-2.1-2c0-2,0-4,0-5.9
			c0-1.3,0.7-2,2-2.1c1.9,0,3.9,0,5.8,0c1.4,0,2,0.7,2,2.2C84.8,38.8,84.8,39.6,84.8,40.6z"/>
	</g>
	<g>
		<path class="st4" d="M73.3,175.8c3.8,8.5,2.9,15-2.7,19.8c-5.1,4.3-12.3,4.8-17.8,1.2c-3.5-2.3-5.7-5.5-6.5-9.6s0.1-7.8,2.3-11.3
			c-5.7,0-11.2,0-16.8,0c0,0.6,0,1.1,0,1.5c0,8,0,16.1,0,24.1c0,6.9,4.9,11.8,11.8,11.8c11.4,0,22.9,0,34.3,0c7.1,0,12-4.9,12-12
			c0-7.9,0-15.9,0-23.8c0-0.5,0-1,0-1.6C84.5,175.8,78.9,175.8,73.3,175.8z M31.8,173.9c6.3,0,12.2,0,18.1,0c0.4,0,0.9-0.3,1.2-0.6
			c5.9-5,13.9-5.1,19.7-0.1c0.5,0.4,1.3,0.7,2,0.7c5.3,0.1,10.6,0,15.9,0c0.4,0,0.9-0.1,1.5-0.1c0-2.4,0-4.8,0-7.1
			c0-6.9-5-11.9-11.9-11.9c-9.8,0-19.7,0-29.5,0c-0.5,0-1,0-1.6,0c0,4.9,0,9.6,0,14.4c-0.8,0-1.5,0-2.4,0c0-4.8,0-9.6,0-14.4
			c-0.6,0.1-1.1,0.1-1.6,0.1c0,4.8,0,9.5,0,14.3c-0.8,0-1.5,0-2.3,0c0-4.7,0-9.3,0-13.9c-1.4-0.1-1.8,0.5-1.7,1.7
			c0.1,1.4,0,2.8,0,4.3c0,2.6,0,5.3,0,7.9c-0.8,0-1.5,0-2.3,0c0-4.1,0-8,0-12.3c-2.4,1.8-4.1,3.9-4.4,6.6
			C31.9,166.9,31.9,170.3,31.8,173.9z"/>
		<path class="st4" d="M73.3,175.8c5.6,0,11.1,0,16.8,0c0,0.6,0,1.1,0,1.6c0,7.9,0,15.9,0,23.8c0,7.1-4.9,12-12,12
			c-11.4,0-22.9,0-34.3,0c-6.9,0-11.8-4.9-11.8-11.8c0-8,0-16.1,0-24.1c0-0.5,0-0.9,0-1.5c5.6,0,11.1,0,16.8,0
			c-2.2,3.5-3.1,7.3-2.3,11.3c0.8,4.1,3,7.3,6.5,9.6c5.5,3.6,12.7,3.1,17.8-1.2C76.3,190.8,77.2,184.3,73.3,175.8z"/>
		<path class="st4" d="M31.8,173.9c0.2-3.6,0.1-7,0.5-10.4c0.3-2.7,2-4.8,4.4-6.6c0,4.2,0,8.2,0,12.3c0.8,0,1.5,0,2.3,0
			c0-2.7,0-5.3,0-7.9c0-1.4,0.1-2.8,0-4.3c-0.1-1.2,0.3-1.8,1.7-1.7c0,4.6,0,9.2,0,13.9c0.8,0,1.5,0,2.3,0c0-4.7,0-9.4,0-14.3
			c0.6-0.1,1-0.1,1.6-0.1c0,4.8,0,9.6,0,14.4c0.8,0,1.5,0,2.4,0c0-4.8,0-9.5,0-14.4c0.6,0,1.1,0,1.6,0c9.8,0,19.7,0,29.5,0
			c6.9,0,11.9,5,11.9,11.9c0,2.3,0,4.6,0,7.1c-0.6,0-1,0.1-1.5,0.1c-5.3,0-10.6,0-15.9,0c-0.7,0-1.5-0.3-2-0.7
			c-5.8-4.9-13.9-4.9-19.7,0.1c-0.3,0.3-0.8,0.6-1.2,0.6C44,173.9,38.1,173.9,31.8,173.9z M84.8,164.6c0-0.9,0-1.9,0-2.8
			c0-1.4-0.7-2.1-2-2.2c-1.9,0-3.9,0-5.8,0c-1.3,0-2,0.8-2,2.1c0,2,0,4,0,5.9c0,1.3,0.7,2,2.1,2c1.9,0,3.9,0,5.8,0c1.3,0,2-0.7,2-2
			C84.8,166.5,84.8,165.6,84.8,164.6z"/>
		<path class="st4" d="M61,172.9c6.3,0,11.5,5.2,11.5,11.5s-5.2,11.5-11.5,11.5c-6.4,0-11.5-5.2-11.5-11.6
			C49.6,177.9,54.6,172.9,61,172.9z M69.4,184.4c0-4.7-3.7-8.5-8.4-8.6c-4.6,0-8.5,3.8-8.5,8.5c0,4.6,3.7,8.4,8.3,8.5
			C65.6,192.9,69.4,189,69.4,184.4z"/>
		<path class="st4" d="M84.8,164.6c0,1,0,2,0,3c0,1.3-0.7,2-2,2c-1.9,0-3.9,0-5.8,0c-1.3,0-2-0.7-2.1-2c0-2,0-4,0-5.9
			c0-1.3,0.7-2,2-2.1c1.9,0,3.9,0,5.8,0c1.4,0,2,0.7,2,2.2C84.8,162.8,84.8,163.6,84.8,164.6z"/>
	</g>
</g>
</svg>
