<?xml version="1.0" encoding="utf-8"?>
<!-- Generator: Adobe Illustrator 19.2.0, SVG Export Plug-In . SVG Version: 6.00 Build 0)  -->
<svg version="1.1" id="Layer_1" xmlns="http://www.w3.org/2000/svg" xmlns:xlink="http://www.w3.org/1999/xlink" x="0px" y="0px"
	 viewBox="0 0 1009.1 311" style="enable-background:new 0 0 1009.1 311;" xml:space="preserve">
<g>
	<g>
		<path d="M-3.5,0c337.4,0,674.8,0,1012.6,0c0,4.6,0,9,0,14C671.6,14,334,14-3.5,14C-3.5,9.3-3.5,4.7-3.5,0z"/>
		<path d="M-3.5,297c337.4,0,674.8,0,1013,0c0,4.8,0,9.4,0,14c-337.7,0-675.3,0-1013,0C-3.5,306.3-3.5,301.7-3.5,297z"/>
		<path d="M-0.3,274c0-78.5,0-156.4,0-234.8C1.3,39.2,2.9,39,4.5,39c23,0,46-0.3,69,0.1c10.8,0.2,21.8,0.3,32.2,4
			c14.8,5.2,24.5,15.3,28.9,30.5c3.6,12.7,4.9,25.6,3.8,38.6c-0.6,6.7-2.6,13.4-5,19.7c-1.2,3.1-4.3,5.9-7.2,7.6
			c-4.8,2.9-10.3,4.8-14.4,6.7c6.1,3.2,13.6,6,19.8,10.7c5.6,4.3,8.2,11.4,8.9,18.5c1.1,11,1.6,22,2.1,33.1
			c0.7,13.4-0.1,26.8-3.1,39.8c-2.3,10-10.6,19.4-21.5,21.8c-17.6,3.8-35.4,3.9-53.2,3.9C43.2,274,21.7,274-0.3,274z M61.8,167.3
			c0,22.7,0,44.1,0,65.7c3.2-0.4,6.2-0.3,8.9-1.2c4.5-1.5,8.7-3.7,8.8-9.6c0.2-13.1,1.1-26.1,0.7-39.2c-0.1-4,0.5-9.8-4.9-11.9
			C71.1,169.5,66.6,168.6,61.8,167.3z M61.9,80.3c0,16.8,0,33.1,0,49.7c2.9,0,5.4,0.1,7.9,0c4.6-0.2,8.4-1.3,8.8-7
			c0.6-9.4,2.1-18.7,1.7-28.1C79.7,83.1,74.1,79.2,61.9,80.3z"/>
		<path d="M981.4,151.3c10.9,2.7,19,8.6,24,18.3c1.5,2.9,2.9,6.4,3,9.6c0.5,29.6,0.8,59.2,1.1,88.8c0,1.8,0,3.6,0,5.7
			c-19,0-37.8,0-57,0c0-1.9,0-3.7,0-5.5c0-26,0.1-52-0.1-78c0-3.9-0.6-7.9-1.2-11.7c-1.6-9-6.6-9.6-16.6-10.3c0,35.1,0,70.2,0,105.6
			c-20.8,0-41,0-61.7,0c0-77.9,0-155.9,0-234.5c1.4-0.1,3-0.2,4.6-0.2c21,0,42-0.8,63,0.3c12.7,0.7,25.6-0.5,38.2,3.5
			c18.1,5.8,29.5,25.2,29.9,41.4c0.1,6.9,1,13.9,0.9,20.8c-0.2,8-0.9,16.1-1.9,24.1c-1.5,12-9.7,17.8-20.4,20.9
			C985.2,150.5,983.3,150.9,981.4,151.3z M934.7,129.6c11.5,1.4,14.8-0.3,16.8-11.2c1.4-7.4,1.2-15.1,0.9-22.7
			c-0.5-11.9-4.9-15.5-17.7-15.1C934.7,96.7,934.7,113,934.7,129.6z"/>
		<path d="M539.5,39.2c20.5,0,40.4,0,61,0c0,1.9,0,3.7,0,5.4c0,56.3,0.2,112.7-0.2,169c-0.1,10-1.8,20.3-5,29.7
			c-4.8,14.1-15.7,23.6-29.2,29.5c-6.1,2.7-13.1,3.8-19.8,5c-15.5,2.9-30.9,0.9-45.6-4.1c-13.2-4.5-24.2-11.8-31.9-24.4
			c-5.4-8.8-7.1-17.8-7.2-27.3c-0.5-58.9-0.8-117.9-1.1-176.8c0-2,0-3.9,0-6.1c20.4,0,40.4,0,61,0c0,1.9,0,3.9,0,5.8
			c0,58.8,0,117.6,0,176.5c0,3.6,0.3,7.3,1.2,10.7c1,3.9,3.9,5.9,8.1,5.8c4.9-0.1,7-3.3,7.5-7.5c0.6-5.1,1-10.2,1.1-15.3
			c0.1-56.5,0-113,0-169.5C539.5,43.7,539.5,41.8,539.5,39.2z"/>
		<path d="M444.5,110.9c-18.2,0-36.7,0-56,0c0-6.8,0.1-13.6,0-20.3c-0.1-3.1,0-6.4-1.2-9.2c-1-2.4-3.3-5-5.7-6
			c-2.8-1.2-5.9-0.4-8.4,2.4c-5.6,6.3-4.9,13.6-4.4,21c0.9,12.5,10.2,18.3,19.3,24.3c13.8,9.1,27.9,17.8,41.1,27.6
			c10.9,8,16.8,19.8,19.1,33c1.3,7.8,1.7,15.7,2.1,23.6c0.3,7.7,0.3,15.4,0,23.1c-0.3,8.6-2.6,16.9-7,24.1
			c-4.2,6.9-10.9,11.5-18.1,15.3c-15.6,8.2-32.5,10.1-49.6,9.2c-17.9-0.9-34.9-5.7-48.6-18c-7.1-6.4-11.2-15-12.4-24.4
			c-1.9-15.5-2.9-31.1-4.4-47.1c20.6,0,39.6,0,59.2,0c0,10.5-0.1,21,0.1,31.4c0,3.2,0.5,6.6,1.2,9.7c1,4.3,3.6,7.5,8.4,7.5
			c4.8-0.1,8.5-2.2,10.2-7c3.2-8.8,1.8-17.7,0.8-26.7c-1-9.8-7.4-15.1-14.4-20c-12.5-8.7-25.2-17.1-38-25.4
			c-13.7-8.9-23.1-21.3-25.7-37.2c-2-11.9-0.5-24.3-0.8-36.5c-0.2-8.4,1.4-16.2,5-23.8c5-10.7,13.8-16.8,24-21.3
			c14.5-6.3,29.8-8.1,45.4-6.9c14.9,1.1,29.1,5.3,42.1,13.1c10.1,6.1,15.3,16.1,16.4,27.2C445.4,85.6,444.5,98.1,444.5,110.9z"/>
		<path d="M677.5,179c0,31.6,0,62.4,0,93.6c-20.2,0-40.3,0-60.7,0c0-77.6,0-155.3,0-233.6c1.8,0,3.6,0,5.4,0c22,0,44-0.7,66,0.3
			c11.6,0.5,23.5,2.5,34.5,6c14.1,4.5,22.7,15.3,23.7,30.5c1.2,19.3,2.1,38.7,1.8,58.1c-0.2,8.9-2.1,18.5-6,26.3
			c-5.2,10.4-15.9,14.8-27.2,16.7c-6.1,1-12.4,1.7-18.6,2C690.3,179.3,684.2,179,677.5,179z M677.7,138.8
			c14.8,0.8,19.2-3.6,18.8-17.7c-0.2-7.3,0.4-14.6,0.1-21.9c-0.2-4.8,0.1-10.2-2.1-14.1c-3.5-6-10.3-6.3-16.9-6
			C677.7,99.3,677.7,118.9,677.7,138.8z"/>
		<path d="M859.3,39.4c0,16,0,31.6,0,47.5c-13.2,0-26.1,0-39.4,0c0,14.4,0,28.5,0,43.1c10.6,0,21.2,0.2,31.8-0.1
			c4.7-0.1,6,1.3,5.9,5.9c-0.3,13.1-0.1,26.3-0.1,40c-12.6,0-25,0-37.7,0c0,16.9,0,33.3,0,50.1c14.8,0,29.4,0,44.3,0
			c0,16.1,0,31.8,0,47.8c-35.3,0-70.6,0-106.2,0c0-77.9,0-155.9,0-234.3C791.5,39.4,825.2,39.4,859.3,39.4z"/>
		<path d="M155.7,273.8c0-78.2,0-156.2,0-234.4c33.8,0,67.6,0,101.5,0c0,15.7,0,31.3,0,47.5c-13,0-26.1,0-39.4,0
			c0,14.6,0,28.6,0,43.2c10.6,0,21.1,0.2,31.5-0.1c4.7-0.1,6.5,1,6.3,6c-0.4,11.8-0.2,23.7-0.1,35.5c0,3.5-1.2,4.7-4.6,4.6
			c-11-0.2-21.9-0.1-33.2-0.1c0,16.7,0,33,0,49.8c14.6,0,29.4,0,44.4,0c0,16.3,0,32,0,48C226.8,273.8,191.5,273.8,155.7,273.8z"/>
	</g>
</g>
</svg>
