<?xml version="1.0" encoding="utf-8"?>
<!-- Generator: Adobe Illustrator 19.1.1, SVG Export Plug-In . SVG Version: 6.00 Build 0)  -->
<svg version="1.1" id="Layer_1" xmlns="http://www.w3.org/2000/svg" xmlns:xlink="http://www.w3.org/1999/xlink" x="0px" y="0px"
	 viewBox="-179 322 253 150" style="enable-background:new -179 322 253 150;" xml:space="preserve">
<style type="text/css">
	.st0{fill:#FFFFFF;}
	.st1{enable-background:new    ;}
</style>
<rect x="-152.5" y="426" class="st0" width="200" height="2"/>
<g class="st1">
	<path class="st0" d="M-136,410.2c0,0.1,0,0.1-0.1,0.1h-5.8c-0.1,0-0.1-0.1-0.1-0.2v-0.3c0-0.1,0-0.2,0.1-0.2h1.7
		c0.1,0,0.2-0.1,0.2-0.2c-0.1-0.3-0.4-1.2-0.9-2.7s-0.8-2.3-0.8-2.4c-0.1-0.2-0.2-0.3-0.3-0.3h-6c-0.1,0-0.1,0.1-0.2,0.2
		c-0.1,0.2-0.3,0.8-0.6,1.6c-0.3,0.8-0.5,1.4-0.5,1.7c-0.1,0.7-0.2,1.1-0.2,1.2c0,0.6,0.1,0.8,0.2,0.8h1.9c0.1,0,0.1,0.1,0.1,0.2
		v0.4c0,0.1,0,0.1-0.1,0.1h-5.1c-0.1,0-0.1,0-0.1-0.1v-0.4c0-0.1,0-0.1,0.1-0.1h1.1c0.2,0,0.4-0.4,0.7-1.2c0.3-0.8,1.2-3.1,2.8-6.9
		c1-2.4,2.2-5.3,3.6-8.8c0.1-0.3,0.2-0.4,0.3-0.4c0.2-0.1,0.5-0.2,0.9-0.3c0.1,0,0.1,0,0.2,0.1c0.1,0.1,0,0.2-0.1,0.4
		c-0.3,0.3-0.4,0.5-0.4,0.8s0.1,0.6,0.2,1c0.5,1.3,1.3,3.7,2.4,7.2c1.2,3.5,2,5.8,2.5,6.8c0.4,1,0.8,1.4,1,1.4h1.2
		c0.1,0,0.1,0.1,0.1,0.2L-136,410.2L-136,410.2z M-142.2,402.9c-0.3-1-0.7-2.1-1.1-3.3c-0.4-1.2-0.8-2.5-1.2-3.8
		c0-0.1-0.1-0.2-0.1-0.2s-0.1,0.1-0.1,0.2c-1,2.6-1.8,4.4-2.2,5.5c-0.5,1.1-0.7,1.7-0.7,1.7c0,0.1,0,0.1,0.1,0.1h5.3
		C-142.1,403.1-142.1,403.1-142.2,402.9z"/>
	<path class="st0" d="M-124.4,405.5c0,1.4-0.4,2.6-1.3,3.5c-0.9,1-2.3,1.4-4.1,1.4c-2.1,0-3.6-0.4-4.5-1.2c-0.1-0.1-0.2-0.3-0.2-0.5
		c0-0.1,0-0.6,0-1.5s0-1.4,0-1.5s0.1-0.2,0.2-0.2h0.5c0.1,0,0.2,0.1,0.2,0.2s0,0.4,0.1,0.8c0.1,0.9,0.4,1.7,1,2.2
		c0.3,0.3,0.7,0.5,1.3,0.7c0.5,0.2,1,0.3,1.5,0.3c1.7,0,2.8-0.6,3.3-1.7c0.3-0.5,0.4-1.2,0.4-2c0-0.7-0.2-1.3-0.7-1.8
		c-0.5-0.6-1.5-1.1-2.8-1.6c-1.5-0.5-2.6-1.1-3.2-1.6c-0.8-0.7-1.3-1.9-1.3-3.4c0-1.4,0.6-2.7,1.7-3.7c0.9-0.8,2-1.1,3.5-1.1
		c0.9,0,1.8,0.2,2.6,0.5c0.5,0.2,0.9,0.4,1.1,0.6c0.1,0.1,0.2,0.2,0.2,0.3c0.1,0.6,0.1,1.5,0.1,2.6c0,0.2,0,0.3-0.1,0.3h-0.6
		c-0.1,0-0.1-0.1-0.1-0.2c-0.1-0.2-0.1-0.6-0.2-1c-0.1-0.6-0.4-1-0.9-1.3c-0.8-0.5-1.8-0.7-2.9-0.7c-1,0-1.7,0.2-2.2,0.7
		s-0.8,1.2-0.8,2.4c0,0.7,0.2,1.3,0.7,1.8c0.2,0.3,0.7,0.5,1.3,0.8c0.5,0.2,1.1,0.4,1.6,0.7c1.1,0.5,1.7,0.8,1.9,0.9
		c0.6,0.3,1.2,0.8,1.6,1.3C-124.7,403.3-124.4,404.3-124.4,405.5z"/>
	<path class="st0" d="M-104.2,410.2c0,0.1,0,0.2-0.1,0.2h-6.5c-0.1,0-0.2,0-0.2-0.1v-0.4c0-0.1,0.1-0.1,0.2-0.1h1.8
		c0.1,0,0.2,0,0.3-0.1c0-0.1,0.1-0.4,0.1-0.8c0-0.9,0-3.3,0-7c0-0.2-0.1-0.2-0.2-0.2h-8.8c-0.2,0-0.2,0.1-0.2,0.3c0,2.8,0,4.4,0,5.1
		c0.1,1.9,0.2,2.8,0.6,2.8h2.1c0.1,0,0.1,0.1,0.1,0.2v0.4c0,0.1,0,0.1-0.1,0.1h-6.5c-0.1,0-0.2,0-0.2-0.1v-0.4
		c0-0.1,0.1-0.2,0.2-0.2h1.6c0.2,0,0.3,0,0.4-0.1c0-0.1,0.1-0.4,0.1-0.8c0-0.1,0-1.3,0-3.5s0-3.4,0-3.6s0-1.2,0-2.8
		c0-1.6,0-2.5,0-2.6c0-1.7-0.1-2.6-0.4-2.6h-1.8c-0.1,0-0.1,0-0.1-0.1v-0.4c0-0.1,0.1-0.1,0.1-0.1h6.4c0.1,0,0.1,0.1,0.1,0.2v0.4
		c0,0.1-0.1,0.1-0.1,0.1h-1.9c-0.2,0-0.3,0-0.3,0s0,0.1,0,0.3c0,4.5,0,6.6,0,6.2c0,0.2,0.1,0.3,0.2,0.3h8.8c0.1,0,0.2-0.1,0.2-0.2
		s0-0.7,0-2s0-2,0-2.1c0-1.6-0.2-2.4-0.5-2.4h-1.9c-0.1,0-0.1-0.1-0.1-0.2v-0.4c0-0.1,0.1-0.1,0.2-0.1h6.4c0.1,0,0.2,0.1,0.2,0.2
		v0.3c0,0.1-0.1,0.2-0.2,0.2h-1.6c-0.2,0-0.4,0-0.4,0.1c0,0-0.1,0.2-0.1,0.4v6.9c0,3.4,0,5.4,0,6c0.1,1.7,0.2,2.6,0.5,2.6h1.8
		c0.1,0,0.2,0.1,0.2,0.2v-0.1H-104.2z"/>
	<path class="st0" d="M-86.8,410.2c0,0.1,0,0.1-0.1,0.1h-5.8c-0.1,0-0.1-0.1-0.1-0.2v-0.3c0-0.1,0-0.2,0.1-0.2h1.7
		c0.1,0,0.2-0.1,0.2-0.2c-0.1-0.3-0.4-1.2-0.9-2.7s-0.8-2.3-0.8-2.4c-0.1-0.2-0.2-0.3-0.3-0.3h-6c-0.1,0-0.1,0.1-0.2,0.2
		c-0.1,0.2-0.3,0.8-0.6,1.6c-0.3,0.8-0.5,1.4-0.5,1.7c-0.1,0.7-0.2,1.1-0.2,1.2c0,0.6,0.1,0.8,0.2,0.8h1.9c0.1,0,0.1,0.1,0.1,0.2
		v0.4c0,0.1,0,0.1-0.1,0.1h-5.1c-0.1,0-0.1,0-0.1-0.1v-0.4c0-0.1,0-0.1,0.1-0.1h1.1c0.2,0,0.4-0.4,0.7-1.2c0.3-0.8,1.2-3.1,2.8-6.9
		c1-2.4,2.2-5.3,3.6-8.8c0.1-0.3,0.2-0.4,0.3-0.4c0.2-0.1,0.5-0.2,0.9-0.3c0.1,0,0.1,0,0.2,0.1s0,0.2-0.1,0.4
		c-0.3,0.3-0.4,0.5-0.4,0.8s0.1,0.6,0.2,1c0.5,1.3,1.3,3.7,2.4,7.2c1.2,3.5,2,5.8,2.5,6.8c0.4,1,0.8,1.4,1,1.4h1.2
		c0.1,0,0.1,0.1,0.1,0.2L-86.8,410.2L-86.8,410.2z M-93,402.9c-0.3-1-0.7-2.1-1.1-3.3c-0.4-1.2-0.8-2.5-1.2-3.8
		c0-0.1-0.1-0.2-0.1-0.2s-0.1,0.1-0.1,0.2c-1,2.6-1.8,4.4-2.2,5.5c-0.5,1.1-0.7,1.7-0.7,1.7c0,0.1,0,0.1,0.1,0.1h5.3
		C-93,403.1-93,403.1-93,402.9z"/>
	<path class="st0" d="M-67.9,393.5c0,0.1,0,0.2-0.1,0.2h-1.7c-0.2,0-0.3,0.1-0.3,0.3c0,0.1,0,1.2,0,3.5c0,2.2,0,3.5,0,3.6
		s0,1.7,0,4.6s-0.1,4.4-0.1,4.5c0,0.4-0.1,0.6-0.2,0.6s-0.2-0.1-0.3-0.2c-0.8-1-3-4-6.7-8.8c-1.3-1.8-2.9-3.8-4.7-6.1
		c-0.1-0.1-0.2-0.1-0.2,0.1c0,0.1-0.1,1.7-0.2,4.7s-0.1,5-0.1,5.7c0,2.3,0.2,3.4,0.7,3.4h1.7c0.1,0,0.1,0,0.1,0.1v0.5
		c0,0.1,0,0.1-0.1,0.1H-85c-0.1,0-0.2,0-0.2-0.1v-0.5c0-0.1,0.1-0.1,0.2-0.1h1.5c0.1,0,0.2-0.1,0.2-0.2v-1.9c0-0.5,0.1-2.5,0.2-6.1
		s0.2-5.4,0.2-5.5c0-1.6-0.5-2.4-1.6-2.4h-0.9c-0.1,0-0.1,0-0.1-0.1V393c0-0.1,0-0.1,0.1-0.1h4c0.1,0,0.2,0.1,0.3,0.2
		c0.1,0.1,0.8,1.1,2.1,2.9c1.3,1.8,2,2.8,2.2,3c1.9,2.5,3.9,5.2,5.9,7.8h0.1c0.1,0,0.1-0.1,0.1-0.4c0-0.2,0-1.7,0-4.5
		c0-2.9,0-4.4,0-4.6c-0.1-2.5-0.4-3.8-0.9-3.8h-1.7c-0.1,0-0.2,0-0.2-0.1V393c0-0.1,0-0.1,0.1-0.1h5.5c0.1,0,0.1,0,0.1,0.1
		L-67.9,393.5L-67.9,393.5z"/>
	<path class="st0" d="M-52.3,393.2c-0.1,0.5-0.2,1.2-0.4,1.9c0,0.1-0.1,0.2-0.1,0.2c-0.1,0-0.2-0.1-0.2-0.2c-0.2-0.4-0.5-0.6-1-0.7
		c-0.8-0.2-2.3-0.3-4.5-0.3c-0.1,0-0.2,0.1-0.2,0.2s0,2.1-0.1,5.9c-0.1,3.7-0.1,5.7-0.1,5.9c0,2.4,0.2,3.6,0.6,3.6h2.2
		c0.1,0,0.1,0,0.1,0.1v0.4c0,0.1,0,0.1-0.1,0.1H-63c-0.1,0-0.1,0-0.1-0.1v-0.4c0-0.1,0-0.1,0.1-0.1h2c0.2,0,0.2-0.1,0.2-0.3
		c0-1.8-0.1-2.8-0.1-2.9s0-1.6,0.1-4.3c0-2.7,0.1-4.1,0.1-4.3c0-2.6-0.1-3.8-0.4-3.8c-2.2,0-3.7,0.1-4.6,0.4
		c-0.6,0.2-1.1,0.4-1.2,0.7c-0.1,0.2-0.2,0.2-0.3,0.2c-0.1,0-0.2,0-0.2-0.1s0-0.2,0.1-0.3c0.2-0.9,0.4-1.5,0.6-1.9
		c0-0.1,0.1-0.2,0.3-0.1c0.2,0,1,0.1,2.6,0.2c1.8,0.1,3.3,0.1,4.4,0.1c3.6,0,5.6,0,6.1,0c0.2,0,0.4,0,0.6-0.1c0.2,0,0.3,0,0.3,0
		C-52.4,393-52.3,393-52.3,393.2z"/>
	<path class="st0" d="M-44.4,410.2c0,0.1,0,0.1-0.1,0.1h-6.1c-0.1,0-0.1,0-0.1,0v-0.1v-0.4c0-0.1,0-0.1,0-0.1h0.1h1.7
		c0.1,0,0.2-0.1,0.2-0.4v-13.2c0-1.6-0.1-2.4-0.4-2.4h-1.6c-0.1,0-0.2,0-0.2-0.1v-0.4c0-0.1,0-0.1,0.1-0.1h6.1c0.1,0,0.1,0,0.1,0.1
		v0.5c0,0.1,0,0.1-0.1,0.1h-1.8c-0.1,0-0.2,0.1-0.2,0.3c0,7.7,0,11.7,0,12c0,1.3,0,2,0,2.2c0.1,1.1,0.2,1.6,0.5,1.6h1.8
		c0.1,0,0.1,0,0.1,0.1L-44.4,410.2L-44.4,410.2z"/>
	<path class="st0" d="M-32.1,405.5c0,1.4-0.4,2.6-1.3,3.5c-0.9,1-2.3,1.4-4.1,1.4c-2.1,0-3.6-0.4-4.5-1.2c-0.1-0.1-0.1-0.3-0.1-0.5
		c0-0.1,0-0.6,0-1.5s0-1.4,0-1.5s0.1-0.2,0.2-0.2h0.5c0.1,0,0.2,0.1,0.2,0.2s0,0.4,0.1,0.8c0.1,0.9,0.4,1.7,1,2.2
		c0.3,0.3,0.7,0.5,1.3,0.7c0.5,0.2,1,0.3,1.5,0.3c1.7,0,2.8-0.6,3.3-1.7c0.3-0.5,0.4-1.2,0.4-2c0-0.7-0.2-1.3-0.7-1.8
		c-0.5-0.6-1.5-1.1-2.8-1.6c-1.5-0.5-2.6-1.1-3.2-1.6c-0.8-0.7-1.3-1.9-1.3-3.4c0-1.4,0.6-2.7,1.7-3.7c0.9-0.8,2-1.1,3.5-1.1
		c0.9,0,1.8,0.2,2.6,0.5c0.5,0.2,0.9,0.4,1.1,0.6c0.1,0.1,0.2,0.2,0.2,0.3c0.1,0.6,0.1,1.5,0.1,2.6c0,0.2,0,0.3-0.1,0.3h-0.6
		c-0.1,0-0.1-0.1-0.1-0.2c0-0.2-0.1-0.6-0.2-1c-0.1-0.6-0.4-1-0.9-1.3c-0.8-0.5-1.8-0.7-2.9-0.7c-1,0-1.7,0.2-2.2,0.7
		s-0.8,1.2-0.8,2.4c0,0.7,0.2,1.3,0.7,1.8c0.2,0.3,0.7,0.5,1.3,0.8c0.5,0.2,1.1,0.4,1.6,0.7c1.1,0.5,1.7,0.8,1.9,0.9
		c0.6,0.3,1.2,0.8,1.6,1.3C-32.4,403.3-32.1,404.3-32.1,405.5z"/>
	<path class="st0" d="M-17.4,393.5c0,0.1,0,0.1-0.1,0.1h-1.7c-0.1,0-0.1,0.1-0.1,0.2s0,1.4,0,4.1s0,4.2,0,4.5s0,1.4,0,3.4
		s0,3.1,0,3.3c0,2,0,3.2-0.1,3.5c-0.3,1.4-1,2.5-2.3,3.4c-1,0.6-2.1,1-3.5,1c-0.6,0-1.1-0.1-1.5-0.4c-0.5-0.3-0.7-0.7-0.7-1
		c0-0.5,0.3-0.7,1-0.7c0.5,0,0.9,0.2,1.3,0.5c0.1,0.1,0.3,0.3,0.7,0.8c0.1,0.1,0.2,0.1,0.4,0.1c0.9-0.2,1.6-0.8,2.2-1.8
		c0.4-0.7,0.5-1.8,0.5-3.2v-7.7c0-3.3,0-5.6-0.1-6.8c0-0.6,0-1.2-0.1-1.8c-0.1-0.9-0.2-1.4-0.4-1.4h-1.9c-0.1,0-0.1-0.1-0.1-0.2V393
		c0-0.1,0-0.1,0.1-0.1h6.4c0.1,0,0.1,0,0.1,0.1L-17.4,393.5L-17.4,393.5z"/>
	<path class="st0" d="M1.3,401.3c0,2.7-0.6,4.8-1.9,6.3c-0.4,0.5-0.8,0.9-1.1,1.2c-0.6,0.5-1.4,0.9-2.4,1.3
		c-0.8,0.3-1.8,0.4-3.1,0.4c-2,0-3.5-0.3-4.5-0.8c-0.7-0.4-1.4-0.9-1.9-1.4c-0.6-0.7-1.1-1.5-1.3-2.4c-0.3-1-0.5-2.4-0.5-4.1
		c0-1.1,0.2-2.2,0.5-3.3c0.4-1.2,0.9-2.2,1.6-3.1c0.7-0.8,1.8-1.5,3.1-2.1c1-0.4,2-0.6,3.2-0.6c1.8,0,3.2,0.2,4.1,0.7
		c1.1,0.5,1.9,1.1,2.5,2C0.8,397,1.3,398.9,1.3,401.3z M-0.7,402c0-1.2-0.1-2.3-0.4-3.2c-0.3-1.1-0.8-2-1.5-2.8
		c-0.6-0.7-1.4-1.3-2.2-1.6c-1-0.4-2-0.6-3-0.6c-1.3,0-2.2,0.2-2.8,0.6c-1,0.7-1.7,1.6-2.1,2.5c-0.5,1.2-0.8,2.6-0.8,4.4
		c0,2.5,0.5,4.5,1.4,6c0.6,0.9,1.4,1.6,2.5,2.1c0.9,0.4,1.8,0.6,2.9,0.6c1.2,0,2.2-0.3,3.2-1c0.8-0.5,1.4-1.4,2-2.6
		C-0.9,405.2-0.7,403.7-0.7,402z"/>
	<path class="st0" d="M21,393.5c0,0.1,0,0.2-0.1,0.2h-1.7c-0.2,0-0.3,0.1-0.3,0.3c0,0.1,0,1.2,0,3.5c0,2.2,0,3.5,0,3.6s0,1.7,0,4.6
		s0,4.4,0,4.5c0,0.4-0.1,0.6-0.2,0.6s-0.2-0.1-0.3-0.2c-0.8-1-3-4-6.7-8.8c-1.3-1.8-2.9-3.8-4.7-6.1c-0.1-0.1-0.2-0.1-0.2,0.1
		c0,0.1-0.1,1.7-0.2,4.7s-0.1,5-0.1,5.7c0,2.3,0.2,3.4,0.7,3.4h1.7c0.1,0,0.1,0,0.1,0.1v0.5c0,0.1,0,0.1-0.1,0.1H3.7
		c-0.1,0-0.2,0-0.2-0.1v-0.5c0-0.1,0.1-0.1,0.2-0.1h1.5c0.1,0,0.2-0.1,0.2-0.2v-1.9c0-0.5,0.1-2.5,0.2-6.1s0.2-5.4,0.2-5.5
		c0-1.6-0.5-2.4-1.6-2.4H3.4c-0.1,0-0.1,0-0.1-0.1V393c0-0.1,0-0.1,0.1-0.1h4c0.1,0,0.2,0.1,0.3,0.2c0.1,0.1,0.8,1.1,2.1,2.9
		s2,2.8,2.2,3c1.9,2.5,3.9,5.2,5.9,7.8H18c0.1,0,0.1-0.1,0.1-0.4c0-0.2,0-1.7,0-4.5c0-2.9,0-4.4,0-4.6c-0.1-2.5-0.4-3.8-0.9-3.8
		h-1.7c-0.1,0-0.2,0-0.2-0.1V393c0-0.1,0-0.1,0.1-0.1h5.5c0.1,0,0.1,0,0.1,0.1C21,393,21,393.5,21,393.5z"/>
	<path class="st0" d="M35.4,408.5c-0.2,0.5-0.5,1-0.8,1.7c-0.1,0.1-0.2,0.2-0.3,0.2H22.5c-0.1,0-0.1-0.1-0.1-0.2v-0.4
		c0-0.1,0-0.1,0.1-0.1h1.9c0.2,0,0.3-0.1,0.3-0.3c0-0.1,0-1.4,0-3.9s0-3.8,0-3.9s0-1,0-2.6c0-1.7,0-2.6,0-2.7c0-1.7-0.2-2.6-0.5-2.6
		h-1.5c-0.1,0-0.1,0-0.1-0.1v-0.4c0-0.1,0.1-0.1,0.2-0.1H34c0.1,0,0.4,0,0.6,0c0.3,0,0.4,0,0.4,0c0.1,0,0.1,0,0.1,0.1
		c-0.1,0.5-0.3,1-0.4,1.6c-0.1,0.2-0.1,0.3-0.2,0.3l-0.2-0.2c-0.3-0.3-0.8-0.5-1.5-0.6c-0.9-0.2-2.9-0.3-5.9-0.3
		c-0.1,0-0.2,0.1-0.2,0.2s-0.1,2.2-0.1,6.3c0,0.2,0.1,0.3,0.2,0.3h6.1c0.1,0,0.2-0.1,0.2-0.2s0.1-0.4,0.1-0.8s0.1-0.6,0.1-0.7
		c0-0.2,0-0.2,0.1-0.2h0.2c0.1,0,0.1,0.1,0.1,0.2c0,0,0,0.4,0,1.1s-0.1,1.1-0.1,1.2s0,0.6,0,1.3c0,0.8,0,1.2,0,1.2
		c0,0.2,0,0.3-0.1,0.3h-0.2c-0.1,0-0.1-0.1-0.2-0.2c0-0.5-0.1-1.2-0.1-1.9c0-0.2-0.1-0.3-0.2-0.3c-0.1,0-1.1,0-3.1-0.1s-3-0.1-3-0.1
		c-0.1,0-0.2,0.1-0.2,0.2v4.8c0,2,0.2,3.1,0.7,3.1c3.9,0,6.5-0.3,7.8-0.9c0.3-0.2,0.5-0.3,0.6-0.3C35.4,408.3,35.5,408.4,35.4,408.5
		z"/>
	<path class="st0" d="M47.5,405.5c0,1.4-0.4,2.6-1.3,3.5c-0.9,1-2.3,1.4-4.1,1.4c-2.1,0-3.6-0.4-4.5-1.2c-0.1-0.1-0.2-0.3-0.2-0.5
		c0-0.1,0-0.6,0-1.5s0-1.4,0-1.5s0.1-0.2,0.2-0.2h0.5c0.1,0,0.2,0.1,0.2,0.2s0,0.4,0.1,0.8c0,0.9,0.4,1.7,1,2.2
		c0.3,0.3,0.7,0.5,1.3,0.7c0.5,0.2,1,0.3,1.5,0.3c1.7,0,2.8-0.6,3.3-1.7c0.3-0.5,0.4-1.2,0.4-2c0-0.7-0.2-1.3-0.7-1.8
		c-0.5-0.6-1.5-1.1-2.8-1.6c-1.5-0.5-2.6-1.1-3.2-1.6c-0.8-0.7-1.3-1.9-1.3-3.4c0-1.4,0.6-2.7,1.7-3.7c0.9-0.8,2-1.1,3.5-1.1
		c0.9,0,1.8,0.2,2.6,0.5c0.5,0.2,0.9,0.4,1.1,0.6c0.1,0.1,0.2,0.2,0.2,0.3c0.1,0.6,0.1,1.5,0.1,2.6c0,0.2,0,0.3-0.1,0.3h-0.6
		c-0.1,0-0.1-0.1-0.1-0.2c-0.1-0.2-0.1-0.6-0.2-1c-0.1-0.6-0.4-1-0.9-1.3c-0.8-0.5-1.8-0.7-2.9-0.7c-1,0-1.7,0.2-2.2,0.7
		s-0.8,1.2-0.8,2.4c0,0.7,0.2,1.3,0.7,1.8c0.2,0.3,0.7,0.5,1.3,0.8c0.5,0.2,1.1,0.4,1.6,0.7c1.1,0.5,1.7,0.8,1.9,0.9
		c0.6,0.3,1.2,0.8,1.6,1.3C47.2,403.3,47.5,404.3,47.5,405.5z"/>
</g>
<rect x="-152.5" y="376" class="st0" width="200" height="2"/>
</svg>
