<?xml version="1.0" encoding="utf-8"?>
<!-- Generator: Adobe Illustrator 19.2.1, SVG Export Plug-In . SVG Version: 6.00 Build 0)  -->
<svg version="1.1" id="Layer_1" xmlns="http://www.w3.org/2000/svg" xmlns:xlink="http://www.w3.org/1999/xlink" x="0px" y="0px"
	 viewBox="0 0 200 41" style="enable-background:new 0 0 200 41;" xml:space="preserve">
<style type="text/css">
	.st0{enable-background:new    ;}
	.st1{fill:#90624D;}
</style>
<g class="st0">
	<path class="st1" d="M71.7,21.7l-0.1,2.2h-6.3v-0.4c0.1,0,0.3,0,0.4,0s0.3,0,0.3-0.1c0.1-0.1,0.2-0.1,0.2-0.2s0.1-0.2,0.1-0.3v-5.5
		c0-0.1,0-0.2-0.1-0.3c0-0.1-0.1-0.2-0.2-0.2c-0.1,0-0.2-0.1-0.4-0.1c-0.2,0-0.3-0.1-0.4-0.1v-0.4h5.9v1.8h-0.4
		c-0.1-0.3-0.2-0.6-0.5-0.9c-0.2-0.3-0.5-0.5-0.7-0.5c-0.1,0-0.2,0-0.4,0s-0.3,0-0.5,0h-1.2v3h0.9c0.3,0,0.5,0,0.6-0.1
		s0.2-0.1,0.3-0.3c0.1-0.1,0.1-0.2,0.2-0.4c0.1-0.2,0.1-0.3,0.1-0.5H70v3h-0.4c0-0.2-0.1-0.4-0.1-0.5c-0.1-0.2-0.1-0.3-0.2-0.4
		c-0.1-0.1-0.2-0.2-0.4-0.3c-0.1,0-0.3-0.1-0.6-0.1h-0.9v2.3c0,0.2,0,0.4,0,0.5c0,0.1,0.1,0.2,0.2,0.3c0.1,0.1,0.2,0.1,0.4,0.1
		s0.4,0,0.7,0c0.1,0,0.3,0,0.5,0s0.4,0,0.5,0c0.1,0,0.3,0,0.4-0.1c0.1,0,0.2-0.1,0.3-0.2c0.2-0.2,0.3-0.4,0.5-0.8
		c0.2-0.3,0.3-0.6,0.3-0.8L71.7,21.7L71.7,21.7z"/>
	<path class="st1" d="M85.5,23.9h-3.6v-0.4c0.3,0,0.5,0,0.7-0.1c0.2,0,0.3-0.1,0.3-0.2c0-0.1,0-0.2-0.1-0.3
		c-0.1-0.2-0.2-0.4-0.3-0.6c-0.1-0.2-0.3-0.5-0.5-0.8c-0.2-0.3-0.4-0.6-0.6-0.9c-0.3,0.4-0.7,0.9-1.1,1.5s-0.6,0.9-0.6,1
		c0,0.1,0.1,0.2,0.2,0.3s0.3,0.1,0.7,0.1v0.4h-2.8v-0.4c0.1,0,0.2,0,0.4,0c0.1,0,0.3-0.1,0.4-0.1c0.2-0.1,0.3-0.2,0.4-0.3
		c0.1-0.1,0.2-0.3,0.3-0.4c0.2-0.3,0.5-0.7,0.9-1.2c0.4-0.5,0.7-0.9,0.9-1.3c-0.2-0.3-0.5-0.7-0.8-1.2c-0.3-0.5-0.7-1-1-1.5
		c-0.2-0.2-0.3-0.4-0.4-0.5c-0.1-0.1-0.2-0.2-0.4-0.2c-0.1,0-0.2-0.1-0.4-0.1s-0.3,0-0.4,0v-0.4h3.5v0.4c-0.2,0-0.4,0-0.6,0.1
		s-0.3,0.1-0.3,0.2c0,0.1,0,0.2,0.1,0.4c0.1,0.2,0.2,0.4,0.3,0.5c0.1,0.2,0.3,0.4,0.4,0.7s0.3,0.5,0.6,0.8c0.4-0.5,0.8-1,1-1.5
		s0.4-0.7,0.4-0.9c0-0.1-0.1-0.2-0.2-0.3c-0.1-0.1-0.4-0.1-0.7-0.1v-0.4h2.8v0.4c-0.1,0-0.2,0-0.4,0c-0.1,0-0.3,0.1-0.4,0.1
		c-0.2,0.1-0.3,0.2-0.4,0.3c-0.1,0.1-0.2,0.3-0.4,0.5c-0.3,0.4-0.6,0.7-0.8,1c-0.2,0.3-0.5,0.7-0.9,1.2c0.3,0.4,0.6,0.9,1,1.4
		c0.4,0.5,0.7,1,1,1.5c0.1,0.2,0.2,0.3,0.4,0.5c0.1,0.1,0.3,0.2,0.3,0.3c0.1,0.1,0.2,0.1,0.3,0.1c0.1,0,0.3,0,0.4,0L85.5,23.9
		L85.5,23.9z"/>
	<path class="st1" d="M97.6,18.2c0,0.4-0.1,0.8-0.2,1.1c-0.2,0.3-0.4,0.6-0.6,0.8c-0.3,0.2-0.6,0.3-0.9,0.4c-0.3,0.1-0.7,0.1-1,0.1
		h-0.9v2.3c0,0.1,0,0.2,0.1,0.3c0,0.1,0.1,0.2,0.3,0.2c0.1,0,0.2,0,0.3,0.1s0.3,0,0.4,0v0.4h-3.3v-0.4c0.1,0,0.2,0,0.4,0
		c0.2,0,0.3,0,0.3-0.1c0.1,0,0.2-0.1,0.2-0.2c0-0.1,0.1-0.2,0.1-0.3v-5.5c0-0.1,0-0.2-0.1-0.3s-0.1-0.2-0.3-0.2
		c-0.1,0-0.3-0.1-0.4-0.1c-0.1,0-0.3,0-0.3,0v-0.4h3.5c0.7,0,1.3,0.2,1.7,0.5C97.4,17.1,97.6,17.6,97.6,18.2z M96,19.5
		c0.1-0.2,0.2-0.4,0.2-0.5s0.1-0.4,0.1-0.5c0-0.2,0-0.4-0.1-0.6c0-0.2-0.1-0.4-0.3-0.6c-0.1-0.2-0.3-0.3-0.5-0.4
		c-0.2-0.1-0.5-0.1-0.8-0.1h-0.8v3.4h0.5c0.4,0,0.7-0.1,0.9-0.2C95.7,19.8,95.9,19.6,96,19.5z"/>
	<path class="st1" d="M111.4,23.9h-3.2v-0.4c0.3,0,0.5-0.1,0.7-0.1c0.2-0.1,0.3-0.1,0.3-0.2c0,0,0-0.1,0-0.1c0,0,0-0.1,0-0.1
		l-0.6-1.7h-2.7c-0.1,0.3-0.2,0.5-0.2,0.7c-0.1,0.2-0.1,0.4-0.2,0.5c0,0.2-0.1,0.3-0.1,0.4c0,0.1,0,0.2,0,0.2c0,0.1,0.1,0.3,0.3,0.3
		c0.2,0.1,0.5,0.1,0.8,0.1v0.4h-2.9v-0.4c0.1,0,0.2,0,0.3-0.1s0.3-0.1,0.3-0.1c0.1-0.1,0.3-0.2,0.3-0.3s0.2-0.3,0.2-0.4
		c0.4-1,0.8-2,1.3-3.2c0.5-1.2,0.9-2.3,1.2-3.2h0.4l2.5,6.6c0.1,0.1,0.1,0.3,0.2,0.3s0.2,0.2,0.3,0.3c0.1,0.1,0.2,0.1,0.3,0.1
		c0.1,0,0.2,0.1,0.3,0.1C111.4,23.5,111.4,23.9,111.4,23.9z M108.3,20.8l-1.2-3l-1.1,3H108.3z"/>
	<path class="st1" d="M125.2,16.7c-0.1,0-0.3,0-0.5,0.1s-0.4,0.1-0.4,0.2c-0.1,0.1-0.2,0.3-0.3,0.5c0,0.3-0.1,0.6-0.1,1V24h-0.5
		l-4.6-6.2v3.9c0,0.4,0,0.8,0.1,1s0.1,0.4,0.3,0.5c0.1,0.1,0.3,0.2,0.5,0.2c0.3,0.1,0.4,0.1,0.5,0.1v0.4h-3.1v-0.4
		c0.1,0,0.3,0,0.5-0.1c0.2-0.1,0.4-0.1,0.4-0.2c0.1-0.1,0.2-0.3,0.3-0.5c0-0.2,0.1-0.6,0.1-1.1V18c0-0.2,0-0.3-0.1-0.5
		c-0.1-0.2-0.1-0.3-0.2-0.4c-0.1-0.1-0.3-0.2-0.5-0.3c-0.2-0.1-0.4-0.1-0.5-0.1v-0.4h2.2l4.3,5.8v-3.6c0-0.4,0-0.8-0.1-1
		c-0.1-0.2-0.1-0.4-0.2-0.5c-0.1-0.1-0.3-0.1-0.5-0.2s-0.4-0.1-0.5-0.1v-0.4h3.1L125.2,16.7L125.2,16.7z"/>
	<path class="st1" d="M138.9,20.1c0,0.6-0.1,1.2-0.4,1.7c-0.2,0.5-0.6,0.9-1,1.2c-0.4,0.3-0.8,0.5-1.3,0.7c-0.5,0.1-1,0.2-1.5,0.2
		h-3.2v-0.4c0.1,0,0.2,0,0.4,0c0.2,0,0.3,0,0.3-0.1c0.1,0,0.2-0.1,0.2-0.2c0-0.1,0.1-0.2,0.1-0.3v-5.5c0-0.1,0-0.2-0.1-0.3
		s-0.1-0.2-0.2-0.2c-0.1-0.1-0.2-0.1-0.4-0.1c-0.1,0-0.2,0-0.3,0v-0.4h3.3c0.5,0,0.9,0.1,1.4,0.2s0.8,0.3,1.2,0.6
		c0.4,0.3,0.8,0.7,1.1,1.3S138.9,19.4,138.9,20.1z M137.6,20.1c0-0.5-0.1-1-0.2-1.4s-0.3-0.8-0.6-1.1c-0.2-0.3-0.6-0.5-0.9-0.7
		c-0.4-0.2-0.8-0.3-1.2-0.3c-0.1,0-0.3,0-0.5,0c-0.2,0-0.3,0-0.4,0v5.9c0,0.3,0.1,0.6,0.3,0.7c0.2,0.1,0.5,0.2,0.9,0.2
		c0.5,0,0.9-0.1,1.2-0.2c0.3-0.2,0.6-0.4,0.8-0.7c0.2-0.3,0.4-0.6,0.5-1C137.5,21.1,137.6,20.7,137.6,20.1z"/>
</g>
<path d="M156.4,24.1c0.4-0.4,0.9-0.7,1.3-1.1c0.5-0.5,1.1-0.9,1.6-1.4c0.5-0.4,1-0.8,1.5-1.2c0.5-0.4,1-0.9,1.6-1.4
	c0.3-0.3,0.7-0.6,1-0.9c0,0,0.1,0,0.2,0c0.6,0.5,1.1,1,1.6,1.4c0.6,0.5,1.2,1,1.8,1.6c0.6,0.5,1.2,1,1.8,1.5c0.5,0.5,1,0.9,1.6,1.4
	c0,0,0.1,0,0.1,0.1c0.1-0.3,0.2-0.7,0.3-1c0-0.1-0.1-0.2-0.1-0.2c-0.6-0.5-1.1-1-1.7-1.5c-0.5-0.5-1.1-0.9-1.6-1.4
	c-0.5-0.4-1-0.9-1.6-1.4c-0.4-0.3-0.8-0.7-1.2-1c-0.3-0.3-0.6-0.5-0.9-0.8c-0.1-0.1-0.2-0.1-0.4,0c-0.5,0.5-1,0.9-1.6,1.4
	c-0.5,0.4-0.9,0.8-1.4,1.2c-0.5,0.4-1,0.9-1.5,1.4c-0.3,0.3-0.6,0.5-0.9,0.8c-0.4,0.4-0.9,0.7-1.4,1.1c-0.1,0.1-0.2,0.1-0.2,0.2
	c-0.3,0.2-0.3,0.2-0.2,0.6C156.3,23.6,156.3,23.8,156.4,24.1z"/>
</svg>
