<?xml version="1.0" encoding="utf-8"?>
<!-- Generator: Adobe Illustrator 19.2.1, SVG Export Plug-In . SVG Version: 6.00 Build 0)  -->
<svg version="1.1" id="Layer_1" xmlns="http://www.w3.org/2000/svg" xmlns:xlink="http://www.w3.org/1999/xlink" x="0px" y="0px"
	 viewBox="0 0 200 41" style="enable-background:new 0 0 200 41;" xml:space="preserve">
<style type="text/css">
	.st0{display:none;}
	.st1{display:inline;fill:#7F7F7F;}
	.st2{font-family:'Georgia';}
	.st3{font-size:11px;}
	.st4{letter-spacing:3;}
	.st5{display:inline;fill:#020202;}
	.st6{enable-background:new    ;}
	.st7{fill:#90624D;}
	.st8{fill:#020202;}
</style>
<g id="Layer_1_copy" class="st0">
	<text transform="matrix(1 0 0 1 72.751 23.9062)" class="st1 st2 st3 st4">EXPAND</text>
	<path class="st5" d="M156.4,24.1c0.4-0.4,0.9-0.7,1.3-1.1c0.5-0.5,1.1-0.9,1.6-1.4c0.5-0.4,1-0.8,1.5-1.2c0.5-0.4,1-0.9,1.6-1.4
		c0.3-0.3,0.7-0.6,1-0.9c0,0,0.1,0,0.2,0c0.6,0.5,1.1,1,1.6,1.4c0.6,0.5,1.2,1,1.8,1.6c0.6,0.5,1.2,1,1.8,1.5c0.5,0.5,1,0.9,1.6,1.4
		c0,0,0.1,0,0.1,0.1c0.1-0.3,0.2-0.7,0.3-1c0-0.1-0.1-0.2-0.1-0.2c-0.6-0.5-1.1-1-1.7-1.5c-0.5-0.5-1.1-0.9-1.6-1.4
		c-0.5-0.4-1-0.9-1.6-1.4c-0.4-0.3-0.8-0.7-1.2-1c-0.3-0.3-0.6-0.5-0.9-0.8c-0.1-0.1-0.2-0.1-0.4,0c-0.5,0.5-1,0.9-1.6,1.4
		c-0.5,0.4-0.9,0.8-1.4,1.2c-0.5,0.4-1,0.9-1.5,1.4c-0.3,0.3-0.6,0.5-0.9,0.8c-0.4,0.4-0.9,0.7-1.4,1.1c-0.1,0.1-0.2,0.1-0.2,0.2
		c-0.3,0.2-0.3,0.2-0.2,0.6C156.3,23.6,156.3,23.8,156.4,24.1z"/>
</g>
<g id="Layer_1_1_">
	<g class="st6">
		<path class="st7" d="M108.2,23.9H105v-0.4c0.1,0,0.2,0,0.4,0c0.2,0,0.3,0,0.3-0.1c0.1,0,0.2-0.1,0.2-0.2s0.1-0.2,0.1-0.3v-2.7
			h-3.6v2.7c0,0.1,0,0.2,0.1,0.3s0.1,0.2,0.2,0.2c0.1,0,0.2,0.1,0.3,0.1c0.2,0,0.3,0.1,0.4,0.1v0.4h-3.2v-0.4c0.1,0,0.2,0,0.4,0
			c0.2,0,0.3,0,0.3-0.1c0.1,0,0.2-0.1,0.2-0.2s0.1-0.2,0.1-0.3v-5.5c0-0.1,0-0.2-0.1-0.3c0-0.1-0.1-0.2-0.2-0.2
			c-0.1,0-0.2-0.1-0.4-0.1s-0.3-0.1-0.4-0.1v-0.4h3.2v0.4c-0.1,0-0.2,0-0.4,0c-0.1,0-0.3,0.1-0.3,0.1c-0.1,0-0.2,0.1-0.2,0.2
			s-0.1,0.2-0.1,0.3v2.4h3.6v-2.3c0-0.1,0-0.2-0.1-0.3c0-0.1-0.1-0.2-0.2-0.2c-0.1,0-0.2-0.1-0.4-0.1c-0.1,0-0.3-0.1-0.4-0.1v-0.4
			h3.2v0.4c-0.1,0-0.2,0-0.4,0c-0.1,0-0.3,0.1-0.3,0.1c-0.1,0-0.2,0.1-0.2,0.2s-0.1,0.2-0.1,0.3v5.5c0,0.1,0,0.2,0.1,0.3
			s0.1,0.2,0.2,0.2c0.1,0,0.2,0.1,0.3,0.1c0.2,0,0.3,0.1,0.4,0.1V23.9z"/>
		<path class="st7" d="M117.6,23.9h-3.4v-0.4c0.1,0,0.2,0,0.4,0c0.2,0,0.3,0,0.4-0.1c0.1,0,0.2-0.1,0.3-0.2c0.1-0.1,0.1-0.2,0.1-0.3
			v-5.5c0-0.1,0-0.2-0.1-0.3s-0.1-0.2-0.3-0.2c-0.1,0-0.2-0.1-0.4-0.1c-0.2,0-0.3-0.1-0.4-0.1v-0.4h3.4v0.4c-0.1,0-0.2,0-0.4,0
			c-0.2,0-0.3,0.1-0.4,0.1c-0.1,0-0.2,0.1-0.3,0.2c0,0.1-0.1,0.2-0.1,0.3v5.5c0,0.1,0,0.2,0.1,0.3c0.1,0.1,0.1,0.2,0.3,0.2
			c0.1,0,0.2,0.1,0.4,0.1c0.2,0,0.3,0.1,0.4,0.1L117.6,23.9L117.6,23.9z"/>
		<path class="st7" d="M130.8,20.1c0,0.6-0.1,1.2-0.4,1.7c-0.2,0.5-0.6,0.9-1,1.2c-0.4,0.3-0.8,0.5-1.3,0.7c-0.5,0.1-1,0.2-1.5,0.2
			h-3.2v-0.4c0.1,0,0.2,0,0.4,0c0.2,0,0.3,0,0.3-0.1c0.1,0,0.2-0.1,0.2-0.2c0-0.1,0.1-0.2,0.1-0.3v-5.5c0-0.1,0-0.2-0.1-0.3
			s-0.1-0.2-0.2-0.2c-0.1-0.1-0.2-0.1-0.4-0.1c-0.1,0-0.2,0-0.3,0v-0.4h3.3c0.5,0,0.9,0.1,1.4,0.2c0.4,0.1,0.8,0.3,1.2,0.6
			c0.4,0.3,0.8,0.7,1.1,1.3S130.8,19.4,130.8,20.1z M129.5,20.1c0-0.5-0.1-1-0.2-1.4s-0.3-0.8-0.6-1.1c-0.2-0.3-0.6-0.5-0.9-0.7
			c-0.4-0.2-0.8-0.3-1.2-0.3c-0.1,0-0.3,0-0.5,0c-0.2,0-0.3,0-0.4,0v5.9c0,0.3,0.1,0.6,0.3,0.7c0.2,0.1,0.5,0.2,0.9,0.2
			c0.5,0,0.9-0.1,1.2-0.2c0.3-0.2,0.6-0.4,0.8-0.7c0.2-0.3,0.4-0.6,0.5-1C129.4,21.1,129.5,20.7,129.5,20.1z"/>
		<path class="st7" d="M143.2,21.7l-0.1,2.2h-6.3v-0.4c0.1,0,0.3,0,0.4,0s0.3,0,0.3-0.1c0.1-0.1,0.2-0.1,0.2-0.2s0.1-0.2,0.1-0.3
			v-5.5c0-0.1,0-0.2-0.1-0.3c0-0.1-0.1-0.2-0.2-0.2c-0.1,0-0.2-0.1-0.4-0.1s-0.3-0.1-0.4-0.1v-0.4h5.9v1.8h-0.4
			c-0.1-0.3-0.2-0.6-0.5-0.9c-0.2-0.3-0.5-0.5-0.7-0.5c-0.1,0-0.2,0-0.4,0s-0.3,0-0.5,0h-1.2v3h0.9c0.3,0,0.5,0,0.6-0.1
			s0.2-0.1,0.3-0.3c0.1-0.1,0.1-0.2,0.2-0.4s0.1-0.3,0.1-0.5h0.4v3H141c0-0.2-0.1-0.4-0.1-0.5s-0.1-0.3-0.2-0.4
			c-0.1-0.1-0.2-0.2-0.4-0.3s-0.3-0.1-0.6-0.1h-0.9v2.3c0,0.2,0,0.4,0,0.5c0,0.1,0.1,0.2,0.2,0.3c0.1,0.1,0.2,0.1,0.4,0.1
			s0.4,0,0.7,0c0.1,0,0.3,0,0.5,0s0.4,0,0.5,0c0.1,0,0.3,0,0.4-0.1c0.1,0,0.2-0.1,0.3-0.2c0.2-0.2,0.3-0.4,0.5-0.8s0.3-0.6,0.3-0.8
			L143.2,21.7L143.2,21.7z"/>
	</g>
	<path class="st8" d="M156.4,16.8c0.4,0.4,0.9,0.7,1.3,1.1c0.5,0.5,1.1,0.9,1.6,1.4c0.5,0.4,1,0.8,1.5,1.2c0.5,0.4,1,0.9,1.6,1.4
		c0.3,0.3,0.7,0.6,1,0.9c0,0,0.1,0,0.2,0c0.6-0.5,1.1-1,1.6-1.4c0.6-0.5,1.2-1,1.8-1.6c0.6-0.5,1.2-1,1.8-1.5c0.5-0.5,1-0.9,1.6-1.4
		c0,0,0.1,0,0.1-0.1c0.1,0.3,0.2,0.7,0.3,1c0,0-0.1,0.2-0.1,0.2c-0.6,0.5-1.1,1-1.7,1.5c-0.5,0.5-1.1,0.9-1.6,1.4
		c-0.5,0.4-1,0.9-1.6,1.4c-0.4,0.3-0.8,0.7-1.2,1c-0.3,0.3-0.6,0.5-0.9,0.8c-0.1,0.1-0.2,0.1-0.4,0c-0.5-0.5-1-0.9-1.6-1.4
		c-0.5-0.4-0.9-0.8-1.4-1.2c-0.5-0.4-1-0.9-1.5-1.4c-0.3-0.3-0.6-0.5-0.9-0.8c-0.4-0.4-0.9-0.7-1.4-1.1c-0.1-0.1-0.2-0.1-0.2-0.2
		c-0.3-0.2-0.3-0.2-0.2-0.6C156.3,17.3,156.3,17.1,156.4,16.8z"/>
</g>
</svg>
