<?xml version="1.0" standalone="no"?>
<!DOCTYPE svg PUBLIC "-//W3C//DTD SVG 1.1//EN" "http://www.w3.org/Graphics/SVG/1.1/DTD/svg11.dtd" >
<svg xmlns="http://www.w3.org/2000/svg" xmlns:xlink="http://www.w3.org/1999/xlink" version="1.1">
<metadata>
Created by FontForge 20150715 at Sat Oct 24 21:56:59 2015
 By Jimmy Wärting
(c) Copyright 2006 Berthold LLC. All Rights Reserved. This font software computer program is the property of Berthold. You may not reproduce, modify, adapt, translate, alter nor create derivative works of the font software. You may not reverse engineer, decompile, decrypt, disassemble, nor seek to discover the source code of the font software.
</metadata>
<defs>
<font id="AGBookRounded-Regular" horiz-adv-x="562" >
  <font-face 
    font-family="AG Book Rounded Regular"
    font-weight="400"
    font-stretch="normal"
    units-per-em="1000"
    panose-1="2 0 5 3 4 0 0 2 0 4"
    ascent="750"
    descent="-250"
    x-height="518"
    cap-height="712"
    bbox="-98 -234 1202 915"
    underline-thickness="50"
    underline-position="-150"
    unicode-range="U+0020-FB02"
  />
<missing-glyph horiz-adv-x="500" 
d="M0 0v706h500v-706h-500zM250 401l170 255h-340zM280 353l170 -258v516zM80 50h340l-170 258zM50 611v-516l170 258z" />
    <glyph glyph-name="fi" unicode="fi" horiz-adv-x="521" 
d="M168 440v-401q0 -45 -47 -45q-21 0 -33 12t-12 33v401h-51q-18 0 -28 11.5t-10 28.5t10 27.5t28 10.5h51v50q0 74 36.5 109.5t115.5 35.5q52 0 52 -39q0 -36 -45 -39l-15 -1q-33 -2 -42.5 -18.5t-9.5 -54.5v-43h74q37 0 37 -38q0 -40 -37 -40h-74zM463 655q0 -25 -15 -40
t-41 -15q-25 0 -40.5 15t-15.5 40q0 26 15.5 41.5t39.5 15.5q26 0 41.5 -16t15.5 -41zM453 479v-439q0 -21 -12.5 -33.5t-31.5 -12.5q-21 0 -34 12t-13 33v440q0 45 44 45q47 0 47 -45z" />
    <glyph glyph-name="fl" unicode="fl" horiz-adv-x="521" 
d="M452 39q0 -20 -12.5 -32.5t-31.5 -12.5q-22 0 -35 12t-13 33v629q0 44 45 44q47 0 47 -44v-629zM168 440v-401q0 -45 -47 -45q-21 0 -33 12t-12 33v401h-51q-18 0 -28 11.5t-10 28.5t10 27.5t28 10.5h51v50q0 74 36.5 109.5t115.5 35.5q52 0 52 -39q0 -36 -45 -39l-15 -1
q-33 -2 -42.5 -18.5t-9.5 -54.5v-43h74q37 0 37 -38q0 -40 -37 -40h-74z" />
    <glyph glyph-name=".notdef" horiz-adv-x="500" 
d="M0 0v706h500v-706h-500zM250 401l170 255h-340zM280 353l170 -258v516zM80 50h340l-170 258zM50 611v-516l170 258z" />
    <glyph glyph-name=".null" horiz-adv-x="0" 
 />
    <glyph glyph-name="nonmarkingreturn" horiz-adv-x="333" 
 />
    <glyph glyph-name="space" unicode=" " horiz-adv-x="292" 
 />
    <glyph glyph-name="exclam" unicode="!" horiz-adv-x="292" 
d="M215 665v-168q0 -45 -7 -127l-13 -166q-1 -25 -29 -25q-26 0 -28 24l-15 167q-7 77 -7 128v167q0 22 13 34.5t36 12.5q50 0 50 -47zM227 54q0 -27 -17 -43.5t-44 -16.5q-26 0 -43 17t-17 43q0 28 16.5 44.5t44.5 16.5q27 0 43.5 -17t16.5 -44z" />
    <glyph glyph-name="quotedbl" unicode="&#x22;" horiz-adv-x="346" 
d="M240 467l-25 217q-1 7 -1 17q0 20 13 33.5t31 13.5q19 0 31.5 -13.5t12.5 -33.5q0 -3 -3 -27l-22 -206q-2 -14 -5.5 -19.5t-12.5 -5.5q-10 0 -13.5 5t-5.5 19zM71 467l-25 217q-1 7 -1 17q0 20 13 33.5t31 13.5q19 0 31.5 -13.5t12.5 -33.5q0 -3 -3 -27l-22 -206
q-2 -14 -5.5 -19.5t-12.5 -5.5q-10 0 -13.5 5t-5.5 19z" />
    <glyph glyph-name="numbersign" unicode="#" horiz-adv-x="668" 
d="M295 472h108l28 203q6 36 32 36q31 0 31 -30q0 -11 -3 -30l-26 -178h143q24 0 24 -28q0 -29 -26 -29h-148l-16 -110h140q24 0 24 -28q0 -29 -26 -29h-146l-30 -219q-3 -21 -9.5 -28.5t-22.5 -7.5q-31 0 -31 30q0 3 3 24l29 201h-109l-30 -219q-4 -36 -33 -36
q-30 0 -30 30q0 6 3 30l28 194h-142q-24 0 -24 28q0 29 26 29h147l16 110h-138q-24 0 -24 29q0 28 25 28h145l28 203q3 20 10 28t22 8q31 0 31 -30q0 -1 -4 -29zM288 415l-16 -109h108l16 109h-108z" />
    <glyph glyph-name="dollar" unicode="$" horiz-adv-x="583" 
d="M329 771v-67q45 -3 81 -19.5t56 -37t33 -44.5t17.5 -39.5t4.5 -23.5q0 -20 -13.5 -31t-32.5 -11q-29 0 -41 29q-10 25 -17.5 39.5t-30.5 33t-57 25.5v-218q113 -35 159.5 -83.5t46.5 -130.5q0 -87 -65 -142q-52 -43 -142 -54v-63q0 -13 -2 -20.5t-9.5 -13.5t-21.5 -6
q-19 0 -25 10t-6 30v63q-100 10 -158 67q-28 28 -46.5 64.5t-18.5 58.5q0 23 14.5 36t35.5 13q35 0 47 -42q27 -99 126 -114v246q-34 11 -53.5 18.5t-49.5 24.5t-46.5 35t-29 48t-12.5 66q0 82 53 131t140 56v67q0 35 32 35q31 0 31 -36zM328 302v-223q110 20 110 110
q0 46 -28.5 71.5t-81.5 41.5zM265 429v197q-50 -6 -72 -35.5t-22 -63.5q0 -22 6.5 -37.5t22.5 -27t28.5 -17.5t36.5 -16z" />
    <glyph glyph-name="percent" unicode="%" horiz-adv-x="833" 
d="M341 465q0 -103 -43 -161t-122 -58q-162 0 -162 222q0 234 168 234q159 0 159 -237zM267 471q0 170 -87 170q-45 0 -69 -44t-24 -126q0 -162 93 -162q87 0 87 162zM820 212q0 -103 -43 -161t-122 -58q-162 0 -162 222q0 234 168 234q159 0 159 -237zM746 218
q0 170 -87 170q-45 0 -69 -44t-24 -126q0 -162 93 -162q87 0 87 162zM569 654l-254 -642q-7 -18 -25 -18q-11 0 -21.5 6.5t-10.5 18.5q0 4 10 31l249 630q9 20 26 20q11 0 21 -7t10 -17t-5 -22z" />
    <glyph glyph-name="ampersand" unicode="&#x26;" horiz-adv-x="646" 
d="M512 122q32 -29 49 -38t42 -9q15 0 24.5 -11.5t9.5 -26.5q0 -43 -60 -43q-42 0 -71 16t-60 51q-79 -64 -186 -64q-100 0 -160.5 56.5t-60.5 141.5q0 50 22.5 91.5t49 64t75.5 55.5q-62 80 -62 153q0 64 45 103t110 39q66 0 111 -39t45 -104q0 -37 -21.5 -71.5t-45.5 -54
t-63 -45.5q26 -39 81.5 -109t69.5 -89q27 39 48 120q8 33 38 33q21 0 36.5 -12.5t15.5 -33.5q0 -32 -28 -88t-54 -86zM257 454q3 2 21.5 15.5t26 20.5t20.5 19.5t18 25.5t5 27q0 28 -19 45t-47 17t-47 -18.5t-19 -46.5q0 -45 41 -105zM233 339q-98 -63 -98 -137
q0 -56 39.5 -89t95.5 -33q68 0 123 42q-17 23 -51.5 68.5t-61 81t-47.5 67.5z" />
    <glyph glyph-name="quotesingle" unicode="'" horiz-adv-x="177" 
d="M71 467l-25 217q-1 7 -1 17q0 20 13 33.5t31 13.5q19 0 31.5 -13.5t12.5 -33.5q0 -3 -3 -27l-22 -206q-2 -14 -5.5 -19.5t-12.5 -5.5q-10 0 -13.5 5t-5.5 19z" />
    <glyph glyph-name="parenleft" unicode="(" horiz-adv-x="305" 
d="M288 -158q-21 0 -80 65q-74 84 -114.5 192t-40.5 226q0 132 55 251q35 76 89.5 146t79.5 70q12 0 22 -8.5t10 -20.5q0 -9 -17 -31q-45 -61 -63 -91q-85 -142 -85 -308q0 -98 32 -199.5t88 -184.5q7 -11 22 -30t23 -31t8 -19q0 -11 -8.5 -19t-20.5 -8z" />
    <glyph glyph-name="parenright" unicode=")" horiz-adv-x="305" 
d="M16 792q21 0 79 -65q75 -83 115 -191t40 -227q0 -134 -54 -251q-35 -76 -90 -146t-79 -70q-12 0 -22 9t-10 20q0 9 17 31q45 61 63 91q85 142 85 308q0 202 -120 384q-7 11 -22 29.5t-23 30.5t-8 20q0 11 8.5 19t20.5 8z" />
    <glyph glyph-name="asterisk" unicode="*" horiz-adv-x="417" 
d="M248 590l76 24q12 4 19 4q16 0 26 -14.5t10 -31.5q0 -25 -28 -33l-78 -23l55 -74q9 -13 9 -23q0 -16 -14.5 -28.5t-30.5 -12.5q-19 0 -31 17l-51 75l-52 -73q-12 -17 -28 -17t-31 12.5t-15 28.5q0 9 9 23l52 70l-81 26q-26 9 -26 33q0 17 10 31.5t26 14.5q8 0 24 -6
l71 -25q-2 72 -2 88q0 36 40 36q41 0 41 -37v-85z" />
    <glyph glyph-name="plus" unicode="+" horiz-adv-x="724" 
d="M406 259v-190q0 -42 -44 -42t-44 42v190h-194q-17 0 -27 11.5t-10 30.5q0 41 40 41h191v189q0 20 12 31.5t32 11.5t32 -11.5t12 -31.5v-189h194q16 0 26.5 -11.5t10.5 -29.5q0 -42 -40 -42h-191z" />
    <glyph glyph-name="comma" unicode="," horiz-adv-x="208" 
d="M96 -14v8q-4 -1 -8 -1q-22 1 -33.5 16t-11.5 37q0 26 15.5 43.5t41.5 17.5t45.5 -18.5t19.5 -59.5q0 -62 -33 -118t-58 -56q-9 0 -16 9t-7 19q0 9 7 18t15.5 16.5t15.5 25.5t7 43z" />
    <glyph glyph-name="hyphen" unicode="-" horiz-adv-x="371" 
d="M295 261h-221q-17 0 -27 11t-10 29q0 39 39 39h221q16 0 26.5 -11t10.5 -28q0 -40 -39 -40z" />
    <glyph glyph-name="period" unicode="." horiz-adv-x="208" 
d="M161 51q0 -26 -16 -41.5t-42 -15.5q-25 0 -40 16t-15 41t15 40.5t40 15.5q26 0 42 -15t16 -41z" />
    <glyph glyph-name="slash" unicode="/" horiz-adv-x="354" 
d="M310 662l-186 -639q-9 -29 -40 -29q-17 0 -29.5 9.5t-12.5 25.5q0 8 2 16l186 639q8 28 39 28q16 0 29.5 -9.5t13.5 -24.5q0 -11 -2 -16z" />
    <glyph glyph-name="zero" unicode="0" 
d="M534 359q0 -56 -6 -104.5t-23.5 -98.5t-45.5 -85.5t-74 -58t-107 -22.5q-68 0 -118 27.5t-78 77.5t-41 112t-13 139q0 175 66 267t199 92q36 0 67.5 -8.5t64 -32t56 -60.5t38.5 -100t15 -145zM437 360q0 49 -4.5 87.5t-18.5 83.5t-46.5 70.5t-81.5 25.5q-43 0 -74 -20
t-47.5 -48.5t-26 -71t-11.5 -75t-2 -73.5q0 -269 157 -269q35 0 62 13.5t43.5 39t27 52.5t15 63.5t6 62.5t1.5 59z" />
    <glyph glyph-name="one" unicode="1" 
d="M271 491h-133q-34 0 -34 38q0 25 17 28q74 13 107.5 33t60.5 81q7 16 14 23t22 7q41 0 41 -37v-624q0 -46 -48 -46q-47 0 -47 46v451z" />
    <glyph glyph-name="two" unicode="2" 
d="M477 0h-394q-48 0 -48 59q0 34 19 50l171 149q91 79 131.5 130t40.5 109q0 57 -33.5 91t-91.5 34q-42 0 -76.5 -20t-49.5 -57q-4 -9 -7.5 -40.5t-14.5 -48.5t-37 -17q-22 0 -35 13t-13 35q0 39 17 81q56 137 220 137q97 0 158 -52t61 -147q0 -71 -39 -135.5t-148 -155.5
l-152 -128h320q45 0 45 -43q0 -44 -44 -44z" />
    <glyph glyph-name="three" unicode="3" 
d="M390 369q58 -14 91.5 -61t33.5 -109q0 -25 -7 -51.5t-25.5 -55.5t-46 -51t-73 -36.5t-103.5 -14.5q-57 0 -102.5 16t-72 39.5t-44 53t-23.5 53.5t-6 44t15.5 31t36.5 11q8 0 15 -3t11 -6t8 -11.5t5 -11.5t4 -14.5t4 -13.5q16 -56 53 -81t98 -25q67 0 111.5 34.5
t44.5 98.5q0 52 -37 85.5t-108 33.5q-23 0 -34 1.5t-22 11t-11 29.5q0 26 16 34.5t47 8.5q52 0 89 26t37 76q0 52 -32.5 80.5t-84.5 28.5q-88 0 -125 -57q-7 -11 -14 -36.5t-17.5 -39.5t-33.5 -14q-22 0 -35 12t-13 33q0 32 25 74t53 64q61 49 157 49q59 0 103.5 -19t68 -49
t34.5 -60t11 -58q0 -53 -26.5 -92.5t-75.5 -57.5z" />
    <glyph glyph-name="four" unicode="4" 
d="M417 240h70q39 0 39 -40q0 -19 -10.5 -30t-29.5 -11h-69v-119q0 -21 -13 -33t-34 -12q-48 0 -48 45v120h-260q-28 0 -37.5 15t-9.5 45q0 27 12 44l307 420q12 17 38 17q45 0 45 -38v-423zM111 240h211v294z" />
    <glyph glyph-name="five" unicode="5" 
d="M467 609h-277l-28 -185q55 44 141 44q101 0 164 -66t63 -168q0 -111 -68 -177.5t-180 -66.5q-143 0 -206 102q-28 43 -28 77q0 20 16 31t38 11q13 0 22.5 -7t13 -13t9.5 -21.5t8 -19.5q36 -78 128 -78q69 0 110.5 44.5t41.5 113.5q0 72 -41.5 114t-113.5 42
q-36 0 -64.5 -11.5t-42.5 -25t-30.5 -25t-31.5 -11.5q-20 0 -32.5 10.5t-12.5 28.5q0 8 4 40l38 262q7 41 48 41h310q44 0 44 -44q0 -19 -11.5 -30.5t-31.5 -11.5z" />
    <glyph glyph-name="six" unicode="6" 
d="M540 226q0 -106 -65.5 -171t-171.5 -65q-117 0 -188 85.5t-71 267.5q0 54 8.5 104t28 98t49.5 83t77 56t105 21q127 0 185 -95q24 -39 24 -64q0 -19 -13 -30t-33 -11q-18 0 -27 8.5t-19 32.5q-33 80 -125 80q-49 0 -84 -25.5t-52 -68.5t-24.5 -86t-7.5 -90q25 50 73 75.5
t106 25.5q103 0 164 -64t61 -167zM445 223q0 68 -36.5 109t-103.5 41q-66 0 -106 -40t-40 -106q0 -67 40 -111t107 -44q63 0 101 43.5t38 107.5z" />
    <glyph glyph-name="seven" unicode="7" 
d="M405 602h-312q-21 0 -33 12t-12 34t12 34.5t33 12.5h383q21 0 31.5 -14t10.5 -36q0 -11 -5.5 -23.5t-10.5 -18.5l-17.5 -21t-14.5 -17q-27 -32 -47 -60q-129 -186 -168 -423q-8 -53 -18 -70.5t-40 -17.5q-52 0 -52 47q0 39 28 130q90 289 232 431z" />
    <glyph glyph-name="eight" unicode="8" 
d="M537 202q0 -103 -73 -157.5t-179 -54.5q-110 0 -185 54.5t-75 159.5q0 65 36 115t96 64q-51 24 -74.5 57.5t-23.5 88.5q0 72 55 124t171 52q93 0 158 -46.5t65 -135.5q0 -102 -97 -142q59 -15 92.5 -65.5t33.5 -113.5zM414 524q0 50 -37 75.5t-89 25.5q-59 0 -98 -24.5
t-39 -80.5q0 -53 38.5 -77.5t93.5 -24.5q57 0 94 26t37 80zM442 206q0 66 -47 98t-116 32q-66 0 -112 -34.5t-46 -98.5t48 -97t115 -33q69 0 113.5 33.5t44.5 99.5z" />
    <glyph glyph-name="nine" unicode="9" 
d="M521 358q0 -55 -8 -105.5t-27 -99t-49 -84t-77 -57.5t-107 -22q-62 0 -113.5 26t-79.5 78q-18 34 -18 52q0 19 15 32t34 13q16 0 26 -8.5t21 -33.5q35 -79 119 -79q50 0 86 25.5t53.5 68.5t25 86t7.5 90q-21 -49 -70 -75.5t-107 -26.5q-104 0 -166 63.5t-62 169.5
q0 105 67.5 169.5t173.5 64.5q37 0 71 -9t68.5 -33t59.5 -62t41 -100.5t16 -142.5zM407 469q0 66 -41 110t-106 44t-103 -43t-38 -109q0 -65 38 -107t103 -42t106 41t41 106z" />
    <glyph glyph-name="colon" unicode=":" horiz-adv-x="250" 
d="M202 420q0 -25 -15.5 -40.5t-40.5 -15.5q-26 0 -41.5 15.5t-15.5 40.5t15 41t41 16t41.5 -15t15.5 -42zM202 51q0 -25 -16 -41t-41 -16t-40.5 16t-15.5 41t15.5 40.5t40.5 15.5q24 0 40.5 -14.5t16.5 -41.5z" />
    <glyph glyph-name="semicolon" unicode=";" horiz-adv-x="250" 
d="M138 -14v8q-4 -1 -8 -1q-22 1 -33.5 16t-11.5 37q0 26 15.5 43.5t41.5 17.5t45.5 -18.5t19.5 -59.5q0 -62 -33 -118t-58 -56q-9 0 -16 9t-7 19q0 9 7 18t15.5 16.5t15.5 25.5t7 43zM199 420q0 -25 -15.5 -40.5t-40.5 -15.5q-26 0 -41.5 15.5t-15.5 40.5t15 41t41 16
t41.5 -15t15.5 -42z" />
    <glyph glyph-name="less" unicode="&#x3c;" horiz-adv-x="724" 
d="M202 304l362 -179q24 -11 24 -34q0 -20 -11.5 -34.5t-27.5 -14.5q-5 0 -13 4l-410 205q-30 16 -30 50q0 37 31 52l409 206q8 4 15 4q15 0 26 -14t11 -32q0 -22 -26 -35z" />
    <glyph glyph-name="equal" unicode="=" horiz-adv-x="724" 
d="M592 348h-463q-16 0 -26.5 11.5t-10.5 29.5q0 41 40 41h463q16 0 26.5 -11.5t10.5 -29.5q0 -41 -40 -41zM592 161h-463q-16 0 -26.5 11.5t-10.5 29.5q0 41 40 41h463q16 0 26.5 -11.5t10.5 -29.5q0 -41 -40 -41z" />
    <glyph glyph-name="greater" unicode="&#x3e;" horiz-adv-x="724" 
d="M521 300l-362 180q-24 11 -24 34q0 20 11.5 34.5t28.5 14.5q4 0 12 -4l410 -205q31 -15 31 -50q0 -36 -32 -52l-407 -206q-10 -5 -17 -5q-15 0 -26 14.5t-11 32.5q0 20 27 34z" />
    <glyph glyph-name="question" unicode="?" horiz-adv-x="479" 
d="M458 534q0 -88 -74 -150l-47 -40q-43 -36 -54.5 -56t-11.5 -56q0 -54 -44 -54q-43 0 -43 41q0 72 11 101t51 62l37 30q24 20 39 35t29 41t14 53q0 43 -28.5 69.5t-77.5 26.5q-86 0 -102 -78q-3 -15 -5 -21t-7 -14t-13.5 -11t-21.5 -3q-21 0 -32.5 12.5t-11.5 31.5
q0 12 4 29t16.5 41.5t32.5 44t56.5 34t82.5 14.5q88 0 144 -50.5t56 -132.5zM289 55q0 -28 -17 -44.5t-44 -16.5q-26 0 -43 16.5t-17 43.5t16.5 44t44.5 17q26 0 43 -16t17 -44z" />
    <glyph glyph-name="at" unicode="@" horiz-adv-x="901" 
d="M643 462l-26 -117q-28 -131 -28 -169q0 -46 31 -46q35 0 69.5 45t55.5 111t21 126q0 112 -66 179t-177 67q-156 0 -269 -121.5t-113 -290.5q0 -142 85.5 -228.5t224.5 -86.5q79 0 158 30.5t142 86.5q29 26 40 26q10 0 18 -9t8 -20q0 -10 -10 -21q-69 -69 -167 -108.5
t-191 -39.5q-169 0 -274 102t-105 267q0 94 36.5 180.5t97 149t144 100t174.5 37.5q140 0 223.5 -81t83.5 -216q0 -134 -70.5 -239.5t-161.5 -105.5q-35 0 -56.5 23.5t-24.5 64.5q-59 -87 -144 -87q-60 0 -95.5 44t-35.5 120q0 111 64 196.5t147 85.5q77 0 115 -84l10 39
q5 17 12 24t22 7q14 0 23.5 -7.5t9.5 -19.5q0 -9 -1 -14zM544 352q0 47 -23 75.5t-61 28.5q-59 0 -102.5 -66t-43.5 -155q0 -47 22.5 -74.5t60.5 -27.5q58 0 102.5 66t44.5 153z" />
    <glyph glyph-name="A" unicode="A" horiz-adv-x="604" 
d="M435 214h-265l-69 -191q-11 -29 -42 -29q-25 0 -37 14.5t-12 28.5q0 5 4 17l231 628q6 17 18 24t41 7q41 0 53 -32l234 -627q3 -9 3 -18q0 -18 -14.5 -30t-33.5 -12q-30 0 -41 29zM405 295l-104 285l-103 -285h207z" />
    <glyph glyph-name="B" unicode="B" horiz-adv-x="646" 
d="M78 47v612q0 25 11 36t36 11h233q53 0 93 -11t63 -28t37 -41t19 -46.5t5 -47.5q0 -126 -111 -156q65 -11 99.5 -58.5t34.5 -116.5q0 -201 -268 -201h-205q-47 0 -47 47zM173 623v-209h167q141 0 141 104q0 30 -11 50.5t-25.5 31t-41 16t-44.5 6.5t-48 1h-138zM173 331
v-247h144q39 0 67.5 4t58 16t45 38t15.5 65t-14 65.5t-39.5 38t-50 16t-56.5 4.5h-170z" />
    <glyph glyph-name="C" unicode="C" horiz-adv-x="708" 
d="M51 347q0 166 84 268t247 102q185 0 263 -129q30 -48 30 -83q0 -18 -16 -29.5t-35 -11.5q-24 0 -38 27q-42 82 -84 111.5t-123 29.5q-60 0 -105.5 -23.5t-71 -64.5t-38 -90.5t-12.5 -107.5q0 -120 57.5 -197.5t173.5 -77.5q150 0 206 135q14 34 44 34q19 0 35 -10t16 -28
q0 -32 -35 -84q-89 -128 -267 -128q-165 0 -248 94t-83 263z" />
    <glyph glyph-name="D" unicode="D" horiz-adv-x="708" 
d="M125 706h203q100 0 164 -28q88 -39 126.5 -125t38.5 -194q0 -118 -39 -197q-25 -51 -60 -84.5t-80.5 -49.5t-89.5 -22t-104 -6h-159q-47 0 -47 47v612q0 47 47 47zM173 623v-539h124q108 0 158 30q56 33 81 100.5t25 143.5q0 103 -38 167q-33 58 -84 78t-127 20h-139z
" />
    <glyph glyph-name="E" unicode="E" horiz-adv-x="604" 
d="M173 403h324q19 0 29.5 -11.5t10.5 -29.5q0 -42 -40 -42h-324v-235h358q40 0 40 -41q0 -44 -40 -44h-406q-47 0 -47 47v612q0 47 47 47h389q42 0 42 -43q0 -45 -42 -45h-341v-215z" />
    <glyph glyph-name="F" unicode="F" horiz-adv-x="542" 
d="M174 404h293q18 0 29 -10.5t11 -29.5q0 -42 -40 -42h-293v-282q0 -21 -14 -33.5t-35 -12.5q-47 0 -47 46v619q0 47 47 47h371q42 0 42 -42q0 -44 -42 -44h-322v-216z" />
    <glyph glyph-name="G" unicode="G" horiz-adv-x="750" 
d="M678 318v-287q0 -37 -41 -37q-38 0 -40 35l-3 65q-30 -51 -91 -78t-128 -27q-77 0 -136.5 25.5t-94 63.5t-56.5 89.5t-29.5 96.5t-7.5 90q0 160 86.5 261.5t244.5 101.5q191 0 265 -139q25 -45 25 -73q0 -18 -16.5 -29.5t-34.5 -11.5q-26 0 -38 27q-33 74 -79 108
t-119 34q-121 0 -177 -79.5t-56 -204.5q0 -121 59 -199t173 -78q89 0 146 56t65 155h-182q-41 0 -41 40q0 42 41 42h218q22 0 34.5 -13t12.5 -34z" />
    <glyph glyph-name="H" unicode="H" horiz-adv-x="708" 
d="M536 319h-365v-279q0 -22 -12.5 -34t-35.5 -12q-21 0 -33 12.5t-12 33.5v627q0 22 12.5 33.5t33.5 11.5q47 0 47 -45v-265h365v264q0 21 12.5 33.5t33.5 12.5q22 0 35 -12t13 -33v-627q0 -20 -12.5 -33t-32.5 -13q-49 0 -49 46v279z" />
    <glyph glyph-name="I" unicode="I" horiz-adv-x="250" 
d="M172 666v-626q0 -46 -49 -46q-21 0 -33 12.5t-12 33.5v626q0 46 49 46q21 0 33 -12.5t12 -33.5z" />
    <glyph glyph-name="J" unicode="J" horiz-adv-x="479" 
d="M400 667v-479q0 -101 -49 -149t-133 -48q-57 0 -97.5 20t-60 52t-27.5 61.5t-8 59.5q0 21 13 33t34 12q36 0 42 -46q7 -55 31.5 -81.5t71.5 -26.5q29 0 48 10.5t27 31.5t10.5 40t2.5 48v461q0 22 12.5 34t33.5 12q49 0 49 -45z" />
    <glyph glyph-name="K" unicode="K" horiz-adv-x="625" 
d="M355 413l269 -341q11 -14 11 -28q0 -21 -15.5 -35.5t-36.5 -14.5q-25 0 -40 20l-257 333l-114 -111v-196q0 -46 -46 -46q-22 0 -35 12t-13 34v627q0 45 47 45q48 0 48 -45v-317l344 348q12 14 32 14q18 0 32.5 -13t14.5 -31q0 -16 -14 -30z" />
    <glyph glyph-name="L" unicode="L" horiz-adv-x="542" 
d="M174 87h331q43 0 43 -43q0 -44 -43 -44h-380q-47 0 -47 47v620q0 45 48 45t48 -45v-580z" />
    <glyph glyph-name="M" unicode="M" horiz-adv-x="833" 
d="M418 141l211 541q12 31 61 31q66 0 66 -48v-627q0 -21 -12.5 -32.5t-33.5 -11.5q-47 0 -47 44v502l-204 -523q-9 -23 -43 -23q-35 0 -43 23l-203 521v-500q0 -44 -45 -44q-47 0 -47 43v628q0 48 66 48q52 0 63 -31z" />
    <glyph glyph-name="N" unicode="N" horiz-adv-x="708" 
d="M538 158v511q0 20 13 31.5t34 11.5q45 0 45 -43v-630q0 -45 -53 -45q-33 0 -47 21l-358 530v-506q0 -45 -46 -45q-48 0 -48 44v631q0 44 59 44q31 0 46 -22z" />
    <glyph glyph-name="O" unicode="O" horiz-adv-x="771" 
d="M720 359q0 -162 -92 -265.5t-242 -103.5q-157 0 -246 100.5t-89 259.5q0 169 94.5 268t242.5 99q146 0 239 -95t93 -263zM620 360q0 119 -63 197t-170 78q-110 0 -173 -80t-63 -192q0 -78 22.5 -141.5t76.5 -106t133 -42.5q78 0 133.5 42t79.5 105.5t24 139.5z" />
    <glyph glyph-name="P" unicode="P" horiz-adv-x="604" 
d="M174 284v-245q0 -21 -13 -33t-34 -12q-49 0 -49 45v620q0 26 11 36.5t36 10.5h207q78 0 132.5 -19.5t88.5 -76.5q28 -48 28 -119q0 -70 -33 -120.5t-97 -72.5q-41 -14 -117 -14h-160zM175 623v-254h146q77 0 108 17q57 32 57 111q0 44 -22 75q-23 32 -61.5 41.5
t-93.5 9.5h-134z" />
    <glyph glyph-name="Q" unicode="Q" horiz-adv-x="771" 
d="M645 112l67 -68q13 -15 13 -29q0 -17 -14.5 -31.5t-31.5 -14.5q-16 0 -29 13l-69 68q-80 -60 -196 -60q-152 0 -242.5 98t-90.5 264q0 106 39 187q38 76 112.5 127t181.5 51q152 0 243 -98t91 -267q0 -140 -74 -240zM517 113l-47 48q-9 9 -9 21q0 17 16.5 34t35.5 17
q13 0 21 -8l43 -45q43 78 43 181q0 126 -65.5 200.5t-169.5 74.5q-101 0 -167.5 -75.5t-66.5 -206.5q0 -125 62 -203.5t173 -78.5q68 0 131 41z" />
    <glyph glyph-name="R" unicode="R" horiz-adv-x="667" 
d="M171 294v-255q0 -20 -12 -32.5t-33 -12.5q-22 0 -35 12t-13 33v620q0 25 11.5 36t35.5 11h237q240 0 240 -201q0 -65 -34.5 -111.5t-96.5 -57.5q22 -3 39 -9.5t28.5 -18.5t18.5 -22.5t12.5 -30t8 -31t6 -36t5.5 -35.5q18 -102 18 -111q0 -48 -45 -48q-28 0 -43.5 28.5
t-24.5 92.5q-1 6 -3.5 24t-3.5 25.5t-3.5 22.5t-5 23t-6 19t-8 18.5t-9.5 13.5q-30 33 -119 33h-165zM171 624v-250h174q33 0 57.5 4.5t50 16.5t39 38t13.5 66q0 35 -12.5 59.5t-30 37t-47.5 19t-52 8t-57 1.5h-135z" />
    <glyph glyph-name="S" unicode="S" horiz-adv-x="625" 
d="M567 198q0 -46 -16 -82.5t-41.5 -59.5t-60.5 -38t-70 -21.5t-72 -6.5q-122 0 -192 56q-41 33 -60.5 77t-19.5 67q0 26 19 36.5t38 10.5q34 0 40 -29q6 -27 16 -48t30 -42.5t55 -33t83 -11.5q47 0 80 12t48 31t21.5 36.5t6.5 36.5q0 18 -4 31.5t-17 31t-43.5 33.5
t-77.5 29l-96 27q-30 8 -46.5 13.5t-43 19.5t-41 31t-26 46t-11.5 66q0 91 61.5 145.5t178.5 54.5t181 -54q29 -24 48.5 -60t19.5 -58t-14.5 -34t-35.5 -12q-23 0 -34 21l-9 18t-10.5 20t-11.5 18.5t-15.5 19.5t-20.5 16t-26.5 13.5t-33 8t-42.5 3.5q-60 0 -99 -27t-39 -82
q0 -41 25 -58.5t93 -37.5l110 -32q102 -30 138.5 -81.5t36.5 -120.5z" />
    <glyph glyph-name="T" unicode="T" horiz-adv-x="542" 
d="M319 621v-581q0 -21 -12.5 -33.5t-33.5 -12.5q-49 0 -49 46v581h-177q-41 0 -41 43q0 42 41 42h447q20 0 30.5 -12.5t10.5 -30.5q0 -42 -41 -42h-175z" />
    <glyph glyph-name="U" unicode="U" horiz-adv-x="688" 
d="M609 667v-406q0 -24 -0.5 -39.5t-5.5 -46.5t-14 -52.5t-28 -48.5t-45.5 -44t-68.5 -28.5t-95 -11.5q-55 0 -98.5 11t-71.5 27t-48.5 42t-31 49.5t-16.5 56t-7 54t-1 50.5v387q0 45 48 45q21 0 34.5 -11.5t13.5 -33.5v-394q0 -29 2.5 -52t13 -51t28.5 -47t51 -32t78 -13
q169 0 169 175v414q0 20 13 32.5t33 12.5t33.5 -12.5t13.5 -32.5z" />
    <glyph glyph-name="V" unicode="V" horiz-adv-x="583" 
d="M294 139l198 543q11 30 43 30q19 0 33.5 -12t14.5 -30q0 -11 -3 -20l-232 -626q-11 -30 -54 -30q-22 0 -34.5 6t-19.5 24l-236 624q-4 9 -4 21q0 20 16 31.5t36 11.5q32 0 43 -31z" />
    <glyph glyph-name="W" unicode="W" horiz-adv-x="917" 
d="M668 142l160 539q9 31 41 31q19 0 33.5 -11t14.5 -29q0 -8 -2 -16l-193 -629q-6 -20 -18.5 -26.5t-35.5 -6.5q-46 0 -55 33l-155 526l-142 -524q-10 -35 -56 -35q-43 0 -54 32l-203 628q-3 8 -3 18q0 17 14.5 28.5t34.5 11.5q35 0 44 -31l169 -538l143 535q10 35 54 35
t54 -34z" />
    <glyph glyph-name="X" unicode="X" horiz-adv-x="583" 
d="M346 370l218 -302q10 -13 10 -27q0 -19 -15 -33t-35 -14q-22 0 -37 21l-197 279l-192 -278q-16 -22 -39 -22q-20 0 -34.5 14.5t-14.5 34.5q0 14 9 27l212 298l-193 269q-10 14 -10 29q0 19 16.5 32.5t34.5 13.5q23 0 38 -21l171 -246l176 247q15 21 35 21t36 -13.5
t16 -32.5q0 -16 -10 -29z" />
    <glyph glyph-name="Y" unicode="Y" 
d="M325 285v-246q0 -22 -13 -33.5t-34 -11.5t-33.5 12t-12.5 33v246l-224 356q-8 13 -8 27q0 19 15.5 31.5t33.5 12.5q28 0 41 -22l193 -307l192 307q14 22 38 22q19 0 34.5 -13.5t15.5 -31.5q0 -13 -9 -26z" />
    <glyph glyph-name="Z" unicode="Z" horiz-adv-x="604" 
d="M140 84h395q41 0 41 -42t-41 -42h-474q-45 0 -45 56q0 23 14 40l433 525h-361q-42 0 -42 43q0 42 42 42h453q38 0 38 -43q0 -23 -11 -37z" />
    <glyph glyph-name="bracketleft" unicode="[" horiz-adv-x="284" 
d="M171 712v-789h84q38 0 38 -37q0 -38 -40 -38h-111q-32 0 -44 11.5t-12 42.5v829q0 29 11 41t37 12h122q39 0 39 -34q0 -20 -9.5 -29t-31.5 -9h-83z" />
    <glyph glyph-name="backslash" unicode="\" horiz-adv-x="354" 
d="M124 684l186 -639q2 -10 2 -14q0 -16 -12 -26.5t-30 -10.5q-32 0 -40 28l-182 627q-5 20 -5 26q0 37 41 37q32 0 40 -28z" />
    <glyph glyph-name="bracketright" unicode="]" horiz-adv-x="284" 
d="M112 -80v790h-84q-38 0 -38 37q0 38 40 38h111q32 0 44 -11.5t12 -42.5v-830q0 -29 -11 -41t-37 -12h-122q-39 0 -39 35q0 20 9.5 28.5t31.5 8.5h83z" />
    <glyph glyph-name="asciicircum" unicode="^" horiz-adv-x="724" 
d="M361 612l-142 -314q-12 -26 -34 -26q-20 0 -35 11t-15 27q0 9 4 17l163 340q15 30 28 39.5t33 9.5q21 0 34 -10t27 -41l160 -337q4 -8 4 -17q0 -15 -13.5 -26t-32.5 -11q-24 0 -36 26z" />
    <glyph glyph-name="underscore" unicode="_" horiz-adv-x="500" 
d="M9 -128h480q46 0 46 -49q0 -23 -12.5 -36.5t-34.5 -13.5h-480q-21 0 -33.5 13.5t-12.5 36.5q0 49 47 49z" />
    <glyph glyph-name="grave" unicode="`" horiz-adv-x="292" 
d="M85 700q0 18 16.5 30t35.5 12q27 0 38 -30l30 -90q2 -6 2 -12q0 -12 -11 -20.5t-24 -8.5q-15 0 -26 15l-53 78q-8 12 -8 26z" />
    <glyph glyph-name="a" unicode="a" horiz-adv-x="521" 
d="M451 351v-317q0 -40 -41 -40t-41 50v20q-25 -36 -69 -55t-91 -19q-75 0 -122 42t-47 117q0 69 38 101t114 48l85 18q64 13 76.5 21t12.5 32q0 85 -104 85q-45 0 -70 -15t-40 -55q-7 -19 -15.5 -25.5t-27.5 -6.5q-47 0 -47 39q0 20 16 50q49 87 182 87q99 0 145 -41.5
t46 -135.5zM366 237v31q-17 -8 -68 -19l-54 -12q-55 -12 -82 -29.5t-27 -59.5q0 -40 27.5 -61.5t68.5 -21.5t76 24q36 25 47.5 60t11.5 88z" />
    <glyph glyph-name="b" unicode="b" horiz-adv-x="583" 
d="M159 670v-217q57 75 165 75q75 0 125 -40t70 -98.5t20 -131.5q0 -114 -56.5 -191.5t-166.5 -77.5q-97 0 -157 67v-15q0 -47 -44 -47q-21 0 -33.5 11.5t-12.5 32.5v631q0 19 12.5 31t32.5 12t32.5 -11.5t12.5 -30.5zM443 262q0 38 -6.5 69.5t-21 60t-42.5 44.5t-67 16
q-75 0 -111.5 -54.5t-36.5 -133.5q0 -38 7 -71t23 -63.5t45 -48t69 -17.5q141 0 141 198z" />
    <glyph glyph-name="c" unicode="c" horiz-adv-x="521" 
d="M44 262q0 119 63.5 192.5t182.5 73.5q121 0 181 -80q29 -39 29 -64q0 -20 -14 -32.5t-35 -12.5q-14 0 -23.5 7t-13.5 13.5t-11 21.5q-30 71 -117 71q-74 0 -110 -54.5t-36 -133.5q0 -54 12 -95.5t46.5 -71t88.5 -29.5q97 0 132 91q9 23 18.5 31t24.5 8q19 0 33.5 -11.5
t14.5 -30.5q0 -25 -22 -61.5t-44 -54.5q-61 -50 -158 -50q-118 0 -180 76t-62 196z" />
    <glyph glyph-name="d" unicode="d" horiz-adv-x="583" 
d="M514 669v-632q0 -43 -45 -43q-43 0 -43 46v22q-54 -72 -158 -72q-113 0 -168.5 78.5t-55.5 196.5q0 110 54.5 186.5t160.5 76.5q111 0 166 -77v215q0 22 12 34t32 12t32.5 -11.5t12.5 -31.5zM426 251q0 199 -149 199q-138 0 -138 -196q0 -188 142 -188q74 0 109.5 54
t35.5 131z" />
    <glyph glyph-name="e" unicode="e" 
d="M474 234h-335q0 -73 38 -118q42 -49 115 -49q87 0 125 69q12 22 20 29.5t23 7.5q20 0 36 -11.5t16 -31.5q0 -22 -28 -57q-69 -83 -192 -83q-118 0 -182 70q-66 72 -66 190q0 120 64 199t181 79q64 0 111.5 -24t72 -63t35.5 -79.5t11 -82.5q0 -45 -45 -45zM139 309h286
q-4 62 -39 100.5t-96 38.5q-124 0 -151 -139z" />
    <glyph glyph-name="f" unicode="f" horiz-adv-x="292" 
d="M168 440v-401q0 -45 -47 -45q-21 0 -33 12t-12 33v401h-51q-18 0 -28 11.5t-10 28.5t10 27.5t28 10.5h51v50q0 74 36.5 109.5t115.5 35.5q52 0 52 -39q0 -36 -45 -39l-15 -1q-33 -2 -42.5 -18.5t-9.5 -54.5v-43h74q37 0 37 -38q0 -40 -37 -40h-74z" />
    <glyph glyph-name="g" unicode="g" 
d="M493 486v-418q0 -48 -2.5 -77t-16 -66t-39.5 -59q-52 -46 -158 -46q-130 0 -183 74q-23 31 -23 61q0 19 14.5 30.5t33.5 11.5q36 0 49 -37q12 -33 39 -48t75 -15q43 0 69.5 12.5t38 39.5t15 52t3.5 67v20q-31 -38 -67 -54t-86 -16q-103 0 -157 70.5t-54 176.5
q0 115 57 189t168 74q105 0 143 -68v16q0 48 42 48q39 0 39 -38zM409 277q0 74 -29.5 123t-98.5 49q-73 0 -108 -50t-35 -127q0 -75 31.5 -124.5t102.5 -49.5q69 0 109 56q28 39 28 123z" />
    <glyph glyph-name="h" unicode="h" 
d="M161 280v-239q0 -22 -12.5 -34.5t-33.5 -12.5q-46 0 -46 45v628q0 22 12.5 33.5t32.5 11.5q22 0 35 -12t13 -33v-208q25 34 68.5 51.5t90.5 17.5q172 0 172 -190v-299q0 -20 -12.5 -32.5t-32.5 -12.5q-47 0 -47 45v282q0 59 -21.5 91.5t-77.5 32.5q-48 0 -85 -27
q-35 -26 -45.5 -57t-10.5 -81z" />
    <glyph glyph-name="i" unicode="i" horiz-adv-x="229" 
d="M170 655q0 -25 -15 -40t-41 -15q-25 0 -40.5 15t-15.5 40q0 26 15.5 41.5t39.5 15.5q25 0 41 -16t16 -41zM160 479v-439q0 -21 -12.5 -33.5t-31.5 -12.5q-21 0 -34 12t-13 33v440q0 45 44 45q47 0 47 -45z" />
    <glyph glyph-name="j" unicode="j" horiz-adv-x="229" 
d="M170 655q0 -25 -15.5 -40t-41.5 -15q-25 0 -40 15t-15 40q0 24 15.5 40.5t39.5 16.5q25 0 41 -15.5t16 -41.5zM160 481v-478q0 -42 -1.5 -62t-9.5 -45t-26 -42q-40 -39 -115 -39q-46 0 -46 38q0 23 12 31.5t35 12.5q42 6 51 29t9 100v455q0 43 45 43q46 0 46 -43z" />
    <glyph glyph-name="k" unicode="k" horiz-adv-x="479" 
d="M287 310l169 -242q9 -13 9 -27q0 -20 -15.5 -33.5t-35.5 -13.5t-35 21l-157 230l-62 -64v-144q0 -19 -13 -31t-32 -12q-46 0 -46 43v630q0 45 46 45q20 0 32.5 -12t12.5 -31v-378q16 19 76 81l130 138q12 14 28 14q18 0 30.5 -12t12.5 -30q0 -16 -12 -28z" />
    <glyph glyph-name="l" unicode="l" horiz-adv-x="229" 
d="M160 668v-629q0 -21 -11.5 -33t-32.5 -12q-47 0 -47 45v629q0 20 12 32t32 12q47 0 47 -44z" />
    <glyph glyph-name="m" unicode="m" horiz-adv-x="854" 
d="M69 39v442q0 21 13 32t34 11q44 0 44 -47v-18q52 70 146 70q104 0 144 -81q36 41 73 61t88 20q92 0 133 -46.5t41 -138.5v-305q0 -21 -12.5 -33t-34.5 -12q-19 0 -32.5 11.5t-13.5 33.5v289q0 120 -94 120q-57 0 -90.5 -37t-33.5 -96v-276q0 -20 -13.5 -32.5t-33.5 -12.5
q-22 0 -34 12t-12 33v273q0 23 -1.5 39.5t-6.5 36.5t-14.5 32t-27 20t-42.5 8q-33 0 -58 -12.5t-38 -30t-20.5 -42t-9 -41t-1.5 -33.5v-250q0 -20 -12.5 -32.5t-32.5 -12.5q-48 0 -48 45z" />
    <glyph glyph-name="n" unicode="n" 
d="M493 336v-297q0 -45 -47 -45q-20 0 -32.5 12t-12.5 32v269q0 25 -1 41.5t-6.5 37.5t-15.5 33t-29.5 21t-46.5 9q-74 0 -107.5 -47.5t-33.5 -117.5v-245q0 -45 -47 -45q-20 0 -32.5 11.5t-12.5 31.5v444q0 20 13 31.5t31 11.5q46 0 46 -48v-23q53 75 160 75
q174 0 174 -192z" />
    <glyph glyph-name="o" unicode="o" horiz-adv-x="583" 
d="M539 264q0 -34 -4.5 -65t-20 -71t-41.5 -69t-74 -49t-112 -20q-59 0 -104 18t-70.5 45.5t-42 65.5t-21.5 72t-5 70q0 122 64 194.5t186 72.5q119 0 182 -71.5t63 -192.5zM445 263q0 84 -38 136.5t-117 52.5q-80 0 -116 -54.5t-36 -138.5q0 -195 155 -195q81 0 116.5 56.5
t35.5 142.5z" />
    <glyph glyph-name="p" unicode="p" horiz-adv-x="583" 
d="M69 -149v628q0 22 12.5 33.5t32.5 11.5q48 0 48 -53v-12q58 69 153 69q108 0 166 -77t58 -188q0 -53 -12 -100t-36 -86.5t-66.5 -63t-97.5 -23.5q-52 0 -89 17t-76 54v-210q0 -45 -48 -45q-19 0 -32 12t-13 33zM444 266q0 37 -6.5 68t-21.5 58.5t-43.5 43.5t-67.5 16
q-75 0 -110 -53t-35 -132q0 -52 12 -95t46 -75.5t87 -32.5q139 0 139 202z" />
    <glyph glyph-name="q" unicode="q" horiz-adv-x="583" 
d="M514 479v-629q0 -44 -47 -44q-20 0 -32 12t-12 32v217q-60 -77 -164 -77q-111 0 -163 78t-52 194q0 114 56.5 190t166.5 76q106 0 154 -69v14q0 51 46 51q21 0 34 -12t13 -33zM423 263q0 79 -34.5 135t-108.5 56q-50 0 -83.5 -28t-46 -68t-12.5 -89q0 -203 140 -203
q77 0 111 57t34 140z" />
    <glyph glyph-name="r" unicode="r" horiz-adv-x="354" 
d="M69 36v446q0 42 46 42q41 0 41 -48v-46q16 44 53.5 69t83.5 25q53 0 53 -45q0 -24 -13 -32t-42 -13q-74 -12 -102.5 -60.5t-28.5 -123.5v-214q0 -42 -46 -42q-45 0 -45 42z" />
    <glyph glyph-name="s" unicode="s" horiz-adv-x="479" 
d="M440 148q0 -69 -50.5 -113.5t-149.5 -44.5q-96 0 -151 46q-30 25 -42.5 57t-12.5 51q0 22 16.5 32t32.5 10q26 0 34 -22l6 -16q6 -17 9 -23.5t13.5 -21.5t22.5 -21.5t32.5 -13t45.5 -6.5q45 0 74 21.5t29 56.5q0 19 -7 32t-23.5 22.5t-28.5 13.5t-38 12l-58 17
q-140 41 -140 142q0 12 2 26t12.5 37.5t28.5 41t54 31t85 13.5q48 0 85 -12.5t57 -29.5t33 -37.5t17 -34t4 -21.5q0 -20 -13.5 -29.5t-28.5 -9.5q-11 0 -18 4.5t-11.5 11.5t-13.5 24q-34 64 -115 64q-43 0 -65 -19t-22 -48q0 -22 13.5 -36.5t28 -20.5t44.5 -15l65 -20
q87 -27 115.5 -64.5t28.5 -86.5z" />
    <glyph glyph-name="t" unicode="t" horiz-adv-x="292" 
d="M76 125v315h-53q-38 0 -38 40q0 17 10 27.5t28 10.5h54v117q0 43 45 43q46 0 46 -43v-117h62q38 0 38 -38q0 -40 -38 -40h-62v-284q0 -47 10 -64.5t48 -20.5q17 -1 25.5 -3t15.5 -10.5t7 -24.5q0 -39 -58 -39q-75 0 -107.5 29.5t-32.5 101.5z" />
    <glyph glyph-name="u" unicode="u" 
d="M493 479v-441q0 -44 -45 -44q-27 0 -35.5 14.5t-8.5 42.5v15q-31 -42 -68 -59t-92 -17q-175 0 -175 195v294q0 22 12.5 33.5t32.5 11.5q22 0 35 -12t13 -33v-253q0 -31 1 -49.5t6.5 -41.5t15.5 -35.5t28.5 -21.5t45.5 -9q67 0 104 43.5t37 112.5v254q0 22 12.5 33.5
t32.5 11.5q48 0 48 -45z" />
    <glyph glyph-name="v" unicode="v" horiz-adv-x="417" 
d="M209 139l116 355q10 30 42 30q20 0 35 -11t15 -30q0 -9 -3 -18l-158 -444q-9 -27 -48 -27q-38 0 -48 28l-156 440q-4 12 -4 20q0 20 15.5 31t36.5 11q31 0 41 -31z" />
    <glyph glyph-name="w" unicode="w" horiz-adv-x="688" 
d="M340 361l-90 -333q-9 -34 -55 -34q-42 0 -53 32l-139 438q-3 9 -3 19q0 19 15.5 30t35.5 11q34 0 43 -34l103 -355l96 357q9 32 50 32t50 -32l98 -364l103 364q9 32 44 32q19 0 34.5 -10.5t15.5 -28.5q0 -10 -3 -19l-143 -441q-10 -31 -52 -31q-44 0 -53 32z" />
    <glyph glyph-name="x" unicode="x" horiz-adv-x="437" 
d="M269 263l139 -195q9 -12 9 -26q0 -21 -14.5 -34.5t-35.5 -13.5t-36 22l-115 174l-111 -175q-13 -21 -36 -21q-19 0 -34 12.5t-15 31.5q0 13 9 26l136 194l-134 193q-9 14 -9 27q0 20 14.5 33t34.5 13q25 0 38 -22l110 -172l110 173q13 21 35 21q18 0 32.5 -13t14.5 -31
q0 -12 -9 -25z" />
    <glyph glyph-name="y" unicode="y" horiz-adv-x="437" 
d="M227 124l119 370q10 30 41 30q20 0 35.5 -11.5t15.5 -31.5q0 -7 -3 -16l-167 -476q-10 -29 -14 -39.5t-14 -34t-17.5 -32.5t-21 -24.5t-27.5 -21.5t-34 -11t-44 -5q-25 0 -39 2.5t-26 14t-12 33.5q0 36 28 36q6 0 22.5 -2.5t24.5 -2.5q25 0 47.5 17t32.5 47l12 35
l-182 460q-4 12 -4 20q0 21 15.5 32t36.5 11q31 0 42 -30z" />
    <glyph glyph-name="z" unicode="z" horiz-adv-x="479" 
d="M139 80h274q39 0 39 -40t-39 -40h-347q-43 0 -43 54q0 24 13 39l291 347h-237q-38 0 -38 39t38 39h319q36 0 36 -46q0 -22 -11 -35z" />
    <glyph glyph-name="braceleft" unicode="{" horiz-adv-x="276" 
d="M108 317q43 -13 60 -42.5t17 -91.5v-192q0 -41 12 -60t44 -19h8q31 0 31 -31q0 -29 -39 -29h-14q-67 0 -97 31.5t-30 112.5v185q0 56 -10.5 76t-42.5 26l-16 3q-24 4 -24 32q0 29 27 33l14 2q28 4 40 23t12 60v215q0 132 118 132h13q30 0 40 -7t10 -24q0 -29 -26 -29h-18
q-29 0 -40.5 -18.5t-11.5 -60.5v-192q0 -61 -15.5 -88.5t-61.5 -46.5z" />
    <glyph glyph-name="bar" unicode="|" horiz-adv-x="258" 
d="M86 751q0 19 12 31t31 12q20 0 31 -11.5t11 -31.5v-865q0 -20 -11.5 -31t-31.5 -11t-31 11t-11 31v865z" />
    <glyph glyph-name="braceright" unicode="}" horiz-adv-x="276" 
d="M168 318q-43 13 -60 42.5t-17 91.5v192q0 41 -12 60t-44 19h-8q-31 0 -31 31q0 16 8.5 22.5t30.5 6.5h14q66 0 96.5 -31.5t30.5 -109.5v-188q0 -56 10.5 -76t42.5 -26l16 -3q24 -4 24 -32q0 -27 -27 -33l-15 -3q-27 -5 -39 -23.5t-12 -58.5v-215q0 -132 -111 -132h-30
q-23 0 -31.5 7t-8.5 23q0 29 26 29h18q29 0 40.5 19t11.5 61v192q0 61 15.5 88.5t61.5 46.5z" />
    <glyph glyph-name="asciitilde" unicode="~" horiz-adv-x="724" 
d="M365 350l45 -22q54 -26 80 -26q47 0 92 50q14 15 28 15q15 0 28.5 -13t13.5 -29q0 -12 -12 -27q-71 -87 -154 -87q-42 0 -120 40l-35 18q-61 32 -104 32q-23 0 -38 -7.5t-34 -29.5q-24 -28 -40 -28q-15 0 -28.5 13.5t-13.5 28.5q0 13 12 27q38 47 70.5 67t76.5 20
q47 0 133 -42z" />
    <glyph glyph-name="nbspace" unicode="&#xa0;" horiz-adv-x="292" 
 />
    <glyph glyph-name="exclamdown" unicode="&#xa1;" horiz-adv-x="292" 
d="M77 41v168q0 45 7 127l13 166q1 25 29 25q26 0 28 -24l15 -167q7 -77 7 -128v-167q0 -22 -13 -34.5t-36 -12.5q-50 0 -50 47zM65 652q0 27 17 43.5t44 16.5q26 0 43 -17t17 -43q0 -28 -16.5 -44.5t-44.5 -16.5q-27 0 -43.5 17t-16.5 44z" />
    <glyph glyph-name="cent" unicode="&#xa2;" horiz-adv-x="542" 
d="M316 603v-76q96 -6 150 -79q25 -33 25 -64q0 -20 -13.5 -31.5t-33.5 -11.5q-26 0 -40 30q-31 65 -88 77v-379q33 6 55.5 25t31.5 42q13 31 23.5 42t29.5 11t32.5 -11t13.5 -29q0 -13 -9 -35q-21 -55 -67 -86.5t-111 -37.5v-77q0 -30 -32 -30q-29 0 -29 30v77
q-104 8 -156 84t-52 185q0 65 19 120t67.5 97t121.5 50v77q0 14 8.5 21.5t21.5 7.5q32 0 32 -29zM253 69v379q-60 -14 -86 -67t-26 -122q0 -165 112 -190z" />
    <glyph glyph-name="sterling" unicode="&#xa3;" horiz-adv-x="646" 
d="M289 375h124q17 0 26.5 -10.5t9.5 -27.5q0 -16 -10 -26t-26 -10h-102q16 -46 16 -88q0 -33 -11 -69q5 -3 23 -13.5t27.5 -15.5t25.5 -12.5t29.5 -10.5t26.5 -3q28 0 45 21t19 50q2 18 5 28.5t13 20t27 9.5q21 0 34 -14t13 -35q0 -20 -10 -50q-17 -53 -52.5 -84.5
t-89.5 -31.5q-13 0 -25 1.5t-25.5 6t-22.5 7t-24.5 10.5t-21.5 10.5t-23.5 12.5t-21.5 12q-53 -66 -125 -66q-50 0 -84.5 31.5t-34.5 80.5q0 47 32.5 75t79.5 28q37 0 79 -22q0 55 -22 111h-112q-16 0 -26 10t-10 26q0 17 9.5 27.5t26.5 10.5h91q-23 71 -23 124
q0 91 56.5 144t148.5 53q83 0 135 -47.5t52 -129.5q0 -52 -45 -52q-25 0 -33.5 14.5t-10.5 40.5t-7 37q-25 54 -88 54q-53 0 -83.5 -35t-30.5 -89q0 -52 26 -114zM215 108q-7 9 -27 17t-33 8q-15 0 -25.5 -7.5t-10.5 -22.5t12 -23t27 -8q35 0 57 36z" />
    <glyph glyph-name="currency" unicode="&#xa4;" horiz-adv-x="663" 
d="M585 531l-41 -40q50 -69 50 -152q0 -81 -50 -153l36 -35q31 -30 31 -50q0 -17 -13 -29.5t-30 -12.5q-18 0 -45 26l-41 40l-4 -2q-47 -29 -74.5 -38t-72.5 -9q-44 0 -77.5 11t-73.5 39l-37 -36q-22 -22 -30 -26.5t-20 -4.5q-17 0 -29.5 13t-12.5 30q0 19 27 45l41 40
q-50 69 -50 153q0 82 50 151l-36 36q-32 32 -32 50q0 16 13 29t30 13q19 0 45 -26l41 -40q66 49 152 49q88 0 152 -49l36 36q30 30 50 30q16 0 29 -12.5t13 -29.5q0 -19 -27 -46zM510 338q0 79 -51 131.5t-127 52.5t-128 -52.5t-52 -129.5q0 -78 52.5 -130.5t130.5 -52.5
q74 0 124.5 52.5t50.5 128.5z" />
    <glyph glyph-name="yen" unicode="&#xa5;" 
d="M404 408h88q46 0 46 -42q0 -19 -11 -30t-30 -11h-146l-26 -40v-16h167q46 0 46 -41q0 -19 -11 -30.5t-30 -11.5h-172v-147q0 -22 -13.5 -33.5t-34.5 -11.5q-20 0 -32.5 12.5t-12.5 32.5v147h-167q-18 0 -29 11t-11 30t10.5 30.5t29.5 11.5h167v16l-25 40h-142
q-18 0 -29 11t-11 30t10.5 30.5t29.5 11.5h90l-143 227q-7 11 -7 25q0 18 15 31.5t34 13.5q27 0 41 -22l187 -300l189 300q14 22 38 22q18 0 33.5 -13.5t15.5 -31.5q0 -13 -8 -26z" />
    <glyph glyph-name="brokenbar" unicode="&#xa6;" horiz-adv-x="257" 
d="M86 415v336q0 19 12 31t31 12q20 0 31 -11.5t11 -31.5v-336q0 -19 -11.5 -30.5t-31.5 -11.5t-31 11.5t-11 30.5zM86 -114v336q0 20 12 31.5t31 11.5q20 0 31 -11.5t11 -31.5v-336q0 -20 -11.5 -31t-31.5 -11t-31 11t-11 31z" />
    <glyph glyph-name="section" unicode="&#xa7;" horiz-adv-x="583" 
d="M165 482q-46 39 -46 102q0 68 51.5 110t133.5 42q48 0 85.5 -15t56.5 -37.5t28.5 -43t9.5 -36.5q0 -19 -13.5 -31.5t-34.5 -12.5q-17 0 -27 8t-23 35q-14 29 -33 41.5t-54 12.5q-38 0 -60.5 -19.5t-22.5 -51.5q0 -29 21.5 -52t70.5 -52l137 -81q44 -26 69.5 -64t25.5 -80
q0 -104 -108 -161q48 -52 48 -114q0 -68 -53.5 -112.5t-135.5 -44.5q-76 0 -132.5 41.5t-56.5 96.5q0 20 14.5 32.5t37.5 12.5q29 0 48 -44q26 -58 88 -58q40 0 67 22t27 54q0 33 -20.5 55.5t-68.5 49.5l-109 62q-69 40 -102.5 80.5t-33.5 95.5q0 102 115 157zM366 152
q77 28 77 93q0 28 -19 50t-69 53l-123 75q-36 -4 -60 -30t-24 -60q0 -20 7 -36t25 -31t31 -23t42 -25z" />
    <glyph glyph-name="dieresis" unicode="&#xa8;" horiz-adv-x="292" 
d="M311 655q0 -26 -15.5 -40.5t-41.5 -14.5q-25 0 -40 15t-15 40q0 24 15 40.5t40 16.5q26 0 41.5 -15.5t15.5 -41.5zM94 655q0 -25 -15.5 -40t-41.5 -15q-25 0 -40 15t-15 40q0 24 15 40.5t39 16.5q26 0 42 -15.5t16 -41.5z" />
    <glyph glyph-name="copyright" unicode="&#xa9;" horiz-adv-x="840" 
d="M211 345q0 106 61 173.5t158 67.5q54 0 96.5 -22.5t65.5 -63.5q14 -25 14 -38q0 -14 -10.5 -23t-27.5 -9q-21 0 -37 31q-31 60 -102 60q-67 0 -105.5 -46.5t-38.5 -125.5q0 -75 37 -119t100 -44q80 0 118 76q10 20 16 26.5t19 6.5q16 0 26.5 -8.5t10.5 -22.5
q0 -15 -14 -40q-55 -105 -178 -105q-93 0 -151 62.5t-58 163.5zM776 353q0 -150 -104 -253t-253 -103t-252 104t-103 254q0 148 103.5 251t252.5 103q150 0 253 -102.5t103 -253.5zM740 351q0 138 -92.5 233t-226.5 95q-135 0 -228.5 -95t-93.5 -232q0 -135 93.5 -230.5
t226.5 -95.5t227 95.5t94 229.5z" />
    <glyph glyph-name="ordfeminine" unicode="&#xaa;" horiz-adv-x="333" 
d="M292 590v-177q0 -39 -33 -39t-33 31q-39 -34 -91 -34q-50 0 -80.5 28.5t-30.5 77.5q0 35 18 57.5t36 29.5t45 12l65 13q26 5 31 8.5t5 14.5q0 45 -57 45q-52 0 -60 -38q-5 -25 -33 -25q-36 0 -36 32q0 18 13 39q35 52 117 52q35 0 60 -9t37 -20.5t18.5 -32t7.5 -32.5
t1 -33zM224 521v18q-8 -3 -32 -8l-33 -7q-32 -7 -47 -16.5t-15 -31.5t14.5 -33t35.5 -11q39 0 58 25.5t19 63.5z" />
    <glyph glyph-name="guillemotleft" unicode="&#xab;" horiz-adv-x="437" 
d="M299 299l91 -69q17 -14 17 -33q0 -17 -12 -30t-30 -13q-14 0 -25 10l-121 100q-12 10 -12 37t12 36l124 99q11 9 23 9q17 0 29 -14.5t12 -31.5q0 -19 -16 -31zM101 299l91 -69q17 -14 17 -32t-12 -31t-30 -13q-13 0 -26 10l-120 100q-12 11 -12 37t12 36l123 99
q10 8 23 8q18 0 30 -13t12 -32q0 -20 -17 -32z" />
    <glyph glyph-name="logicalnot" unicode="&#xac;" horiz-adv-x="724" 
d="M529 258h-424q-16 0 -26.5 11.5t-10.5 29.5q0 42 40 42h458q31 0 41 -11.5t10 -48.5v-211q0 -44 -44 -44q-20 0 -32 11.5t-12 30.5v190z" />
    <glyph glyph-name="uni00AD" unicode="&#xad;" horiz-adv-x="371" 
d="M295 261h-221q-17 0 -27 11t-10 29q0 39 39 39h221q16 0 26.5 -11t10.5 -28q0 -40 -39 -40z" />
    <glyph glyph-name="registered" unicode="&#xae;" horiz-adv-x="840" 
d="M776 353q0 -150 -104 -253t-253 -103t-252 104t-103 254q0 148 103.5 251t252.5 103q150 0 253 -102.5t103 -253.5zM740 351q0 138 -92.5 233t-226.5 95q-135 0 -228.5 -95t-93.5 -232q0 -135 93.5 -230.5t226.5 -95.5t227 95.5t94 229.5zM349 317l-1 -157q0 -38 -34 -38
q-35 0 -35 37v363q0 32 9.5 43.5t36.5 11.5h97q30 0 48.5 -1.5t40.5 -10t38 -24.5q30 -31 30 -82q0 -80 -78 -116q21 -10 32 -27.5t18 -50.5l17 -83q6 -30 6 -32q0 -13 -10 -20.5t-26 -7.5q-15 0 -23.5 12t-13.5 41l-13 74q-7 41 -21.5 54.5t-53.5 13.5h-64zM349 378h70
q92 0 92 67q0 40 -22.5 56t-77.5 16h-62v-139z" />
    <glyph glyph-name="macron" unicode="&#xaf;" horiz-adv-x="292" 
d="M26 684h240q42 0 42 -41q0 -19 -11 -30.5t-30 -11.5h-241q-42 0 -42 41q0 42 42 42z" />
    <glyph glyph-name="degree" unicode="&#xb0;" horiz-adv-x="354" 
d="M176 752q68 0 115 -46t47 -113q0 -65 -47 -111.5t-114 -46.5t-114 46.5t-47 112.5q0 65 47 111.5t113 46.5zM178 681q-35 0 -60 -24.5t-25 -60.5t24.5 -60.5t59.5 -24.5t59.5 24.5t24.5 60.5q0 35 -25 60t-58 25z" />
    <glyph glyph-name="plusminus" unicode="&#xb1;" horiz-adv-x="724" 
d="M318 435v182q0 19 12 30.5t32 11.5q44 0 44 -42v-182h194q17 0 27 -11.5t10 -30.5q0 -41 -40 -41h-191v-181q0 -42 -44 -42t-44 42v181h-194q-16 0 -26.5 11.5t-10.5 29.5q0 42 40 42h191zM124 -1q-16 0 -26.5 11.5t-10.5 29.5q0 41 40 41h472q17 0 27 -11t10 -30
q0 -41 -39 -41h-473z" />
    <glyph glyph-name="twosuperior" unicode="&#xb2;" horiz-adv-x="377" 
d="M135 313h199q30 0 30 -28q0 -32 -33 -32h-263q-33 0 -33 41q0 17 13 28q16 13 62 50.5t72 59.5q55 48 72 75t17 63q0 72 -75 72q-40 0 -63 -20.5t-23 -58.5q0 -31 -37 -31q-36 0 -36 30q0 59 44.5 99t117.5 40q68 0 107.5 -34.5t39.5 -92.5q0 -22 -3.5 -40.5t-14.5 -37
t-19.5 -31.5t-31.5 -33.5t-37 -32.5t-49 -40.5t-56 -45.5z" />
    <glyph glyph-name="threesuperior" unicode="&#xb3;" horiz-adv-x="377" 
d="M275 487q35 -7 59 -35.5t24 -71.5q0 -62 -46 -99t-123 -37q-70 0 -117.5 37t-47.5 92q0 31 34 31q29 0 34 -26q16 -78 97 -78q48 0 73.5 21.5t25.5 60.5q0 36 -23 53.5t-85 18.5q-27 0 -27 31q0 13 7.5 21.5t19.5 8.5q54 0 73.5 15.5t19.5 48.5q0 63 -74 63
q-39 0 -59 -14.5t-29 -49.5q-8 -26 -35 -26q-33 0 -33 30q0 40 41.5 79.5t113.5 39.5q65 0 104.5 -33t39.5 -87q0 -32 -18 -58.5t-49 -35.5z" />
    <glyph glyph-name="acute" unicode="&#xb4;" horiz-adv-x="292" 
d="M199 673l-52 -77q-10 -15 -28 -15q-14 0 -24.5 9t-10.5 22q0 6 2 12l30 88q11 30 42 30q23 0 36.5 -13.5t13.5 -29.5q0 -13 -9 -26z" />
    <glyph glyph-name="mu" unicode="&#xb5;" 
d="M493 479v-441q0 -44 -46 -44q-43 0 -43 52v20q-21 -36 -61.5 -56t-82.5 -20q-64 0 -98 23v-162q0 -22 -13 -33.5t-34 -11.5q-22 0 -34 12t-12 33v626q0 47 45 47q48 0 48 -45v-256q0 -30 1.5 -49t7 -41t15.5 -34.5t29.5 -21t46.5 -8.5q70 0 104 45.5t34 110.5v254
q0 22 12.5 33.5t32.5 11.5q48 0 48 -45z" />
    <glyph glyph-name="paragraph" unicode="&#xb6;" horiz-adv-x="651" 
d="M504 660v-790q0 -23 -6 -32t-22 -9t-22 8.5t-6 32.5v789h-148v-789q0 -23 -6 -32t-22 -9t-21.5 8.5t-5.5 32.5v450q-80 8 -126 58t-46 127q0 93 62 147t169 54h208q18 0 24.5 -5t6.5 -18t-6.5 -18t-24.5 -5h-8z" />
    <glyph glyph-name="periodcentered" unicode="&#xb7;" horiz-adv-x="208" 
d="M49 300q0 26 16 41.5t42 15.5q25 0 40.5 -15.5t15.5 -40.5q0 -26 -15.5 -41.5t-41.5 -15.5t-41.5 15.5t-15.5 40.5z" />
    <glyph glyph-name="cedilla" unicode="&#xb8;" horiz-adv-x="292" 
d="M182 13l-23 -76h5q39 0 63.5 -21t24.5 -54q0 -32 -24.5 -59.5t-83.5 -27.5q-44 0 -80 18q-25 13 -25 28q0 12 6.5 19.5t17.5 7.5q9 0 20 -6q32 -17 50 -17q49 0 49 40q0 35 -50 35q-22 0 -22 16q0 4 30 97h42z" />
    <glyph glyph-name="onesuperior" unicode="&#xb9;" horiz-adv-x="377" 
d="M170 559h-101q-26 0 -26 23q0 20 22 24q52 10 76.5 24.5t42.5 49.5q10 20 26 20q32 0 32 -23v-399q0 -15 -9.5 -24t-25.5 -9q-37 0 -37 33v281z" />
    <glyph glyph-name="ordmasculine" unicode="&#xba;" horiz-adv-x="354" 
d="M337 548q0 -81 -41.5 -129t-121.5 -48q-78 0 -117.5 47t-39.5 125q0 81 42 127.5t119 46.5q75 0 117 -46.5t42 -122.5zM264 541q0 114 -88 114q-86 0 -86 -112t88 -112q45 0 65.5 31t20.5 79z" />
    <glyph glyph-name="guillemotright" unicode="&#xbb;" horiz-adv-x="437" 
d="M138 300l-91 69q-17 14 -17 33q0 17 12 30t30 13q14 0 25 -10l121 -100q12 -10 12 -37t-12 -36l-123 -99q-11 -9 -24 -9q-17 0 -29 14.5t-12 31.5q0 19 16 31zM336 300l-91 69q-17 14 -17 32t12 31t30 13q13 0 26 -10l120 -100q12 -11 12 -37t-12 -36l-123 -99
q-9 -8 -23 -8q-18 0 -30 13t-12 32q0 20 17 32z" />
    <glyph glyph-name="onequarter" unicode="&#xbc;" horiz-adv-x="833" 
d="M541 654l-252 -640q-8 -21 -27 -21q-11 0 -21 6.5t-10 18.5q0 7 8 28l248 632q10 23 28 23q11 0 21 -7t10 -18q0 -10 -5 -22zM627 102h-179q-34 0 -34 38q0 16 9 28l211 265q14 17 34 17q29 0 29 -26v-268h49q27 0 27 -28q0 -27 -27 -27h-49v-76q0 -13 -9.5 -21.5
t-25.5 -8.5q-35 0 -35 30v77zM627 156v107q0 43 3 82q-16 -25 -43 -61l-98 -128h138zM154 559h-101q-26 0 -26 23q0 20 22 24q52 10 76.5 24.5t42.5 49.5q10 20 26 20q32 0 32 -23v-399q0 -15 -9.5 -24t-25.5 -9q-37 0 -37 33v281z" />
    <glyph glyph-name="onehalf" unicode="&#xbd;" horiz-adv-x="833" 
d="M541 654l-252 -640q-8 -21 -27 -21q-11 0 -21 6.5t-10 18.5q0 7 8 28l248 632q10 23 28 23q11 0 21 -7t10 -18q0 -10 -5 -22zM154 559h-101q-26 0 -26 23q0 20 22 24q52 10 76.5 24.5t42.5 49.5q10 20 26 20q32 0 32 -23v-399q0 -15 -9.5 -24t-25.5 -9q-37 0 -37 33v281z
M575 60h199q30 0 30 -28q0 -32 -33 -32h-263q-33 0 -33 41q0 17 13 28q16 13 62 50.5t72 59.5q55 48 72 75t17 63q0 72 -75 72q-40 0 -63 -20.5t-23 -58.5q0 -31 -37 -31q-36 0 -36 30q0 59 44.5 99t117.5 40q68 0 107.5 -34.5t39.5 -92.5q0 -22 -3.5 -40.5t-14.5 -37
t-19.5 -31.5t-31.5 -33.5t-37 -32.5t-49 -40.5t-56 -45.5z" />
    <glyph glyph-name="threequarters" unicode="&#xbe;" horiz-adv-x="833" 
d="M599 654l-252 -640q-8 -21 -27 -21q-11 0 -21 6.5t-10 18.5q0 7 8 28l248 632q10 23 28 23q11 0 21 -7t10 -18q0 -10 -5 -22zM686 102h-179q-34 0 -34 38q0 16 9 28l211 265q14 17 34 17q29 0 29 -26v-268h49q27 0 27 -28q0 -27 -27 -27h-49v-76q0 -13 -9.5 -21.5
t-25.5 -8.5q-35 0 -35 30v77zM686 156v107q0 43 3 82q-16 -25 -43 -61l-98 -128h138zM275 487q35 -7 59 -35.5t24 -71.5q0 -62 -46 -99t-123 -37q-70 0 -117.5 37t-47.5 92q0 31 34 31q29 0 34 -26q16 -78 97 -78q48 0 73.5 21.5t25.5 60.5q0 36 -23 53.5t-85 18.5
q-27 0 -27 31q0 13 7.5 21.5t19.5 8.5q54 0 73.5 15.5t19.5 48.5q0 63 -74 63q-39 0 -59 -14.5t-29 -49.5q-8 -26 -35 -26q-33 0 -33 30q0 40 41.5 79.5t113.5 39.5q65 0 104.5 -33t39.5 -87q0 -32 -18 -58.5t-49 -35.5z" />
    <glyph glyph-name="questiondown" unicode="&#xbf;" horiz-adv-x="479" 
d="M21 173q0 88 74 150l47 40q43 36 54.5 56t11.5 56q0 54 44 54q43 0 43 -41q0 -72 -11 -101t-51 -62l-37 -30q-24 -20 -39 -35t-29 -41t-14 -53q0 -43 28.5 -69.5t77.5 -26.5q86 0 102 78q3 15 5 21t7 14t13.5 11t21.5 3q21 0 32.5 -12.5t11.5 -31.5q0 -12 -4 -29
t-16.5 -41.5t-32.5 -44t-56.5 -34t-82.5 -14.5q-88 0 -144 50.5t-56 132.5zM190 651q0 28 17 44.5t44 16.5q26 0 43 -16.5t17 -43.5t-16.5 -44t-44.5 -17q-26 0 -43 16t-17 44z" />
    <glyph glyph-name="Agrave" unicode="&#xc0;" horiz-adv-x="604" 
d="M305 880l35 -66q4 -8 4 -15q0 -11 -9.5 -20t-22.5 -9t-23 10l-53 54q-12 12 -12 26q0 17 13 29t33 12q22 0 35 -21zM435 214h-265l-69 -191q-11 -29 -42 -29q-25 0 -37 14.5t-12 28.5q0 5 4 17l231 628q6 17 18 24t41 7q41 0 53 -32l234 -627q3 -9 3 -18q0 -18 -14.5 -30
t-33.5 -12q-30 0 -41 29zM405 295l-104 285l-103 -285h207z" />
    <glyph glyph-name="Aacute" unicode="&#xc1;" horiz-adv-x="604" 
d="M261 813l36 67q12 21 34 21q17 0 31.5 -13t14.5 -29q0 -14 -11 -25l-54 -54q-10 -10 -23 -10q-11 0 -21.5 8t-10.5 20q0 7 4 15zM435 214h-265l-69 -191q-11 -29 -42 -29q-25 0 -37 14.5t-12 28.5q0 5 4 17l231 628q6 17 18 24t41 7q41 0 53 -32l234 -627q3 -9 3 -18
q0 -18 -14.5 -30t-33.5 -12q-30 0 -41 29zM405 295l-104 285l-103 -285h207z" />
    <glyph glyph-name="Acircumflex" unicode="&#xc2;" horiz-adv-x="604" 
d="M303 854l-52 -69q-12 -15 -29 -15t-29.5 10t-12.5 26q0 10 10 23l44 51q20 23 69 23q50 0 69 -24l39 -49q9 -10 9 -23q0 -15 -12.5 -26t-28.5 -11q-21 0 -32 17zM435 214h-265l-69 -191q-11 -29 -42 -29q-25 0 -37 14.5t-12 28.5q0 5 4 17l231 628q6 17 18 24t41 7
q41 0 53 -32l234 -627q3 -9 3 -18q0 -18 -14.5 -30t-33.5 -12q-30 0 -41 29zM405 295l-104 285l-103 -285h207z" />
    <glyph glyph-name="Atilde" unicode="&#xc3;" horiz-adv-x="604" 
d="M161 811q0 85 57 85q24 0 69 -16l51 -18q24 -8 34 -8q16 0 19 19q2 16 8 22t19 6q24 0 24 -22q0 -103 -57 -103q-18 0 -43 8l-67 22q-27 10 -41 10q-18 0 -21 -22q-2 -16 -8 -21.5t-19 -5.5q-14 0 -19.5 9.5t-5.5 34.5zM435 214h-265l-69 -191q-11 -29 -42 -29
q-25 0 -37 14.5t-12 28.5q0 5 4 17l231 628q6 17 18 24t41 7q41 0 53 -32l234 -627q3 -9 3 -18q0 -18 -14.5 -30t-33.5 -12q-30 0 -41 29zM405 295l-104 285l-103 -285h207z" />
    <glyph glyph-name="Adieresis" unicode="&#xc4;" horiz-adv-x="604" 
d="M479 831q0 -26 -17 -43t-42 -17q-27 0 -44.5 16.5t-17.5 43.5q0 25 16.5 42.5t41.5 17.5q28 0 45.5 -16.5t17.5 -43.5zM244 831q0 -27 -17.5 -43.5t-44.5 -16.5q-25 0 -42 17t-17 43t17.5 43.5t43.5 17.5t43 -17.5t17 -43.5zM435 214h-265l-69 -191q-11 -29 -42 -29
q-25 0 -37 14.5t-12 28.5q0 5 4 17l231 628q6 17 18 24t41 7q41 0 53 -32l234 -627q3 -9 3 -18q0 -18 -14.5 -30t-33.5 -12q-30 0 -41 29zM405 295l-104 285l-103 -285h207z" />
    <glyph glyph-name="Aring" unicode="&#xc5;" horiz-adv-x="604" 
d="M393 825q0 -44 -27 -69.5t-64 -25.5q-39 0 -66.5 27t-27.5 66q0 37 24.5 64.5t67.5 27.5q38 0 65.5 -23t27.5 -67zM341 825q0 18 -12 28.5t-28 10.5q-18 0 -29.5 -12t-11.5 -31q0 -18 12.5 -28t27.5 -10q18 0 29.5 12t11.5 30zM435 214h-265l-69 -191q-11 -29 -42 -29
q-25 0 -37 14.5t-12 28.5q0 5 4 17l231 628q6 17 18 24t41 7q41 0 53 -32l234 -627q3 -9 3 -18q0 -18 -14.5 -30t-33.5 -12q-30 0 -41 29zM405 295l-104 285l-103 -285h207z" />
    <glyph glyph-name="AE" unicode="&#xc6;" horiz-adv-x="958" 
d="M523 317v-231h362q19 0 30 -12t11 -32q0 -42 -41 -42h-406q-48 0 -48 47v142h-247l-99 -172q-13 -23 -37 -23q-20 0 -34.5 12.5t-14.5 31.5q0 14 6 23l359 622q13 23 40 23h465q20 0 31.5 -11t11.5 -31q0 -45 -43 -45h-346v-218h329q40 0 40 -43q0 -41 -40 -41h-329z
M434 625l-202 -352h202v352z" />
    <glyph glyph-name="Ccedilla" unicode="&#xc7;" horiz-adv-x="708" 
d="M51 347q0 166 84 268t247 102q185 0 263 -129q30 -48 30 -83q0 -18 -16 -29.5t-35 -11.5q-24 0 -38 27q-42 82 -84 111.5t-123 29.5q-60 0 -105.5 -23.5t-71 -64.5t-38 -90.5t-12.5 -107.5q0 -120 57.5 -197.5t173.5 -77.5q150 0 206 135q14 34 44 34q19 0 35 -10t16 -28
q0 -32 -35 -84q-85 -121 -243 -127l-17 -57h5q41 0 66 -22t25 -55q0 -34 -25 -62.5t-86 -28.5q-43 0 -83 19q-26 12 -26 29q0 12 7 20t18 8t22 -7q29 -17 50 -17q51 0 51 42q0 36 -52 36q-23 0 -23 17q0 3 24 78q-155 6 -233 99t-78 257z" />
    <glyph glyph-name="Egrave" unicode="&#xc8;" horiz-adv-x="604" 
d="M305 880l35 -66q4 -8 4 -15q0 -11 -9.5 -20t-22.5 -9t-23 10l-53 54q-12 12 -12 26q0 17 13 29t33 12q22 0 35 -21zM173 403h324q19 0 29.5 -11.5t10.5 -29.5q0 -42 -40 -42h-324v-235h358q40 0 40 -41q0 -44 -40 -44h-406q-47 0 -47 47v612q0 47 47 47h389q42 0 42 -43
q0 -45 -42 -45h-341v-215z" />
    <glyph glyph-name="Eacute" unicode="&#xc9;" horiz-adv-x="604" 
d="M262 813l36 67q12 21 34 21q17 0 31.5 -13t14.5 -29q0 -14 -11 -25l-54 -54q-10 -10 -23 -10q-11 0 -21.5 8t-10.5 20q0 7 4 15zM173 403h324q19 0 29.5 -11.5t10.5 -29.5q0 -42 -40 -42h-324v-235h358q40 0 40 -41q0 -44 -40 -44h-406q-47 0 -47 47v612q0 47 47 47h389
q42 0 42 -43q0 -45 -42 -45h-341v-215z" />
    <glyph glyph-name="Ecircumflex" unicode="&#xca;" horiz-adv-x="604" 
d="M303 854l-52 -69q-12 -15 -29 -15t-29.5 10t-12.5 26q0 10 10 23l44 51q20 23 69 23q50 0 69 -24l39 -49q9 -10 9 -23q0 -15 -12.5 -26t-28.5 -11q-21 0 -32 17zM173 403h324q19 0 29.5 -11.5t10.5 -29.5q0 -42 -40 -42h-324v-235h358q40 0 40 -41q0 -44 -40 -44h-406
q-47 0 -47 47v612q0 47 47 47h389q42 0 42 -43q0 -45 -42 -45h-341v-215z" />
    <glyph glyph-name="Edieresis" unicode="&#xcb;" horiz-adv-x="604" 
d="M483 831q0 -26 -17 -43t-42 -17q-27 0 -44.5 16.5t-17.5 43.5q0 25 16.5 42.5t41.5 17.5q28 0 45.5 -16.5t17.5 -43.5zM248 831q0 -27 -17.5 -43.5t-44.5 -16.5q-25 0 -42 17t-17 43t17.5 43.5t43.5 17.5t43 -17.5t17 -43.5zM173 403h324q19 0 29.5 -11.5t10.5 -29.5
q0 -42 -40 -42h-324v-235h358q40 0 40 -41q0 -44 -40 -44h-406q-47 0 -47 47v612q0 47 47 47h389q42 0 42 -43q0 -45 -42 -45h-341v-215z" />
    <glyph glyph-name="Igrave" unicode="&#xcc;" horiz-adv-x="250" 
d="M172 666v-626q0 -46 -47 -46q-20 0 -33.5 12t-13.5 34v626q0 10 2.5 18.5t14 18t30.5 9.5q47 0 47 -46zM128 880l35 -66q4 -8 4 -15q0 -11 -9.5 -20t-22.5 -9t-23 10l-53 54q-12 12 -12 26q0 17 13 29t33 12q22 0 35 -21zM128 880l35 -66q4 -8 4 -15q0 -11 -9.5 -20
t-22.5 -9t-23 10l-53 54q-12 12 -12 26q0 17 13 29t33 12q22 0 35 -21zM172 666v-626q0 -46 -49 -46q-21 0 -33 12.5t-12 33.5v626q0 46 49 46q21 0 33 -12.5t12 -33.5z" />
    <glyph glyph-name="Iacute" unicode="&#xcd;" horiz-adv-x="250" 
d="M85 813l36 67q12 21 34 21q17 0 31.5 -13t14.5 -29q0 -14 -11 -25l-54 -54q-10 -10 -23 -10q-11 0 -21.5 8t-10.5 20q0 7 4 15zM172 666v-626q0 -46 -49 -46q-21 0 -33 12.5t-12 33.5v626q0 46 49 46q21 0 33 -12.5t12 -33.5z" />
    <glyph glyph-name="Icircumflex" unicode="&#xce;" horiz-adv-x="250" 
d="M126 854l-52 -69q-12 -15 -29 -15t-29.5 10t-12.5 26q0 10 10 23l44 51q20 23 69 23q50 0 69 -24l39 -49q9 -10 9 -23q0 -15 -12.5 -26t-28.5 -11q-21 0 -32 17zM172 666v-626q0 -46 -49 -46q-21 0 -33 12.5t-12 33.5v626q0 46 49 46q21 0 33 -12.5t12 -33.5z" />
    <glyph glyph-name="Idieresis" unicode="&#xcf;" horiz-adv-x="250" 
d="M306 831q0 -26 -17 -43t-42 -17q-27 0 -44.5 16.5t-17.5 43.5q0 25 16.5 42.5t41.5 17.5q28 0 45.5 -16.5t17.5 -43.5zM71 831q0 -27 -17.5 -43.5t-44.5 -16.5q-25 0 -42 17t-17 43t17.5 43.5t43.5 17.5t43 -17.5t17 -43.5zM172 666v-626q0 -46 -49 -46q-21 0 -33 12.5
t-12 33.5v626q0 46 49 46q21 0 33 -12.5t12 -33.5z" />
    <glyph glyph-name="Eth" unicode="&#xd0;" horiz-adv-x="708" 
d="M78 416v243q0 47 47 47h203q102 0 164 -28q165 -75 165 -319q0 -119 -39 -197q-25 -51 -60 -84.5t-80.5 -49.5t-89.5 -22t-104 -6h-159q-47 0 -47 47v286h-38q-40 0 -40 43q0 19 11 29.5t29 10.5h38zM173 416h220q40 0 40 -42q0 -18 -11 -29.5t-29 -11.5h-220v-249h124
q107 0 158 30q56 33 81 100.5t25 143.5q0 97 -35 162q-34 63 -88 83t-138 20h-127v-207z" />
    <glyph glyph-name="Ntilde" unicode="&#xd1;" horiz-adv-x="708" 
d="M213 811q0 85 57 85q24 0 69 -16l51 -18q24 -8 34 -8q16 0 19 19q2 16 8 22t19 6q24 0 24 -22q0 -103 -57 -103q-18 0 -43 8l-67 22q-28 10 -41 10q-18 0 -21 -22q-2 -16 -8 -21.5t-19 -5.5q-14 0 -19.5 9.5t-5.5 34.5zM538 158v511q0 20 13 31.5t34 11.5q45 0 45 -43
v-630q0 -45 -53 -45q-33 0 -47 21l-358 530v-506q0 -45 -46 -45q-48 0 -48 44v631q0 44 59 44q31 0 46 -22z" />
    <glyph glyph-name="Ograve" unicode="&#xd2;" horiz-adv-x="771" 
d="M388 880l35 -66q4 -8 4 -15q0 -11 -9.5 -20t-22.5 -9t-23 10l-53 54q-12 12 -12 26q0 17 13 29t33 12q22 0 35 -21zM720 359q0 -162 -92 -265.5t-242 -103.5q-157 0 -246 100.5t-89 259.5q0 169 94.5 268t242.5 99q146 0 239 -95t93 -263zM620 360q0 119 -63 197t-170 78
q-110 0 -173 -80t-63 -192q0 -78 22.5 -141.5t76.5 -106t133 -42.5q78 0 133.5 42t79.5 105.5t24 139.5z" />
    <glyph glyph-name="Oacute" unicode="&#xd3;" horiz-adv-x="771" 
d="M345 813l36 67q12 21 34 21q17 0 31.5 -13t14.5 -29q0 -14 -11 -25l-54 -54q-10 -10 -23 -10q-11 0 -21.5 8t-10.5 20q0 7 4 15zM720 359q0 -162 -92 -265.5t-242 -103.5q-157 0 -246 100.5t-89 259.5q0 169 94.5 268t242.5 99q146 0 239 -95t93 -263zM620 360
q0 119 -63 197t-170 78q-110 0 -173 -80t-63 -192q0 -78 22.5 -141.5t76.5 -106t133 -42.5q78 0 133.5 42t79.5 105.5t24 139.5z" />
    <glyph glyph-name="Ocircumflex" unicode="&#xd4;" horiz-adv-x="771" 
d="M386 854l-52 -69q-12 -15 -29 -15t-29.5 10t-12.5 26q0 10 10 23l44 51q20 23 69 23q50 0 69 -24l39 -49q9 -10 9 -23q0 -15 -12.5 -26t-28.5 -11q-21 0 -32 17zM720 359q0 -162 -92 -265.5t-242 -103.5q-157 0 -246 100.5t-89 259.5q0 169 94.5 268t242.5 99
q146 0 239 -95t93 -263zM620 360q0 119 -63 197t-170 78q-110 0 -173 -80t-63 -192q0 -78 22.5 -141.5t76.5 -106t133 -42.5q78 0 133.5 42t79.5 105.5t24 139.5z" />
    <glyph glyph-name="Otilde" unicode="&#xd5;" horiz-adv-x="771" 
d="M244 811q0 85 57 85q24 0 69 -16l51 -18q24 -8 34 -8q16 0 19 19q2 16 8 22t19 6q24 0 24 -22q0 -103 -57 -103q-18 0 -43 8l-67 22q-27 10 -41 10q-18 0 -21 -22q-2 -16 -8 -21.5t-19 -5.5q-14 0 -19.5 9.5t-5.5 34.5zM720 359q0 -162 -92 -265.5t-242 -103.5
q-157 0 -246 100.5t-89 259.5q0 169 94.5 268t242.5 99q146 0 239 -95t93 -263zM620 360q0 119 -63 197t-170 78q-110 0 -173 -80t-63 -192q0 -78 22.5 -141.5t76.5 -106t133 -42.5q78 0 133.5 42t79.5 105.5t24 139.5z" />
    <glyph glyph-name="Odieresis" unicode="&#xd6;" horiz-adv-x="771" 
d="M565 831q0 -26 -17 -43t-42 -17q-27 0 -44.5 16.5t-17.5 43.5q0 25 16.5 42.5t41.5 17.5q28 0 45.5 -16.5t17.5 -43.5zM330 831q0 -27 -17.5 -43.5t-44.5 -16.5q-25 0 -42 17t-17 43t17.5 43.5t43.5 17.5t43 -17.5t17 -43.5zM720 359q0 -162 -92 -265.5t-242 -103.5
q-157 0 -246 100.5t-89 259.5q0 169 94.5 268t242.5 99q146 0 239 -95t93 -263zM620 360q0 119 -63 197t-170 78q-110 0 -173 -80t-63 -192q0 -78 22.5 -141.5t76.5 -106t133 -42.5q78 0 133.5 42t79.5 105.5t24 139.5z" />
    <glyph glyph-name="multiply" unicode="&#xd7;" horiz-adv-x="724" 
d="M292 299l-135 132q-13 13 -13 31t14 31.5t32 13.5q15 0 29 -13l135 -132l135 139q11 11 26 11q16 0 30.5 -14.5t14.5 -30.5q0 -13 -13 -26l-134 -137l136 -132q14 -14 14 -30t-14.5 -31.5t-31.5 -15.5q-15 0 -29 14l-136 132l-135 -139q-11 -11 -25 -11q-16 0 -31 14.5
t-15 30.5q0 13 13 26z" />
    <glyph glyph-name="Oslash" unicode="&#xd8;" horiz-adv-x="771" 
d="M699 652l-52 -56q72 -97 72 -242q0 -78 -21 -142t-54.5 -104.5t-78 -68t-88.5 -39t-89 -11.5q-131 0 -224 82l-55 -59q-9 -9 -21 -9t-21 9t-9 20t8 20l58 63q-72 98 -72 238q0 157 91 260.5t248 103.5q120 0 214 -78l49 53q10 10 20 10q12 0 22.5 -10.5t10.5 -21.5
q0 -10 -8 -18zM542 572q-67 63 -158 63q-109 0 -171.5 -83t-62.5 -196q0 -91 40 -171zM226 136q60 -64 158 -64q116 0 176 83.5t60 204.5q0 99 -40 164z" />
    <glyph glyph-name="Ugrave" unicode="&#xd9;" horiz-adv-x="688" 
d="M347 880l35 -66q4 -8 4 -15q0 -11 -9.5 -20t-22.5 -9t-23 10l-53 54q-12 12 -12 26q0 17 13 29t33 12q22 0 35 -21zM609 667v-406q0 -24 -0.5 -39.5t-5.5 -46.5t-14 -52.5t-28 -48.5t-45.5 -44t-68.5 -28.5t-95 -11.5q-55 0 -98.5 11t-71.5 27t-48.5 42t-31 49.5
t-16.5 56t-7 54t-1 50.5v387q0 45 48 45q21 0 34.5 -11.5t13.5 -33.5v-394q0 -29 2.5 -52t13 -51t28.5 -47t51 -32t78 -13q169 0 169 175v414q0 20 13 32.5t33 12.5t33.5 -12.5t13.5 -32.5z" />
    <glyph glyph-name="Uacute" unicode="&#xda;" horiz-adv-x="688" 
d="M304 813l36 67q12 21 34 21q17 0 31.5 -13t14.5 -29q0 -14 -11 -25l-54 -54q-10 -10 -23 -10q-11 0 -21.5 8t-10.5 20q0 7 4 15zM609 667v-406q0 -24 -0.5 -39.5t-5.5 -46.5t-14 -52.5t-28 -48.5t-45.5 -44t-68.5 -28.5t-95 -11.5q-55 0 -98.5 11t-71.5 27t-48.5 42
t-31 49.5t-16.5 56t-7 54t-1 50.5v387q0 45 48 45q21 0 34.5 -11.5t13.5 -33.5v-394q0 -29 2.5 -52t13 -51t28.5 -47t51 -32t78 -13q169 0 169 175v414q0 20 13 32.5t33 12.5t33.5 -12.5t13.5 -32.5z" />
    <glyph glyph-name="Ucircumflex" unicode="&#xdb;" horiz-adv-x="688" 
d="M345 854l-52 -69q-12 -15 -29 -15t-29.5 10t-12.5 26q0 10 10 23l44 51q20 23 69 23q50 0 69 -24l39 -49q9 -10 9 -23q0 -15 -12.5 -26t-28.5 -11q-21 0 -32 17zM609 667v-406q0 -24 -0.5 -39.5t-5.5 -46.5t-14 -52.5t-28 -48.5t-45.5 -44t-68.5 -28.5t-95 -11.5
q-55 0 -98.5 11t-71.5 27t-48.5 42t-31 49.5t-16.5 56t-7 54t-1 50.5v387q0 45 48 45q21 0 34.5 -11.5t13.5 -33.5v-394q0 -29 2.5 -52t13 -51t28.5 -47t51 -32t78 -13q169 0 169 175v414q0 20 13 32.5t33 12.5t33.5 -12.5t13.5 -32.5z" />
    <glyph glyph-name="Udieresis" unicode="&#xdc;" horiz-adv-x="688" 
d="M523 831q0 -26 -17 -43t-42 -17q-27 0 -44.5 16.5t-17.5 43.5q0 25 16.5 42.5t41.5 17.5q28 0 45.5 -16.5t17.5 -43.5zM288 831q0 -27 -17.5 -43.5t-44.5 -16.5q-25 0 -42 17t-17 43t17.5 43.5t43.5 17.5t43 -17.5t17 -43.5zM609 667v-406q0 -24 -0.5 -39.5t-5.5 -46.5
t-14 -52.5t-28 -48.5t-45.5 -44t-68.5 -28.5t-95 -11.5q-55 0 -98.5 11t-71.5 27t-48.5 42t-31 49.5t-16.5 56t-7 54t-1 50.5v387q0 45 48 45q21 0 34.5 -11.5t13.5 -33.5v-394q0 -29 2.5 -52t13 -51t28.5 -47t51 -32t78 -13q169 0 169 175v414q0 20 13 32.5t33 12.5
t33.5 -12.5t13.5 -32.5z" />
    <glyph glyph-name="Yacute" unicode="&#xdd;" 
d="M241 813l36 67q12 21 34 21q17 0 31.5 -13t14.5 -29q0 -14 -11 -25l-54 -54q-10 -10 -23 -10q-11 0 -21.5 8t-10.5 20q0 7 4 15zM325 285v-246q0 -22 -13 -33.5t-34 -11.5t-33.5 12t-12.5 33v246l-224 356q-8 13 -8 27q0 19 15.5 31.5t33.5 12.5q28 0 41 -22l193 -307
l192 307q14 22 38 22q19 0 34.5 -13.5t15.5 -31.5q0 -13 -9 -26z" />
    <glyph glyph-name="Thorn" unicode="&#xde;" horiz-adv-x="604" 
d="M174 574h142q88 0 144 -17.5t93 -78.5q28 -47 28 -117q0 -151 -130 -196q-38 -13 -117 -13h-160v-113q0 -21 -13 -33t-34 -12q-49 0 -49 45v621q0 46 47 46q26 0 37.5 -11t11.5 -36v-85zM174 490v-253h147q80 0 108 16q57 32 57 111q0 43 -20 72q-21 31 -52.5 42.5
t-106.5 11.5h-133z" />
    <glyph glyph-name="germandbls" unicode="&#xdf;" horiz-adv-x="521" 
d="M160 497v-461q0 -42 -46 -42q-21 0 -33 11t-12 31v458q0 105 42.5 164t152.5 59q92 0 136.5 -49.5t44.5 -114.5q0 -50 -22.5 -94t-65.5 -57q58 -10 89 -64.5t31 -118.5q0 -23 -3 -46t-15.5 -57.5t-34 -59.5t-63 -43.5t-97.5 -18.5q-22 0 -34.5 2t-22.5 11.5t-10 26.5
q0 40 37 40h21q129 0 129 142q0 66 -33.5 103.5t-101.5 39.5q-53 2 -53 41q0 22 12 29.5t45 9.5q51 4 77 32.5t26 76.5q0 45 -24.5 69.5t-70.5 24.5q-27 0 -46.5 -9t-30 -22t-16 -34t-7 -38.5t-1.5 -41.5z" />
    <glyph glyph-name="agrave" unicode="&#xe0;" horiz-adv-x="521" 
d="M451 351v-317q0 -40 -41 -40t-41 50v20q-25 -36 -69 -55t-91 -19q-75 0 -122 42t-47 117q0 69 38 101t114 48l85 18q64 13 76.5 21t12.5 32q0 85 -104 85q-45 0 -70 -15t-40 -55q-7 -19 -15.5 -25.5t-27.5 -6.5q-47 0 -47 39q0 20 16 50q49 87 182 87q99 0 145 -41.5
t46 -135.5zM366 237v31q-17 -8 -68 -19l-54 -12q-55 -12 -82 -29.5t-27 -59.5q0 -40 27.5 -61.5t68.5 -21.5t76 24q36 25 47.5 60t11.5 88zM177 700q0 18 16.5 30t35.5 12q27 0 38 -30l30 -90q2 -6 2 -12q0 -12 -11 -20.5t-24 -8.5q-15 0 -26 15l-53 78q-8 12 -8 26z" />
    <glyph glyph-name="aacute" unicode="&#xe1;" horiz-adv-x="521" 
d="M451 351v-317q0 -40 -41 -40t-41 50v20q-25 -36 -69 -55t-91 -19q-75 0 -122 42t-47 117q0 69 38 101t114 48l85 18q64 13 76.5 21t12.5 32q0 85 -104 85q-45 0 -70 -15t-40 -55q-7 -19 -15.5 -25.5t-27.5 -6.5q-47 0 -47 39q0 20 16 50q49 87 182 87q99 0 145 -41.5
t46 -135.5zM366 237v31q-17 -8 -68 -19l-54 -12q-55 -12 -82 -29.5t-27 -59.5q0 -40 27.5 -61.5t68.5 -21.5t76 24q36 25 47.5 60t11.5 88zM336 673l-52 -77q-10 -15 -28 -15q-14 0 -24.5 9t-10.5 22q0 6 2 12l30 88q11 30 42 30q23 0 36.5 -13.5t13.5 -29.5q0 -13 -9 -26z
" />
    <glyph glyph-name="acircumflex" unicode="&#xe2;" horiz-adv-x="521" 
d="M451 351v-317q0 -40 -41 -40t-41 50v20q-25 -36 -69 -55t-91 -19q-75 0 -122 42t-47 117q0 69 38 101t114 48l85 18q64 13 76.5 21t12.5 32q0 85 -104 85q-45 0 -70 -15t-40 -55q-7 -19 -15.5 -25.5t-27.5 -6.5q-47 0 -47 39q0 20 16 50q49 87 182 87q99 0 145 -41.5
t46 -135.5zM366 237v31q-17 -8 -68 -19l-54 -12q-55 -12 -82 -29.5t-27 -59.5q0 -40 27.5 -61.5t68.5 -21.5t76 24q36 25 47.5 60t11.5 88zM265 676l-67 -80q-11 -13 -27 -13q-14 0 -25 9t-11 23q0 9 6 18l61 86q17 24 63 24q47 0 64 -24l59 -86q7 -11 7 -21q0 -11 -12 -20
t-24 -9q-16 0 -27 13z" />
    <glyph glyph-name="atilde" unicode="&#xe3;" horiz-adv-x="521" 
d="M451 351v-317q0 -40 -41 -40t-41 50v20q-25 -36 -69 -55t-91 -19q-75 0 -122 42t-47 117q0 69 38 101t114 48l85 18q64 13 76.5 21t12.5 32q0 85 -104 85q-45 0 -70 -15t-40 -55q-7 -19 -15.5 -25.5t-27.5 -6.5q-47 0 -47 39q0 20 16 50q49 87 182 87q99 0 145 -41.5
t46 -135.5zM366 237v31q-17 -8 -68 -19l-54 -12q-55 -12 -82 -29.5t-27 -59.5q0 -40 27.5 -61.5t68.5 -21.5t76 24q36 25 47.5 60t11.5 88zM176 614q0 -29 -23 -29q-16 0 -20 9.5t-4 26.5q0 44 16 75.5t52 31.5q21 0 44 -12l59 -31q20 -10 30 -10q20 0 27 35q3 16 8.5 20.5
t15.5 4.5q24 0 24 -34q0 -41 -15.5 -75.5t-49.5 -34.5q-24 0 -49 13l-54 28q-24 12 -36 12q-25 0 -25 -30z" />
    <glyph glyph-name="adieresis" unicode="&#xe4;" horiz-adv-x="521" 
d="M451 351v-317q0 -40 -41 -40t-41 50v20q-25 -36 -69 -55t-91 -19q-75 0 -122 42t-47 117q0 69 38 101t114 48l85 18q64 13 76.5 21t12.5 32q0 85 -104 85q-45 0 -70 -15t-40 -55q-7 -19 -15.5 -25.5t-27.5 -6.5q-47 0 -47 39q0 20 16 50q49 87 182 87q99 0 145 -41.5
t46 -135.5zM366 237v31q-17 -8 -68 -19l-54 -12q-55 -12 -82 -29.5t-27 -59.5q0 -40 27.5 -61.5t68.5 -21.5t76 24q36 25 47.5 60t11.5 88zM428 655q0 -26 -15.5 -40.5t-41.5 -14.5q-25 0 -40 15t-15 40q0 24 15 40.5t40 16.5q26 0 41.5 -15.5t15.5 -41.5zM211 655
q0 -25 -15.5 -40t-41.5 -15q-25 0 -40 15t-15 40q0 24 15 40.5t39 16.5q26 0 42 -15.5t16 -41.5z" />
    <glyph glyph-name="aring" unicode="&#xe5;" horiz-adv-x="521" 
d="M451 351v-317q0 -40 -41 -40t-41 50v20q-25 -36 -69 -55t-91 -19q-75 0 -122 42t-47 117q0 69 38 101t114 48l85 18q64 13 76.5 21t12.5 32q0 85 -104 85q-45 0 -70 -15t-40 -55q-7 -19 -15.5 -25.5t-27.5 -6.5q-47 0 -47 39q0 20 16 50q49 87 182 87q99 0 145 -41.5
t46 -135.5zM366 237v31q-17 -8 -68 -19l-54 -12q-55 -12 -82 -29.5t-27 -59.5q0 -40 27.5 -61.5t68.5 -21.5t76 24q36 25 47.5 60t11.5 88zM359 660q0 -43 -27 -71t-69 -28q-41 0 -68.5 28.5t-27.5 68.5t28 67.5t69 27.5t68 -26t27 -67zM305 659q0 18 -11.5 29.5t-30.5 11.5
t-31 -12t-12 -31t12 -30.5t31 -11.5q20 0 31 12.5t11 31.5z" />
    <glyph glyph-name="ae" unicode="&#xe6;" horiz-adv-x="875" 
d="M786 235h-326q7 -49 11 -61q32 -104 136 -104q79 0 117 60q2 4 7 12t8 12.5t8 10t11 8t14 2.5q19 0 33.5 -12t14.5 -31q0 -26 -26 -58q-68 -84 -187 -84q-128 0 -193 104q-51 -104 -195 -104q-78 0 -128.5 38.5t-50.5 113.5q0 38 12.5 67.5t37.5 47t51 28.5t63.5 16
t65 6.5t65.5 1.5h36v18q0 64 -23 96t-86 32q-88 0 -110 -67q-8 -23 -18.5 -30.5t-28.5 -7.5q-19 0 -31.5 11t-12.5 29q0 29 24 62q54 77 179 77q62 0 109.5 -24t56.5 -76q61 100 180 100q157 0 206 -156q15 -45 15 -87q0 -51 -45 -51zM464 310h268q-1 62 -35 100.5t-97 38.5
q-58 0 -91.5 -39t-44.5 -100zM368 226v7h-38q-47 0 -74.5 -2t-59.5 -9.5t-47 -26t-15 -47.5q0 -39 27.5 -60t67.5 -21q71 0 105 44t34 115z" />
    <glyph glyph-name="ccedilla" unicode="&#xe7;" horiz-adv-x="521" 
d="M300 -10l-16 -53h5q39 0 63.5 -21t24.5 -54q0 -32 -24.5 -59.5t-83.5 -27.5q-44 0 -80 18q-25 13 -25 28q0 12 6.5 19.5t17.5 7.5q10 0 20 -6q32 -17 50 -17q49 0 49 40q0 35 -50 35q-22 0 -22 16q0 6 23 76q-104 9 -159 83t-55 187q0 119 63.5 192.5t182.5 73.5
q121 0 181 -80q29 -39 29 -64q0 -20 -14 -32.5t-35 -12.5q-14 0 -23.5 7t-13.5 13.5t-11 21.5q-30 71 -117 71q-74 0 -110 -54.5t-36 -133.5q0 -54 12 -95.5t46.5 -71t88.5 -29.5q97 0 132 91q9 23 18.5 31t24.5 8q19 0 33.5 -11.5t14.5 -30.5q0 -25 -22 -61.5t-44 -54.5
q-58 -47 -144 -50z" />
    <glyph glyph-name="egrave" unicode="&#xe8;" 
d="M474 234h-335q0 -73 38 -118q42 -49 115 -49q87 0 125 69q12 22 20 29.5t23 7.5q20 0 36 -11.5t16 -31.5q0 -22 -28 -57q-69 -83 -192 -83q-118 0 -182 70q-66 72 -66 190q0 120 64 199t181 79q64 0 111.5 -24t72 -63t35.5 -79.5t11 -82.5q0 -45 -45 -45zM139 309h286
q-4 62 -39 100.5t-96 38.5q-124 0 -151 -139zM197 700q0 18 16.5 30t35.5 12q27 0 38 -30l30 -90q2 -6 2 -12q0 -12 -11 -20.5t-24 -8.5q-15 0 -26 15l-53 78q-8 12 -8 26z" />
    <glyph glyph-name="eacute" unicode="&#xe9;" 
d="M474 234h-335q0 -73 38 -118q42 -49 115 -49q87 0 125 69q12 22 20 29.5t23 7.5q20 0 36 -11.5t16 -31.5q0 -22 -28 -57q-69 -83 -192 -83q-118 0 -182 70q-66 72 -66 190q0 120 64 199t181 79q64 0 111.5 -24t72 -63t35.5 -79.5t11 -82.5q0 -45 -45 -45zM139 309h286
q-4 62 -39 100.5t-96 38.5q-124 0 -151 -139zM357 673l-52 -77q-10 -15 -28 -15q-14 0 -24.5 9t-10.5 22q0 6 2 12l30 88q11 30 42 30q23 0 36.5 -13.5t13.5 -29.5q0 -13 -9 -26z" />
    <glyph glyph-name="ecircumflex" unicode="&#xea;" 
d="M474 234h-335q0 -73 38 -118q42 -49 115 -49q87 0 125 69q12 22 20 29.5t23 7.5q20 0 36 -11.5t16 -31.5q0 -22 -28 -57q-69 -83 -192 -83q-118 0 -182 70q-66 72 -66 190q0 120 64 199t181 79q64 0 111.5 -24t72 -63t35.5 -79.5t11 -82.5q0 -45 -45 -45zM139 309h286
q-4 62 -39 100.5t-96 38.5q-124 0 -151 -139zM290 676l-67 -80q-11 -13 -27 -13q-14 0 -25 9t-11 23q0 9 6 18l61 86q17 24 63 24q47 0 64 -24l59 -86q7 -11 7 -21q0 -11 -12 -20t-24 -9q-16 0 -27 13z" />
    <glyph glyph-name="edieresis" unicode="&#xeb;" 
d="M474 234h-335q0 -73 38 -118q42 -49 115 -49q87 0 125 69q12 22 20 29.5t23 7.5q20 0 36 -11.5t16 -31.5q0 -22 -28 -57q-69 -83 -192 -83q-118 0 -182 70q-66 72 -66 190q0 120 64 199t181 79q64 0 111.5 -24t72 -63t35.5 -79.5t11 -82.5q0 -45 -45 -45zM139 309h286
q-4 62 -39 100.5t-96 38.5q-124 0 -151 -139zM454 655q0 -26 -15.5 -40.5t-41.5 -14.5q-25 0 -40 15t-15 40q0 24 15 40.5t40 16.5q26 0 41.5 -15.5t15.5 -41.5zM237 655q0 -25 -15.5 -40t-41.5 -15q-25 0 -40 15t-15 40q0 24 15 40.5t39 16.5q26 0 42 -15.5t16 -41.5z" />
    <glyph glyph-name="igrave" unicode="&#xec;" horiz-adv-x="229" 
d="M160 479v-439q0 -21 -12.5 -33.5t-31.5 -12.5q-21 0 -34 12t-13 33v440q0 45 44 45q47 0 47 -45zM31 700q0 18 16.5 30t35.5 12q27 0 38 -30l30 -90q2 -6 2 -12q0 -12 -11 -20.5t-24 -8.5q-15 0 -26 15l-53 78q-8 12 -8 26z" />
    <glyph glyph-name="iacute" unicode="&#xed;" horiz-adv-x="229" 
d="M160 479v-439q0 -21 -12.5 -33.5t-31.5 -12.5q-21 0 -34 12t-13 33v440q0 45 44 45q47 0 47 -45zM190 673l-52 -77q-10 -15 -28 -15q-14 0 -24.5 9t-10.5 22q0 6 2 12l30 88q11 30 42 30q23 0 36.5 -13.5t13.5 -29.5q0 -13 -9 -26z" />
    <glyph glyph-name="icircumflex" unicode="&#xee;" horiz-adv-x="229" 
d="M160 479v-439q0 -21 -12.5 -33.5t-31.5 -12.5q-21 0 -34 12t-13 33v440q0 45 44 45q47 0 47 -45zM113 676l-67 -80q-11 -13 -27 -13q-14 0 -25 9t-11 23q0 9 6 18l61 86q17 24 63 24q47 0 64 -24l59 -86q7 -11 7 -21q0 -11 -12 -20t-24 -9q-16 0 -27 13z" />
    <glyph glyph-name="idieresis" unicode="&#xef;" horiz-adv-x="229" 
d="M160 479v-439q0 -21 -12.5 -33.5t-31.5 -12.5q-21 0 -34 12t-13 33v440q0 45 44 45q47 0 47 -45zM277 655q0 -26 -15.5 -40.5t-41.5 -14.5q-25 0 -40 15t-15 40q0 24 15 40.5t40 16.5q26 0 41.5 -15.5t15.5 -41.5zM60 655q0 -25 -15.5 -40t-41.5 -15q-25 0 -40 15t-15 40
q0 24 15 40.5t39 16.5q26 0 42 -15.5t16 -41.5z" />
    <glyph glyph-name="eth" unicode="&#xf0;" horiz-adv-x="583" 
d="M540 276q0 -128 -61 -207t-187 -79q-57 0 -101.5 16t-71.5 41.5t-44.5 61t-24 70t-6.5 71.5q0 81 18 128q27 71 84 111t132 40q70 0 120 -50q-33 72 -68 107l-135 -38q-8 -2 -14 -2q-14 0 -24 10t-10 24q0 25 32 35l88 26q-21 29 -21 41q0 20 14 32t33 12q33 0 86 -56
l62 16q9 3 19 3q13 0 22.5 -9.5t9.5 -23.5q0 -24 -26 -32l-36 -12q110 -135 110 -336zM445 258q0 88 -37 141t-118 53q-80 0 -116 -54.5t-36 -138.5q0 -195 155 -195q26 0 50 8.5t48.5 28t39 60t14.5 97.5z" />
    <glyph glyph-name="ntilde" unicode="&#xf1;" 
d="M493 336v-297q0 -45 -47 -45q-20 0 -32.5 12t-12.5 32v269q0 25 -1 41.5t-6.5 37.5t-15.5 33t-29.5 21t-46.5 9q-74 0 -107.5 -47.5t-33.5 -117.5v-245q0 -45 -47 -45q-20 0 -32.5 11.5t-12.5 31.5v444q0 20 13 31.5t31 11.5q46 0 46 -48v-23q53 75 160 75
q174 0 174 -192zM196 614q0 -29 -23 -29q-16 0 -20 9.5t-4 26.5q0 44 16 75.5t52 31.5q21 0 44 -12l59 -31q20 -10 30 -10q20 0 27 35q3 16 8.5 20.5t15.5 4.5q24 0 24 -34q0 -41 -15.5 -75.5t-49.5 -34.5q-24 0 -49 13l-54 28q-24 12 -36 12q-25 0 -25 -30z" />
    <glyph glyph-name="ograve" unicode="&#xf2;" horiz-adv-x="583" 
d="M539 264q0 -34 -4.5 -65t-20 -71t-41.5 -69t-74 -49t-112 -20q-59 0 -104 18t-70.5 45.5t-42 65.5t-21.5 72t-5 70q0 122 64 194.5t186 72.5q119 0 182 -71.5t63 -192.5zM445 263q0 84 -38 136.5t-117 52.5q-80 0 -116 -54.5t-36 -138.5q0 -195 155 -195q81 0 116.5 56.5
t35.5 142.5zM209 700q0 18 16.5 30t35.5 12q27 0 38 -30l30 -90q2 -6 2 -12q0 -12 -11 -20.5t-24 -8.5q-15 0 -26 15l-53 78q-8 12 -8 26z" />
    <glyph glyph-name="oacute" unicode="&#xf3;" horiz-adv-x="583" 
d="M539 264q0 -34 -4.5 -65t-20 -71t-41.5 -69t-74 -49t-112 -20q-59 0 -104 18t-70.5 45.5t-42 65.5t-21.5 72t-5 70q0 122 64 194.5t186 72.5q119 0 182 -71.5t63 -192.5zM445 263q0 84 -38 136.5t-117 52.5q-80 0 -116 -54.5t-36 -138.5q0 -195 155 -195q81 0 116.5 56.5
t35.5 142.5zM369 673l-52 -77q-10 -15 -28 -15q-14 0 -24.5 9t-10.5 22q0 6 2 12l30 88q11 30 42 30q23 0 36.5 -13.5t13.5 -29.5q0 -13 -9 -26z" />
    <glyph glyph-name="ocircumflex" unicode="&#xf4;" horiz-adv-x="583" 
d="M539 264q0 -34 -4.5 -65t-20 -71t-41.5 -69t-74 -49t-112 -20q-59 0 -104 18t-70.5 45.5t-42 65.5t-21.5 72t-5 70q0 122 64 194.5t186 72.5q119 0 182 -71.5t63 -192.5zM445 263q0 84 -38 136.5t-117 52.5q-80 0 -116 -54.5t-36 -138.5q0 -195 155 -195q81 0 116.5 56.5
t35.5 142.5zM291 676l-67 -80q-11 -13 -27 -13q-14 0 -25 9t-11 23q0 9 6 18l61 86q17 24 63 24q47 0 64 -24l59 -86q7 -11 7 -21q0 -11 -12 -20t-24 -9q-16 0 -27 13z" />
    <glyph glyph-name="otilde" unicode="&#xf5;" horiz-adv-x="583" 
d="M539 264q0 -34 -4.5 -65t-20 -71t-41.5 -69t-74 -49t-112 -20q-59 0 -104 18t-70.5 45.5t-42 65.5t-21.5 72t-5 70q0 122 64 194.5t186 72.5q119 0 182 -71.5t63 -192.5zM445 263q0 84 -38 136.5t-117 52.5q-80 0 -116 -54.5t-36 -138.5q0 -195 155 -195q81 0 116.5 56.5
t35.5 142.5zM207 614q0 -29 -23 -29q-16 0 -20 9.5t-4 26.5q0 44 16 75.5t52 31.5q22 0 44 -12l59 -31q20 -10 30 -10q19 0 27 35q3 16 8.5 20.5t15.5 4.5q24 0 24 -34q0 -41 -15.5 -75.5t-49.5 -34.5q-24 0 -49 13l-54 28q-24 12 -36 12q-25 0 -25 -30z" />
    <glyph glyph-name="odieresis" unicode="&#xf6;" horiz-adv-x="583" 
d="M539 264q0 -34 -4.5 -65t-20 -71t-41.5 -69t-74 -49t-112 -20q-59 0 -104 18t-70.5 45.5t-42 65.5t-21.5 72t-5 70q0 122 64 194.5t186 72.5q119 0 182 -71.5t63 -192.5zM445 263q0 84 -38 136.5t-117 52.5q-80 0 -116 -54.5t-36 -138.5q0 -195 155 -195q81 0 116.5 56.5
t35.5 142.5zM451 655q0 -26 -15.5 -40.5t-41.5 -14.5q-25 0 -40 15t-15 40q0 24 15 40.5t40 16.5q26 0 41.5 -15.5t15.5 -41.5zM234 655q0 -25 -15.5 -40t-41.5 -15q-25 0 -40 15t-15 40q0 24 15 40.5t39 16.5q26 0 42 -15.5t16 -41.5z" />
    <glyph glyph-name="divide" unicode="&#xf7;" horiz-adv-x="724" 
d="M611 258h-501q-17 0 -27 12t-10 31q0 42 40 42h501q17 0 27 -11.5t10 -30.5q0 -43 -40 -43zM311 463q0 27 14.5 43.5t38.5 16.5q23 0 37 -16t14 -43t-14 -43.5t-37 -16.5t-38 16.5t-15 42.5zM311 137q0 27 14.5 43t38.5 16q23 0 37 -16t14 -43t-14 -43t-37 -16t-38 16.5
t-15 42.5z" />
    <glyph glyph-name="oslash" unicode="&#xf8;" horiz-adv-x="583" 
d="M498 425q42 -66 42 -160q0 -130 -68 -203q-67 -72 -185 -72q-60 0 -97 15t-70 43l-41 -41q-8 -8 -17 -8q-12 0 -20.5 9t-8.5 20t7 18l45 46q-41 64 -41 167q0 122 64.5 195.5t183.5 73.5q109 0 170 -61l36 36q9 9 20 9t19.5 -8.5t8.5 -19.5t-7 -18zM431 357l-251 -248
q36 -46 109 -46q78 0 120 56q38 51 38 138q0 57 -16 100zM151 159l251 247q-37 47 -108 47q-74 0 -116 -54t-42 -135q0 -60 15 -105z" />
    <glyph glyph-name="ugrave" unicode="&#xf9;" 
d="M493 479v-441q0 -44 -45 -44q-27 0 -35.5 14.5t-8.5 42.5v15q-31 -42 -68 -59t-92 -17q-175 0 -175 195v294q0 22 12.5 33.5t32.5 11.5q22 0 35 -12t13 -33v-253q0 -31 1 -49.5t6.5 -41.5t15.5 -35.5t28.5 -21.5t45.5 -9q67 0 104 43.5t37 112.5v254q0 22 12.5 33.5
t32.5 11.5q48 0 48 -45zM197 700q0 18 16.5 30t35.5 12q27 0 38 -30l30 -90q2 -6 2 -12q0 -12 -11 -20.5t-24 -8.5q-15 0 -26 15l-53 78q-8 12 -8 26z" />
    <glyph glyph-name="uacute" unicode="&#xfa;" 
d="M493 479v-441q0 -44 -45 -44q-27 0 -35.5 14.5t-8.5 42.5v15q-31 -42 -68 -59t-92 -17q-175 0 -175 195v294q0 22 12.5 33.5t32.5 11.5q22 0 35 -12t13 -33v-253q0 -31 1 -49.5t6.5 -41.5t15.5 -35.5t28.5 -21.5t45.5 -9q67 0 104 43.5t37 112.5v254q0 22 12.5 33.5
t32.5 11.5q48 0 48 -45zM357 673l-52 -77q-10 -15 -28 -15q-14 0 -24.5 9t-10.5 22q0 6 2 12l30 88q11 30 42 30q23 0 36.5 -13.5t13.5 -29.5q0 -13 -9 -26z" />
    <glyph glyph-name="ucircumflex" unicode="&#xfb;" 
d="M493 479v-441q0 -44 -45 -44q-27 0 -35.5 14.5t-8.5 42.5v15q-31 -42 -68 -59t-92 -17q-175 0 -175 195v294q0 22 12.5 33.5t32.5 11.5q22 0 35 -12t13 -33v-253q0 -31 1 -49.5t6.5 -41.5t15.5 -35.5t28.5 -21.5t45.5 -9q67 0 104 43.5t37 112.5v254q0 22 12.5 33.5
t32.5 11.5q48 0 48 -45zM279 676l-67 -80q-11 -13 -27 -13q-14 0 -25 9t-11 23q0 9 6 18l61 86q17 24 63 24q47 0 64 -24l59 -86q7 -11 7 -21q0 -11 -12 -20t-24 -9q-16 0 -27 13z" />
    <glyph glyph-name="udieresis" unicode="&#xfc;" 
d="M493 479v-441q0 -44 -45 -44q-27 0 -35.5 14.5t-8.5 42.5v15q-31 -42 -68 -59t-92 -17q-175 0 -175 195v294q0 22 12.5 33.5t32.5 11.5q22 0 35 -12t13 -33v-253q0 -31 1 -49.5t6.5 -41.5t15.5 -35.5t28.5 -21.5t45.5 -9q67 0 104 43.5t37 112.5v254q0 22 12.5 33.5
t32.5 11.5q48 0 48 -45zM445 655q0 -26 -15.5 -40.5t-41.5 -14.5q-25 0 -40 15t-15 40q0 24 15 40.5t40 16.5q26 0 41.5 -15.5t15.5 -41.5zM228 655q0 -25 -15.5 -40t-41.5 -15q-25 0 -40 15t-15 40q0 24 15 40.5t39 16.5q26 0 42 -15.5t16 -41.5z" />
    <glyph glyph-name="yacute" unicode="&#xfd;" horiz-adv-x="437" 
d="M227 124l119 370q10 30 41 30q20 0 35.5 -11.5t15.5 -31.5q0 -7 -3 -16l-167 -476q-10 -29 -14 -39.5t-14 -34t-17.5 -32.5t-21 -24.5t-27.5 -21.5t-34 -11t-44 -5q-25 0 -39 2.5t-26 14t-12 33.5q0 36 28 36q6 0 22.5 -2.5t24.5 -2.5q25 0 47.5 17t32.5 47l12 35
l-182 460q-4 12 -4 20q0 21 15.5 32t36.5 11q31 0 42 -30zM295 673l-52 -77q-10 -15 -28 -15q-14 0 -24.5 9t-10.5 22q0 6 2 12l30 88q11 30 42 30q23 0 36.5 -13.5t13.5 -29.5q0 -13 -9 -26z" />
    <glyph glyph-name="thorn" unicode="&#xfe;" horiz-adv-x="583" 
d="M162 667v-208q58 69 153 69q108 0 166 -77t58 -188q0 -53 -12 -100t-36 -86.5t-66.5 -63t-97.5 -23.5q-52 0 -88 17t-77 54v-210q0 -45 -48 -45q-19 0 -32 12.5t-13 32.5v816q0 20 12.5 32.5t32.5 12.5q22 0 35 -12t13 -33zM444 266q0 37 -6.5 68t-21.5 58.5t-43.5 43.5
t-67.5 16q-75 0 -110 -53t-35 -132q0 -52 12 -95t46 -75.5t87 -32.5q139 0 139 202z" />
    <glyph glyph-name="ydieresis" unicode="&#xff;" horiz-adv-x="437" 
d="M227 124l119 370q10 30 41 30q20 0 35.5 -11.5t15.5 -31.5q0 -7 -3 -16l-167 -476q-10 -29 -14 -39.5t-14 -34t-17.5 -32.5t-21 -24.5t-27.5 -21.5t-34 -11t-44 -5q-25 0 -39 2.5t-26 14t-12 33.5q0 36 28 36q6 0 22.5 -2.5t24.5 -2.5q25 0 47.5 17t32.5 47l12 35
l-182 460q-4 12 -4 20q0 21 15.5 32t36.5 11q31 0 42 -30zM382 655q0 -26 -15.5 -40.5t-41.5 -14.5q-25 0 -40 15t-15 40q0 24 15 40.5t40 16.5q26 0 41.5 -15.5t15.5 -41.5zM165 655q0 -25 -15.5 -40t-41.5 -15q-25 0 -40 15t-15 40q0 24 15 40.5t39 16.5q26 0 42 -15.5
t16 -41.5z" />
    <glyph glyph-name="dotlessi" unicode="&#x131;" horiz-adv-x="229" 
d="M160 479v-439q0 -21 -12.5 -33.5t-31.5 -12.5q-21 0 -34 12t-13 33v440q0 45 44 45q47 0 47 -45z" />
    <glyph glyph-name="Lslash" unicode="&#x141;" horiz-adv-x="542" 
d="M174 87h331q43 0 43 -43q0 -44 -43 -44h-380q-47 0 -47 47v142q-26 -18 -36 -18q-16 0 -29 14t-13 30q0 19 17 31l61 46v375q0 45 48 45t48 -45v-303l155 117q12 9 24 9q17 0 30 -14t13 -30q0 -18 -17 -31l-205 -154v-174z" />
    <glyph glyph-name="lslash" unicode="&#x142;" horiz-adv-x="229" 
d="M229 413q0 -20 -21 -33l-48 -29v-312q0 -21 -11.5 -33t-32.5 -12q-47 0 -47 45v258q-20 -11 -28 -11q-17 0 -29 14.5t-12 31.5q0 21 21 33l48 28v275q0 20 12 32t32 12q47 0 47 -44v-221q13 11 29 11t28 -14.5t12 -30.5z" />
    <glyph glyph-name="OE" unicode="&#x152;" horiz-adv-x="1146" 
d="M715 318v-231h356q20 0 31.5 -12t11.5 -30q0 -45 -43 -45h-397q-46 0 -46 47v61q-71 -118 -249 -118q-154 0 -241 101t-87 259q0 161 88.5 264t247.5 103q149 0 237 -102v36q0 27 9 41t38 14h387q19 0 30.5 -11.5t11.5 -30.5q0 -44 -42 -44h-343v-219h322q19 0 29.5 -12
t10.5 -31q0 -40 -40 -40h-322zM623 351q0 77 -23.5 139t-78.5 103.5t-135 41.5q-78 0 -132.5 -39.5t-78 -101t-23.5 -139.5q0 -121 59.5 -201.5t175.5 -80.5q117 0 176.5 79t59.5 199z" />
    <glyph glyph-name="oe" unicode="&#x153;" horiz-adv-x="958" 
d="M870 238h-335v-9q0 -73 43.5 -116t114.5 -43q81 0 116 61q2 3 6.5 12t7 12.5t7.5 8.5t12 7t16 2q19 0 33.5 -11t14.5 -29q0 -23 -30 -60q-70 -83 -184 -83q-68 0 -115.5 22t-91.5 74q-30 -48 -83 -72.5t-113 -24.5q-120 0 -182.5 72t-62.5 194t64.5 198t184.5 76
q130 0 196 -98q71 98 196 98q80 0 134.5 -39t79.5 -114q16 -46 16 -93q0 -45 -45 -45zM538 313h278q-4 61 -39.5 99.5t-94.5 38.5q-58 0 -97 -39.5t-47 -98.5zM437 249q0 202 -150 202q-54 0 -88.5 -29.5t-46.5 -70t-12 -93.5q0 -84 35.5 -138t115.5 -54q75 0 110.5 51.5
t35.5 131.5z" />
    <glyph glyph-name="Scaron" unicode="&#x160;" horiz-adv-x="625" 
d="M311 818l52 68q11 15 27 15t29.5 -10t13.5 -26q0 -13 -10 -23l-44 -51q-20 -23 -68 -23q-50 0 -69 24l-40 49q-8 9 -8 23q0 15 12.5 26t28.5 11q21 0 32 -17zM567 198q0 -46 -16 -82.5t-41.5 -59.5t-60.5 -38t-70 -21.5t-72 -6.5q-122 0 -192 56q-41 33 -60.5 77
t-19.5 67q0 26 19 36.5t38 10.5q34 0 40 -29q6 -27 16 -48t30 -42.5t55 -33t83 -11.5q47 0 80 12t48 31t21.5 36.5t6.5 36.5q0 18 -4 31.5t-17 31t-43.5 33.5t-77.5 29l-96 27q-30 8 -46.5 13.5t-43 19.5t-41 31t-26 46t-11.5 66q0 91 61.5 145.5t178.5 54.5t181 -54
q29 -24 48.5 -60t19.5 -58t-14.5 -34t-35.5 -12q-23 0 -34 21l-9 18t-10.5 20t-11.5 18.5t-15.5 19.5t-20.5 16t-26.5 13.5t-33 8t-42.5 3.5q-60 0 -99 -27t-39 -82q0 -41 25 -58.5t93 -37.5l110 -32q102 -30 138.5 -81.5t36.5 -120.5z" />
    <glyph glyph-name="scaron" unicode="&#x161;" horiz-adv-x="479" 
d="M440 148q0 -69 -50.5 -113.5t-149.5 -44.5q-96 0 -151 46q-30 25 -42.5 57t-12.5 51q0 22 16.5 32t32.5 10q26 0 34 -22l6 -16q6 -17 9 -23.5t13.5 -21.5t22.5 -21.5t32.5 -13t45.5 -6.5q45 0 74 21.5t29 56.5q0 19 -7 32t-23.5 22.5t-28.5 13.5t-38 12l-58 17
q-140 41 -140 142q0 12 2 26t12.5 37.5t28.5 41t54 31t85 13.5q48 0 85 -12.5t57 -29.5t33 -37.5t17 -34t4 -21.5q0 -20 -13.5 -29.5t-28.5 -9.5q-11 0 -18 4.5t-11.5 11.5t-13.5 24q-34 64 -115 64q-43 0 -65 -19t-22 -48q0 -22 13.5 -36.5t28 -20.5t44.5 -15l65 -20
q87 -27 115.5 -64.5t28.5 -86.5zM173 729l67 -80l67 80q11 13 27 13q12 0 24 -9t12 -20t-7 -21l-59 -86q-17 -24 -64 -24q-46 0 -63 24l-61 86q-6 9 -6 18q0 14 11 23t25 9q16 0 27 -13z" />
    <glyph glyph-name="Ydieresis" unicode="&#x178;" 
d="M462 831q0 -26 -17 -43t-42 -17q-27 0 -44.5 16.5t-17.5 43.5q0 25 16.5 42.5t41.5 17.5q28 0 45.5 -16.5t17.5 -43.5zM227 831q0 -27 -17.5 -43.5t-44.5 -16.5q-25 0 -42 17t-17 43t17.5 43.5t43.5 17.5t43 -17.5t17 -43.5zM325 285v-246q0 -22 -13 -33.5t-34 -11.5
t-33.5 12t-12.5 33v246l-224 356q-8 13 -8 27q0 19 15.5 31.5t33.5 12.5q28 0 41 -22l193 -307l192 307q14 22 38 22q19 0 34.5 -13.5t15.5 -31.5q0 -13 -9 -26z" />
    <glyph glyph-name="Zcaron" unicode="&#x17d;" horiz-adv-x="604" 
d="M311 818l52 68q11 15 27 15t29.5 -10t13.5 -26q0 -13 -10 -23l-44 -51q-20 -23 -68 -23q-50 0 -69 24l-40 49q-8 9 -8 23q0 15 12.5 26t28.5 11q21 0 32 -17zM140 84h395q41 0 41 -42t-41 -42h-474q-45 0 -45 56q0 23 14 40l433 525h-361q-42 0 -42 43q0 42 42 42h453
q38 0 38 -43q0 -23 -11 -37z" />
    <glyph glyph-name="zcaron" unicode="&#x17e;" horiz-adv-x="479" 
d="M139 80h274q39 0 39 -40t-39 -40h-347q-43 0 -43 54q0 24 13 39l291 347h-237q-38 0 -38 39t38 39h319q36 0 36 -46q0 -22 -11 -35zM178 729l67 -80l67 80q11 13 27 13q12 0 24 -9t12 -20t-7 -21l-59 -86q-17 -24 -64 -24q-46 0 -63 24l-61 86q-6 9 -6 18q0 14 11 23
t25 9q16 0 27 -13z" />
    <glyph glyph-name="florin" unicode="&#x192;" horiz-adv-x="292" 
d="M196 511h74q34 0 34 -32q0 -20 -11 -33t-31 -13h-74l-51 -444q-8 -62 -17 -85q-35 -84 -154 -84q-48 0 -48 33q0 41 50 45q45 3 57.5 15.5t17.5 59.5l53 460h-51q-34 0 -34 32q0 46 44 46h49l7 56q10 75 56.5 107t111.5 32q48 0 48 -34q0 -19 -11 -29.5t-22 -12.5t-32 -3
q-36 -3 -46.5 -21t-15.5 -62z" />
    <glyph glyph-name="circumflex" unicode="&#x2c6;" horiz-adv-x="292" 
d="M146 676l-67 -80q-11 -13 -27 -13q-14 0 -25 9t-11 23q0 9 6 18l61 86q17 24 63 24q47 0 64 -24l59 -86q7 -11 7 -21q0 -11 -12 -20t-24 -9q-16 0 -27 13z" />
    <glyph glyph-name="caron" unicode="&#x2c7;" horiz-adv-x="292" 
d="M79 729l67 -80l67 80q11 13 27 13q12 0 24 -9t12 -20t-7 -21l-59 -86q-17 -24 -64 -24q-46 0 -63 24l-61 86q-6 9 -6 18q0 14 11 23t25 9q16 0 27 -13z" />
    <glyph glyph-name="breve" unicode="&#x2d8;" horiz-adv-x="292" 
d="M291 687q0 -34 -40 -71t-109 -37q-70 0 -105.5 35t-35.5 69q0 16 9.5 26.5t24.5 10.5q14 0 23 -9.5t14.5 -20.5t23.5 -20.5t46 -9.5t47 9.5t26.5 20.5t18 20.5t24.5 9.5t23.5 -9t9.5 -24z" />
    <glyph glyph-name="dotaccent" unicode="&#x2d9;" horiz-adv-x="292" 
d="M202 655q0 -26 -15.5 -40.5t-40.5 -14.5q-26 0 -41 15t-15 40t15.5 41t40.5 16q24 0 40 -15.5t16 -41.5z" />
    <glyph glyph-name="ring" unicode="&#x2da;" horiz-adv-x="292" 
d="M242 660q0 -43 -27 -71t-69 -28q-41 0 -68.5 28.5t-27.5 68.5t28 67.5t69 27.5t68 -26t27 -67zM188 659q0 18 -11.5 29.5t-30.5 11.5t-31 -12t-12 -31t12 -30.5t31 -11.5q20 0 31 12.5t11 31.5z" />
    <glyph glyph-name="ogonek" unicode="&#x2db;" horiz-adv-x="292" 
d="M136 13h68q-39 -52 -50 -71t-11 -34q0 -19 14 -25.5t30.5 -5.5t30.5 -6t14 -26q0 -48 -75 -48q-40 0 -68.5 19.5t-28.5 57.5q0 12 4 26t8.5 24t15 25.5t15.5 22t18 22.5t15 19z" />
    <glyph glyph-name="tilde" unicode="&#x2dc;" horiz-adv-x="292" 
d="M55 614q0 -29 -23 -29q-16 0 -20 9.5t-4 26.5q0 44 16 75.5t52 31.5q22 0 44 -12l59 -31q20 -10 30 -10q20 0 27 35q3 16 8.5 20.5t15.5 4.5q24 0 24 -34q0 -41 -15.5 -75.5t-49.5 -34.5q-24 0 -49 13l-54 28q-24 12 -36 12q-25 0 -25 -30z" />
    <glyph glyph-name="hungarumlaut" unicode="&#x2dd;" horiz-adv-x="292" 
d="M128 673l-52 -77q-10 -15 -28 -15q-14 0 -24.5 9t-10.5 22q0 6 2 12l30 88q11 30 42 30q23 0 36.5 -13.5t13.5 -29.5q0 -13 -9 -26zM270 673l-52 -77q-10 -15 -28 -15q-14 0 -24.5 9t-10.5 22q0 6 2 12l30 88q11 30 42 30q23 0 36.5 -13.5t13.5 -29.5q0 -13 -9 -26z" />
    <glyph glyph-name="endash" unicode="&#x2013;" horiz-adv-x="598" 
d="M76 340h448q16 0 26.5 -11t10.5 -28q0 -40 -40 -40h-447q-17 0 -27 11t-10 29q0 39 39 39z" />
    <glyph glyph-name="emdash" unicode="&#x2014;" horiz-adv-x="894" 
d="M76 340h744q16 0 26.5 -11t10.5 -28q0 -40 -40 -40h-743q-17 0 -27 11t-10 29q0 39 39 39z" />
    <glyph glyph-name="quoteleft" unicode="&#x2018;" horiz-adv-x="208" 
d="M112 582v-8q4 1 8 1q22 -1 33.5 -16t11.5 -37q0 -26 -15.5 -43.5t-41.5 -17.5t-45.5 18.5t-19.5 59.5q0 62 33 118t58 56q9 0 16 -9t7 -19q0 -9 -7 -18t-15.5 -16.5t-15.5 -25.5t-7 -43z" />
    <glyph glyph-name="quoteright" unicode="&#x2019;" horiz-adv-x="208" 
d="M96 591v8q-4 -1 -8 -1q-22 1 -33.5 16t-11.5 37q0 26 15.5 43.5t41.5 17.5t45.5 -18.5t19.5 -59.5q0 -62 -33 -118t-58 -56q-9 0 -16 9t-7 19q0 9 7 18t15.5 16.5t15.5 25.5t7 43z" />
    <glyph glyph-name="quotesinglbase" unicode="&#x201a;" horiz-adv-x="208" 
d="M96 -14v8q-4 -1 -8 -1q-22 1 -33.5 16t-11.5 37q0 26 15.5 43.5t41.5 17.5t45.5 -18.5t19.5 -59.5q0 -62 -33 -118t-58 -56q-9 0 -16 9t-7 19q0 9 7 18t15.5 16.5t15.5 25.5t7 43z" />
    <glyph glyph-name="quotedblleft" unicode="&#x201c;" horiz-adv-x="375" 
d="M279 582v-8q4 1 8 1q22 -1 33.5 -16t11.5 -37q0 -26 -15.5 -43.5t-41.5 -17.5t-45.5 18.5t-19.5 59.5q0 62 33 118t58 56q9 0 16 -9t7 -19q0 -11 -11 -21.5t-22.5 -30t-11.5 -51.5zM112 582v-8q4 1 8 1q22 -1 33.5 -16t11.5 -37q0 -26 -15.5 -43.5t-41.5 -17.5
t-45.5 18.5t-19.5 59.5q0 62 33 118t58 56q9 0 16 -9t7 -19q0 -9 -7 -18t-15.5 -16.5t-15.5 -25.5t-7 -43z" />
    <glyph glyph-name="quotedblright" unicode="&#x201d;" horiz-adv-x="375" 
d="M96 591v8q-4 -1 -8 -1q-22 1 -33.5 16t-11.5 37q0 26 15.5 43.5t41.5 17.5t45.5 -18.5t19.5 -59.5q0 -62 -33 -118t-58 -56q-9 0 -16 9t-7 19q0 9 7 18t15.5 16.5t15.5 25.5t7 43zM263 591v8q-4 -1 -8 -1q-22 1 -33.5 16t-11.5 37q0 26 15.5 43.5t41.5 17.5t45.5 -18.5
t19.5 -59.5q0 -62 -33 -118t-58 -56q-9 0 -16 9t-7 19q0 11 11 21.5t22.5 30t11.5 51.5z" />
    <glyph glyph-name="quotedblbase" unicode="&#x201e;" horiz-adv-x="375" 
d="M96 -14v8q-4 -1 -8 -1q-22 1 -33.5 16t-11.5 37q0 26 15.5 43.5t41.5 17.5t45.5 -18.5t19.5 -59.5q0 -62 -33 -118t-58 -56q-9 0 -16 9t-7 19q0 9 7 18t15.5 16.5t15.5 25.5t7 43zM263 -14v8q-4 -1 -8 -1q-22 1 -33.5 16t-11.5 37q0 26 15.5 43.5t41.5 17.5t45.5 -18.5
t19.5 -59.5q0 -62 -33 -118t-58 -56q-9 0 -16 9t-7 19q0 11 11 21.5t22.5 30t11.5 51.5z" />
    <glyph glyph-name="dagger" unicode="&#x2020;" horiz-adv-x="479" 
d="M285 402v-469q0 -45 -44 -45q-47 0 -47 46v468h-121q-44 0 -44 43q0 42 45 42h120v179q0 46 45 46q46 0 46 -44v-181h124q41 0 41 -43q0 -17 -9.5 -29.5t-31.5 -12.5h-124z" />
    <glyph glyph-name="daggerdbl" unicode="&#x2021;" horiz-adv-x="479" 
d="M284 129v-196q0 -45 -45 -45t-45 46v195h-121q-44 0 -44 43q0 18 11 30.5t34 12.5h120v203h-121q-44 0 -44 43q0 42 45 42h120v163q0 46 44 46q46 0 46 -44v-165h125q41 0 41 -43q0 -17 -9.5 -29.5t-31.5 -12.5h-125v-203h125q41 0 41 -44q0 -17 -9.5 -29.5t-31.5 -12.5
h-125z" />
    <glyph glyph-name="bullet" unicode="&#x2022;" horiz-adv-x="333" 
d="M44 353q0 55 34 88.5t90 33.5q55 0 88 -32.5t33 -87.5q0 -56 -34 -89.5t-90 -33.5q-54 0 -87.5 33.5t-33.5 87.5z" />
    <glyph glyph-name="ellipsis" unicode="&#x2026;" horiz-adv-x="1000" 
d="M220 47q0 -24 -15 -38.5t-39 -14.5t-38.5 14.5t-14.5 37.5q0 25 14.5 39.5t39.5 14.5q24 0 38.5 -14.5t14.5 -38.5zM553 47q0 -24 -14.5 -38.5t-39.5 -14.5q-24 0 -38.5 14.5t-14.5 37.5q0 25 15 39.5t40 14.5q24 0 38 -14.5t14 -38.5zM887 47q0 -24 -15 -38.5t-39 -14.5
t-38.5 14.5t-14.5 37.5q0 25 14.5 39.5t39.5 14.5q24 0 38.5 -14.5t14.5 -38.5z" />
    <glyph glyph-name="perthousand" unicode="&#x2030;" horiz-adv-x="1215" 
d="M341 465q0 -103 -43 -161t-122 -58q-162 0 -162 222q0 234 168 234q159 0 159 -237zM267 471q0 170 -87 170q-45 0 -69 -44t-24 -126q0 -162 93 -162q87 0 87 162zM820 212q0 -103 -43 -161t-122 -58q-162 0 -162 222q0 234 168 234q159 0 159 -237zM746 218
q0 170 -87 170q-45 0 -69 -44t-24 -126q0 -162 93 -162q87 0 87 162zM1202 212q0 -103 -43 -161t-122 -58q-162 0 -162 222q0 234 168 234q159 0 159 -237zM1128 218q0 170 -87 170q-45 0 -69 -44t-24 -126q0 -162 93 -162q87 0 87 162zM569 654l-254 -642q-7 -18 -25 -18
q-11 0 -21.5 6.5t-10.5 18.5q0 4 10 31l249 630q9 20 26 20q11 0 21 -7t10 -17t-5 -22z" />
    <glyph glyph-name="guilsinglleft" unicode="&#x2039;" horiz-adv-x="250" 
d="M106 299l91 -69q17 -14 17 -32t-12 -31t-30 -13q-13 0 -26 10l-120 100q-12 11 -12 37t12 36l123 99q10 8 23 8q18 0 30 -13t12 -32q0 -20 -17 -32z" />
    <glyph glyph-name="guilsinglright" unicode="&#x203a;" horiz-adv-x="250" 
d="M143 300l-91 69q-17 14 -17 33q0 17 12 30t30 13q14 0 25 -10l121 -100q12 -10 12 -37t-12 -36l-123 -99q-11 -9 -24 -9q-17 0 -29 14.5t-12 31.5q0 19 16 31z" />
    <glyph glyph-name="fraction" unicode="&#x2044;" horiz-adv-x="125" 
d="M212 654l-252 -640q-8 -21 -27 -21q-11 0 -21 6.5t-10 18.5q0 7 8 28l248 632q10 23 28 23q11 0 21 -7t10 -18q0 -10 -5 -22z" />
    <glyph glyph-name="Euro" unicode="&#x20ac;" horiz-adv-x="650" 
d="M470 397h-264q-2 -44 -2 -51v-12h255q39 0 39 -29q0 -16 -8.5 -22.5t-28.5 -6.5h-252q26 -206 186 -206q90 0 136 80q12 21 19.5 27.5t20.5 6.5q18 0 31.5 -12.5t13.5 -28.5q0 -28 -30 -64q-74 -89 -204 -89q-116 0 -185.5 74.5t-83.5 211.5h-51q-20 0 -28.5 6.5
t-8.5 22.5q0 29 39 29h45v15q0 27 2 48h-49q-20 0 -28.5 6.5t-8.5 22.5q0 28 39 28h54q20 127 90.5 195t180.5 68q104 0 168 -54q27 -24 45 -52t18 -49q0 -17 -15.5 -29.5t-37.5 -12.5q-13 0 -19.5 5.5t-14.5 22.5q-39 86 -144 86q-141 0 -176 -180h255q39 0 39 -28
q0 -16 -8.5 -22.5t-28.5 -6.5z" />
    <glyph glyph-name="trademark" unicode="&#x2122;" horiz-adv-x="694" 
d="M178 657v-260q0 -29 -29 -29q-30 0 -30 29v260h-76q-11 0 -17.5 6.5t-6.5 17.5q0 25 25 25h208q25 0 25 -25q0 -11 -6.5 -17.5t-17.5 -6.5h-75zM567 629l-69 -232q-8 -29 -34 -29q-16 0 -23 8.5t-15 37.5l-63 213v-230q0 -29 -28 -29t-28 29v280q0 18 8.5 24.5t31.5 6.5
q22 0 31 -5.5t14 -22.5l74 -239l72 240q5 17 13 22t30 5q23 0 31.5 -6.5t8.5 -24.5v-280q0 -29 -27 -29t-27 29v232z" />
    <glyph glyph-name="minus" unicode="&#x2212;" horiz-adv-x="724" 
d="M113 343h501q17 0 27 -11.5t10 -30.5q0 -43 -40 -43h-501q-17 0 -27 12t-10 31q0 42 40 42z" />
    </font>
</defs>
</svg>
