<?xml version="1.0" standalone="no"?>
<!DOCTYPE svg PUBLIC "-//W3C//DTD SVG 1.1//EN" "http://www.w3.org/Graphics/SVG/1.1/DTD/svg11.dtd" >
<svg xmlns="http://www.w3.org/2000/svg" xmlns:xlink="http://www.w3.org/1999/xlink" version="1.1">
<metadata>
Created by FontForge 20161003 at Fri Feb 10 03:41:07 2017
 By www-data
Copyright \(c\) 2012 by Yanone. All rights reserved.
</metadata>
<defs>
<font id="YanoneKaffeesatz-Light" horiz-adv-x="433" >
  <font-face 
    font-family="Yanone Kaffeesatz Light"
    font-weight="300"
    font-stretch="normal"
    units-per-em="1000"
    panose-1="0 0 4 0 0 0 0 0 0 0"
    ascent="800"
    descent="-200"
    x-height="500"
    cap-height="700"
    bbox="-122 -200 941 955"
    underline-thickness="50"
    underline-position="-100"
    stemh="51"
    stemv="55"
    unicode-range="U+000D-FB02"
  />
<missing-glyph horiz-adv-x="254" 
 />
    <glyph glyph-name="fi" unicode="fi" horiz-adv-x="397" 
d="M11 452c0 45 0 48 16 48h60v64c0 161 93 175 170 175c63 0 101 -13 101 -36c0 -9 -3 -23 -7 -33c-26 12 -59 19 -94 19c-56 0 -115 -10 -115 -127v-62h84c0 -45 0 -48 -14 -48h-70v-438s0 -14 -14 -14h-41v452h-76zM341 14c0 -14 0 -14 -56 -14v473c0 27 12 27 56 27
v-486z" />
    <glyph glyph-name="fl" unicode="fl" horiz-adv-x="407" 
d="M235 738c45 0 84 -11 115 -28v-696s0 -14 -14 -14h-41v682c-18 6 -39 9 -57 9c-37 0 -97 -4 -97 -122v-69h100c0 -45 -1 -48 -14 -48h-86v-438s0 -14 -13 -14h-42v452h-76c0 45 0 48 16 48h60v64c0 161 93 174 149 174z" />
    <glyph glyph-name=".notdef" horiz-adv-x="254" 
 />
    <glyph glyph-name="A" unicode="A" horiz-adv-x="436" 
d="M428 13c3 -10 -2 -14 -23 -14c-7 0 -19 0 -33 1l-50 193h-207l-47 -182c-2 -10 -7 -12 -27 -12c-6 0 -20 0 -34 2l189 694c1 6 8 9 19 9c9 0 19 -1 24 -3zM128 244h181l-49 185c-20 78 -39 160 -42 196c-4 -36 -22 -118 -43 -196z" />
    <glyph glyph-name="Aacute" unicode="&#xc1;" horiz-adv-x="436" 
d="M199 779c-11 0 -22 31 -22 31c55 57 132 118 136 118c14 0 24 -31 27 -44c-9 -10 -88 -71 -141 -105zM428 13c3 -10 -2 -14 -23 -14c-7 0 -19 0 -33 1l-50 193h-207l-47 -182c-2 -10 -7 -12 -27 -12c-6 0 -20 0 -34 2l189 694c1 6 8 9 19 9c9 0 19 -1 24 -3zM128 244h181
l-49 185c-20 78 -39 160 -42 196c-4 -36 -22 -118 -43 -196z" />
    <glyph glyph-name="Acircumflex" unicode="&#xc2;" horiz-adv-x="436" 
d="M133 781c-21 0 -33 11 -38 18l111 114c4 1 8 2 13 2c6 0 14 -2 20 -9c0 0 97 -98 97 -107c0 -7 -20 -19 -41 -19c0 0 -70 72 -77 85c0 0 -73 -84 -85 -84zM428 13c3 -10 -2 -14 -23 -14c-7 0 -19 0 -33 1l-50 193h-207l-47 -182c-2 -10 -7 -12 -27 -12c-6 0 -20 0 -34 2
l189 694c1 6 8 9 19 9c9 0 19 -1 24 -3zM128 244h181l-49 185c-20 78 -39 160 -42 196c-4 -36 -22 -118 -43 -196z" />
    <glyph glyph-name="Adieresis" unicode="&#xc4;" horiz-adv-x="436" 
d="M148 808c-28 0 -39 16 -39 41c0 22 14 41 39 41c27 0 40 -18 40 -41s-16 -41 -40 -41zM289 808c-28 0 -39 16 -39 41c0 22 14 41 39 41c27 0 40 -18 40 -41s-16 -41 -40 -41zM428 13c3 -10 -2 -14 -23 -14c-7 0 -19 0 -33 1l-50 193h-207l-47 -182c-2 -10 -7 -12 -27 -12
c-6 0 -20 0 -34 2l189 694c1 6 8 9 19 9c9 0 19 -1 24 -3zM128 244h181l-49 185c-20 78 -39 160 -42 196c-4 -36 -22 -118 -43 -196z" />
    <glyph glyph-name="Agrave" unicode="&#xc0;" horiz-adv-x="436" 
d="M243 783c-4 0 -132 96 -141 106c2 13 12 43 26 43c5 0 125 -100 137 -117c0 0 -12 -32 -22 -32zM428 13c3 -10 -2 -14 -23 -14c-7 0 -19 0 -33 1l-50 193h-207l-47 -182c-2 -10 -7 -12 -27 -12c-6 0 -20 0 -34 2l189 694c1 6 8 9 19 9c9 0 19 -1 24 -3zM128 244h181
l-49 185c-20 78 -39 160 -42 196c-4 -36 -22 -118 -43 -196z" />
    <glyph glyph-name="Aring" unicode="&#xc5;" horiz-adv-x="436" 
d="M214 774c-54 0 -87 21 -87 90c0 63 36 91 94 91s86 -22 86 -90c0 -61 -34 -91 -93 -91zM221 914c-33 0 -51 -13 -51 -52c0 -30 15 -47 45 -47c31 0 50 14 50 50c0 37 -16 49 -44 49zM428 13c3 -10 -2 -14 -23 -14c-7 0 -19 0 -33 1l-50 193h-207l-47 -182
c-2 -10 -7 -12 -27 -12c-6 0 -20 0 -34 2l189 694c1 6 8 9 19 9c9 0 19 -1 24 -3zM128 244h181l-49 185c-20 78 -39 160 -42 196c-4 -36 -22 -118 -43 -196z" />
    <glyph glyph-name="Atilde" unicode="&#xc3;" horiz-adv-x="436" 
d="M103 796c-15 0 -29 28 -29 28c32 54 67 68 102 68c46 0 49 -51 91 -51c52 0 58 45 70 45c13 0 22 -32 22 -32c-9 -18 -41 -66 -99 -66c-57 0 -59 53 -94 53c-38 0 -52 -45 -63 -45zM428 13c3 -10 -2 -14 -23 -14c-7 0 -19 0 -33 1l-50 193h-207l-47 -182
c-2 -10 -7 -12 -27 -12c-6 0 -20 0 -34 2l189 694c1 6 8 9 19 9c9 0 19 -1 24 -3zM128 244h181l-49 185c-20 78 -39 160 -42 196c-4 -36 -22 -118 -43 -196z" />
    <glyph glyph-name="AE" unicode="&#xc6;" horiz-adv-x="642" 
d="M417 357v-306h197c0 -47 0 -51 -12 -51h-240v193h-196l-87 -182c-4 -9 -9 -12 -27 -12c-7 0 -20 0 -34 2l328 688c2 7 10 11 18 11h19h232c0 -44 0 -51 -11 -51h-187v-241h175c0 -42 0 -51 -11 -51h-164zM191 244h171v392c-22 -61 -57 -148 -85 -211z" />
    <glyph glyph-name="B" unicode="B" horiz-adv-x="392" 
d="M55 683c0 10 4 17 25 17h100c76 0 167 -24 167 -152c0 -118 -58 -156 -98 -162c42 -3 120 -24 120 -147c0 -199 -116 -239 -192 -239h-122v683zM110 405h75c57 0 103 34 103 134c0 91 -54 112 -107 112h-71v-246zM110 50h67c66 0 129 43 129 184c0 115 -56 123 -129 123
h-67v-307z" />
    <glyph glyph-name="C" unicode="C" horiz-adv-x="354" 
d="M232 711c66 0 93 -30 93 -50c0 -13 -4 -26 -10 -34c-8 7 -38 31 -75 31c-69 0 -144 -40 -144 -341c0 -230 58 -268 119 -268c45 0 87 24 104 44c4 -9 10 -22 10 -35c0 -31 -54 -69 -125 -69c-81 0 -166 26 -166 328c0 352 106 394 194 394z" />
    <glyph glyph-name="Cacute" unicode="&#x106;" horiz-adv-x="354" 
d="M212 779c-11 0 -22 31 -22 31c55 57 132 118 136 118c14 0 24 -31 27 -44c-9 -10 -88 -71 -141 -105zM232 711c66 0 93 -30 93 -50c0 -13 -4 -26 -10 -34c-8 7 -38 31 -75 31c-69 0 -144 -40 -144 -341c0 -230 58 -268 119 -268c45 0 87 24 104 44c4 -9 10 -22 10 -35
c0 -31 -54 -69 -125 -69c-81 0 -166 26 -166 328c0 352 106 394 194 394z" />
    <glyph glyph-name="Ccaron" unicode="&#x10c;" horiz-adv-x="354" 
d="M233 780c-16 0 -115 102 -123 113c4 12 17 34 28 34c13 0 96 -94 96 -94c40 52 85 96 85 96c14 -8 23 -17 23 -27c0 -14 -95 -122 -109 -122zM232 711c66 0 93 -30 93 -50c0 -13 -4 -26 -10 -34c-8 7 -38 31 -75 31c-69 0 -144 -40 -144 -341c0 -230 58 -268 119 -268
c45 0 87 24 104 44c4 -9 10 -22 10 -35c0 -31 -54 -69 -125 -69c-81 0 -166 26 -166 328c0 352 106 394 194 394z" />
    <glyph glyph-name="Ccedilla" unicode="&#xc7;" horiz-adv-x="354" 
d="M329 58c0 -29 -47 -64 -111 -69l-10 -49s1 2 18 2c24 0 49 -17 49 -58c0 -54 -35 -77 -72 -77c-29 0 -53 10 -53 10s4 26 10 33c7 6 23 -9 44 -9c20 0 34 11 34 36c0 28 -15 35 -33 35c-21 0 -39 -6 -39 -6l16 84c-73 6 -144 52 -144 327c0 352 106 394 194 394
c66 0 93 -30 93 -50c0 -13 -4 -26 -10 -34c-8 7 -38 31 -75 31c-69 0 -144 -40 -144 -341c0 -230 58 -268 119 -268c45 0 87 24 104 44c4 -9 10 -22 10 -35z" />
    <glyph glyph-name="D" unicode="D" horiz-adv-x="410" 
d="M181 700c128 0 194 -81 194 -313c0 -315 -85 -387 -198 -387h-121v683c0 10 5 17 25 17h100zM315 391c0 191 -43 258 -135 258h-69v-596h67c70 0 137 42 137 338z" />
    <glyph glyph-name="Eth" unicode="&#xd0;" horiz-adv-x="410" 
d="M181 700c128 0 194 -81 194 -309c0 -319 -85 -391 -198 -391h-121v344h-44c0 37 0 49 13 49h31v290c0 10 5 17 25 17h100zM178 53c70 0 137 42 137 338c0 191 -43 258 -135 258h-69v-256h104c0 -37 0 -49 -14 -49h-90v-291h67z" />
    <glyph glyph-name="Dcroat" unicode="&#x110;" horiz-adv-x="410" 
d="M181 700c128 0 194 -81 194 -309c0 -319 -85 -391 -198 -391h-121v344h-44c0 37 0 49 13 49h31v290c0 10 5 17 25 17h100zM178 53c70 0 137 42 137 338c0 191 -43 258 -135 258h-69v-256h104c0 -37 0 -49 -14 -49h-90v-291h67z" />
    <glyph glyph-name="E" unicode="E" horiz-adv-x="337" 
d="M111 357v-306h197c0 -47 0 -51 -12 -51h-239v687s0 13 13 13h240c0 -44 0 -51 -11 -51h-188v-241h176c0 -42 0 -51 -12 -51h-164z" />
    <glyph glyph-name="Eacute" unicode="&#xc9;" horiz-adv-x="337" 
d="M289 928c14 0 24 -31 27 -44c-9 -10 -88 -71 -141 -105c-11 0 -22 31 -22 31c55 57 132 118 136 118zM299 649h-188v-241h176c0 -42 0 -51 -12 -51h-164v-306h197c0 -47 0 -51 -12 -51h-239v687s0 13 13 13h240c0 -44 0 -51 -11 -51z" />
    <glyph glyph-name="Ecaron" unicode="&#x11a;" horiz-adv-x="337" 
d="M196 780c-16 0 -115 102 -123 113c4 12 17 34 28 34c13 0 96 -94 96 -94c40 52 85 96 85 96c14 -8 23 -17 23 -27c0 -14 -95 -122 -109 -122zM111 357v-306h197c0 -47 0 -51 -12 -51h-239v687s0 13 13 13h240c0 -44 0 -51 -11 -51h-188v-241h176c0 -42 0 -51 -12 -51
h-164z" />
    <glyph glyph-name="Ecircumflex" unicode="&#xca;" horiz-adv-x="337" 
d="M109 781c-21 0 -33 11 -38 18l111 114c4 1 8 2 13 2c6 0 14 -2 20 -9c0 0 97 -98 97 -107c0 -7 -20 -19 -41 -19c0 0 -70 72 -77 85c0 0 -73 -84 -85 -84zM299 649h-188v-241h176c0 -42 0 -51 -12 -51h-164v-306h197c0 -47 0 -51 -12 -51h-239v687s0 13 13 13h240
c0 -44 0 -51 -11 -51z" />
    <glyph glyph-name="Edieresis" unicode="&#xcb;" horiz-adv-x="337" 
d="M125 808c-28 0 -39 16 -39 41c0 22 14 41 39 41c27 0 40 -18 40 -41s-16 -41 -40 -41zM266 808c-28 0 -39 16 -39 41c0 22 14 41 39 41c27 0 40 -18 40 -41s-16 -41 -40 -41zM111 357v-306h197c0 -47 0 -51 -12 -51h-239v687s0 13 13 13h240c0 -44 0 -51 -11 -51h-188
v-241h176c0 -42 0 -51 -12 -51h-164z" />
    <glyph glyph-name="Egrave" unicode="&#xc8;" horiz-adv-x="337" 
d="M220 783c-4 0 -132 96 -141 106c2 13 12 43 26 43c5 0 125 -100 137 -117c0 0 -12 -32 -22 -32zM111 357v-306h197c0 -47 0 -51 -12 -51h-239v687s0 13 13 13h240c0 -44 0 -51 -11 -51h-188v-241h176c0 -42 0 -51 -12 -51h-164z" />
    <glyph glyph-name="F" unicode="F" horiz-adv-x="327" 
d="M70 700h240c0 -44 0 -49 -11 -49h-188v-242h176c0 -43 0 -52 -12 -52h-164v-343s1 -14 -12 -14h-42v687s0 13 13 13z" />
    <glyph glyph-name="G" unicode="G" horiz-adv-x="399" 
d="M248 710c62 0 106 -22 106 -46c0 -12 -4 -23 -9 -34c-20 16 -48 27 -86 27c-104 0 -163 -64 -163 -314c0 -266 56 -299 131 -299c48 0 75 25 81 38v269h-97v34c0 9 5 13 15 13h135l-1 -352c-15 -17 -55 -56 -135 -56c-119 0 -187 57 -187 349c0 307 84 371 210 371z" />
    <glyph glyph-name="Gbreve" unicode="&#x11e;" horiz-adv-x="399" 
d="M149 921c12 -34 37 -88 89 -88c50 0 69 43 83 76c10 20 38 1 41 -19c-16 -51 -51 -110 -125 -110c-72 0 -119 79 -119 110c0 16 10 24 31 31zM248 710c62 0 106 -22 106 -46c0 -12 -4 -23 -9 -34c-20 16 -48 27 -86 27c-104 0 -163 -64 -163 -314
c0 -266 56 -299 131 -299c48 0 75 25 81 38v269h-97v34c0 9 5 13 15 13h135l-1 -352c-15 -17 -55 -56 -135 -56c-119 0 -187 57 -187 349c0 307 84 371 210 371z" />
    <glyph glyph-name="H" unicode="H" horiz-adv-x="432" 
d="M322 687c0 12 0 13 55 13v-686c0 -14 0 -14 -55 -14v356h-212v-342c0 -14 0 -14 -55 -14v687c0 13 0 13 55 13v-293h212v280z" />
    <glyph glyph-name="I" unicode="I" horiz-adv-x="165" 
d="M55 672c0 28 1 28 55 28v-686c0 -14 -1 -14 -55 -14v672z" />
    <glyph glyph-name="Iacute" unicode="&#xcd;" horiz-adv-x="165" 
d="M64 779c-11 0 -22 31 -22 31c55 57 132 118 136 118c14 0 24 -31 27 -44c-9 -10 -88 -71 -141 -105zM55 672c0 28 1 28 55 28v-686c0 -14 -1 -14 -55 -14v672z" />
    <glyph glyph-name="Icircumflex" unicode="&#xce;" horiz-adv-x="165" 
d="M71 913c4 1 8 2 13 2c6 0 14 -2 20 -9c0 0 97 -98 97 -107c0 -7 -20 -19 -41 -19c0 0 -70 72 -77 85c0 0 -73 -84 -85 -84c-21 0 -33 11 -38 18zM55 672c0 28 1 28 55 28v-686c0 -14 -1 -14 -55 -14v672z" />
    <glyph glyph-name="Idieresis" unicode="&#xcf;" horiz-adv-x="165" 
d="M-26 849c0 22 14 41 39 41c27 0 40 -18 40 -41s-16 -41 -40 -41c-28 0 -39 16 -39 41zM115 849c0 22 14 41 39 41c27 0 40 -18 40 -41s-16 -41 -40 -41c-28 0 -39 16 -39 41zM55 672c0 28 1 28 55 28v-686c0 -14 -1 -14 -55 -14v672z" />
    <glyph glyph-name="Idotaccent" unicode="&#x130;" horiz-adv-x="165" 
d="M52 869c0 29 11 46 33 46c23 0 31 -14 31 -45c-1 -30 -12 -47 -34 -47c-20 1 -31 13 -30 46zM55 672c0 28 1 28 55 28v-686c0 -14 -1 -14 -55 -14v672z" />
    <glyph glyph-name="Igrave" unicode="&#xcc;" horiz-adv-x="165" 
d="M108 783c-4 0 -132 96 -141 106c2 13 12 43 26 43c4 0 125 -100 137 -117c0 0 -12 -32 -22 -32zM55 672c0 28 1 28 55 28v-686c0 -14 -1 -14 -55 -14v672z" />
    <glyph glyph-name="J" unicode="J" horiz-adv-x="298" 
d="M188 673c0 27 0 27 56 27v-532c0 -88 -16 -178 -126 -178c-69 0 -101 28 -101 53c0 15 6 26 11 34c19 -20 48 -36 84 -36c72 0 76 63 76 143v489z" />
    <glyph glyph-name="K" unicode="K" horiz-adv-x="391" 
d="M165 395c84 -54 155 -176 203 -379c3 -13 -2 -17 -21 -17c-11 0 -24 0 -36 1c-53 185 -97 271 -153 327c-14 15 -31 25 -48 32v-345c0 -14 0 -14 -56 -14v687c0 13 0 13 56 13v-304l200 301c13 3 25 3 35 3c22 0 29 -6 21 -19z" />
    <glyph glyph-name="L" unicode="L" horiz-adv-x="327" 
d="M111 52h198v-38c0 -12 -5 -14 -13 -14h-241v680c0 20 0 20 56 20v-648z" />
    <glyph glyph-name="Lslash" unicode="&#x141;" horiz-adv-x="327" 
d="M111 52h198v-38s0 -14 -13 -14h-241v328l-41 -14c-10 36 -13 48 0 53l41 13v300c0 20 0 20 56 20v-302l103 34c10 -36 13 -48 0 -52l-103 -34v-294z" />
    <glyph glyph-name="M" unicode="M" horiz-adv-x="498" 
d="M402 700h42v-686c0 -14 0 -14 -56 -14l2 289c1 47 7 222 9 282c-23 -76 -70 -237 -75 -250l-58 -170c-2 -6 -7 -9 -11 -9h-26l-56 179c-4 12 -51 169 -75 249c2 -46 9 -224 10 -274l1 -282c0 -14 -2 -14 -54 -14v687c0 11 5 13 13 13h37l109 -351c7 -21 35 -119 35 -119
l34 116l105 341c2 5 4 13 14 13z" />
    <glyph glyph-name="N" unicode="N" horiz-adv-x="456" 
d="M347 687c0 13 0 13 54 13v-686c0 -9 -5 -14 -13 -14h-38l-123 281l-122 314c3 -73 5 -315 5 -337v-244c0 -14 -1 -14 -55 -14v687c0 9 4 13 13 13h39l120 -276c11 -30 94 -241 124 -316c-3 59 -4 317 -4 341v238z" />
    <glyph glyph-name="Nacute" unicode="&#x143;" horiz-adv-x="456" 
d="M218 779c-11 0 -22 31 -22 31c55 57 132 118 136 118c14 0 24 -31 27 -44c-9 -10 -88 -71 -141 -105zM347 687c0 13 0 13 54 13v-686c0 -9 -5 -14 -13 -14h-38l-123 281l-122 314c3 -73 5 -315 5 -337v-244c0 -14 -1 -14 -55 -14v687c0 9 4 13 13 13h39l120 -276
c11 -30 94 -241 124 -316c-3 59 -4 317 -4 341v238z" />
    <glyph glyph-name="Ntilde" unicode="&#xd1;" horiz-adv-x="456" 
d="M122 796c-15 0 -29 28 -29 28c32 54 67 68 102 68c46 0 49 -51 91 -51c52 0 58 45 70 45c13 0 22 -32 22 -32c-9 -18 -41 -66 -99 -66c-57 0 -59 53 -94 53c-38 0 -52 -45 -63 -45zM347 687c0 13 0 13 54 13v-686c0 -9 -5 -14 -13 -14h-38l-123 281l-122 314
c3 -73 5 -315 5 -337v-244c0 -14 -1 -14 -55 -14v687c0 9 4 13 13 13h39l120 -276c11 -30 94 -241 124 -316c-3 59 -4 317 -4 341v238z" />
    <glyph glyph-name="O" unicode="O" horiz-adv-x="446" 
d="M38 355c0 260 63 355 193 355c129 0 177 -88 177 -354c0 -270 -57 -366 -188 -366c-129 0 -182 82 -182 365zM99 338c0 -212 33 -291 122 -291c92 0 128 83 128 310c0 221 -32 297 -121 297c-88 0 -129 -83 -129 -316z" />
    <glyph glyph-name="Oacute" unicode="&#xd3;" horiz-adv-x="446" 
d="M213 779c-11 0 -22 31 -22 31c55 57 132 118 136 118c14 0 24 -31 27 -44c-9 -10 -88 -71 -141 -105zM38 355c0 260 63 355 193 355c129 0 177 -88 177 -354c0 -270 -57 -366 -188 -366c-129 0 -182 82 -182 365zM99 338c0 -212 33 -291 122 -291c92 0 128 83 128 310
c0 221 -32 297 -121 297c-88 0 -129 -83 -129 -316z" />
    <glyph glyph-name="Ocircumflex" unicode="&#xd4;" horiz-adv-x="446" 
d="M220 913c4 1 8 2 13 2c6 0 14 -2 20 -9c0 0 97 -98 97 -107c0 -7 -20 -19 -41 -19c0 0 -70 72 -77 85c0 0 -73 -84 -85 -84c-21 0 -33 11 -38 18zM38 355c0 260 63 355 193 355c129 0 177 -88 177 -354c0 -270 -57 -366 -188 -366c-129 0 -182 82 -182 365zM99 338
c0 -212 33 -291 122 -291c92 0 128 83 128 310c0 221 -32 297 -121 297c-88 0 -129 -83 -129 -316z" />
    <glyph glyph-name="Odieresis" unicode="&#xd6;" horiz-adv-x="446" 
d="M123 849c0 22 14 41 39 41c27 0 40 -18 40 -41s-16 -41 -40 -41c-28 0 -39 16 -39 41zM264 849c0 22 14 41 39 41c27 0 40 -18 40 -41s-16 -41 -40 -41c-28 0 -39 16 -39 41zM38 355c0 260 63 355 193 355c129 0 177 -88 177 -354c0 -270 -57 -366 -188 -366
c-129 0 -182 82 -182 365zM99 338c0 -212 33 -291 122 -291c92 0 128 83 128 310c0 221 -32 297 -121 297c-88 0 -129 -83 -129 -316z" />
    <glyph glyph-name="Ograve" unicode="&#xd2;" horiz-adv-x="446" 
d="M258 783c-4 0 -132 96 -141 106c2 13 12 43 26 43c5 0 125 -100 137 -117c0 0 -12 -32 -22 -32zM38 355c0 260 63 355 193 355c129 0 177 -88 177 -354c0 -270 -57 -366 -188 -366c-129 0 -182 82 -182 365zM99 338c0 -212 33 -291 122 -291c92 0 128 83 128 310
c0 221 -32 297 -121 297c-88 0 -129 -83 -129 -316z" />
    <glyph glyph-name="Oslash" unicode="&#xd8;" horiz-adv-x="450" 
d="M375 617c24 -56 35 -140 35 -261c0 -270 -57 -366 -189 -366c-50 0 -89 13 -118 46c-9 -24 -20 -50 -21 -52c-9 -1 -33 3 -36 18c0 3 20 52 30 77c-25 57 -36 145 -36 276c0 260 60 355 190 355c50 0 88 -13 116 -44c9 24 19 49 21 53c0 0 33 -2 36 -18
c1 -4 -17 -55 -28 -84zM230 654c-89 0 -130 -83 -130 -316c0 -96 6 -164 21 -211l185 492c-18 25 -43 35 -76 35zM219 46c88 0 132 65 132 311c0 99 -7 169 -22 216c-45 -124 -154 -411 -185 -492c18 -24 43 -35 75 -35z" />
    <glyph glyph-name="Otilde" unicode="&#xd5;" horiz-adv-x="446" 
d="M88 824c32 54 67 68 102 68c46 0 49 -51 91 -51c52 0 58 45 70 45c13 0 22 -32 22 -32c-9 -18 -41 -66 -99 -66c-57 0 -59 53 -94 53c-38 0 -52 -45 -63 -45c-15 0 -29 28 -29 28zM38 355c0 260 63 355 193 355c129 0 177 -88 177 -354c0 -270 -57 -366 -188 -366
c-129 0 -182 82 -182 365zM99 338c0 -212 33 -291 122 -291c92 0 128 83 128 310c0 221 -32 297 -121 297c-88 0 -129 -83 -129 -316z" />
    <glyph glyph-name="OE" unicode="&#x152;" horiz-adv-x="627" 
d="M402 357v-306h197c0 -47 0 -51 -13 -51h-232v65c-29 -52 -73 -74 -136 -74c-129 0 -182 83 -182 363c0 259 61 356 190 356c59 0 101 -19 128 -65v42s0 13 13 13h233c0 -44 0 -51 -11 -51h-187v-241h175c0 -42 0 -51 -12 -51h-163zM219 44c92 0 122 86 122 313
c0 221 -26 300 -114 300c-89 0 -130 -86 -130 -319c0 -212 34 -294 122 -294z" />
    <glyph glyph-name="P" unicode="P" horiz-adv-x="370" 
d="M172 700c126 0 175 -73 175 -190c0 -151 -74 -214 -178 -214h-59v-282c0 -14 -1 -14 -55 -14v687c0 9 3 13 13 13h28h76zM172 348c78 0 115 56 115 167c0 77 -25 135 -110 135h-67v-302h62z" />
    <glyph glyph-name="Thorn" unicode="&#xde;" horiz-adv-x="370" 
d="M172 571c126 0 175 -73 175 -190c0 -152 -74 -214 -178 -214h-59v-153c0 -14 -3 -14 -55 -14v685c0 14 9 15 37 15h18v-129h62zM172 219c78 0 115 56 115 166c0 77 -25 136 -110 136c-37 0 -59 0 -67 -1v-300z" />
    <glyph glyph-name="Q" unicode="Q" horiz-adv-x="446" 
d="M329 -87c26 0 47 6 65 17c6 -8 9 -22 9 -30c0 -23 -47 -34 -84 -34c-59 0 -92 36 -112 125c-119 5 -169 91 -169 364c0 260 63 355 193 355c129 0 177 -88 177 -354c0 -234 -43 -337 -139 -360c11 -63 27 -83 60 -83zM99 338c0 -212 33 -291 122 -291
c92 0 128 83 128 310c0 221 -32 297 -121 297c-88 0 -129 -83 -129 -316z" />
    <glyph glyph-name="R" unicode="R" horiz-adv-x="378" 
d="M244 309c29 -40 88 -137 101 -293c1 -13 -2 -16 -27 -17c-8 0 -18 0 -31 1c-18 181 -75 269 -97 297c-7 -1 -14 -1 -21 -1h-59v-282c0 -14 -1 -14 -55 -14v687s0 13 13 13h28h76c126 0 175 -73 175 -190c0 -112 -40 -175 -103 -201zM110 348h62c78 0 115 56 115 164
c0 80 -25 138 -110 138h-67v-302z" />
    <glyph glyph-name="Racute" unicode="&#x154;" horiz-adv-x="378" 
d="M158 779c-11 0 -22 31 -22 31c55 57 132 118 136 118c14 0 24 -31 27 -44c-9 -10 -88 -71 -141 -105zM244 309c29 -40 88 -137 101 -293c1 -13 -2 -16 -27 -17c-8 0 -18 0 -31 1c-18 181 -75 269 -97 297c-7 -1 -14 -1 -21 -1h-59v-282c0 -14 -1 -14 -55 -14v687
s0 13 13 13h28h76c126 0 175 -73 175 -190c0 -112 -40 -175 -103 -201zM110 348h62c78 0 115 56 115 164c0 80 -25 138 -110 138h-67v-302z" />
    <glyph glyph-name="Rcaron" unicode="&#x158;" horiz-adv-x="378" 
d="M179 780c-16 0 -115 102 -123 113c4 12 17 34 28 34c13 0 96 -94 96 -94c40 52 85 96 85 96c14 -8 23 -17 23 -27c0 -14 -95 -122 -109 -122zM244 309c29 -40 88 -137 101 -293c1 -13 -2 -16 -27 -17c-8 0 -18 0 -31 1c-18 181 -75 269 -97 297c-7 -1 -14 -1 -21 -1h-59
v-282c0 -14 -1 -14 -55 -14v687s0 13 13 13h28h76c126 0 175 -73 175 -190c0 -112 -40 -175 -103 -201zM110 348h62c78 0 115 56 115 164c0 80 -25 138 -110 138h-67v-302z" />
    <glyph glyph-name="S" unicode="S" horiz-adv-x="369" 
d="M203 710c89 0 126 -22 126 -44c0 -11 -5 -23 -15 -33c-15 12 -54 27 -107 27c-69 0 -114 -32 -114 -84c0 -41 23 -72 55 -108l119 -123c56 -60 72 -106 72 -172c0 -104 -48 -183 -174 -183c-92 0 -132 32 -132 53c0 13 5 28 16 39c21 -20 55 -36 112 -36
c86 0 120 50 120 122c0 56 -17 95 -70 152l-107 113c-46 50 -69 92 -69 142c0 79 61 135 168 135z" />
    <glyph glyph-name="Sacute" unicode="&#x15a;" horiz-adv-x="369" 
d="M182 779c-11 0 -22 31 -22 31c55 57 132 118 136 118c14 0 24 -31 27 -44c-9 -10 -88 -71 -141 -105zM203 710c89 0 126 -22 126 -44c0 -11 -5 -23 -15 -33c-15 12 -54 27 -107 27c-69 0 -114 -32 -114 -84c0 -41 23 -72 55 -108l119 -123c56 -60 72 -106 72 -172
c0 -104 -48 -183 -174 -183c-92 0 -132 32 -132 53c0 13 5 28 16 39c21 -20 55 -36 112 -36c86 0 120 50 120 122c0 56 -17 95 -70 152l-107 113c-46 50 -69 92 -69 142c0 79 61 135 168 135z" />
    <glyph glyph-name="Scaron" unicode="&#x160;" horiz-adv-x="369" 
d="M204 780c-16 0 -115 102 -123 113c4 12 17 34 28 34c13 0 96 -94 96 -94c40 52 85 96 85 96c14 -8 23 -17 23 -27c0 -14 -95 -122 -109 -122zM203 710c89 0 126 -22 126 -44c0 -11 -5 -23 -15 -33c-15 12 -54 27 -107 27c-69 0 -114 -32 -114 -84c0 -41 23 -72 55 -108
l119 -123c56 -60 72 -106 72 -172c0 -104 -48 -183 -174 -183c-92 0 -132 32 -132 53c0 13 5 28 16 39c21 -20 55 -36 112 -36c86 0 120 50 120 122c0 56 -17 95 -70 152l-107 113c-46 50 -69 92 -69 142c0 79 61 135 168 135z" />
    <glyph glyph-name="Scedilla" unicode="&#x15e;" horiz-adv-x="369" 
d="M339 173c0 -100 -45 -178 -163 -183l-10 -50s1 2 18 2c24 0 49 -17 49 -58c0 -54 -35 -77 -72 -77c-29 0 -53 10 -53 10s4 26 10 33c7 6 23 -9 44 -9c20 0 34 11 34 36c0 28 -15 35 -33 35c-21 0 -39 -6 -39 -6l17 85c-75 5 -108 33 -108 52c0 13 5 28 16 39
c21 -20 55 -36 112 -36c86 0 120 50 120 122c0 56 -17 95 -70 152l-107 113c-46 50 -69 92 -69 142c0 79 61 135 168 135c89 0 126 -22 126 -44c0 -11 -5 -23 -15 -33c-15 12 -54 27 -107 27c-69 0 -114 -32 -114 -84c0 -41 23 -72 55 -108l119 -123c56 -60 72 -106 72 -172
z" />
    <glyph glyph-name="T" unicode="T" horiz-adv-x="367" 
d="M20 700h340v-38c0 -10 -3 -14 -13 -14h-138v-635c0 -13 -1 -13 -55 -13v648h-147v39c0 9 4 13 13 13z" />
    <glyph glyph-name="U" unicode="U" horiz-adv-x="458" 
d="M111 213c0 -94 13 -171 125 -171c45 0 92 11 112 21v624c0 13 2 13 56 13v-675c-26 -17 -95 -35 -168 -35c-164 0 -181 105 -181 225v471c0 14 0 14 56 14v-487z" />
    <glyph glyph-name="Uacute" unicode="&#xda;" horiz-adv-x="458" 
d="M216 779c-11 0 -22 31 -22 31c55 57 132 118 136 118c14 0 24 -31 27 -44c-9 -10 -88 -71 -141 -105zM111 213c0 -94 13 -171 125 -171c45 0 92 11 112 21v624c0 13 2 13 56 13v-675c-26 -17 -95 -35 -168 -35c-164 0 -181 105 -181 225v471c0 14 0 14 56 14v-487z" />
    <glyph glyph-name="Ucircumflex" unicode="&#xdb;" horiz-adv-x="458" 
d="M223 913c4 1 8 2 13 2c6 0 14 -2 20 -9c0 0 97 -98 97 -107c0 -7 -20 -19 -41 -19c0 0 -70 72 -77 85c0 0 -73 -84 -85 -84c-21 0 -33 11 -38 18zM111 213c0 -94 13 -171 125 -171c45 0 92 11 112 21v624c0 13 2 13 56 13v-675c-26 -17 -95 -35 -168 -35
c-164 0 -181 105 -181 225v471c0 14 0 14 56 14v-487z" />
    <glyph glyph-name="Udieresis" unicode="&#xdc;" horiz-adv-x="458" 
d="M126 849c0 22 14 41 39 41c27 0 40 -18 40 -41s-16 -41 -40 -41c-28 0 -39 16 -39 41zM267 849c0 22 14 41 39 41c27 0 40 -18 40 -41s-16 -41 -40 -41c-28 0 -39 16 -39 41zM111 213c0 -94 13 -171 125 -171c45 0 92 11 112 21v624c0 13 2 13 56 13v-675
c-26 -17 -95 -35 -168 -35c-164 0 -181 105 -181 225v471c0 14 0 14 56 14v-487z" />
    <glyph glyph-name="Ugrave" unicode="&#xd9;" horiz-adv-x="458" 
d="M261 783c-4 0 -132 96 -141 106c2 13 12 43 26 43c5 0 125 -100 137 -117c0 0 -12 -32 -22 -32zM111 213c0 -94 13 -171 125 -171c45 0 92 11 112 21v624c0 13 2 13 56 13v-675c-26 -17 -95 -35 -168 -35c-164 0 -181 105 -181 225v471c0 14 0 14 56 14v-487z" />
    <glyph glyph-name="V" unicode="V" horiz-adv-x="421" 
d="M7 681c-3 13 -4 19 11 19h44l111 -438c19 -81 31 -151 42 -212c10 61 21 131 39 212l101 418c2 13 4 20 16 20h45l-171 -706c-12 -1 -23 -3 -43 -3c-17 0 -27 24 -36 59c-43 166 -159 631 -159 631z" />
    <glyph glyph-name="W" unicode="W" horiz-adv-x="643" 
d="M594 700h45l-141 -706c-16 -2 -22 -3 -43 -3c-14 0 -23 20 -30 51l-75 324c-7 32 -22 139 -30 194c-7 -54 -22 -160 -28 -193l-77 -373c-14 -1 -25 -2 -47 -2c-13 0 -22 24 -30 60c-36 170 -132 629 -132 629c-2 11 -2 19 12 19h44l92 -439c15 -82 22 -133 30 -194h4
c6 69 15 129 27 194l77 383c2 12 4 20 16 20h23h16l88 -403c17 -82 21 -132 30 -193h4c6 53 14 125 27 193l82 419c2 13 4 20 16 20z" />
    <glyph glyph-name="X" unicode="X" horiz-adv-x="426" 
d="M414 11c3 -7 0 -11 -8 -11h-57l-68 150c-29 66 -57 134 -70 165c-13 -31 -40 -99 -71 -164l-68 -143c-3 -6 -6 -8 -13 -8h-49l169 364l-142 326c-4 10 -3 10 63 10l52 -121c28 -67 56 -139 67 -169c12 31 40 103 68 169l48 111c4 10 2 10 62 10l-145 -336z" />
    <glyph glyph-name="Y" unicode="Y" horiz-adv-x="361" 
d="M210 286v-272c0 -14 1 -14 -55 -14v285l-149 406c-3 9 -2 9 62 9l48 -143c28 -77 66 -207 68 -223c1 16 41 146 68 224l44 132c3 10 4 10 60 10z" />
    <glyph glyph-name="Yacute" unicode="&#xdd;" horiz-adv-x="361" 
d="M165 779c-11 0 -22 31 -22 31c55 57 132 118 136 118c14 0 24 -31 27 -44c-9 -10 -88 -71 -141 -105zM210 286v-272c0 -14 1 -14 -55 -14v285l-149 406c-3 9 -2 9 62 9l48 -143c28 -77 66 -207 68 -223c1 16 41 146 68 224l44 132c3 10 4 10 60 10z" />
    <glyph glyph-name="Ydieresis" unicode="&#x178;" horiz-adv-x="361" 
d="M115 808c-28 0 -39 16 -39 41c0 22 14 41 39 41c27 0 40 -18 40 -41s-16 -41 -40 -41zM256 808c-28 0 -39 16 -39 41c0 22 14 41 39 41c27 0 40 -18 40 -41s-16 -41 -40 -41zM210 286v-272c0 -14 1 -14 -55 -14v285l-149 406c-3 9 -2 9 62 9l48 -143
c28 -77 66 -207 68 -223c1 16 41 146 68 224l44 132c3 10 4 10 60 10z" />
    <glyph glyph-name="Z" unicode="Z" horiz-adv-x="393" 
d="M46 686c0 9 5 14 14 14h298c4 -5 6 -11 6 -19c0 -9 -2 -18 -6 -28l-272 -603h225c21 0 40 1 53 6v-42c0 -8 -3 -14 -13 -14h-316c-6 4 -10 11 -10 22c0 9 2 18 5 27l269 601h-212c-21 0 -36 -1 -41 -2v38z" />
    <glyph glyph-name="Zacute" unicode="&#x179;" horiz-adv-x="393" 
d="M193 779c-11 0 -22 31 -22 31c55 57 132 118 136 118c14 0 24 -31 27 -44c-9 -10 -88 -71 -141 -105zM46 686c0 9 5 14 14 14h298c4 -5 6 -11 6 -19c0 -9 -2 -18 -6 -28l-272 -603h225c21 0 40 1 53 6v-42c0 -8 -3 -14 -13 -14h-316c-6 4 -10 11 -10 22c0 9 2 18 5 27
l269 601h-212c-21 0 -36 -1 -41 -2v38z" />
    <glyph glyph-name="Zcaron" unicode="&#x17d;" horiz-adv-x="393" 
d="M214 780c-16 0 -115 102 -123 113c4 12 17 34 28 34c13 0 96 -94 96 -94c40 52 85 96 85 96c14 -8 23 -17 23 -27c0 -14 -95 -122 -109 -122zM46 686c0 9 5 14 14 14h298c4 -5 6 -11 6 -19c0 -9 -2 -18 -6 -28l-272 -603h225c21 0 40 1 53 6v-42c0 -8 -3 -14 -13 -14
h-316c-6 4 -10 11 -10 22c0 9 2 18 5 27l269 601h-212c-21 0 -36 -1 -41 -2v38z" />
    <glyph glyph-name="a" unicode="a" horiz-adv-x="367" 
d="M36 464c0 8 3 17 8 20c20 12 84 26 157 26c80 0 120 -31 120 -121v-60c0 -114 -2 -225 -5 -303c-23 -14 -66 -36 -136 -36c-72 -1 -144 12 -144 149c0 141 74 163 149 163c27 0 60 -3 82 -12v88c0 65 -32 79 -79 79c-63 0 -117 -13 -144 -25c-6 12 -8 23 -8 32zM267 249
c-19 7 -46 10 -65 10c-57 0 -109 -12 -109 -118c0 -95 44 -103 95 -103c32 0 63 12 74 22c3 42 5 124 5 189z" />
    <glyph glyph-name="aacute" unicode="&#xe1;" horiz-adv-x="367" 
d="M167 579c-11 0 -22 31 -22 31c55 57 132 118 136 118c14 0 24 -31 27 -44c-9 -10 -88 -71 -141 -105zM36 464c0 8 3 17 8 20c20 12 84 26 157 26c80 0 120 -31 120 -121v-60c0 -114 -2 -225 -5 -303c-23 -14 -66 -36 -136 -36c-72 -1 -144 12 -144 149
c0 141 74 163 149 163c27 0 60 -3 82 -12v88c0 65 -32 79 -79 79c-63 0 -117 -13 -144 -25c-6 12 -8 23 -8 32zM267 249c-19 7 -46 10 -65 10c-57 0 -109 -12 -109 -118c0 -95 44 -103 95 -103c32 0 63 12 74 22c3 42 5 124 5 189z" />
    <glyph glyph-name="acircumflex" unicode="&#xe2;" horiz-adv-x="367" 
d="M174 713c4 1 8 2 13 2c6 0 14 -2 20 -9c0 0 97 -98 97 -107c0 -7 -20 -19 -41 -19c0 0 -70 72 -77 85c0 0 -73 -84 -85 -84c-21 0 -33 11 -38 18zM36 464c0 8 3 17 8 20c20 12 84 26 157 26c80 0 120 -31 120 -121v-60c0 -114 -2 -225 -5 -303c-23 -14 -66 -36 -136 -36
c-72 -1 -144 12 -144 149c0 141 74 163 149 163c27 0 60 -3 82 -12v88c0 65 -32 79 -79 79c-63 0 -117 -13 -144 -25c-6 12 -8 23 -8 32zM267 249c-19 7 -46 10 -65 10c-57 0 -109 -12 -109 -118c0 -95 44 -103 95 -103c32 0 63 12 74 22c3 42 5 124 5 189z" />
    <glyph glyph-name="adieresis" unicode="&#xe4;" horiz-adv-x="367" 
d="M77 649c0 22 14 41 39 41c27 0 40 -18 40 -41s-16 -41 -40 -41c-28 0 -39 16 -39 41zM218 649c0 22 14 41 39 41c27 0 40 -18 40 -41s-16 -41 -40 -41c-28 0 -39 16 -39 41zM36 464c0 8 3 17 8 20c20 12 84 26 157 26c80 0 120 -31 120 -121v-60c0 -114 -2 -225 -5 -303
c-23 -14 -66 -36 -136 -36c-72 -1 -144 12 -144 149c0 141 74 163 149 163c27 0 60 -3 82 -12v88c0 65 -32 79 -79 79c-63 0 -117 -13 -144 -25c-6 12 -8 23 -8 32zM267 249c-19 7 -46 10 -65 10c-57 0 -109 -12 -109 -118c0 -95 44 -103 95 -103c32 0 63 12 74 22
c3 42 5 124 5 189z" />
    <glyph glyph-name="agrave" unicode="&#xe0;" horiz-adv-x="367" 
d="M211 583c-4 0 -132 96 -141 106c2 13 12 43 26 43c5 0 125 -100 137 -117c0 0 -12 -32 -22 -32zM36 464c0 8 3 17 8 20c20 12 84 26 157 26c80 0 120 -31 120 -121v-60c0 -114 -2 -225 -5 -303c-23 -14 -66 -36 -136 -36c-72 -1 -144 12 -144 149c0 141 74 163 149 163
c27 0 60 -3 82 -12v88c0 65 -32 79 -79 79c-63 0 -117 -13 -144 -25c-6 12 -8 23 -8 32zM267 249c-19 7 -46 10 -65 10c-57 0 -109 -12 -109 -118c0 -95 44 -103 95 -103c32 0 63 12 74 22c3 42 5 124 5 189z" />
    <glyph glyph-name="aring" unicode="&#xe5;" horiz-adv-x="367" 
d="M95 664c0 63 36 91 94 91s86 -22 86 -90c0 -61 -34 -91 -93 -91c-54 0 -87 21 -87 90zM138 662c0 -30 15 -47 45 -47c31 0 50 14 50 50c0 37 -16 49 -44 49c-33 0 -51 -13 -51 -52zM36 464c0 8 3 17 8 20c20 12 84 26 157 26c80 0 120 -31 120 -121v-60
c0 -114 -2 -225 -5 -303c-23 -14 -66 -36 -136 -36c-72 -1 -144 12 -144 149c0 141 74 163 149 163c27 0 60 -3 82 -12v88c0 65 -32 79 -79 79c-63 0 -117 -13 -144 -25c-6 12 -8 23 -8 32zM267 249c-19 7 -46 10 -65 10c-57 0 -109 -12 -109 -118c0 -95 44 -103 95 -103
c32 0 63 12 74 22c3 42 5 124 5 189z" />
    <glyph glyph-name="atilde" unicode="&#xe3;" horiz-adv-x="367" 
d="M42 624c32 54 67 68 102 68c46 0 49 -51 91 -51c52 0 58 45 70 45c13 0 22 -32 22 -32c-9 -18 -41 -66 -99 -66c-57 0 -59 53 -94 53c-38 0 -52 -45 -63 -45c-15 0 -29 28 -29 28zM36 464c0 8 3 17 8 20c20 12 84 26 157 26c80 0 120 -31 120 -121v-60
c0 -114 -2 -225 -5 -303c-23 -14 -66 -36 -136 -36c-72 -1 -144 12 -144 149c0 141 74 163 149 163c27 0 60 -3 82 -12v88c0 65 -32 79 -79 79c-63 0 -117 -13 -144 -25c-6 12 -8 23 -8 32zM267 249c-19 7 -46 10 -65 10c-57 0 -109 -12 -109 -118c0 -95 44 -103 95 -103
c32 0 63 12 74 22c3 42 5 124 5 189z" />
    <glyph glyph-name="ae" unicode="&#xe6;" horiz-adv-x="621" 
d="M439 45c48 0 92 12 124 34c5 -12 7 -36 7 -50c0 -12 -63 -37 -136 -37c-51 0 -92 7 -120 45v-16c-22 -13 -64 -30 -134 -30c-72 -1 -144 9 -144 151c0 141 74 167 148 167c28 0 61 -3 83 -12v84c0 65 -36 79 -85 79c-57 0 -105 -11 -135 -29c-6 11 -7 27 -7 33
c0 8 5 17 9 19c20 13 70 27 152 27c63 0 99 -21 110 -77c33 68 85 77 138 77c87 0 126 -55 126 -155c0 -42 -3 -90 -10 -123c-98 -16 -197 0 -239 8v-17c0 -163 45 -178 113 -178zM444 460c-48 0 -104 -20 -116 -174c41 -8 127 -23 189 -12c3 24 4 49 4 70
c-1 80 -18 116 -77 116zM267 59v197c-19 7 -46 10 -65 10c-57 0 -109 -16 -109 -125c0 -95 43 -103 94 -103c32 0 68 9 80 21z" />
    <glyph glyph-name="b" unicode="b" horiz-adv-x="402" 
d="M58 708c0 27 11 27 55 27v-266c31 25 68 41 124 41c81 -1 131 -48 131 -192c0 -293 -113 -328 -195 -328c-52 0 -91 11 -115 30v688zM113 58c10 -9 31 -18 67 -18c49 0 128 30 128 263c0 120 -31 156 -95 156c-37 0 -72 -11 -100 -39v-362z" />
    <glyph glyph-name="c" unicode="c" horiz-adv-x="331" 
d="M304 470c0 -8 -2 -21 -8 -33c-16 11 -44 23 -77 23c-55 0 -123 -23 -123 -224c0 -163 41 -196 109 -196c41 0 74 15 92 31c4 -12 7 -23 7 -33c0 -22 -47 -48 -115 -48c-89 0 -149 34 -149 249c0 240 98 271 180 271c45 0 84 -18 84 -40z" />
    <glyph glyph-name="cacute" unicode="&#x107;" horiz-adv-x="331" 
d="M188 579c-11 0 -22 31 -22 31c55 57 132 118 136 118c14 0 24 -31 27 -44c-9 -10 -88 -71 -141 -105zM304 470c0 -8 -2 -21 -8 -33c-16 11 -44 23 -77 23c-55 0 -123 -23 -123 -224c0 -163 41 -196 109 -196c41 0 74 15 92 31c4 -12 7 -23 7 -33c0 -22 -47 -48 -115 -48
c-89 0 -149 34 -149 249c0 240 98 271 180 271c45 0 84 -18 84 -40z" />
    <glyph glyph-name="ccaron" unicode="&#x10d;" horiz-adv-x="331" 
d="M209 580c-16 0 -115 102 -123 113c4 12 17 34 28 34c13 0 96 -94 96 -94c40 52 85 96 85 96c14 -8 23 -17 23 -27c0 -14 -95 -122 -109 -122zM304 470c0 -8 -2 -21 -8 -33c-16 11 -44 23 -77 23c-55 0 -123 -23 -123 -224c0 -163 41 -196 109 -196c41 0 74 15 92 31
c4 -12 7 -23 7 -33c0 -22 -47 -48 -115 -48c-89 0 -149 34 -149 249c0 240 98 271 180 271c45 0 84 -18 84 -40z" />
    <glyph glyph-name="ccedilla" unicode="&#xe7;" horiz-adv-x="331" 
d="M205 40c41 0 74 15 92 31c4 -12 7 -23 7 -33c0 -20 -39 -43 -97 -47l-10 -51s1 2 18 2c24 0 49 -17 49 -58c0 -54 -35 -77 -72 -77c-29 0 -53 10 -53 10s4 26 10 33c7 6 23 -9 44 -9c20 0 34 11 34 36c0 28 -15 35 -33 35c-21 0 -39 -6 -39 -6l17 85
c-80 5 -132 48 -132 248c0 240 98 271 180 271c45 0 84 -18 84 -40c0 -8 -2 -21 -8 -33c-16 11 -44 23 -77 23c-55 0 -123 -23 -123 -224c0 -163 41 -196 109 -196z" />
    <glyph glyph-name="d" unicode="d" horiz-adv-x="400" 
d="M288 708c0 27 12 27 56 27v-715c-33 -17 -83 -30 -142 -30c-88 0 -162 25 -162 246c0 192 75 274 166 274c35 0 61 -7 82 -22v220zM207 40c31 0 60 6 82 20l-1 381c-19 15 -35 20 -66 20c-66 0 -123 -57 -123 -220c0 -177 44 -200 108 -201z" />
    <glyph glyph-name="eth" unicode="&#xf0;" horiz-adv-x="427" 
d="M295 645c66 -88 97 -203 97 -356c0 -158 -26 -299 -174 -299c-120 0 -180 75 -180 267c0 165 64 252 171 252c45 0 82 -14 109 -44c-15 61 -39 112 -76 159l-96 -38c-13 34 -18 46 -5 51l66 26c-19 19 -40 37 -63 54c8 16 23 27 38 27c8 0 17 -4 23 -9
c20 -16 39 -33 56 -50l76 30c13 -35 18 -46 5 -51zM217 38c108 0 120 123 120 254c0 35 -2 67 -5 97c-28 48 -65 69 -111 69c-83 0 -128 -79 -128 -209c0 -149 46 -211 124 -211z" />
    <glyph glyph-name="dcroat" unicode="&#x111;" horiz-adv-x="400" 
d="M344 653h59c0 -38 0 -50 -14 -50h-45v-583c-33 -17 -83 -30 -142 -30c-88 0 -162 25 -162 246c0 192 75 274 166 274c35 0 61 -7 82 -22v115h-92c0 37 0 50 14 50h78v55c0 27 12 27 56 27v-82zM207 40c31 0 60 6 82 20l-1 381c-19 15 -35 20 -66 20
c-66 0 -123 -57 -123 -220c0 -177 44 -200 108 -201z" />
    <glyph glyph-name="e" unicode="e" horiz-adv-x="374" 
d="M210 44c45 0 89 12 121 34c4 -13 6 -28 6 -39c0 -24 -63 -49 -135 -49c-95 0 -164 32 -164 233c0 257 95 287 178 287c87 0 126 -59 126 -158c0 -43 -2 -87 -9 -120c-83 -16 -194 -18 -239 -18c1 -146 46 -170 116 -170zM212 460c-51 0 -110 -23 -117 -199
c41 -1 134 0 189 13c3 24 4 46 4 67c-1 80 -17 119 -76 119z" />
    <glyph glyph-name="eacute" unicode="&#xe9;" horiz-adv-x="374" 
d="M190 579c-11 0 -22 31 -22 31c55 57 132 118 136 118c14 0 24 -31 27 -44c-9 -10 -88 -71 -141 -105zM210 44c45 0 89 12 121 34c4 -13 6 -28 6 -39c0 -24 -63 -49 -135 -49c-95 0 -164 32 -164 233c0 257 95 287 178 287c87 0 126 -59 126 -158c0 -43 -2 -87 -9 -120
c-83 -16 -194 -18 -239 -18c1 -146 46 -170 116 -170zM212 460c-51 0 -110 -23 -117 -199c41 -1 134 0 189 13c3 24 4 46 4 67c-1 80 -17 119 -76 119z" />
    <glyph glyph-name="ecaron" unicode="&#x11b;" horiz-adv-x="374" 
d="M211 580c-16 0 -115 102 -123 113c4 12 17 34 28 34c13 0 96 -94 96 -94c40 52 85 96 85 96c14 -8 23 -17 23 -27c0 -14 -95 -122 -109 -122zM210 44c45 0 89 12 121 34c4 -13 6 -28 6 -39c0 -24 -63 -49 -135 -49c-95 0 -164 32 -164 233c0 257 95 287 178 287
c87 0 126 -59 126 -158c0 -43 -2 -87 -9 -120c-83 -16 -194 -18 -239 -18c1 -146 46 -170 116 -170zM212 460c-51 0 -110 -23 -117 -199c41 -1 134 0 189 13c3 24 4 46 4 67c-1 80 -17 119 -76 119z" />
    <glyph glyph-name="ecircumflex" unicode="&#xea;" horiz-adv-x="374" 
d="M124 581c-21 0 -33 11 -38 18l111 114c4 1 8 2 13 2c6 0 14 -2 20 -9c0 0 97 -98 97 -107c0 -7 -20 -19 -41 -19c0 0 -70 72 -77 85c0 0 -73 -84 -85 -84zM210 44c45 0 89 12 121 34c4 -13 6 -28 6 -39c0 -24 -63 -49 -135 -49c-95 0 -164 32 -164 233
c0 257 95 287 178 287c87 0 126 -59 126 -158c0 -43 -2 -87 -9 -120c-83 -16 -194 -18 -239 -18c1 -146 46 -170 116 -170zM212 460c-51 0 -110 -23 -117 -199c41 -1 134 0 189 13c3 24 4 46 4 67c-1 80 -17 119 -76 119z" />
    <glyph glyph-name="edieresis" unicode="&#xeb;" horiz-adv-x="374" 
d="M139 608c-28 0 -39 16 -39 41c0 22 14 41 39 41c27 0 40 -18 40 -41s-16 -41 -40 -41zM280 608c-28 0 -39 16 -39 41c0 22 14 41 39 41c27 0 40 -18 40 -41s-16 -41 -40 -41zM210 44c45 0 89 12 121 34c4 -13 6 -28 6 -39c0 -24 -63 -49 -135 -49c-95 0 -164 32 -164 233
c0 257 95 287 178 287c87 0 126 -59 126 -158c0 -43 -2 -87 -9 -120c-83 -16 -194 -18 -239 -18c1 -146 46 -170 116 -170zM212 460c-51 0 -110 -23 -117 -199c41 -1 134 0 189 13c3 24 4 46 4 67c-1 80 -17 119 -76 119z" />
    <glyph glyph-name="egrave" unicode="&#xe8;" horiz-adv-x="374" 
d="M235 583c-4 0 -132 96 -141 106c2 13 12 43 26 43c5 0 125 -100 137 -117c0 0 -12 -32 -22 -32zM210 44c45 0 89 12 121 34c4 -13 6 -28 6 -39c0 -24 -63 -49 -135 -49c-95 0 -164 32 -164 233c0 257 95 287 178 287c87 0 126 -59 126 -158c0 -43 -2 -87 -9 -120
c-83 -16 -194 -18 -239 -18c1 -146 46 -170 116 -170zM212 460c-51 0 -110 -23 -117 -199c41 -1 134 0 189 13c3 24 4 46 4 67c-1 80 -17 119 -76 119z" />
    <glyph glyph-name="f" unicode="f" horiz-adv-x="248" 
d="M15 452c0 45 0 48 16 48h60v64c0 154 91 175 163 175c60 0 86 -14 86 -31c0 -10 -3 -21 -6 -31c-25 9 -47 12 -74 12c-55 0 -114 -11 -114 -124v-65h104c0 -45 -1 -48 -14 -48h-90v-438c0 -5 -2 -14 -14 -14h-41v452h-76z" />
    <glyph glyph-name="g" unicode="g" horiz-adv-x="403" 
d="M251 63c74 -10 134 -31 134 -110c0 -77 -61 -150 -193 -150c-134 0 -159 54 -159 106c0 49 39 97 83 127c-42 11 -68 28 -67 52c0 27 29 61 64 88c-50 31 -64 89 -64 153c0 125 72 181 165 181c11 0 30 -2 46 -6h123c2 -5 6 -13 6 -25c0 -16 -8 -23 -23 -23s-35 2 -54 6
c34 -22 55 -63 55 -124c0 -103 -46 -184 -162 -184c-22 0 -41 2 -57 7c-20 -17 -42 -41 -42 -57c0 -20 63 -31 145 -41zM212 467c-58 0 -106 -41 -106 -137c0 -73 14 -131 103 -131c71 0 103 65 103 150c0 82 -37 118 -100 118zM196 -146c90 0 133 48 133 92
c0 55 -40 66 -112 73c-20 2 -39 4 -57 7c-36 -25 -71 -69 -71 -106c0 -38 18 -66 107 -66z" />
    <glyph glyph-name="gbreve" unicode="&#x11f;" horiz-adv-x="403" 
d="M215 580c-72 0 -119 79 -119 110c0 16 10 24 31 31c12 -34 37 -88 89 -88c50 0 69 43 83 76c10 20 38 1 41 -19c-16 -51 -51 -110 -125 -110zM251 63c74 -10 134 -31 134 -110c0 -77 -61 -150 -193 -150c-134 0 -159 54 -159 106c0 49 39 97 83 127c-42 11 -68 28 -67 52
c0 27 29 61 64 88c-50 31 -64 89 -64 153c0 125 72 181 165 181c11 0 30 -2 46 -6h123c2 -5 6 -13 6 -25c0 -16 -8 -23 -23 -23s-35 2 -54 6c34 -22 55 -63 55 -124c0 -103 -46 -184 -162 -184c-22 0 -41 2 -57 7c-20 -17 -42 -41 -42 -57c0 -20 63 -31 145 -41zM212 467
c-58 0 -106 -41 -106 -137c0 -73 14 -131 103 -131c71 0 103 65 103 150c0 82 -37 118 -100 118zM196 -146c90 0 133 48 133 92c0 55 -40 66 -112 73c-20 2 -39 4 -57 7c-36 -25 -71 -69 -71 -106c0 -38 18 -66 107 -66z" />
    <glyph glyph-name="h" unicode="h" horiz-adv-x="396" 
d="M236 510c95 0 115 -50 115 -134v-362c0 -14 -3 -14 -56 -14v364c0 55 -14 94 -80 94c-31 0 -74 -10 -106 -40v-404c0 -14 0 -14 -55 -14v708c0 27 11 27 55 27v-268c38 30 86 43 127 43z" />
    <glyph glyph-name="i" unicode="i" horiz-adv-x="171" 
d="M55 669c0 29 11 46 33 46c23 0 31 -14 31 -45c-1 -30 -12 -47 -34 -47c-20 1 -31 13 -30 46zM114 14c0 -14 -1 -14 -57 -14v473c0 27 13 27 57 27v-486z" />
    <glyph glyph-name="dotlessi" unicode="&#x131;" horiz-adv-x="171" 
d="M114 14c0 -14 -1 -14 -57 -14v473c0 27 13 27 57 27v-486z" />
    <glyph glyph-name="iacute" unicode="&#xed;" horiz-adv-x="171" 
d="M67 579c-11 0 -22 31 -22 31c55 57 132 118 136 118c14 0 24 -31 27 -44c-9 -10 -88 -71 -141 -105zM114 14c0 -14 -1 -14 -57 -14v473c0 27 13 27 57 27v-486z" />
    <glyph glyph-name="icircumflex" unicode="&#xee;" horiz-adv-x="171" 
d="M74 713c4 1 8 2 13 2c6 0 14 -2 20 -9c0 0 97 -98 97 -107c0 -7 -20 -19 -41 -19c0 0 -70 72 -77 85c0 0 -73 -84 -85 -84c-21 0 -33 11 -38 18zM114 14c0 -14 -1 -14 -57 -14v473c0 27 13 27 57 27v-486z" />
    <glyph glyph-name="idieresis" unicode="&#xef;" horiz-adv-x="171" 
d="M-23 649c0 22 14 41 39 41c27 0 40 -18 40 -41s-16 -41 -40 -41c-28 0 -39 16 -39 41zM118 649c0 22 14 41 39 41c27 0 40 -18 40 -41s-16 -41 -40 -41c-28 0 -39 16 -39 41zM114 14c0 -14 -1 -14 -57 -14v473c0 27 13 27 57 27v-486z" />
    <glyph glyph-name="igrave" unicode="&#xec;" horiz-adv-x="171" 
d="M112 583c-4 0 -132 96 -141 106c2 13 12 43 26 43c5 0 125 -100 137 -117c0 0 -12 -32 -22 -32zM114 14c0 -14 -1 -14 -57 -14v473c0 27 13 27 57 27v-486z" />
    <glyph glyph-name="j" unicode="j" horiz-adv-x="182" 
d="M62 669c0 29 11 46 33 46c23 0 31 -14 31 -45c-1 -30 -12 -47 -34 -47c-20 1 -31 13 -30 46zM119 -37c0 -90 -21 -158 -123 -158c-72 0 -109 22 -109 46c0 11 2 22 9 31c23 -14 53 -26 96 -26c64 0 72 40 72 118v499c0 27 11 27 55 27v-537z" />
    <glyph glyph-name="uni0237" unicode="&#x237;" horiz-adv-x="182" 
d="M119 -37c0 -90 -21 -158 -123 -158c-72 0 -109 22 -109 46c0 11 2 22 9 31c23 -14 53 -26 96 -26c64 0 72 40 72 118v499c0 27 11 27 55 27v-537z" />
    <glyph glyph-name="k" unicode="k" horiz-adv-x="389" 
d="M358 113c4 -28 4 -61 0 -99c-2 -14 -2 -14 -62 -14c8 61 4 107 -5 141c-24 83 -84 98 -120 89c-19 -5 -59 -22 -59 -22v-194c0 -14 2 -14 -55 -14v708c0 27 11 27 55 27v-286c40 40 99 61 141 61c65 0 88 -35 88 -88c0 -90 -79 -142 -105 -157c44 -8 107 -51 122 -152z
M112 251c94 32 169 81 169 157c0 34 -16 51 -51 51c-37 0 -79 -18 -118 -64v-144z" />
    <glyph glyph-name="l" unicode="l" horiz-adv-x="170" 
d="M112 14c0 -14 -1 -14 -55 -14v708c0 27 11 27 55 27v-721z" />
    <glyph glyph-name="lslash" unicode="&#x142;" horiz-adv-x="177" 
d="M167 406c10 -36 13 -48 0 -52l-52 -17v-323c0 -14 2 -14 -54 -14v319l-50 -17c-10 35 -13 48 0 52l50 17v337c0 27 11 27 54 27v-346z" />
    <glyph glyph-name="m" unicode="m" horiz-adv-x="592" 
d="M428 510c99 0 112 -51 112 -145v-351c0 -14 -1 -14 -55 -14v368c0 65 -10 92 -66 92c-29 0 -60 -6 -92 -27v-419c0 -14 -1 -14 -54 -14h-1v370c0 62 -2 91 -68 91c-29 0 -58 -6 -92 -22v-425c0 -14 -2 -14 -55 -14v477c48 21 99 33 148 33c50 0 79 -13 96 -36
c36 23 85 36 127 36z" />
    <glyph glyph-name="n" unicode="n" horiz-adv-x="401" 
d="M55 475c46 20 106 35 162 35c108 0 137 -43 137 -137v-359c0 -14 -1 -14 -56 -14v358c0 72 -14 103 -82 103c-30 0 -76 -7 -106 -23v-424c0 -14 -1 -14 -55 -14v475z" />
    <glyph glyph-name="nacute" unicode="&#x144;" horiz-adv-x="401" 
d="M194 579c-11 0 -22 31 -22 31c55 57 132 118 136 118c14 0 24 -31 27 -44c-9 -10 -88 -71 -141 -105zM55 475c46 20 106 35 162 35c108 0 137 -43 137 -137v-359c0 -14 -1 -14 -56 -14v358c0 72 -14 103 -82 103c-30 0 -76 -7 -106 -23v-424c0 -14 -1 -14 -55 -14v475z
" />
    <glyph glyph-name="ntilde" unicode="&#xf1;" horiz-adv-x="401" 
d="M69 624c32 54 67 68 102 68c46 0 49 -51 91 -51c52 0 58 45 70 45c13 0 22 -32 22 -32c-9 -18 -41 -66 -99 -66c-57 0 -59 53 -94 53c-38 0 -52 -45 -63 -45c-15 0 -29 28 -29 28zM55 475c46 20 106 35 162 35c108 0 137 -43 137 -137v-359c0 -14 -1 -14 -56 -14v358
c0 72 -14 103 -82 103c-30 0 -76 -7 -106 -23v-424c0 -14 -1 -14 -55 -14v475z" />
    <glyph glyph-name="o" unicode="o" horiz-adv-x="387" 
d="M33 249c0 185 63 261 167 261c103 0 154 -55 154 -260c0 -180 -58 -260 -165 -260c-98 0 -156 33 -156 259zM92 245c0 -173 35 -207 99 -207c63 0 105 57 105 214c0 173 -36 209 -98 209c-64 0 -106 -48 -106 -216z" />
    <glyph glyph-name="oacute" unicode="&#xf3;" horiz-adv-x="387" 
d="M180 579c-11 0 -22 31 -22 31c55 57 132 118 136 118c14 0 24 -31 27 -44c-9 -10 -88 -71 -141 -105zM33 249c0 185 63 261 167 261c103 0 154 -55 154 -260c0 -180 -58 -260 -165 -260c-98 0 -156 33 -156 259zM92 245c0 -173 35 -207 99 -207c63 0 105 57 105 214
c0 173 -36 209 -98 209c-64 0 -106 -48 -106 -216z" />
    <glyph glyph-name="ocircumflex" unicode="&#xf4;" horiz-adv-x="387" 
d="M187 713c4 1 8 2 13 2c6 0 14 -2 20 -9c0 0 97 -98 97 -107c0 -7 -20 -19 -41 -19c0 0 -70 72 -77 85c0 0 -73 -84 -85 -84c-21 0 -33 11 -38 18zM33 249c0 185 63 261 167 261c103 0 154 -55 154 -260c0 -180 -58 -260 -165 -260c-98 0 -156 33 -156 259zM92 245
c0 -173 35 -207 99 -207c63 0 105 57 105 214c0 173 -36 209 -98 209c-64 0 -106 -48 -106 -216z" />
    <glyph glyph-name="odieresis" unicode="&#xf6;" horiz-adv-x="387" 
d="M90 649c0 22 14 41 39 41c27 0 40 -18 40 -41s-16 -41 -40 -41c-28 0 -39 16 -39 41zM231 649c0 22 14 41 39 41c27 0 40 -18 40 -41s-16 -41 -40 -41c-28 0 -39 16 -39 41zM33 249c0 185 63 261 167 261c103 0 154 -55 154 -260c0 -180 -58 -260 -165 -260
c-98 0 -156 33 -156 259zM92 245c0 -173 35 -207 99 -207c63 0 105 57 105 214c0 173 -36 209 -98 209c-64 0 -106 -48 -106 -216z" />
    <glyph glyph-name="ograve" unicode="&#xf2;" horiz-adv-x="387" 
d="M224 583c-4 0 -132 96 -141 106c2 13 12 43 26 43c5 0 125 -100 137 -117c0 0 -12 -32 -22 -32zM33 249c0 185 63 261 167 261c103 0 154 -55 154 -260c0 -180 -58 -260 -165 -260c-98 0 -156 33 -156 259zM92 245c0 -173 35 -207 99 -207c63 0 105 57 105 214
c0 173 -36 209 -98 209c-64 0 -106 -48 -106 -216z" />
    <glyph glyph-name="oslash" unicode="&#xf8;" horiz-adv-x="424" 
d="M401 498c0 -4 -27 -51 -45 -80c14 -40 21 -94 21 -168c0 -180 -59 -260 -161 -260c-52 0 -93 9 -120 47l-36 -59c-14 1 -32 9 -32 24c0 3 32 56 46 80c-12 38 -18 92 -18 167c0 185 62 261 165 261c48 0 85 -12 111 -46c16 26 33 54 36 58c0 0 33 -8 33 -24zM220 461
c-63 0 -106 -48 -106 -216c0 -47 3 -84 8 -113l171 289c-17 31 -41 40 -73 40zM213 38c64 0 105 57 105 214c0 54 -3 94 -10 124c-43 -75 -139 -236 -172 -291c17 -37 43 -47 77 -47z" />
    <glyph glyph-name="otilde" unicode="&#xf5;" horiz-adv-x="387" 
d="M55 624c32 54 67 68 102 68c46 0 49 -51 91 -51c52 0 58 45 70 45c13 0 22 -32 22 -32c-9 -18 -41 -66 -99 -66c-57 0 -59 53 -94 53c-38 0 -52 -45 -63 -45c-15 0 -29 28 -29 28zM33 249c0 185 63 261 167 261c103 0 154 -55 154 -260c0 -180 -58 -260 -165 -260
c-98 0 -156 33 -156 259zM92 245c0 -173 35 -207 99 -207c63 0 105 57 105 214c0 173 -36 209 -98 209c-64 0 -106 -48 -106 -216z" />
    <glyph glyph-name="oe" unicode="&#x153;" horiz-adv-x="645" 
d="M474 44c49 0 93 12 125 34c4 -13 6 -36 6 -51c0 -12 -63 -37 -136 -37c-62 0 -113 12 -141 79c-27 -54 -71 -79 -128 -79c-102 0 -160 33 -160 259c0 185 61 261 165 261c63 0 107 -21 132 -84c35 76 93 84 147 84c87 0 126 -55 126 -155c0 -42 -3 -90 -9 -123
c-83 -16 -194 -18 -239 -18c1 -154 45 -170 112 -170zM197 38c63 0 105 57 105 214c0 173 -35 208 -98 208s-106 -47 -106 -215c0 -173 36 -207 99 -207zM479 460c-50 0 -110 -17 -117 -199c42 -1 135 0 190 13c3 24 4 49 4 70c-1 80 -17 116 -77 116z" />
    <glyph glyph-name="p" unicode="p" horiz-adv-x="399" 
d="M57 470c42 26 90 40 144 40c102 0 165 -47 165 -211c0 -271 -100 -309 -164 -309c-43 0 -76 18 -90 36v-219c-9 -2 -20 -4 -29 -4c-18 0 -26 5 -26 23v644zM112 86c18 -31 47 -46 75 -46c41 1 119 24 119 248c0 139 -37 173 -108 173c-33 0 -62 -9 -86 -25v-350z" />
    <glyph glyph-name="thorn" unicode="&#xfe;" horiz-adv-x="400" 
d="M201 509c102 0 165 -46 165 -215c0 -266 -110 -303 -169 -303c-43 0 -70 15 -85 31v-218c-9 -3 -20 -4 -32 -4c-19 0 -23 3 -23 22v648v238c0 27 11 27 55 27v-239c27 9 57 13 89 13zM182 39c41 1 124 31 124 249c0 142 -41 172 -106 172c-35 0 -64 -9 -88 -26v-357
c17 -28 42 -38 70 -38z" />
    <glyph glyph-name="q" unicode="q" horiz-adv-x="407" 
d="M350 -174c0 -21 -4 -24 -34 -24c-7 0 -14 1 -22 1v240c-23 -34 -61 -53 -112 -53c-61 0 -143 29 -143 231c0 206 84 289 202 289c46 0 79 -10 109 -31v-653zM294 443c-12 10 -37 18 -65 18c-82 0 -130 -70 -130 -241c0 -160 59 -180 103 -180c34 -1 73 18 92 63v340z" />
    <glyph glyph-name="r" unicode="r" horiz-adv-x="275" 
d="M55 466c43 30 90 44 134 44c49 0 72 -14 72 -35c0 -8 -3 -23 -8 -33c-14 8 -33 15 -56 15c-32 0 -61 -9 -86 -28v-415c0 -14 -2 -14 -56 -14v466z" />
    <glyph glyph-name="racute" unicode="&#x155;" horiz-adv-x="275" 
d="M133 579c-11 0 -22 31 -22 31c55 57 132 118 136 118c14 0 24 -31 27 -44c-9 -10 -88 -71 -141 -105zM55 466c43 30 90 44 134 44c49 0 72 -14 72 -35c0 -8 -3 -23 -8 -33c-14 8 -33 15 -56 15c-32 0 -61 -9 -86 -28v-415c0 -14 -2 -14 -56 -14v466z" />
    <glyph glyph-name="rcaron" unicode="&#x159;" horiz-adv-x="275" 
d="M155 580c-16 0 -115 102 -123 113c4 12 17 34 28 34c13 0 96 -94 96 -94c40 52 85 96 85 96c14 -8 23 -17 23 -27c0 -14 -95 -122 -109 -122zM55 466c43 30 90 44 134 44c49 0 72 -14 72 -35c0 -8 -3 -23 -8 -33c-14 8 -33 15 -56 15c-32 0 -61 -9 -86 -28v-415
c0 -14 -2 -14 -56 -14v466z" />
    <glyph glyph-name="s" unicode="s" horiz-adv-x="368" 
d="M204 510c94 0 127 -34 127 -50c0 -9 -5 -21 -13 -31c-34 22 -66 32 -109 32c-61 0 -105 -23 -105 -65c0 -23 8 -41 49 -70l108 -77c47 -39 68 -73 68 -124c0 -88 -62 -135 -164 -135c-77 0 -126 19 -126 43c0 11 3 23 12 34c30 -18 62 -26 109 -26c66 0 108 24 108 77
c0 38 -16 67 -56 97l-105 76c-55 38 -66 69 -66 105c0 70 62 114 163 114z" />
    <glyph glyph-name="sacute" unicode="&#x15b;" horiz-adv-x="368" 
d="M181 579c-11 0 -22 31 -22 31c55 57 132 118 136 118c14 0 24 -31 27 -44c-9 -10 -88 -71 -141 -105zM204 510c94 0 127 -34 127 -50c0 -9 -5 -21 -13 -31c-34 22 -66 32 -109 32c-61 0 -105 -23 -105 -65c0 -23 8 -41 49 -70l108 -77c47 -39 68 -73 68 -124
c0 -88 -62 -135 -164 -135c-77 0 -126 19 -126 43c0 11 3 23 12 34c30 -18 62 -26 109 -26c66 0 108 24 108 77c0 38 -16 67 -56 97l-105 76c-55 38 -66 69 -66 105c0 70 62 114 163 114z" />
    <glyph glyph-name="scaron" unicode="&#x161;" horiz-adv-x="368" 
d="M202 580c-16 0 -115 102 -123 113c4 12 17 34 28 34c13 0 96 -94 96 -94c40 52 85 96 85 96c14 -8 23 -17 23 -27c0 -14 -95 -122 -109 -122zM204 510c94 0 127 -34 127 -50c0 -9 -5 -21 -13 -31c-34 22 -66 32 -109 32c-61 0 -105 -23 -105 -65c0 -23 8 -41 49 -70
l108 -77c47 -39 68 -73 68 -124c0 -88 -62 -135 -164 -135c-77 0 -126 19 -126 43c0 11 3 23 12 34c30 -18 62 -26 109 -26c66 0 108 24 108 77c0 38 -16 67 -56 97l-105 76c-55 38 -66 69 -66 105c0 70 62 114 163 114z" />
    <glyph glyph-name="scedilla" unicode="&#x15f;" horiz-adv-x="368" 
d="M261 249c47 -39 68 -73 68 -124c0 -82 -53 -128 -143 -134l-10 -51s1 2 18 2c24 0 49 -17 49 -58c0 -54 -35 -77 -72 -77c-29 0 -53 10 -53 10s4 26 10 33c7 6 23 -9 44 -9c20 0 34 11 34 36c0 28 -15 35 -33 35c-21 0 -39 -6 -39 -6l16 84c-68 2 -111 20 -111 43
c0 11 3 23 12 34c30 -18 62 -26 109 -26c66 0 108 24 108 77c0 38 -16 67 -56 97l-105 76c-55 38 -66 69 -66 105c0 70 62 114 163 114c94 0 127 -34 127 -50c0 -9 -5 -21 -13 -31c-34 22 -66 32 -109 32c-61 0 -105 -23 -105 -65c0 -23 8 -41 49 -70z" />
    <glyph glyph-name="germandbls" unicode="&#xdf;" horiz-adv-x="470" 
d="M57 549c0 113 62 155 157 155c143 0 194 -81 194 -142c0 -92 -128 -97 -128 -166c0 -72 176 -111 176 -260c0 -93 -58 -145 -150 -145c-76 0 -118 27 -118 43c0 19 11 33 15 38c18 -16 46 -31 93 -31c57 0 101 29 101 94c0 118 -176 159 -176 258c0 91 129 100 129 169
c0 41 -39 91 -132 91c-74 0 -106 -38 -106 -136l1 -489c0 -25 -5 -37 -32 -37c-21 0 -32 10 -32 10s9 19 9 53z" />
    <glyph glyph-name="longs" unicode="&#x17f;" horiz-adv-x="174" 
d="M59 587c0 113 61 151 165 151c69 0 116 -26 116 -44c0 -13 -8 -31 -14 -38c-24 19 -56 33 -103 33c-75 0 -109 -31 -109 -123v-548c0 -22 -8 -26 -32 -26c-22 0 -30 9 -30 9s7 23 7 58v528z" />
    <glyph glyph-name="t" unicode="t" horiz-adv-x="298" 
d="M102 451h-75c0 44 1 49 13 49h62v158c0 22 9 22 54 22v-180h121c0 -44 -1 -49 -12 -49h-109v-307c0 -59 2 -105 46 -105c28 0 43 6 65 16c2 -8 4 -18 4 -29c0 -26 -41 -36 -81 -36c-83 0 -88 64 -88 155v306z" />
    <glyph glyph-name="u" unicode="u" horiz-adv-x="415" 
d="M357 25c-44 -23 -102 -35 -152 -35c-117 0 -147 52 -147 179v318c0 13 -1 13 56 13v-338c0 -93 18 -123 96 -123c22 0 62 5 92 23v425c0 13 2 13 55 13v-475z" />
    <glyph glyph-name="uacute" unicode="&#xfa;" horiz-adv-x="415" 
d="M192 579c-11 0 -22 31 -22 31c55 57 132 118 136 118c14 0 24 -31 27 -44c-9 -10 -88 -71 -141 -105zM357 25c-44 -23 -102 -35 -152 -35c-117 0 -147 52 -147 179v318c0 13 -1 13 56 13v-338c0 -93 18 -123 96 -123c22 0 62 5 92 23v425c0 13 2 13 55 13v-475z" />
    <glyph glyph-name="ucircumflex" unicode="&#xfb;" horiz-adv-x="415" 
d="M199 713c4 1 8 2 13 2c6 0 14 -2 20 -9c0 0 97 -98 97 -107c0 -7 -20 -19 -41 -19c0 0 -70 72 -77 85c0 0 -73 -84 -85 -84c-21 0 -33 11 -38 18zM357 25c-44 -23 -102 -35 -152 -35c-117 0 -147 52 -147 179v318c0 13 -1 13 56 13v-338c0 -93 18 -123 96 -123
c22 0 62 5 92 23v425c0 13 2 13 55 13v-475z" />
    <glyph glyph-name="udieresis" unicode="&#xfc;" horiz-adv-x="415" 
d="M102 649c0 22 14 41 39 41c27 0 40 -18 40 -41s-16 -41 -40 -41c-28 0 -39 16 -39 41zM243 649c0 22 14 41 39 41c27 0 40 -18 40 -41s-16 -41 -40 -41c-28 0 -39 16 -39 41zM357 25c-44 -23 -102 -35 -152 -35c-117 0 -147 52 -147 179v318c0 13 -1 13 56 13v-338
c0 -93 18 -123 96 -123c22 0 62 5 92 23v425c0 13 2 13 55 13v-475z" />
    <glyph glyph-name="ugrave" unicode="&#xf9;" horiz-adv-x="415" 
d="M237 583c-4 0 -132 96 -141 106c2 13 12 43 26 43c5 0 125 -100 137 -117c0 0 -12 -32 -22 -32zM357 25c-44 -23 -102 -35 -152 -35c-117 0 -147 52 -147 179v318c0 13 -1 13 56 13v-338c0 -93 18 -123 96 -123c22 0 62 5 92 23v425c0 13 2 13 55 13v-475z" />
    <glyph glyph-name="v" unicode="v" horiz-adv-x="356" 
d="M26 482c-5 18 -1 18 56 18l43 -174c31 -119 57 -264 57 -264h1s24 145 54 265l38 159c3 14 3 14 57 14l-128 -506c-8 -1 -29 -2 -37 -2c-10 0 -17 20 -25 50z" />
    <glyph glyph-name="w" unicode="w" horiz-adv-x="553" 
d="M473 486c3 14 4 14 56 14c0 0 -111 -506 -114 -506c0 0 -16 -2 -34 -2c-8 0 -22 20 -30 55l-16 69c-27 110 -48 226 -57 280c-9 -54 -29 -171 -55 -281l-27 -121s-29 -2 -43 -2c-9 0 -18 20 -24 49l-105 445c-3 14 1 14 58 14l40 -182c26 -125 47 -249 47 -249h3
c7 40 28 143 43 218l35 182c2 11 5 15 19 15h14h22l43 -200c25 -103 45 -215 45 -215h4c6 52 24 160 42 249z" />
    <glyph glyph-name="x" unicode="x" horiz-adv-x="437" 
d="M411 14c9 -14 7 -14 -60 -14l-52 81c-31 50 -68 116 -83 143c-16 -28 -53 -94 -84 -145l-45 -68c-5 -11 -12 -11 -65 -11l163 263l-140 227c-4 9 -4 10 58 10l51 -80c25 -42 57 -98 68 -119c12 21 44 77 70 121l45 68c5 10 5 10 63 10l-145 -234z" />
    <glyph glyph-name="y" unicode="y" horiz-adv-x="370" 
d="M33 483c-4 17 -3 17 53 17l75 -294c17 -73 29 -156 29 -156s11 82 27 157l67 276c3 17 3 17 59 17l-132 -531c-30 -122 -71 -162 -136 -162c-49 0 -74 12 -74 30c0 11 5 25 10 32c16 -8 42 -14 61 -14c37 0 70 32 91 129z" />
    <glyph glyph-name="yacute" unicode="&#xfd;" horiz-adv-x="370" 
d="M173 579c-11 0 -22 31 -22 31c55 57 132 118 136 118c14 0 24 -31 27 -44c-9 -10 -88 -71 -141 -105zM33 483c-4 17 -3 17 53 17l75 -294c17 -73 29 -156 29 -156s11 82 27 157l67 276c3 17 3 17 59 17l-132 -531c-30 -122 -71 -162 -136 -162c-49 0 -74 12 -74 30
c0 11 5 25 10 32c16 -8 42 -14 61 -14c37 0 70 32 91 129z" />
    <glyph glyph-name="ydieresis" unicode="&#xff;" horiz-adv-x="370" 
d="M83 649c0 22 14 41 39 41c27 0 40 -18 40 -41s-16 -41 -40 -41c-28 0 -39 16 -39 41zM224 649c0 22 14 41 39 41c27 0 40 -18 40 -41s-16 -41 -40 -41c-28 0 -39 16 -39 41zM33 483c-4 17 -3 17 53 17l75 -294c17 -73 29 -156 29 -156s11 82 27 157l67 276
c3 17 3 17 59 17l-132 -531c-30 -122 -71 -162 -136 -162c-49 0 -74 12 -74 30c0 11 5 25 10 32c16 -8 42 -14 61 -14c37 0 70 32 91 129z" />
    <glyph glyph-name="z" unicode="z" horiz-adv-x="364" 
d="M328 500c0 0 6 -6 6 -18c0 -7 -1 -17 -7 -29l-233 -401h116c64 0 99 3 121 8c1 -6 1 -19 1 -26c0 -23 -4 -34 -21 -34h-272s-9 9 -9 28c0 8 1 15 5 22l235 402h-121c-49 0 -89 -1 -113 -4c-2 12 -2 21 -2 26c0 17 6 26 18 26h276z" />
    <glyph glyph-name="zacute" unicode="&#x17a;" horiz-adv-x="364" 
d="M169 579c-11 0 -22 31 -22 31c55 57 132 118 136 118c14 0 24 -31 27 -44c-9 -10 -88 -71 -141 -105zM328 500c0 0 6 -6 6 -18c0 -7 -1 -17 -7 -29l-233 -401h116c64 0 99 3 121 8c1 -6 1 -19 1 -26c0 -23 -4 -34 -21 -34h-272s-9 9 -9 28c0 8 1 15 5 22l235 402h-121
c-49 0 -89 -1 -113 -4c-2 12 -2 21 -2 26c0 17 6 26 18 26h276z" />
    <glyph glyph-name="zcaron" unicode="&#x17e;" horiz-adv-x="364" 
d="M191 580c-16 0 -115 102 -123 113c4 12 17 34 28 34c13 0 96 -94 96 -94c40 52 85 96 85 96c14 -8 23 -17 23 -27c0 -14 -95 -122 -109 -122zM328 500c0 0 6 -6 6 -18c0 -7 -1 -17 -7 -29l-233 -401h116c64 0 99 3 121 8c1 -6 1 -19 1 -26c0 -23 -4 -34 -21 -34h-272
s-9 9 -9 28c0 8 1 15 5 22l235 402h-121c-49 0 -89 -1 -113 -4c-2 12 -2 21 -2 26c0 17 6 26 18 26h276z" />
    <glyph glyph-name="g.ss01" horiz-adv-x="409" 
d="M186 -200c-80 0 -128 25 -128 49c0 10 4 22 12 33c29 -16 57 -30 118 -30c45 0 110 18 110 108v78c-19 -23 -62 -47 -114 -47c-81 0 -139 49 -139 243c0 222 103 276 202 276c42 0 82 -14 106 -36v-522c0 -108 -72 -152 -167 -152zM299 440c-9 11 -33 23 -66 23
c-57 0 -129 -38 -129 -229c0 -155 46 -193 95 -193c42 0 80 22 100 69v330z" />
    <glyph glyph-name="f.ss02" horiz-adv-x="247" 
d="M13 452c0 45 0 48 16 48h60v121c0 100 57 117 108 117c47 0 66 -12 66 -29c0 -7 -2 -19 -6 -28c-12 6 -36 9 -51 9c-34 0 -62 -10 -62 -75v-115h104c0 -45 0 -48 -13 -48h-91v-438s0 -14 -14 -14h-41v452h-76z" />
    <glyph glyph-name="germandbls.ss05" horiz-adv-x="483" 
d="M305 253c78 -12 156 -60 156 -164c0 -128 -68 -224 -194 -224c-86 0 -110 27 -110 43c0 13 7 30 13 39c24 -17 45 -29 93 -29c85 0 139 65 139 167c0 69 -33 102 -81 118c-28 10 -62 13 -99 14l154 235h-262v-420c0 -31 -8 -40 -32 -40c-22 0 -30 9 -30 9s7 23 7 58v529
c0 112 61 148 168 148c66 0 113 -29 113 -43s-14 -39 -14 -39c-24 19 -56 32 -103 32c-77 0 -109 -32 -109 -130v-56h330s9 -16 -7 -48z" />
    <glyph glyph-name="z.ss05" horiz-adv-x="360" 
d="M25 452c0 44 0 48 10 48h281s9 -16 -6 -48l-132 -199c78 -12 155 -60 155 -164c0 -128 -68 -224 -194 -224c-86 0 -110 30 -110 43s7 30 13 39c25 -17 46 -29 93 -29c86 0 140 65 140 167c0 69 -34 102 -81 118c-29 10 -63 13 -99 14l153 235h-223z" />
    <glyph glyph-name="f_f" horiz-adv-x="460" 
d="M467 739c60 0 87 -13 87 -35c0 -7 -3 -17 -7 -27c-24 9 -47 12 -74 12c-54 0 -114 -11 -114 -124v-65h105c0 -45 -1 -48 -14 -48h-91v-438s0 -14 -13 -14h-42v452h-63h-95v-438s0 -14 -14 -14h-41v452h-76c0 45 0 48 16 48h60v74c0 151 103 161 156 161
c40 0 77 -14 104 -32c34 32 81 36 116 36zM304 500v64c0 43 7 75 19 100c-22 15 -45 22 -80 22c-32 0 -97 -5 -97 -110v-76h131h27z" />
    <glyph glyph-name="f_f_i" horiz-adv-x="615" 
d="M473 739c64 0 101 -13 101 -36c0 -9 -2 -23 -6 -33c-26 12 -59 19 -94 19c-56 0 -115 -10 -115 -127v-62h84c0 -45 -1 -48 -14 -48h-70v-438s0 -14 -14 -14h-41v452h-76h-83v-438s0 -14 -13 -14h-42v452h-76c0 45 0 48 16 48h60v74c0 151 104 161 156 161
c40 0 77 -14 104 -31c34 31 81 35 123 35zM304 500v64c0 43 6 76 18 100c-21 16 -45 22 -79 22c-32 0 -98 -5 -98 -110v-76h131h28zM557 500v-486c0 -14 1 -14 -55 -14v473c0 27 12 27 55 27z" />
    <glyph glyph-name="f_f_l" horiz-adv-x="625" 
d="M567 14c0 -14 2 -14 -54 -14v679c-12 4 -31 9 -57 9c-46 0 -97 -4 -97 -117v-71h84c0 -45 -1 -48 -14 -48h-70v-438s0 -14 -14 -14h-41v452h-63h-96v-438s0 -14 -13 -14h-42v452h-76c0 45 0 48 16 48h60v74c0 151 104 161 156 161c39 0 75 -13 102 -30
c30 30 71 34 105 34c55 0 93 -15 114 -27v-1v-697zM304 500v64c0 43 6 76 17 101c-21 15 -44 21 -78 21c-32 0 -98 -5 -98 -110v-76h131h28z" />
    <glyph glyph-name="t_z" horiz-adv-x="661" 
d="M102 451h-75c0 44 1 49 13 49h62v158c0 22 9 22 54 22v-180h121c0 -44 -1 -49 -12 -49h-109v-307c0 -59 2 -105 46 -105c28 0 43 6 65 16c2 -8 4 -18 4 -29c0 -26 -41 -36 -81 -36c-83 0 -88 64 -88 155v306zM626 500c0 0 6 -6 6 -18c0 -7 -1 -17 -7 -29l-233 -401h116
c64 0 99 3 121 8c1 -6 1 -19 1 -26c0 -23 -4 -34 -21 -34h-272s-9 9 -9 28c0 8 1 15 5 22l235 402h-121c-49 0 -89 -1 -113 -4c-2 12 -2 21 -2 26c0 17 6 26 18 26h276z" />
    <glyph glyph-name="t_z.ss05" horiz-adv-x="518" 
d="M337 253c78 -12 155 -60 155 -164c0 -128 -63 -224 -190 -224c-79 0 -103 27 -103 39c0 14 7 30 13 40c26 -17 45 -26 88 -26c85 0 134 65 134 167c0 69 -34 102 -81 118c-29 10 -63 13 -99 14l153 234h-255v-430c0 -21 0 -21 -54 -21v451h-95c0 44 1 49 13 49h82v158
c0 22 9 22 54 22v-180h121h202s10 -16 -6 -48z" />
    <glyph glyph-name="ordfeminine" unicode="&#xaa;" horiz-adv-x="335" 
d="M60 678c19 17 58 32 121 32c56 0 104 -24 104 -96v-297c-19 -10 -69 -28 -122 -28c-60 0 -113 13 -113 120c0 100 52 121 117 121c25 0 53 -5 70 -11v78c0 56 -38 63 -72 63c-42 0 -79 -13 -101 -24c-9 9 -12 33 -4 42zM237 477c-15 6 -40 10 -56 10
c-48 0 -86 -5 -86 -81c0 -63 34 -75 77 -75c25 0 54 7 65 15v131z" />
    <glyph glyph-name="ordmasculine" unicode="&#xba;" horiz-adv-x="348" 
d="M42 498c0 150 56 212 138 212c84 0 126 -44 126 -211c0 -142 -49 -209 -136 -209c-79 0 -128 38 -128 208zM90 494c0 -126 29 -157 80 -157c55 0 89 49 89 163c0 128 -28 160 -78 160c-56 0 -91 -42 -91 -166z" />
    <glyph glyph-name="uni0410" unicode="&#x410;" horiz-adv-x="436" 
d="M428 13c3 -10 -2 -14 -23 -14c-7 0 -19 0 -33 1l-50 193h-207l-47 -182c-2 -10 -7 -12 -27 -12c-6 0 -20 0 -34 2l189 694c1 6 8 9 19 9c9 0 19 -1 24 -3zM128 244h181l-49 185c-20 78 -39 160 -42 196c-4 -36 -22 -118 -43 -196z" />
    <glyph glyph-name="uni0411" unicode="&#x411;" horiz-adv-x="391" 
d="M188 414c121 0 180 -67 180 -196c0 -152 -84 -218 -187 -218h-126v687s0 13 13 13h261c0 -44 0 -49 -10 -49h-209v-237h78zM183 50c63 0 123 39 123 176c0 102 -52 138 -122 138c-11 0 -74 -3 -74 -3v-310z" />
    <glyph glyph-name="uni0412" unicode="&#x412;" horiz-adv-x="392" 
d="M55 683c0 10 4 17 25 17h100c76 0 167 -24 167 -152c0 -118 -58 -156 -98 -162c42 -3 120 -24 120 -147c0 -199 -116 -239 -192 -239h-122v683zM110 405h75c57 0 103 34 103 134c0 91 -54 112 -107 112h-71v-246zM110 50h67c66 0 129 43 129 184c0 115 -56 123 -129 123
h-67v-307z" />
    <glyph glyph-name="uni0413" unicode="&#x413;" horiz-adv-x="334" 
d="M57 0v687s0 13 13 13h253c0 -44 0 -49 -10 -49h-202v-637s0 -14 -12 -14h-42z" />
    <glyph glyph-name="uni0414" unicode="&#x414;" horiz-adv-x="520" 
d="M70 52c-23 0 -51 1 -51 -13v-194c23 0 37 2 41 14c7 21 11 82 13 141h349c2 -38 8 -97 18 -155c19 0 38 0 38 13v194h-51v648h-198c-67 0 -73 0 -73 -13c-9 -349 -24 -517 -86 -635zM126 52c58 123 74 287 83 596h164v-596h-247z" />
    <glyph glyph-name="uni0415" unicode="&#x415;" horiz-adv-x="337" 
d="M111 357v-306h197c0 -47 0 -51 -12 -51h-239v687s0 13 13 13h240c0 -44 0 -51 -11 -51h-188v-241h176c0 -42 0 -51 -12 -51h-164z" />
    <glyph glyph-name="uni0401" unicode="&#x401;" horiz-adv-x="337" 
d="M125 808c-28 0 -39 16 -39 41c0 22 14 41 39 41c27 0 40 -18 40 -41s-16 -41 -40 -41zM266 808c-28 0 -39 16 -39 41c0 22 14 41 39 41c27 0 40 -18 40 -41s-16 -41 -40 -41zM111 357v-306h197c0 -47 0 -51 -12 -51h-239v687s0 13 13 13h240c0 -44 0 -51 -11 -51h-188
v-241h176c0 -42 0 -51 -12 -51h-164z" />
    <glyph glyph-name="uni0416" unicode="&#x416;" horiz-adv-x="585" 
d="M265 400v287c0 13 0 13 56 13v-300l189 297c9 2 27 3 37 3c16 0 22 -6 15 -19l-187 -291c136 -96 189 -374 189 -374c2 -13 -2 -17 -14 -17c-16 0 -27 0 -40 1c-2 47 -61 296 -189 354v-340c0 -14 0 -14 -56 -14v354c-129 -58 -186 -305 -188 -354c-13 -1 -25 -1 -42 -1
c-11 0 -15 4 -13 17c0 0 53 278 189 373l-187 292c-7 13 -2 19 14 19c11 0 29 -1 38 -3z" />
    <glyph glyph-name="uni0417" unicode="&#x417;" horiz-adv-x="333" 
d="M79 383c86 2 152 40 152 163c0 76 -38 112 -97 112c-51 0 -78 -20 -95 -34c-8 11 -11 25 -11 38c0 12 35 49 117 49c90 0 143 -54 143 -152c0 -96 -28 -144 -68 -173c-12 -9 -24 -15 -40 -16c13 -2 24 -4 35 -8c20 -7 93 -40 93 -156c0 -161 -84 -217 -170 -217
c-67 0 -115 35 -115 65c0 14 6 32 12 44c15 -21 47 -51 98 -51c60 0 116 40 116 156c0 114 -85 137 -170 138v42z" />
    <glyph glyph-name="uni0418" unicode="&#x418;" horiz-adv-x="457" 
d="M114 15c-8 -17 -18 -15 -59 -15v687c0 13 -1 13 55 13v-388c0 -71 -3 -141 -8 -210c23 69 69 186 127 320l113 263c9 16 18 15 60 15v-686c0 -14 0 -14 -55 -14v257c0 148 4 254 11 353c-27 -78 -76 -208 -129 -329z" />
    <glyph glyph-name="uni0419" unicode="&#x419;" horiz-adv-x="457" 
d="M150 921c12 -34 37 -88 89 -88c50 0 69 43 83 76c10 20 38 1 41 -19c-16 -51 -51 -110 -125 -110c-72 0 -119 79 -119 110c0 16 10 24 31 31zM114 15c-8 -17 -18 -15 -59 -15v687c0 13 -1 13 55 13v-388c0 -71 -3 -141 -8 -210c23 69 69 186 127 320l113 263
c9 16 18 15 60 15v-686c0 -14 0 -14 -55 -14v257c0 148 4 254 11 353c-27 -78 -76 -208 -129 -329z" />
    <glyph glyph-name="uni041A" unicode="&#x41a;" horiz-adv-x="391" 
d="M165 395c84 -54 155 -176 203 -379c3 -13 -2 -17 -21 -17c-11 0 -24 0 -36 1c-53 185 -97 271 -153 327c-14 15 -31 25 -48 32v-345c0 -14 0 -14 -56 -14v687c0 13 0 13 56 13v-304l200 301c13 3 25 3 35 3c22 0 29 -6 21 -19z" />
    <glyph glyph-name="uni041B" unicode="&#x41b;" horiz-adv-x="480" 
d="M158 687c-9 -359 -28 -637 -95 -637c-13 0 -33 2 -46 8c-5 -9 -10 -24 -10 -39c0 -17 35 -24 65 -24c107 0 121 241 141 653h157v-648c55 0 55 0 55 14v686h-211c-55 0 -56 0 -56 -13z" />
    <glyph glyph-name="uni041C" unicode="&#x41c;" horiz-adv-x="498" 
d="M402 700h42v-686c0 -14 0 -14 -56 -14l2 289c1 47 7 222 9 282c-23 -76 -70 -237 -75 -250l-58 -170c-2 -6 -7 -9 -11 -9h-26l-56 179c-4 12 -51 169 -75 249c2 -46 9 -224 10 -274l1 -282c0 -14 -2 -14 -54 -14v687c0 11 5 13 13 13h37l109 -351c7 -21 35 -119 35 -119
l34 116l105 341c2 5 4 13 14 13z" />
    <glyph glyph-name="uni041D" unicode="&#x41d;" horiz-adv-x="432" 
d="M322 687c0 12 0 13 55 13v-686c0 -14 0 -14 -55 -14v356h-212v-342c0 -14 0 -14 -55 -14v687c0 13 0 13 55 13v-293h212v280z" />
    <glyph glyph-name="uni041E" unicode="&#x41e;" horiz-adv-x="446" 
d="M38 355c0 260 63 355 193 355c129 0 177 -88 177 -354c0 -270 -57 -366 -188 -366c-129 0 -182 82 -182 365zM99 338c0 -212 33 -291 122 -291c92 0 128 83 128 310c0 221 -32 297 -121 297c-88 0 -129 -83 -129 -316z" />
    <glyph glyph-name="uni041F" unicode="&#x41f;" horiz-adv-x="425" 
d="M315 648h-205v-634c0 -14 -1 -14 -55 -14v687c0 13 1 13 55 13h260v-686c0 -14 -1 -14 -55 -14v648z" />
    <glyph glyph-name="uni0420" unicode="&#x420;" horiz-adv-x="370" 
d="M172 700c126 0 175 -73 175 -190c0 -151 -74 -214 -178 -214h-59v-282c0 -14 -1 -14 -55 -14v687c0 9 3 13 13 13h28h76zM172 348c78 0 115 56 115 167c0 77 -25 135 -110 135h-67v-302h62z" />
    <glyph glyph-name="uni0421" unicode="&#x421;" horiz-adv-x="354" 
d="M232 711c66 0 93 -30 93 -50c0 -13 -4 -26 -10 -34c-8 7 -38 31 -75 31c-69 0 -144 -40 -144 -341c0 -230 58 -268 119 -268c45 0 87 24 104 44c4 -9 10 -22 10 -35c0 -31 -54 -69 -125 -69c-81 0 -166 26 -166 328c0 352 106 394 194 394z" />
    <glyph glyph-name="uni0422" unicode="&#x422;" horiz-adv-x="367" 
d="M20 700h340v-38c0 -10 -3 -14 -13 -14h-138v-635c0 -13 -1 -13 -55 -13v648h-147v39c0 9 4 13 13 13z" />
    <glyph glyph-name="uni0423" unicode="&#x423;" horiz-adv-x="369" 
d="M178 129c-7 -54 -23 -81 -48 -81c-15 0 -32 7 -43 12c-7 -10 -15 -29 -12 -42c4 -12 28 -22 63 -22c68 0 81 77 102 168c34 143 92 404 124 536c-33 -1 -40 0 -48 0c-14 -27 -23 -57 -30 -91l-37 -161c-15 -72 -28 -143 -48 -258c-31 136 -52 207 -74 298l-62 212h-36
c-14 0 -20 -2 -20 -12c0 -7 7 -30 14 -53c49 -164 109 -364 155 -506z" />
    <glyph glyph-name="uni0424" unicode="&#x424;" horiz-adv-x="581" 
d="M264 -10v70c-165 6 -230 127 -230 294c0 149 71 279 230 288v40c0 28 0 28 54 28v-67c162 -8 229 -131 229 -285c0 -156 -67 -288 -229 -296v-58c0 -14 0 -14 -54 -14zM318 592v-479c123 9 171 126 171 243c0 118 -41 229 -171 236zM89 342c0 -111 44 -223 175 -230v480
c-126 -9 -175 -128 -175 -250z" />
    <glyph glyph-name="uni0425" unicode="&#x425;" horiz-adv-x="426" 
d="M414 11c3 -7 0 -11 -8 -11h-57l-68 150c-29 66 -57 134 -70 165c-13 -31 -40 -99 -71 -164l-68 -143c-3 -6 -6 -8 -13 -8h-49l169 364l-142 326c-4 10 -3 10 63 10l52 -121c28 -67 56 -139 67 -169c12 31 40 103 68 169l48 111c4 10 2 10 62 10l-145 -336z" />
    <glyph glyph-name="uni0427" unicode="&#x427;" horiz-adv-x="389" 
d="M334 14c0 -14 0 -14 -54 -14v302c-33 -14 -65 -22 -108 -22c-100 0 -149 61 -149 173v234c0 13 1 13 54 13v-231c0 -77 26 -139 106 -139c33 0 64 8 97 25v332c0 12 0 13 54 13v-686z" />
    <glyph glyph-name="uni0426" unicode="&#x426;" horiz-adv-x="448" 
d="M55 687c0 13 1 13 55 13v-648h205v635c0 13 1 13 54 13v-648h46v-191c0 -16 -14 -16 -38 -16c-10 57 -15 104 -18 155h-304v687z" />
    <glyph glyph-name="uni0428" unicode="&#x428;" horiz-adv-x="583" 
d="M55 687c0 13 -1 13 54 13v-648h156v635c0 13 -1 13 53 13v-648h156v635c0 13 0 13 54 13v-671c0 -29 -10 -29 -69 -29h-404v687z" />
    <glyph glyph-name="uni0429" unicode="&#x429;" horiz-adv-x="607" 
d="M55 687c0 13 -1 13 54 13v-648h156v635c0 13 -1 13 53 13v-648h156v635c0 13 0 13 54 13v-648h45v-190c0 -16 -13 -16 -38 -16c-11 57 -15 113 -18 154h-462v687z" />
    <glyph glyph-name="uni042C" unicode="&#x42c;" horiz-adv-x="390" 
d="M188 414c121 0 180 -67 180 -196c0 -152 -84 -218 -187 -218h-126v681c0 19 0 19 55 19v-286h78zM183 50c63 0 123 39 123 176c0 102 -52 138 -122 138c-11 0 -74 -3 -74 -3v-310z" />
    <glyph glyph-name="uni042A" unicode="&#x42a;" horiz-adv-x="486" 
d="M285 414c121 0 180 -67 180 -196c0 -152 -84 -218 -187 -218h-127v651h-133v31c0 14 5 18 16 18h172v-286h79zM279 50c64 0 124 39 124 176c0 102 -53 138 -123 138c-10 0 -74 -3 -74 -3v-310z" />
    <glyph glyph-name="uni042B" unicode="&#x42b;" horiz-adv-x="542" 
d="M188 414c120 0 178 -67 178 -196c0 -152 -83 -218 -185 -218h-126v681c0 19 0 19 55 19v-286h78zM487 700c0 0 -1 -195 -1 -350c0 -180 1 -336 1 -336c0 -14 -1 -14 -56 -14c0 0 2 170 2 350c0 156 -2 322 -2 322c0 28 2 28 56 28zM183 50c62 0 122 39 122 176
c0 102 -54 138 -121 138c-11 0 -74 -3 -74 -3v-310z" />
    <glyph glyph-name="uni042D" unicode="&#x42d;" horiz-adv-x="360" 
d="M148 709c80 0 177 -29 177 -369c0 -312 -91 -350 -177 -350c-60 0 -113 35 -113 62c0 17 5 33 9 43c17 -20 54 -45 98 -45c67 0 123 56 125 279h-167c-12 0 -12 9 -12 51h178c-7 263 -75 277 -132 277c-46 0 -74 -21 -84 -31c-6 8 -11 20 -11 33c0 19 35 50 109 50z" />
    <glyph glyph-name="uni042E" unicode="&#x42e;" horiz-adv-x="595" 
d="M111 379h82c4 241 64 331 186 331c128 0 177 -88 177 -354c0 -270 -56 -366 -185 -366c-123 0 -175 77 -178 338h-82v-314c0 -14 -1 -14 -56 -14v687c0 13 1 13 56 13v-321zM252 338c0 -212 33 -292 119 -292c90 0 126 84 126 311c0 221 -33 297 -118 297
c-87 0 -127 -83 -127 -316z" />
    <glyph glyph-name="uni042F" unicode="&#x42f;" horiz-adv-x="389" 
d="M73 -1c-10 0 -22 0 -34 1c11 166 70 267 98 299c-65 25 -103 101 -103 211c0 117 56 190 182 190h105c13 0 13 -13 13 -13v-687c-55 0 -55 0 -55 14v270h-69c-6 0 -13 0 -19 1c-17 -21 -68 -80 -91 -269c-2 -13 -4 -16 -27 -17zM94 515c0 -106 33 -175 109 -178
c13 -1 25 -1 38 -1c14 0 27 1 38 1v312c-5 0 -26 1 -68 1c-84 0 -117 -58 -117 -135z" />
    <glyph glyph-name="uni049A" unicode="&#x49a;" horiz-adv-x="404" 
d="M358 55h50v-194c0 -14 -12 -15 -38 -15c-11 58 -16 115 -17 153h-6c-11 0 -24 0 -36 1c-53 185 -97 271 -153 327c-14 15 -31 25 -48 32v-345c0 -14 0 -14 -56 -14v687c0 13 0 13 56 13v-304l200 301c13 3 25 3 35 3c22 0 29 -6 21 -19l-201 -286
c78 -50 146 -160 193 -340z" />
    <glyph glyph-name="uni04A2" unicode="&#x4a2;" horiz-adv-x="448" 
d="M377 55h46v-194c0 -14 -12 -15 -38 -15c-11 59 -16 116 -17 154h-21h-25v356h-212v-342c0 -14 0 -14 -55 -14v687c0 13 0 13 55 13v-293h212v280c0 12 0 13 55 13v-645z" />
    <glyph glyph-name="uni0430" unicode="&#x430;" horiz-adv-x="367" 
d="M36 464c0 8 3 17 8 20c20 12 84 26 157 26c80 0 120 -31 120 -121v-60c0 -114 -2 -225 -5 -303c-23 -14 -66 -36 -136 -36c-72 -1 -144 12 -144 149c0 141 74 163 149 163c27 0 60 -3 82 -12v88c0 65 -32 79 -79 79c-63 0 -117 -13 -144 -25c-6 12 -8 23 -8 32zM267 249
c-19 7 -46 10 -65 10c-57 0 -109 -12 -109 -118c0 -95 44 -103 95 -103c32 0 63 12 74 22c3 42 5 124 5 189z" />
    <glyph glyph-name="uni0431" unicode="&#x431;" horiz-adv-x="377" 
d="M291 730c9 -24 11 -37 9 -46c-1 -8 -11 -13 -32 -22l-94 -38c-70 -27 -94 -125 -104 -251c34 109 91 137 144 137c88 0 143 -76 143 -259c0 -180 -58 -261 -165 -261c-132 0 -165 107 -165 283v38c0 67 4 108 8 149c8 56 28 181 115 214zM200 455
c-66 0 -119 -86 -119 -169c0 -180 33 -242 112 -242c68 0 109 72 109 190c0 140 -32 221 -102 221z" />
    <glyph glyph-name="uni0432" unicode="&#x432;" horiz-adv-x="384" 
d="M55 487c0 7 5 13 26 13h95c74 0 153 -13 153 -116c0 -87 -65 -119 -82 -122c10 -1 23 -3 35 -8c18 -7 68 -26 68 -97c0 -93 -60 -157 -177 -157h-118v487zM108 278h63c53 0 102 24 102 97c0 82 -55 83 -113 83c-22 0 -52 -1 -52 -1v-179zM108 45c20 -1 48 -1 65 -1
c73 0 117 41 117 113c0 52 -25 81 -108 81h-74v-193z" />
    <glyph glyph-name="uni0433" unicode="&#x433;" horiz-adv-x="299" 
d="M42 451c0 44 1 49 14 49h230c0 -43 0 -49 -12 -49h-176v-437c0 -14 2 -14 -56 -14v451z" />
    <glyph glyph-name="uni0434" unicode="&#x434;" horiz-adv-x="443" 
d="M10 -142c18 0 36 0 39 11c4 16 12 77 13 131h304c1 -31 5 -84 16 -142c19 0 37 0 37 12v182h-48v448h-154c-88 0 -93 2 -93 -13c-6 -150 -8 -324 -67 -435c-32 -1 -47 0 -47 -13v-181zM315 52h-204c55 117 54 245 66 399h138v-399z" />
    <glyph glyph-name="uni0435" unicode="&#x435;" horiz-adv-x="374" 
d="M210 44c45 0 89 12 121 34c4 -13 6 -28 6 -39c0 -24 -63 -49 -135 -49c-95 0 -164 32 -164 233c0 257 95 287 178 287c87 0 126 -59 126 -158c0 -43 -2 -87 -9 -120c-83 -16 -194 -18 -239 -18c1 -146 46 -170 116 -170zM212 460c-51 0 -110 -23 -117 -199
c41 -1 134 0 189 13c3 24 4 46 4 67c-1 80 -17 119 -76 119z" />
    <glyph glyph-name="uni0451" unicode="&#x451;" horiz-adv-x="374" 
d="M139 608c-28 0 -39 16 -39 41c0 22 14 41 39 41c27 0 40 -18 40 -41s-16 -41 -40 -41zM280 608c-28 0 -39 16 -39 41c0 22 14 41 39 41c27 0 40 -18 40 -41s-16 -41 -40 -41zM210 44c45 0 89 12 121 34c4 -13 6 -28 6 -39c0 -24 -63 -49 -135 -49c-95 0 -164 32 -164 233
c0 257 95 287 178 287c87 0 126 -59 126 -158c0 -43 -2 -87 -9 -120c-83 -16 -194 -18 -239 -18c1 -146 46 -170 116 -170zM212 460c-51 0 -110 -23 -117 -199c41 -1 134 0 189 13c3 24 4 46 4 67c-1 80 -17 119 -76 119z" />
    <glyph glyph-name="uni0436" unicode="&#x436;" horiz-adv-x="536" 
d="M84 0c-16 -1 -40 -4 -47 1c-4 4 -5 9 -3 18c12 45 72 212 158 255l-157 206c-8 15 -4 20 12 20c9 0 31 0 38 -2l156 -218v177v36c3 7 15 7 54 7v-221l157 219c7 2 28 2 37 2c17 0 21 -5 13 -20l-156 -206c84 -47 148 -207 159 -253c1 -13 -4 -22 -17 -22s-25 0 -38 1
c-8 53 -68 211 -155 240v-228c0 -12 -5 -12 -54 -12v240c-90 -25 -147 -193 -157 -240z" />
    <glyph glyph-name="uni0437" unicode="&#x437;" horiz-adv-x="349" 
d="M181 262c58 -2 133 -29 133 -117c0 -116 -87 -155 -165 -155c-69 0 -118 24 -118 46c0 10 2 22 11 36c32 -24 70 -32 102 -32c50 0 113 21 113 104c0 80 -80 90 -153 90v40c47 0 138 21 138 116c0 47 -33 70 -90 70c-52 0 -82 -16 -109 -35c-6 10 -12 23 -12 33
c0 17 41 52 127 52c89 0 139 -40 139 -118c0 -79 -70 -129 -116 -130z" />
    <glyph glyph-name="uni0438" unicode="&#x438;" horiz-adv-x="415" 
d="M310 486c6 13 10 14 51 14v-488c0 -12 -3 -12 -52 -12v184c0 12 8 179 10 235c-27 -54 -107 -210 -112 -217l-103 -188c-7 -14 -10 -14 -49 -14v488c0 12 7 12 51 12v-263c0 -51 -7 -119 -9 -151c24 47 109 206 112 216z" />
    <glyph glyph-name="uni0439" unicode="&#x439;" horiz-adv-x="415" 
d="M122 721c12 -34 37 -88 89 -88c50 0 69 43 83 76c10 20 38 1 41 -19c-16 -51 -51 -110 -125 -110c-72 0 -119 79 -119 110c0 16 10 24 31 31zM310 486c6 13 10 14 51 14v-488c0 -12 -3 -12 -52 -12v184c0 12 8 179 10 235c-27 -54 -107 -210 -112 -217l-103 -188
c-7 -14 -10 -14 -49 -14v488c0 12 7 12 51 12v-263c0 -51 -7 -119 -9 -151c24 47 109 206 112 216z" />
    <glyph glyph-name="uni043A" unicode="&#x43a;" horiz-adv-x="369" 
d="M57 488c0 12 5 12 55 12v-221l170 219c7 2 30 2 38 2c17 0 21 -5 13 -20l-169 -206c110 -70 172 -226 173 -258c2 -13 -4 -17 -18 -17c-12 0 -28 1 -37 1c-11 45 -86 201 -170 241v-194c0 -14 0 -27 -2 -40c-2 -7 -14 -7 -53 -7v488z" />
    <glyph glyph-name="uni043B" unicode="&#x43b;" horiz-adv-x="437" 
d="M63 -4c-24 0 -53 8 -53 25c0 11 4 26 9 35c8 -4 22 -10 36 -10c23 0 39 28 46 64c16 85 24 201 30 377c0 15 2 13 93 13h157v-486c0 -14 1 -14 -56 -14v451h-143c-8 -144 -14 -280 -35 -364c-14 -56 -39 -91 -84 -91z" />
    <glyph glyph-name="uni043C" unicode="&#x43c;" horiz-adv-x="495" 
d="M55 491c0 0 0 10 14 10h37l110 -251c8 -15 33 -82 33 -82c13 34 31 83 44 112l91 211c1 4 3 10 14 10h41v-492c0 -9 3 -9 -54 -9l2 184c0 38 10 119 11 231c-18 -38 -78 -186 -78 -186l-55 -117c-1 -4 -6 -6 -11 -6h-25l-54 123c-4 8 -51 125 -77 180l-1 -1
c1 -98 9 -185 10 -218v-181c0 -9 1 -9 -52 -9v491z" />
    <glyph glyph-name="uni043D" unicode="&#x43d;" horiz-adv-x="411" 
d="M355 14c0 -14 0 -14 -56 -14v225h-188v-211c0 -14 2 -14 -55 -14v487c0 13 -2 13 55 13v-226h188v213c0 13 0 13 56 13v-486z" />
    <glyph glyph-name="uni043E" unicode="&#x43e;" horiz-adv-x="387" 
d="M33 249c0 185 63 261 167 261c103 0 154 -55 154 -260c0 -180 -58 -260 -165 -260c-98 0 -156 33 -156 259zM92 245c0 -173 35 -207 99 -207c63 0 105 57 105 214c0 173 -36 209 -98 209c-64 0 -106 -48 -106 -216z" />
    <glyph glyph-name="uni043F" unicode="&#x43f;" horiz-adv-x="411" 
d="M355 14c0 -14 0 -14 -57 -14v451h-187v-437c0 -14 2 -14 -55 -14v487c0 13 -2 13 55 13h244v-486z" />
    <glyph glyph-name="uni0440" unicode="&#x440;" horiz-adv-x="399" 
d="M57 470c42 26 90 40 144 40c102 0 165 -47 165 -211c0 -271 -100 -309 -164 -309c-43 0 -76 18 -90 36v-219c-9 -2 -20 -4 -29 -4c-18 0 -26 5 -26 23v644zM112 86c18 -31 47 -46 75 -46c41 1 119 24 119 248c0 139 -37 173 -108 173c-33 0 -62 -9 -86 -25v-350z" />
    <glyph glyph-name="uni0441" unicode="&#x441;" horiz-adv-x="331" 
d="M304 470c0 -8 -2 -21 -8 -33c-16 11 -44 23 -77 23c-55 0 -123 -23 -123 -224c0 -163 41 -196 109 -196c41 0 74 15 92 31c4 -12 7 -23 7 -33c0 -22 -47 -48 -115 -48c-89 0 -149 34 -149 249c0 240 98 271 180 271c45 0 84 -18 84 -40z" />
    <glyph glyph-name="uni0442" unicode="&#x442;" horiz-adv-x="351" 
d="M203 451v-438c0 -13 1 -13 -54 -13v451h-123c0 44 2 49 14 49h285c0 -45 -1 -49 -14 -49h-108z" />
    <glyph glyph-name="uni0443" unicode="&#x443;" horiz-adv-x="370" 
d="M33 483c-4 17 -3 17 53 17l75 -294c17 -73 29 -156 29 -156s11 82 27 157l67 276c3 17 3 17 59 17l-132 -531c-30 -122 -71 -162 -136 -162c-49 0 -74 12 -74 30c0 11 5 25 10 32c16 -8 42 -14 61 -14c37 0 70 32 91 129z" />
    <glyph glyph-name="uni0444" unicode="&#x444;" horiz-adv-x="564" 
d="M254 691c0 27 7 27 53 27v-234c32 20 57 25 87 25c86 0 138 -65 138 -225c0 -248 -105 -291 -151 -291c-22 0 -48 5 -74 27v-214c-10 -4 -20 -5 -33 -5c-18 0 -20 6 -20 22v197c-23 -19 -44 -27 -73 -27c-85 0 -149 82 -149 233c0 240 75 283 141 283c17 0 47 -2 81 -25
v207zM254 435c-28 18 -47 21 -66 21c-42 0 -98 -33 -98 -218c0 -126 41 -191 100 -191c31 0 48 10 64 24v364zM307 71c19 -17 37 -23 62 -23c29 0 103 25 103 225c0 125 -32 183 -91 183c-17 0 -46 -3 -74 -21v-364z" />
    <glyph glyph-name="uni0445" unicode="&#x445;" horiz-adv-x="437" 
d="M411 14c9 -14 7 -14 -60 -14l-52 81c-31 50 -68 116 -83 143c-16 -28 -53 -94 -84 -145l-45 -68c-5 -11 -12 -11 -65 -11l163 263l-140 227c-4 9 -4 10 58 10l51 -80c25 -42 57 -98 68 -119c12 21 44 77 70 121l45 68c5 10 5 10 63 10l-145 -234z" />
    <glyph glyph-name="uni0447" unicode="&#x447;" horiz-adv-x="386" 
d="M330 14c0 -14 1 -14 -57 -14v203c-45 -18 -82 -23 -114 -23c-92 0 -123 67 -123 139v168c0 13 -3 13 54 13v-170c0 -77 31 -103 78 -103c35 0 72 10 105 24v236c0 13 1 13 57 13v-486z" />
    <glyph glyph-name="uni0446" unicode="&#x446;" horiz-adv-x="428" 
d="M56 0v487c0 13 -1 13 56 13v-449h187v436c0 13 0 13 56 13v-449h39v-181c0 -12 -19 -12 -38 -12c-11 58 -14 111 -16 142h-284z" />
    <glyph glyph-name="uni0448" unicode="&#x448;" horiz-adv-x="591" 
d="M535 14c0 -14 1 -14 -56 -14h-423v487c0 13 -1 13 55 13v-449h156v436c0 13 0 13 55 13v-449h156v436c0 13 0 13 57 13v-486z" />
    <glyph glyph-name="uni0449" unicode="&#x449;" horiz-adv-x="608" 
d="M56 0v487c0 13 -1 13 55 13v-449h156v436c0 13 0 13 55 13v-449h156v436c0 13 0 13 57 13v-449h38v-181c0 -12 -18 -12 -37 -12c-11 58 -15 111 -16 142h-464z" />
    <glyph glyph-name="uni044C" unicode="&#x44c;" horiz-adv-x="378" 
d="M181 295c96 0 166 -21 166 -130c0 -155 -111 -165 -184 -165h-108v439c0 18 1 34 3 49c2 11 15 12 50 12v-205h73zM108 45l65 -1c64 0 115 17 115 120c0 79 -48 88 -119 88l-61 -1v-206z" />
    <glyph glyph-name="uni044A" unicode="&#x44a;" horiz-adv-x="466" 
d="M270 295c95 0 165 -21 165 -143c0 -135 -105 -152 -171 -152h-121v451h-126c0 42 -1 49 11 49h168v-205h74zM196 45c20 0 41 -1 65 -1c64 0 114 17 114 107c0 92 -47 101 -118 101c-22 0 -42 -1 -61 -1v-206z" />
    <glyph glyph-name="uni044B" unicode="&#x44b;" horiz-adv-x="520" 
d="M181 295c94 0 161 -21 161 -130c0 -148 -102 -165 -167 -165h-120v473c0 26 4 27 53 27v-205h73zM463 14c0 -14 2 -14 -55 -14v473c0 27 12 27 55 27v-486zM108 45l64 -1c64 0 110 17 110 120c0 79 -43 88 -114 88l-60 -1v-206z" />
    <glyph glyph-name="uni044D" unicode="&#x44d;" horiz-adv-x="326" 
d="M29 475c0 13 47 37 104 37c67 0 162 -19 162 -248c0 -230 -58 -276 -162 -276c-53 0 -101 27 -101 46c0 9 2 23 7 35c21 -15 56 -30 89 -30c67 0 106 38 110 186h-164c0 43 1 49 14 49h151c-3 171 -65 188 -111 188c-41 0 -73 -15 -91 -27c-6 12 -8 29 -8 40z" />
    <glyph glyph-name="uni044E" unicode="&#x44e;" horiz-adv-x="538" 
d="M348 -13c-97 0 -153 33 -157 238h-80v-211c0 -14 2 -14 -55 -14v487c0 13 -2 13 55 13v-226h80c5 167 65 237 162 237c102 0 154 -56 154 -261c0 -180 -58 -263 -159 -263zM247 245c0 -173 37 -210 99 -210c61 0 103 60 103 217c0 173 -35 210 -97 210
s-105 -49 -105 -217z" />
    <glyph glyph-name="uni044F" unicode="&#x44f;" horiz-adv-x="373" 
d="M99 15c-3 -12 -11 -17 -22 -17c-13 0 -30 1 -36 2c4 122 50 198 81 228c-46 13 -85 53 -85 126c0 99 55 146 164 146h116v-482c0 -18 0 -18 -54 -18v210h-95c-39 -43 -58 -98 -69 -195zM94 355c0 -72 40 -99 87 -99h83v198c-4 0 -39 2 -74 2c-62 0 -96 -32 -96 -101z" />
    <glyph glyph-name="uni049B" unicode="&#x49b;" horiz-adv-x="376" 
d="M327 55h48v-194c0 -14 -11 -15 -37 -15c-12 59 -16 115 -18 153h-1c-12 0 -28 1 -37 1c-11 45 -86 201 -170 241v-194c0 -14 0 -27 -2 -40c-2 -7 -14 -7 -53 -7v488c0 12 5 12 55 12v-221l170 219c7 2 30 2 38 2c17 0 21 -5 13 -20l-169 -206c85 -54 141 -159 163 -219z
" />
    <glyph glyph-name="uni04A3" unicode="&#x4a3;" horiz-adv-x="424" 
d="M355 55h45v-194c0 -14 -12 -15 -38 -15c-12 59 -16 116 -18 154h-20h-25v225h-188v-211c0 -14 2 -14 -55 -14v487c0 13 -2 13 55 13v-226h188v213c0 13 0 13 56 13v-445z" />
    <glyph glyph-name="uni0394" unicode="&#x394;" horiz-adv-x="440" 
d="M188 667c6 31 25 36 40 36c13 0 22 -3 27 -7l165 -696h-392zM92 52h266l-132 568h-3z" />
    <glyph glyph-name="uni03A9" unicode="&#x3a9;" horiz-adv-x="461" 
d="M260 0c45 68 97 201 97 354c0 224 -38 299 -122 299c-86 0 -131 -68 -131 -289c0 -152 47 -300 93 -364h-147c-2 6 -4 16 -4 24c0 13 5 28 19 28h65c-34 50 -82 159 -82 325c0 234 61 333 193 333c127 0 172 -93 172 -329c0 -175 -52 -286 -86 -329h82c2 -6 5 -16 5 -25
c0 -14 -7 -27 -21 -27h-133z" />
    <glyph glyph-name="uni03BC" unicode="&#x3bc;" horiz-adv-x="419" 
d="M359 23c-39 -17 -97 -33 -152 -33c-44 0 -76 12 -95 36v-199c0 -18 -15 -22 -30 -22c-9 0 -18 2 -24 4v672c0 16 7 24 27 24c8 0 19 -1 27 -4v-371c0 -63 39 -88 95 -88c41 0 73 9 98 20v418c0 16 5 25 27 25c6 0 19 -1 27 -4v-478z" />
    <glyph glyph-name="pi" unicode="&#x3c0;" horiz-adv-x="442" 
d="M401 500c3 -7 5 -15 5 -26c0 -16 -7 -27 -21 -27h-40v-431c0 -15 -16 -20 -29 -20c-8 0 -17 1 -26 4v447h-144v-431c0 -15 -15 -20 -29 -20c-10 0 -18 2 -26 4v447h-52c-3 6 -5 14 -5 23c0 16 6 30 20 30h347z" />
    <glyph glyph-name="zero" unicode="0" 
d="M36 296c0 197 53 304 185 304c130 0 175 -95 175 -291c0 -208 -47 -317 -182 -317c-131 0 -178 98 -178 304zM95 289c0 -177 35 -247 119 -247c92 0 125 89 125 270c0 159 -26 238 -115 238c-96 0 -129 -96 -129 -261z" />
    <glyph glyph-name="one" unicode="1" 
d="M78 519c-5 7 -8 26 -8 40c0 8 160 42 179 42c6 0 15 -3 16 -4l-12 -545h88c31 0 55 3 55 3c0 -30 0 -55 -8 -55h-351c-1 9 -1 32 -1 42c0 8 126 10 158 10l14 491c-19 -1 -130 -24 -130 -24z" />
    <glyph glyph-name="two" unicode="2" 
d="M65 508c-6 16 -7 31 -7 42c0 18 71 50 174 50c116 0 144 -47 144 -131c0 -155 -167 -262 -267 -417h185c29 0 102 4 102 4c0 -32 -1 -56 -9 -56h-347c-2 4 -4 14 -4 21c0 21 8 28 24 55c90 147 255 252 255 389c0 49 -18 82 -91 82c-71 0 -128 -18 -159 -39z" />
    <glyph glyph-name="three" unicode="3" 
d="M243 303c74 -7 142 -45 142 -150c0 -154 -91 -253 -225 -253c-76 0 -111 25 -111 44c0 21 4 33 7 43c27 -23 59 -34 106 -34c101 0 164 87 164 200c0 98 -80 112 -164 115l-1 37c86 48 140 106 140 167c0 30 -12 75 -89 75c-70 0 -118 -15 -155 -40c-5 12 -6 30 -6 41
c0 22 64 52 172 52c111 0 139 -56 139 -116c0 -79 -60 -139 -119 -181z" />
    <glyph glyph-name="four" unicode="4" 
d="M313 206c44 0 86 2 86 2s3 -5 2 -21c0 -17 -5 -33 -18 -33h-70v-134c0 -20 2 -20 -55 -20v154h-205c-10 11 -15 28 -15 43c0 60 122 308 222 398c9 7 18 9 26 9c15 0 25 -5 30 -7zM258 206l9 323c-61 -67 -152 -207 -179 -323h170z" />
    <glyph glyph-name="five" unicode="5" 
d="M382 600c0 -43 -3 -50 -31 -50l-227 2l-19 -173c4 1 25 7 70 7c81 2 212 -21 212 -192c0 -178 -63 -294 -231 -294c-79 0 -117 27 -117 40c0 19 2 31 7 46c24 -22 59 -34 108 -34c131 0 175 106 175 235s-96 152 -176 152c-53 0 -95 -14 -105 -16l28 277h306z" />
    <glyph glyph-name="six" unicode="6" 
d="M247 438c87 0 151 -57 151 -194c0 -164 -61 -253 -190 -253c-148 0 -170 123 -170 306c0 300 104 404 230 404c58 0 109 -9 109 -30c0 -12 -2 -28 -5 -39c-28 11 -54 17 -104 17c-94 0 -169 -91 -176 -302c32 60 84 91 155 91zM210 42c87 0 134 77 134 189
c0 105 -41 155 -112 155c-56 0 -106 -34 -141 -100c-2 -146 22 -244 119 -244z" />
    <glyph glyph-name="seven" unicode="7" 
d="M412 600c-119 -196 -225 -420 -272 -685c-33 0 -56 2 -56 14c50 262 162 501 246 623c-20 -2 -132 -3 -261 -3c-13 0 -17 23 -17 51h360z" />
    <glyph glyph-name="eight" unicode="8" 
d="M335 327c39 -36 65 -78 65 -146c0 -112 -58 -189 -174 -189c-130 0 -186 80 -186 189c0 90 58 162 127 197c-25 13 -48 27 -65 43c-38 28 -55 72 -55 116c0 116 80 169 172 169c79 0 174 -26 174 -161c0 -88 -63 -139 -120 -173c22 -14 43 -29 62 -45zM101 540
c0 -39 16 -71 55 -98c15 -12 40 -26 69 -42c61 31 116 79 116 143c0 91 -65 111 -117 111c-65 0 -123 -34 -123 -114zM223 44c79 0 124 55 124 137c0 61 -28 93 -58 120c-19 17 -44 33 -70 48c-69 -27 -127 -88 -127 -165c0 -82 45 -140 131 -140z" />
    <glyph glyph-name="nine" unicode="9" 
d="M226 610c142 0 169 -92 170 -305c-1 -278 -84 -408 -252 -408c-45 0 -84 6 -84 24c0 12 2 30 5 37c25 -7 49 -9 74 -9c135 0 193 113 203 300c-32 -57 -81 -90 -152 -90c-87 0 -154 64 -154 197c0 169 61 254 190 254zM205 211c54 0 102 34 139 98v3
c0 143 -13 247 -117 247c-88 0 -137 -64 -137 -194c0 -105 46 -154 115 -154z" />
    <glyph glyph-name="fraction" unicode="&#x2044;" horiz-adv-x="196" 
d="M-68 0c-2 -5 -7 -9 -16 -9c-12 0 -29 8 -38 22l399 684c2 7 8 13 19 13s25 -7 36 -21z" />
    <glyph glyph-name="uni00B9" unicode="&#xb9;" horiz-adv-x="408" 
d="M71 624c-5 7 -7 16 -7 26c0 13 7 22 19 26c47 14 130 34 147 34c4 0 14 -1 19 -3v-366h95c2 -9 3 -18 3 -25c0 -19 -4 -27 -18 -27h-265c-2 9 -3 17 -3 23c0 19 4 29 19 29h113v308z" />
    <glyph glyph-name="uni00B2" unicode="&#xb2;" horiz-adv-x="401" 
d="M76 610c-10 14 -12 23 -12 34c0 27 74 66 147 66c98 0 122 -48 122 -108c0 -102 -125 -178 -201 -261h214c2 -9 4 -16 4 -24c0 -18 -6 -28 -19 -28h-275c-4 8 -4 14 -4 20c0 12 2 24 10 32c89 98 206 163 206 247c0 35 -13 67 -77 67c-54 0 -88 -25 -115 -45z" />
    <glyph glyph-name="uni00B3" unicode="&#xb3;" horiz-adv-x="414" 
d="M280 515c45 -16 73 -52 73 -97c0 -93 -71 -139 -173 -139c-57 0 -96 15 -111 29c-5 4 -8 11 -8 20c0 11 6 23 15 31c24 -18 53 -29 105 -29c70 0 116 31 116 83c0 37 -28 63 -68 68c-23 4 -55 4 -82 4c-3 4 -6 19 -6 25c0 10 4 20 18 20c23 0 46 -1 66 -3
c38 25 52 49 52 78c0 23 -17 55 -79 55c-49 0 -89 -16 -118 -39c-15 15 -14 39 -4 48c21 19 68 41 139 41c91 0 121 -43 121 -90c0 -40 -19 -77 -56 -105z" />
    <glyph glyph-name="uni2074" unicode="&#x2074;" horiz-adv-x="410" 
d="M299 416h70c3 -7 5 -16 5 -26c0 -15 -6 -27 -16 -27h-59v-60c0 -13 -11 -19 -30 -19c-7 0 -14 1 -22 3v76h-187c-6 7 -8 16 -8 26c0 6 2 17 7 31c27 83 108 210 172 271c15 16 30 19 45 19c8 0 17 -2 23 -3v-291zM248 413l2 228c-47 -42 -119 -144 -143 -228h141z" />
    <glyph glyph-name="asterisk" unicode="*" horiz-adv-x="472" 
d="M250 511c-1 -11 -7 -16 -27 -12l-15 171c-2 18 33 18 57 6zM201 484c1 -17 -6 -26 -18 -21l-162 50c-2 33 25 56 40 48zM433 565c19 -14 27 -53 8 -58l-166 -48c-12 16 -11 25 2 32zM248 413c-5 10 -1 15 17 22l113 -144c13 -17 -18 -37 -43 -41zM194 427c9 9 19 6 28 -6
l-97 -156c-14 -21 -41 9 -50 29z" />
    <glyph glyph-name="backslash" unicode="\" horiz-adv-x="303" 
d="M292 -15c5 -15 -3 -15 -53 -15l-228 778c-4 16 1 17 54 17z" />
    <glyph glyph-name="periodcentered" unicode="&#xb7;" horiz-adv-x="208" 
d="M59 269c0 24 15 45 42 45c30 0 44 -19 44 -45c0 -25 -17 -45 -44 -45c-30 0 -42 18 -42 45z" />
    <glyph glyph-name="bullet" unicode="&#x2022;" horiz-adv-x="214" 
d="M51 282c0 35 23 65 61 65c42 0 62 -28 62 -65s-24 -65 -62 -65c-43 0 -61 26 -61 65z" />
    <glyph glyph-name="colon" unicode=":" horiz-adv-x="180" 
d="M49 386c0 24 15 45 42 45c30 0 44 -19 44 -45c0 -25 -17 -45 -44 -45c-30 0 -42 18 -42 45zM49 40c0 24 15 45 42 45c30 0 44 -19 44 -45c0 -25 -17 -45 -44 -45c-30 0 -42 18 -42 45z" />
    <glyph glyph-name="comma" unicode="," horiz-adv-x="180" 
d="M55 43c0 24 16 41 39 41c26 0 41 -12 41 -47c0 -64 -50 -145 -67 -145c-10 0 -20 6 -23 18c22 37 29 63 30 93c-13 8 -20 22 -20 40z" />
    <glyph glyph-name="ellipsis" unicode="&#x2026;" horiz-adv-x="488" 
d="M44 40c0 24 15 45 42 45c30 0 44 -19 44 -45c0 -25 -17 -45 -44 -45c-30 0 -42 18 -42 45zM201 40c0 24 15 45 42 45c30 0 44 -19 44 -45c0 -25 -17 -45 -44 -45c-30 0 -42 18 -42 45zM358 40c0 24 15 45 42 45c30 0 44 -19 44 -45c0 -25 -17 -45 -44 -45
c-30 0 -42 18 -42 45z" />
    <glyph glyph-name="exclam" unicode="!" horiz-adv-x="189" 
d="M61 691c0 14 15 16 71 16l-9 -491c-1 -22 -15 -25 -55 -25zM51 40c0 24 16 45 43 45c30 0 44 -20 44 -45c0 -26 -17 -45 -44 -45c-30 0 -43 17 -43 45z" />
    <glyph glyph-name="exclamdown" unicode="&#xa1;" horiz-adv-x="189" 
d="M140 463c0 -24 -16 -45 -42 -45c-30 0 -44 20 -44 45c0 26 17 45 44 45c30 0 42 -17 42 -45zM131 -182c0 -14 -15 -16 -71 -16l9 489c1 23 15 26 54 26z" />
    <glyph glyph-name="numbersign" unicode="#" 
d="M323 369l-7 -124h79c0 -38 0 -46 -14 -46h-67l-4 -78c-1 -14 -13 -14 -50 -14l4 92h-113l-4 -78c-1 -14 -13 -14 -50 -14l4 92h-63c0 37 0 46 13 46h53l6 124h-72c0 37 0 46 13 46h62l4 72c1 14 12 14 50 14l-5 -86h114l4 72c1 14 12 14 50 14l-5 -86h70
c0 -38 0 -46 -14 -46h-58zM153 245h114l6 124h-113z" />
    <glyph glyph-name="period" unicode="." horiz-adv-x="180" 
d="M49 40c0 24 16 45 42 45c30 0 44 -19 44 -45c0 -25 -17 -45 -44 -45c-30 0 -42 18 -42 45z" />
    <glyph glyph-name="question" unicode="?" horiz-adv-x="295" 
d="M143 710c73 0 140 -35 140 -142c0 -116 -82 -178 -117 -240c-36 -61 -7 -118 -13 -125c-7 -9 -33 -8 -50 -6c0 0 -32 70 12 148c40 72 109 125 109 214c0 85 -58 96 -96 96c-43 0 -76 -14 -96 -30c-5 12 -7 25 -7 44c0 18 58 41 118 41zM87 40c0 24 15 45 42 45
c30 0 44 -19 44 -45c0 -25 -17 -45 -44 -45c-30 0 -42 18 -42 45z" />
    <glyph glyph-name="questiondown" unicode="&#xbf;" horiz-adv-x="302" 
d="M210 462c0 -24 -16 -45 -42 -45c-30 0 -44 19 -44 45c0 25 17 45 44 45c30 0 42 -18 42 -45zM154 -195c-73 0 -140 35 -140 142c0 116 82 179 117 240c36 61 7 118 13 126s33 8 50 5c0 0 32 -70 -12 -148c-40 -72 -110 -124 -110 -213c0 -86 59 -97 97 -97
c43 0 75 14 96 30c4 -11 7 -24 7 -43s-59 -42 -118 -42z" />
    <glyph glyph-name="quotedbl" unicode="&#x22;" horiz-adv-x="243" 
d="M76 585c-2 -2 -31 -1 -31 -1c-3 15 -15 195 -7 199c9 4 45 2 54 1c2 -52 -10 -194 -16 -199zM191 585c-2 -2 -31 -1 -31 -1c-2 15 -15 195 -6 199c8 4 44 2 53 1c2 -52 -10 -194 -16 -199z" />
    <glyph glyph-name="quotesingle" unicode="'" horiz-adv-x="128" 
d="M76 585c-2 -2 -31 -1 -31 -1c-3 15 -15 195 -7 199c9 4 45 2 54 1c2 -52 -10 -194 -16 -199z" />
    <glyph glyph-name="semicolon" unicode=";" horiz-adv-x="180" 
d="M50 386c0 24 15 45 42 45c30 0 44 -19 44 -45c0 -25 -17 -45 -44 -45c-30 0 -42 18 -42 45zM52 43c0 24 16 41 40 41c25 0 41 -12 41 -47c0 -64 -51 -145 -68 -145c-10 0 -20 6 -23 18c23 37 29 63 30 93c-13 8 -20 22 -20 40z" />
    <glyph glyph-name="slash" unicode="/" horiz-adv-x="307" 
d="M72 -5c-5 -15 -12 -15 -62 -15l226 768c5 16 9 17 61 17z" />
    <glyph glyph-name="underscore" unicode="_" horiz-adv-x="383" 
d="M17 -94c0 38 0 50 13 50h337c0 -37 0 -50 -14 -50h-336z" />
    <glyph glyph-name="braceleft" unicode="{" horiz-adv-x="286" 
d="M257 744c7 -10 11 -23 11 -34s-6 -19 -14 -20c-58 -3 -96 -22 -96 -87c0 -50 12 -114 12 -193c0 -70 -25 -95 -59 -109c36 -13 59 -35 59 -94c0 -82 -12 -144 -12 -202c0 -91 37 -99 104 -105c1 -9 2 -15 2 -21c0 -18 -7 -29 -21 -29c-99 0 -141 37 -141 134
c0 70 14 128 14 207c0 55 -23 73 -59 80c-4 9 -5 18 -5 25c0 14 5 25 15 30c28 17 49 29 49 96c0 76 -14 141 -14 205c0 87 65 117 155 117z" />
    <glyph glyph-name="braceright" unicode="}" horiz-adv-x="286" 
d="M28 -150c-7 9 -10 22 -10 33c0 12 5 19 13 20c59 3 97 22 97 87c0 51 -12 115 -12 194c0 69 25 94 59 109c-36 12 -59 35 -59 94c0 82 12 143 12 202c0 90 -37 98 -104 105c-1 8 -2 15 -2 21c0 17 7 29 20 29c99 0 141 -38 141 -134c0 -70 -14 -128 -14 -208
c0 -55 24 -73 60 -80c4 -8 5 -18 5 -24c0 -15 -6 -25 -15 -31c-28 -17 -50 -28 -50 -96c0 -75 14 -141 14 -205c0 -86 -65 -116 -155 -116z" />
    <glyph glyph-name="bracketleft" unicode="[" horiz-adv-x="415" 
d="M405 821c0 -44 -1 -50 -23 -50h-178v-917h200c0 -52 -6 -52 -24 -52h-231v999c0 17 4 20 44 20h212z" />
    <glyph glyph-name="bracketright" unicode="]" horiz-adv-x="415" 
d="M10 -200c0 44 1 50 23 50h178v920h-200c0 52 6 52 24 52h231v-1002c0 -17 -4 -20 -43 -20h-213z" />
    <glyph glyph-name="parenleft" unicode="(" horiz-adv-x="294" 
d="M125 324c0 -256 98 -427 146 -482c-5 -23 -14 -40 -31 -40s-171 176 -171 520c0 328 161 483 172 483c16 0 24 -11 30 -36c-57 -68 -145 -209 -146 -445z" />
    <glyph glyph-name="parenright" unicode=")" horiz-adv-x="294" 
d="M169 324c-1 229 -85 377 -146 445c6 25 14 36 30 36c11 0 172 -151 172 -483c0 -333 -154 -520 -171 -520s-26 17 -31 40c50 61 146 222 146 482z" />
    <glyph glyph-name="emdash" unicode="&#x2014;" horiz-adv-x="700" 
d="M6 257c0 37 0 50 14 50h674c0 -38 0 -50 -13 -50h-675z" />
    <glyph glyph-name="endash" unicode="&#x2013;" horiz-adv-x="436" 
d="M43 257c0 37 0 50 14 50h336c0 -38 0 -50 -13 -50h-337z" />
    <glyph glyph-name="hyphen" unicode="-" horiz-adv-x="290" 
d="M43 257c0 37 0 50 14 50h190c0 -38 0 -50 -13 -50h-191z" />
    <glyph glyph-name="guillemotleft" unicode="&#xab;" horiz-adv-x="417" 
d="M28 255c0 25 149 245 149 245c21 0 33 -28 33 -28c0 -27 -129 -217 -129 -217s133 -197 133 -221c0 0 -13 -34 -32 -34c0 0 -154 227 -154 255zM191 250c0 25 147 229 147 229c21 0 33 -27 33 -27c0 -26 -127 -202 -127 -202s131 -172 131 -195c0 0 -13 -33 -32 -33
c0 0 -152 202 -152 228z" />
    <glyph glyph-name="guillemotright" unicode="&#xbb;" horiz-adv-x="415" 
d="M387 255c0 -28 -153 -255 -153 -255s-33 8 -33 33c0 24 133 222 133 222s-129 190 -129 217c0 20 33 28 33 28s149 -220 149 -245zM226 250c0 -28 -153 -229 -153 -229s-30 8 -30 33c0 24 130 196 130 196c3 0 -127 175 -127 202c0 20 31 28 31 28s149 -204 149 -230z
" />
    <glyph glyph-name="guilsinglleft" unicode="&#x2039;" horiz-adv-x="256" 
d="M28 250c0 26 149 250 149 250c21 0 33 -28 33 -28c0 -27 -129 -222 -129 -222s133 -192 133 -216c0 0 -13 -34 -32 -34c0 0 -154 222 -154 250z" />
    <glyph glyph-name="guilsinglright" unicode="&#x203a;" horiz-adv-x="256" 
d="M228 250c0 -28 -153 -250 -153 -250s-32 8 -32 33c0 24 133 217 133 217s-130 195 -130 222c0 20 34 28 34 28s148 -224 148 -250z" />
    <glyph glyph-name="quotedblbase" unicode="&#x201e;" horiz-adv-x="296" 
d="M41 59c0 24 16 41 40 41c26 0 41 -12 41 -48c0 -64 -45 -164 -61 -164c-10 0 -20 6 -23 18c18 38 22 83 23 113c-13 8 -20 22 -20 40zM180 59c0 24 16 41 39 41c26 0 41 -12 41 -48c0 -64 -44 -164 -60 -164c-11 0 -21 6 -24 18c19 38 23 83 24 113c-13 8 -20 22 -20 40z
" />
    <glyph glyph-name="quotedblleft" unicode="&#x201c;" horiz-adv-x="298" 
d="M118 620c0 -24 -16 -41 -39 -41c-26 0 -42 12 -42 48c0 64 45 164 61 164c11 0 21 -6 23 -18c-18 -37 -22 -83 -23 -113c13 -8 20 -22 20 -40zM257 620c0 -24 -16 -41 -40 -41c-26 0 -41 12 -41 48c0 64 44 164 61 164c10 0 20 -6 23 -18c-18 -37 -22 -83 -23 -113
c13 -8 20 -22 20 -40z" />
    <glyph glyph-name="quotedblright" unicode="&#x201d;" horiz-adv-x="298" 
d="M41 745c0 23 16 41 40 41c26 0 41 -13 41 -48c0 -64 -45 -164 -61 -164c-10 0 -20 6 -23 18c18 37 22 82 23 113c-13 8 -20 22 -20 40zM180 745c0 23 16 41 39 41c26 0 41 -13 41 -48c0 -64 -44 -164 -60 -164c-11 0 -21 6 -24 18c19 37 23 82 24 113
c-13 8 -20 22 -20 40z" />
    <glyph glyph-name="quoteleft" unicode="&#x2018;" horiz-adv-x="159" 
d="M118 620c0 -24 -16 -41 -39 -41c-26 0 -42 12 -42 48c0 64 45 164 61 164c11 0 21 -6 23 -18c-18 -37 -22 -83 -23 -113c13 -8 20 -22 20 -40z" />
    <glyph glyph-name="quoteright" unicode="&#x2019;" horiz-adv-x="159" 
d="M41 745c0 23 16 41 40 41c26 0 41 -13 41 -48c0 -64 -45 -164 -61 -164c-10 0 -20 6 -23 18c18 37 22 82 23 113c-13 8 -20 22 -20 40z" />
    <glyph glyph-name="quotesinglbase" unicode="&#x201a;" horiz-adv-x="157" 
d="M41 59c0 24 16 41 40 41c26 0 41 -12 41 -48c0 -64 -45 -164 -61 -164c-10 0 -20 6 -23 18c18 38 22 83 23 113c-13 8 -20 22 -20 40z" />
    <glyph glyph-name="space" unicode=" " horiz-adv-x="173" 
 />
    <glyph glyph-name="uni00A0" unicode="&#xa0;" horiz-adv-x="173" 
 />
    <glyph glyph-name="CR" unicode="&#xd;" horiz-adv-x="173" 
 />
    <glyph glyph-name="Euro" unicode="&#x20ac;" 
d="M389 80c4 -8 9 -23 9 -37c0 -18 -52 -53 -115 -53c-85 0 -158 26 -170 220h-91c0 34 3 47 23 47h66v13c0 30 1 58 3 83h-92c0 34 3 46 23 46h74c27 180 112 207 184 207c65 0 95 -29 95 -39c0 -15 -5 -31 -11 -37c-7 6 -39 24 -73 24c-51 0 -113 -16 -136 -155h163
c0 -34 -3 -46 -23 -46h-146c-2 -25 -3 -52 -3 -83v-13h135c0 -35 -3 -47 -23 -47h-110c11 -150 65 -166 121 -166c39 0 78 17 97 36z" />
    <glyph glyph-name="cent" unicode="&#xa2;" 
d="M261 41c34 0 66 15 87 31c5 -10 7 -27 7 -36c0 -16 -44 -44 -94 -46v-106c0 -20 -13 -24 -49 -24v132c-74 6 -121 43 -121 233c0 211 70 268 142 281v106c0 21 15 26 50 26v-129c37 -3 72 -20 72 -32c0 -6 -1 -28 -7 -41c-19 12 -38 22 -72 22c-60 0 -129 -25 -129 -233
c0 -171 41 -184 114 -184z" />
    <glyph glyph-name="dollar" unicode="$" 
d="M367 155c0 -81 -33 -146 -132 -160v-93c0 -20 -14 -24 -49 -24v115c-84 2 -120 31 -120 42c0 7 8 33 18 43c19 -16 52 -31 111 -31c81 0 114 43 114 108c0 43 -17 74 -67 122l-112 105c-39 39 -62 75 -62 115c0 66 49 111 133 119v96c0 21 15 25 50 25v-121
c76 -3 107 -26 107 -32c0 -9 -5 -30 -16 -40c-15 10 -53 23 -104 23c-67 0 -111 -20 -111 -71c0 -30 20 -57 52 -88l123 -114c48 -46 65 -86 65 -139z" />
    <glyph glyph-name="florin" unicode="&#x192;" horiz-adv-x="477" 
d="M380 687c-55 0 -114 -5 -114 -118v-69h159c0 -37 0 -50 -13 -50h-146v-476c0 -162 -91 -170 -163 -170c-58 0 -86 16 -86 31c0 10 2 22 6 32c24 -9 47 -12 74 -12c54 0 114 5 114 117v478h-136c0 38 0 50 14 50h122v68c0 161 91 169 163 169c57 0 86 -15 86 -31
c0 -10 -2 -21 -6 -31c-24 9 -47 12 -74 12z" />
    <glyph glyph-name="sterling" unicode="&#xa3;" horiz-adv-x="383" 
d="M150 55l183 -4c3 -10 5 -19 5 -26c0 -23 -31 -25 -55 -25h-185c-7 102 -9 192 -10 278h-73c0 38 0 50 14 50h59c0 211 66 267 158 267c54 0 100 -20 100 -47c0 -12 -3 -22 -10 -35c-24 18 -46 27 -82 27c-63 0 -111 -34 -111 -208v-4h147c0 -37 0 -50 -14 -50h-133
c0 -76 2 -151 7 -223z" />
    <glyph glyph-name="yen" unicode="&#xa5;" 
d="M242 286v-60h134c0 -34 -3 -46 -23 -46h-111v-166c0 -14 0 -14 -55 -14v180h-136c0 34 3 46 23 46h113v59l-21 56h-115c0 34 3 46 23 46h75l-111 304c-3 9 -2 9 62 9l48 -143c28 -77 66 -197 67 -212c1 15 40 135 67 213l46 132c3 10 4 10 60 10l-111 -313h99
c0 -34 -4 -46 -24 -46h-91z" />
    <glyph glyph-name="approxequal" unicode="&#x2248;" horiz-adv-x="400" 
d="M15 321c18 24 57 62 118 62c66 0 76 -49 137 -49c33 0 61 18 78 40c10 11 24 6 31 -7c2 -7 2 -19 0 -30c-19 -25 -57 -54 -111 -54c-71 0 -84 48 -139 48c-45 0 -73 -28 -89 -38c-11 -5 -22 7 -25 28zM15 192c16 23 56 60 115 60c66 0 79 -48 140 -48c37 0 68 22 89 39
c12 5 24 -6 27 -26c-18 -27 -55 -65 -120 -65c-74 0 -82 50 -136 50c-38 0 -65 -25 -78 -40c-16 -12 -35 6 -37 30z" />
    <glyph glyph-name="asciitilde" unicode="~" horiz-adv-x="400" 
d="M12 261c16 24 59 62 121 62c67 0 78 -49 140 -49c33 0 60 18 78 40c16 15 35 -1 38 -26c-18 -27 -56 -65 -121 -65c-73 0 -87 49 -140 49c-43 0 -70 -31 -87 -41c-12 -5 -26 8 -29 30z" />
    <glyph glyph-name="divide" unicode="&#xf7;" 
d="M214 376c-28 0 -39 17 -39 42c0 22 14 41 39 41c27 0 40 -17 40 -41s-16 -42 -40 -42zM55 307h337c0 -38 0 -50 -14 -50h-336c0 37 0 50 13 50zM214 182c27 0 40 -18 40 -41c0 -24 -16 -42 -40 -42c-28 0 -39 16 -39 42c0 22 14 41 39 41z" />
    <glyph glyph-name="equal" unicode="=" 
d="M392 394c0 -38 0 -50 -14 -50h-336c0 37 0 50 13 50h337zM42 170c0 37 0 50 13 50h337c0 -38 0 -50 -14 -50h-336z" />
    <glyph glyph-name="greater" unicode="&#x3e;" horiz-adv-x="400" 
d="M285 268l-237 104c0 26 14 44 25 44c5 0 13 -3 24 -7l251 -110c6 -10 9 -22 9 -33c0 -12 -5 -24 -19 -31l-268 -132c-13 13 -19 28 -19 37s3 15 10 18z" />
    <glyph glyph-name="greaterequal" unicode="&#x2265;" horiz-adv-x="412" 
d="M289 294l-238 104c1 26 15 44 26 44c5 0 12 -3 23 -7l251 -110c7 -10 10 -22 10 -33c0 -12 -6 -24 -19 -31l-269 -132c-12 13 -18 28 -18 37s3 15 10 18zM59 0c0 37 0 50 13 50h286c0 -38 0 -50 -14 -50h-285z" />
    <glyph glyph-name="infinity" unicode="&#x221e;" horiz-adv-x="623" 
d="M447 409c74 0 124 -48 124 -142c0 -97 -46 -144 -121 -147c-13 -1 -25 1 -37 4c-47 10 -82 45 -105 91c-31 -47 -71 -90 -128 -90c-87 0 -128 64 -128 142c0 66 28 142 133 142c73 0 107 -45 132 -89c29 48 65 89 130 89zM435 173c48 0 82 31 82 94c0 45 -21 75 -51 85
c-11 3 -21 3 -31 2c-35 -1 -48 -17 -63 -37c-11 -13 -22 -32 -33 -52c18 -45 47 -92 96 -92zM183 177c50 0 78 41 105 90l-2 3c-15 42 -44 80 -86 83c-18 1 -32 -1 -44 -6c-39 -14 -50 -52 -50 -80c0 -45 24 -90 77 -90z" />
    <glyph glyph-name="integral" unicode="&#x222b;" horiz-adv-x="477" 
d="M211 568c0 161 91 169 163 169c57 0 86 -15 86 -31c0 -10 -2 -21 -6 -31c-24 9 -47 12 -74 12c-55 0 -114 -5 -114 -118v-595c0 -162 -91 -170 -163 -170c-58 0 -86 16 -86 31c0 10 2 22 6 32c24 -9 47 -12 74 -12c54 0 114 5 114 117v596z" />
    <glyph glyph-name="less" unicode="&#x3c;" horiz-adv-x="400" 
d="M116 258l238 -104c-1 -26 -15 -43 -26 -43c-5 0 -12 2 -23 6l-251 110c-7 10 -10 22 -10 33c0 13 6 24 19 31l268 131c13 -12 19 -26 19 -36c0 -9 -3 -15 -10 -18z" />
    <glyph glyph-name="lessequal" unicode="&#x2264;" horiz-adv-x="417" 
d="M123 280l238 -103c-1 -26 -15 -44 -25 -44c-5 0 -13 2 -24 7l-251 110c-7 10 -10 21 -10 32c0 13 6 24 19 31l268 132c13 -13 19 -27 20 -37c0 -9 -3 -14 -11 -18zM58 0c0 37 0 50 14 50h294c0 -38 0 -50 -14 -50h-294z" />
    <glyph glyph-name="logicalnot" unicode="&#xac;" horiz-adv-x="400" 
d="M357 297v-186c-8 -3 -18 -4 -27 -4c-14 0 -26 7 -26 19v118h-266c-4 10 -5 18 -5 26c0 15 8 27 20 27h304z" />
    <glyph glyph-name="minus" unicode="&#x2212;" 
d="M55 307h337c0 -38 0 -50 -14 -50h-336c0 37 0 50 13 50z" />
    <glyph glyph-name="multiply" unicode="&#xd7;" 
d="M344 388l-95 -107l94 -105c-26 -27 -34 -36 -44 -26l-83 93l-83 -93c-10 -10 -19 -1 -45 26l94 105l-95 107c27 26 36 35 45 26l84 -94l83 94c10 9 18 0 45 -26z" />
    <glyph glyph-name="notequal" unicode="&#x2260;" horiz-adv-x="400" 
d="M248 311l-46 -125h172c0 -37 0 -49 -13 -49h-177l-48 -132c-3 -7 -10 -11 -19 -11c-11 0 -25 7 -36 19l46 124h-103c0 37 0 49 14 49h107l46 125h-167c0 37 0 49 14 49h171l49 133c3 10 10 14 19 14c10 0 23 -7 37 -19l-48 -128h108c0 -37 0 -49 -13 -49h-113z" />
    <glyph glyph-name="partialdiff" unicode="&#x2202;" horiz-adv-x="437" 
d="M213 734c128 -97 187 -233 187 -445c0 -158 -26 -299 -174 -299c-120 0 -180 75 -180 267c0 165 64 252 171 252c45 0 83 -14 110 -44c-26 104 -81 182 -174 251c7 17 23 27 38 27c8 0 17 -4 22 -9zM225 38c108 0 120 123 120 254c0 35 -2 67 -5 97
c-28 48 -65 69 -111 69c-83 0 -128 -79 -128 -209c0 -149 46 -211 124 -211z" />
    <glyph glyph-name="percent" unicode="%" horiz-adv-x="712" 
d="M159 -8c0 0 -34 7 -34 22l421 694s32 -9 32 -25c0 -6 -419 -691 -419 -691zM61 524c0 128 53 184 141 184s133 -41 133 -183c0 -125 -50 -185 -138 -185c-86 0 -136 27 -136 184zM114 520c0 -111 29 -136 82 -136s87 41 87 141c0 112 -28 138 -81 138s-88 -34 -88 -143z
M377 176c0 128 53 184 141 184s133 -41 133 -183c0 -125 -50 -185 -138 -185c-86 0 -136 27 -136 184zM429 171c0 -111 29 -136 83 -136c52 0 87 41 87 141c0 112 -28 138 -81 138c-54 0 -89 -35 -89 -143z" />
    <glyph glyph-name="perthousand" unicode="&#x2030;" horiz-adv-x="1002" 
d="M61 525c0 128 53 184 141 184s133 -41 133 -183c0 -125 -50 -185 -138 -185c-86 0 -136 27 -136 184zM146 -10c0 0 -34 7 -34 22l422 697s32 -9 32 -25c0 -7 -420 -694 -420 -694zM114 521c0 -111 29 -136 82 -136s87 41 87 141c0 112 -28 138 -81 138s-88 -34 -88 -143z
M365 176c0 127 53 184 141 184s133 -41 133 -184c0 -125 -50 -185 -137 -185s-137 27 -137 185zM666 176c0 127 53 184 142 184c88 0 133 -41 133 -184c0 -125 -50 -185 -138 -185c-86 0 -137 27 -137 185zM418 172c0 -112 29 -137 82 -137s88 41 88 141
c0 112 -29 139 -81 139c-54 0 -89 -35 -89 -143zM720 172c0 -112 29 -137 82 -137c52 0 87 41 87 141c0 112 -29 139 -81 139c-54 0 -88 -35 -88 -143z" />
    <glyph glyph-name="plus" unicode="+" 
d="M242 307h150c0 -38 0 -50 -14 -50h-136v-136c0 -14 -12 -14 -50 -14v150h-150c0 37 0 50 13 50h137v137c0 13 13 13 50 13v-150z" />
    <glyph glyph-name="plusminus" unicode="&#xb1;" 
d="M193 130v150h-150c0 37 0 50 13 50h137v137c0 13 12 13 50 13v-150h150c0 -38 0 -50 -14 -50h-136v-136c0 -14 -13 -14 -50 -14zM42 12c0 38 0 50 13 50h337c0 -37 0 -50 -14 -50h-336z" />
    <glyph glyph-name="product" unicode="&#x220f;" horiz-adv-x="442" 
d="M401 700c3 -7 5 -15 5 -26c0 -16 -7 -27 -21 -27h-40v-820c0 -15 -16 -20 -29 -20c-8 0 -17 2 -26 4v836h-144v-820c0 -15 -15 -20 -29 -20c-10 0 -18 2 -26 4v836h-52c-3 6 -5 14 -5 23c0 16 6 30 20 30h347z" />
    <glyph glyph-name="radical" unicode="&#x221a;" horiz-adv-x="466" 
d="M55 222c14 16 52 18 56 -3l79 -295l102 776h149c2 -6 4 -14 4 -26s-4 -26 -19 -26h-85l-110 -813c-3 -22 -19 -28 -37 -28c-13 0 -21 2 -30 5z" />
    <glyph glyph-name="summation" unicode="&#x2211;" horiz-adv-x="406" 
d="M58 -190l163 401l-162 489h271c2 -5 3 -13 3 -21c0 -16 -6 -31 -19 -31h-176l140 -441l-143 -345h200c2 -8 3 -17 3 -24c0 -19 -7 -28 -19 -28h-261z" />
    <glyph glyph-name="lozenge" unicode="&#x25ca;" horiz-adv-x="469" 
d="M236 -5l-200 355l200 355l200 -355zM236 597l-140 -247l140 -245l139 245z" />
    <glyph glyph-name="uniF8FF" unicode="&#xf8ff;" horiz-adv-x="819" 
d="M409 710c219 0 360 -142 360 -360s-141 -360 -360 -360c-218 0 -359 142 -359 360s141 360 359 360zM419 579c-35 0 -61 -23 -61 -63c0 -70 75 -92 127 -160c53 68 129 90 129 160c0 40 -28 63 -62 63c-28 0 -52 -17 -67 -44c-15 27 -38 44 -66 44zM258 540
c1 0 5 0 5 -12v-112c0 -12 -4 -12 -5 -12c-5 0 -8 1 -14 1c-10 0 -18 -7 -18 -17s7 -20 21 -20c21 0 23 5 38 5c13 0 17 -5 34 -5c15 0 21 10 21 20s-7 17 -17 17c-5 0 -9 -1 -14 -1c-2 0 -6 0 -6 12v112c0 12 4 12 6 12c6 0 9 -1 14 -1c8 0 17 7 17 17s-6 18 -21 18
c-13 0 -21 -3 -35 -3c-15 0 -23 3 -35 3c-16 0 -23 -8 -23 -18c0 -8 8 -17 18 -17c5 0 10 1 14 1zM618 294c14 0 18 8 18 17s-4 19 -19 19c-12 0 -22 -3 -33 -3c-13 0 -21 3 -32 3c-15 0 -21 -11 -21 -19c0 -9 7 -17 17 -17h8c11 0 11 -9 11 -12v-98l-70 128l-2 6
c-1 5 -4 12 -19 12c-8 0 -15 -2 -25 -2c-12 0 -21 2 -26 2c-9 0 -16 -5 -18 -11c-3 6 -9 11 -17 11c-10 0 -25 -3 -35 -3c-12 0 -24 3 -32 3c-13 0 -20 -7 -20 -19c0 -10 5 -18 20 -18c0 0 2 0 5 1c-6 -13 -23 -40 -31 -55l-33 55h2c17 0 21 9 21 17c0 9 -5 19 -19 19
c-13 0 -19 -4 -31 -4s-23 4 -36 4c-12 0 -19 -7 -19 -19c0 -10 5 -18 20 -18c5 0 7 1 11 1c1 0 4 0 5 -1l57 -94v-34c0 -5 -3 -8 -5 -8c-6 0 -7 3 -13 3c-11 0 -18 -8 -18 -19c0 -8 6 -17 21 -17c14 0 21 4 34 4c14 0 23 -4 37 -4c17 0 22 9 22 18c0 10 -5 18 -16 18
c-8 0 -12 -3 -15 -3c-4 0 -6 3 -6 8v36l57 91c2 3 3 3 4 3c7 0 7 -1 13 -1c9 0 14 5 16 9c3 -4 9 -9 16 -9s10 1 13 1c2 0 6 -1 6 -13v-113c0 -12 -4 -12 -6 -12c-3 0 -9 2 -13 2c-10 0 -18 -7 -18 -17c0 -9 5 -18 21 -18c10 0 23 4 36 4c15 0 23 -4 33 -4c16 0 22 9 22 17
c0 11 -7 18 -18 18c-4 0 -10 -2 -13 -2c-2 0 -6 0 -6 13v97l68 -123c8 -15 16 -24 31 -24c22 0 27 22 27 44v118c0 2 0 12 7 12h6z" />
    <glyph glyph-name="bar" unicode="|" horiz-adv-x="354" 
d="M204 -185c0 -15 -4 -15 -55 -15v998c0 16 3 17 55 17v-1000z" />
    <glyph glyph-name="brokenbar" unicode="&#xa6;" horiz-adv-x="226" 
d="M140 349c0 -16 -5 -20 -28 -20c-5 0 -17 1 -27 4v387c0 16 7 23 29 23c7 0 17 -1 26 -4v-390zM140 -178c0 -16 -5 -19 -28 -19c-5 0 -17 0 -27 3v395c0 16 7 22 29 22c7 0 17 -1 26 -4v-397z" />
    <glyph glyph-name="at" unicode="@" horiz-adv-x="754" 
d="M384 -136c114 0 181 27 233 52c6 -10 15 -27 15 -42c0 -20 -95 -63 -244 -63c-184 0 -335 36 -335 453c0 306 143 421 351 421c201 0 299 -94 299 -331c0 -330 -117 -352 -160 -352c-27 0 -48 12 -63 26c-15 -12 -52 -27 -111 -27c-71 -1 -129 19 -126 151
c3 128 70 160 150 160c21 0 43 -1 61 -8l2 63c2 64 -31 78 -80 78c-44 0 -77 -7 -107 -24c-5 10 -6 24 -6 31c0 8 3 13 9 17c20 13 58 24 122 24c75 0 116 -29 113 -118l-6 -215c-2 -46 -3 -77 -5 -97c13 -8 27 -12 42 -12c32 0 110 43 110 293c0 209 -66 291 -245 291
c-182 0 -295 -93 -295 -377c0 -346 112 -394 276 -394zM447 88l6 179c-13 3 -33 5 -49 5c-61 0 -107 -25 -109 -122c-2 -91 33 -106 80 -106c33 0 71 16 72 44z" />
    <glyph glyph-name="ampersand" unicode="&#x26;" horiz-adv-x="513" 
d="M406 113c36 -39 66 -67 85 -78c-3 -18 -21 -44 -36 -44c-9 0 -39 27 -79 70c-32 -41 -81 -71 -157 -71c-149 0 -183 93 -183 182c0 84 56 151 115 185c-47 80 -81 156 -81 211c0 100 71 138 167 138c86 0 143 -25 143 -44c0 -14 -6 -31 -13 -39c-34 24 -76 34 -126 34
c-59 0 -114 -14 -114 -96c0 -86 130 -274 238 -401c16 47 17 97 17 121c0 106 -38 180 -84 216c39 6 79 6 105 6c33 0 62 0 89 -2c0 -3 1 -12 1 -22c0 -15 -5 -24 -41 -24l-72 2c19 -23 55 -73 55 -184c0 -35 -3 -101 -29 -160zM216 42c59 0 98 26 122 61
c-51 60 -111 137 -161 213c-47 -27 -84 -76 -84 -147c0 -58 24 -127 123 -127z" />
    <glyph glyph-name="paragraph" unicode="&#xb6;" horiz-adv-x="546" 
d="M357 18c0 -19 -13 -21 -28 -21c-12 0 -21 2 -26 4v206c-23 -12 -62 -17 -91 -17c-85 0 -169 49 -169 232c0 192 75 287 198 287c52 0 86 -10 116 -26v-665zM487 17c0 -15 -5 -19 -28 -19c-5 0 -17 0 -27 3v666c0 16 7 23 29 23c7 0 17 -2 26 -5v-668zM302 647
c-10 7 -33 14 -68 14c-86 0 -135 -82 -135 -234c0 -155 65 -190 126 -191c20 -1 56 5 77 18v393z" />
    <glyph glyph-name="copyright" unicode="&#xa9;" horiz-adv-x="464" 
d="M39 540c0 154 75 220 199 220c125 0 189 -53 189 -219c0 -143 -71 -221 -195 -221c-123 0 -193 46 -193 220zM82 537c0 -134 53 -174 146 -174c90 0 155 56 155 180c0 131 -52 177 -144 177c-94 0 -157 -48 -157 -183zM291 657c0 -4 -4 -21 -7 -26c-9 5 -19 10 -33 10
c-29 0 -62 -12 -62 -114c0 -77 19 -84 52 -84c16 0 32 6 43 12c3 -6 7 -20 7 -24c0 -8 -26 -22 -54 -22c-54 0 -85 11 -85 119c0 131 52 146 94 146c21 0 45 -11 45 -17z" />
    <glyph glyph-name="registered" unicode="&#xae;" horiz-adv-x="464" 
d="M238 760c125 0 189 -53 189 -219c0 -143 -71 -221 -195 -221c-123 0 -193 46 -193 220c0 154 75 220 199 220zM228 363c90 0 155 56 155 180c0 131 -52 177 -144 177c-94 0 -157 -48 -157 -183c0 -134 53 -174 146 -174zM310 604c0 -37 -16 -61 -41 -73
c14 -15 41 -50 47 -111c0 -4 -1 -8 -11 -9l-22 1c-9 71 -35 101 -46 111c-4 0 -8 -1 -12 -1h-22v-102c0 -9 -8 -8 -31 -8v259s0 5 6 5h12h37c60 0 83 -31 83 -72zM203 551h23c35 0 51 18 51 53c0 26 -11 44 -50 44h-24v-97z" />
    <glyph glyph-name="section" unicode="&#xa7;" horiz-adv-x="367" 
d="M258 205c4 -4 7 -7 10 -11c30 -33 42 -54 42 -90c0 -65 -58 -108 -146 -108c-64 0 -103 25 -110 43c-2 3 -2 8 -2 11c0 12 4 24 13 34c24 -20 52 -30 95 -30c57 0 89 24 89 59c0 25 -11 40 -34 64c-28 29 -92 79 -125 117c-29 33 -43 58 -43 99c0 35 17 76 62 102
c-3 4 -7 7 -10 11c-30 33 -42 54 -42 90c0 65 58 108 147 108c63 0 102 -26 109 -43c2 -4 3 -8 3 -11c0 -12 -5 -24 -13 -34c-24 19 -53 30 -96 30c-56 0 -89 -24 -89 -59c0 -25 12 -40 34 -64c28 -30 93 -79 125 -117c30 -33 43 -58 43 -100c0 -34 -18 -75 -62 -101z
M133 314c18 -22 53 -47 85 -74c30 13 51 47 51 70c0 31 -13 50 -35 76c-18 22 -53 47 -85 73c-32 -12 -50 -46 -50 -68c0 -32 12 -51 34 -77z" />
    <glyph glyph-name="trademark" unicode="&#x2122;" horiz-adv-x="530" 
d="M34 690c0 10 10 10 10 10h202v-22c0 -10 -9 -10 -9 -10h-76v-276c0 -9 0 -9 -34 -9v285h-93v22zM453 700h24v-307c0 -10 0 -10 -34 -10l1 114c0 14 2 84 4 117c-12 -32 -26 -73 -28 -77l-32 -86c-2 -3 -4 -5 -6 -5h-21l-34 91c-2 4 -16 44 -28 77c1 -25 4 -102 5 -117
v-104c0 -10 -1 -10 -34 -10v307s0 10 10 10h21l50 -139c3 -9 24 -61 24 -61s17 50 20 60l48 130c1 3 3 10 10 10z" />
    <glyph glyph-name="degree" unicode="&#xb0;" horiz-adv-x="371" 
d="M97 652c0 63 36 92 94 92s86 -23 86 -91c0 -60 -34 -91 -93 -91c-54 0 -87 16 -87 90zM138 650c0 -35 16 -49 47 -49c32 0 52 15 52 52c0 38 -16 51 -46 51c-34 0 -53 -13 -53 -54z" />
    <glyph glyph-name="asciicircum" unicode="^" horiz-adv-x="430" 
d="M105 223c-12 -9 -17 -11 -22 -11c-16 0 -25 15 -26 29l161 146l142 -130c8 -6 10 -12 10 -18c0 -14 -12 -26 -28 -28l-129 105z" />
    <glyph glyph-name="dagger" unicode="&#x2020;" horiz-adv-x="431" 
d="M186 681c-3 17 15 26 32 26c11 0 22 -4 29 -13l-14 -179c-3 -16 -21 -16 -32 -8zM368 511c17 6 26 -12 26 -31c0 -11 -4 -23 -13 -30l-126 14c-14 3 -14 21 -7 32zM63 451c-15 -2 -26 14 -26 30c0 11 4 23 13 31l127 -15c16 -4 15 -21 7 -32zM246 21
c2 -17 -14 -27 -30 -27c-11 0 -24 5 -30 14l14 434c2 18 22 17 32 8z" />
    <glyph glyph-name="daggerdbl" unicode="&#x2021;" horiz-adv-x="431" 
d="M186 681c-3 17 15 26 32 26c11 0 22 -4 29 -13l-14 -179c-3 -16 -21 -16 -32 -8zM368 511c17 6 26 -12 26 -31c0 -11 -4 -23 -13 -30l-126 14c-14 3 -14 21 -7 32zM63 451c-15 -2 -26 14 -26 30c0 11 4 23 13 31l127 -15c16 -4 15 -21 7 -32zM197 438c0 18 18 22 38 13
v-191c0 -17 -16 -22 -38 -14v192zM63 188c-16 -5 -26 12 -26 31c0 11 4 23 13 30l126 -14c15 -4 14 -20 7 -32zM368 247c16 3 26 -13 26 -29c0 -12 -4 -23 -13 -32l-126 15c-17 5 -16 21 -8 33zM245 24c3 -17 -14 -27 -32 -27c-11 0 -22 5 -28 13l14 174c3 16 20 16 31 8z
" />
    <glyph glyph-name="ampersand.ss03" horiz-adv-x="451" 
d="M418 146c0 -14 -39 -78 -150 -89v-92c0 -20 -14 -24 -50 -24v114c-123 5 -172 67 -172 158c0 86 51 135 112 153c-42 4 -97 35 -97 119c0 96 70 155 166 162v96c0 20 16 23 50 23v-119c95 -10 140 -62 140 -78c0 -15 -12 -36 -20 -46c-31 45 -78 71 -143 71
c-79 0 -136 -38 -136 -111c0 -64 43 -85 104 -85c28 0 60 4 66 5l-8 -54c-121 -4 -175 -63 -175 -132c0 -58 41 -106 131 -106c87 0 135 44 159 79c9 -9 23 -29 23 -44z" />
    <glyph glyph-name="ampersand.ss04" horiz-adv-x="661" 
d="M323 446c48 4 125 16 125 16v100c0 42 15 49 56 49v-142c63 7 114 17 114 17c0 -39 -4 -51 -24 -54c0 0 -51 -8 -90 -12v-270c0 -88 10 -111 48 -111c46 0 70 11 70 11s4 -15 4 -31c0 -13 -25 -27 -87 -27c-65 0 -91 22 -91 158v264s-217 -26 -348 -26
c0 -173 50 -179 111 -179c70 0 105 47 121 75c0 0 16 -20 16 -42c0 -20 -46 -83 -143 -83c-100 0 -162 38 -162 239c0 191 48 290 183 290c53 0 117 -28 117 -147c0 -23 -8 -90 -20 -95zM291 529c0 87 -27 114 -70 114c-48 0 -114 -37 -121 -211c72 0 169 12 169 12
c19 5 22 76 22 85z" />
    <glyph glyph-name="acute" unicode="&#xb4;" horiz-adv-x="163" 
d="M22 579c-11 0 -22 31 -22 31c55 57 132 118 136 118c14 0 24 -31 27 -44c-9 -10 -88 -71 -141 -105z" />
    <glyph glyph-name="breve" unicode="&#x2d8;" horiz-adv-x="244" 
d="M31 721c12 -34 37 -88 89 -88c50 0 69 43 83 76c10 20 38 1 41 -19c-16 -51 -51 -110 -125 -110c-72 0 -119 79 -119 110c0 16 10 24 31 31z" />
    <glyph glyph-name="caron" unicode="&#x2c7;" horiz-adv-x="232" 
d="M123 580c-16 0 -115 102 -123 113c4 12 17 34 28 34c13 0 96 -94 96 -94c40 52 85 96 85 96c14 -8 23 -17 23 -27c0 -14 -95 -122 -109 -122z" />
    <glyph glyph-name="cedilla" unicode="&#xb8;" horiz-adv-x="125" 
d="M71 3l-13 -63s1 2 18 2c24 0 49 -17 49 -58c0 -54 -35 -77 -72 -77c-29 0 -53 10 -53 10s4 26 10 33c7 6 23 -9 44 -9c20 0 34 11 34 36c0 28 -15 35 -33 35c-21 0 -39 -6 -39 -6l19 97h36z" />
    <glyph glyph-name="circumflex" unicode="&#x2c6;" horiz-adv-x="241" 
d="M111 713c4 1 8 2 13 2c6 0 14 -2 20 -9c0 0 97 -98 97 -107c0 -7 -20 -19 -41 -19c0 0 -70 72 -77 85c0 0 -73 -84 -85 -84c-21 0 -33 11 -38 18z" />
    <glyph glyph-name="dieresis" unicode="&#xa8;" horiz-adv-x="220" 
d="M39 690c27 0 40 -18 40 -41s-16 -41 -40 -41c-28 0 -39 16 -39 41c0 22 14 41 39 41zM180 690c27 0 40 -18 40 -41s-16 -41 -40 -41c-28 0 -39 16 -39 41c0 22 14 41 39 41z" />
    <glyph glyph-name="dotaccent" unicode="&#x2d9;" horiz-adv-x="65" 
d="M1 669c0 29 11 46 33 46c23 0 31 -14 31 -45c-1 -30 -12 -47 -34 -47c-20 1 -31 13 -30 46z" />
    <glyph glyph-name="grave" unicode="`" horiz-adv-x="163" 
d="M141 583c-4 0 -132 96 -141 106c2 13 12 43 26 43c5 0 125 -100 137 -117c0 0 -12 -32 -22 -32z" />
    <glyph glyph-name="hungarumlaut" unicode="&#x2dd;" horiz-adv-x="296" 
d="M200 754c16 0 35 -12 36 -33l-112 -145c-3 -5 -8 -8 -15 -8c-5 0 -10 2 -16 6l-1 -2c-4 -4 -8 -5 -13 -5c-12 0 -25 11 -27 25l100 149c4 7 12 10 20 10c4 0 8 -1 12 -3c4 4 10 6 16 6z" />
    <glyph glyph-name="macron" unicode="&#xaf;" horiz-adv-x="256" 
d="M3 615c-3 10 -3 18 -3 26c1 16 8 27 23 27h228c4 -9 5 -17 5 -25c-1 -17 -9 -28 -22 -28h-231z" />
    <glyph glyph-name="ogonek" unicode="&#x2db;" horiz-adv-x="128" 
d="M90 16c8 4 15 5 19 4c9 -2 16 -11 19 -20c-39 -20 -78 -66 -78 -108c0 -29 11 -44 40 -44c11 0 19 2 30 8c5 -7 6 -14 7 -20c1 -5 0 -9 -1 -12c-3 -14 -23 -19 -49 -19c-47 0 -77 24 -77 81c0 60 49 117 90 130z" />
    <glyph glyph-name="ring" unicode="&#x2da;" horiz-adv-x="180" 
d="M0 664c0 63 36 91 94 91s86 -22 86 -90c0 -61 -34 -91 -93 -91c-54 0 -87 21 -87 90zM43 662c0 -30 15 -47 45 -47c31 0 50 14 50 50c0 37 -16 49 -44 49c-33 0 -51 -13 -51 -52z" />
    <glyph glyph-name="tilde" unicode="&#x2dc;" horiz-adv-x="285" 
d="M0 624c32 54 67 68 102 68c46 0 49 -51 91 -51c52 0 58 45 70 45c13 0 22 -32 22 -32c-9 -18 -41 -66 -99 -66c-57 0 -59 53 -94 53c-38 0 -52 -45 -63 -45c-15 0 -29 28 -29 28z" />
    <glyph glyph-name="newGlyph" horiz-adv-x="600" 
 />
    </font>
</defs>
</svg>
